<svg xmlns="http://www.w3.org/2000/svg" viewBox="0 0 390.95 390.56"><defs><style>.cls-1{fill:#c1b99a;}.cls-2{fill:#300c0d;}.cls-3{fill:#fdfdfd;}</style></defs><title>franceBouteille</title><g id="line9"><path class="cls-1" d="M230.59,368a98,98,0,0,1,0,12.27l-10.26,0,.08-12.49C223.79,367.24,227.18,367.92,230.59,368Z"/><path class="cls-1" d="M200.15,380.4c0-4.35-.61-8.72.53-13,3.36-.6,6.47.81,9.7,1.23a82.49,82.49,0,0,1,0,11.67Z"/><path class="cls-1" d="M190.31,368.67c.78,3.18-.11,6.37.06,9.56,0,.8-.59,1-1.26.89-1.12-.14-2.22-.24-3.11.71-.29.31-.94.48-1,.11-.94-3.36-6.69-4-5-8.81.34-1-.4-2.25.66-3.12,1.31-.5,2.51-1.09,1.65-2.83a2.05,2.05,0,0,1,0-2.52,1,1,0,0,1,1.37-.16c1,.52,1,1.45.85,2.36-.38,2,.44,2.73,2.35,2.88A18.68,18.68,0,0,1,190.31,368.67Z"/><path class="cls-2" d="M120,367.35a11.68,11.68,0,0,1,2.08-6.64c1.95-2.58,1.29-5.81,1.3-8.75,0-1.68.3-2.57,1.92-2.7,2-.16,1.81,1.18,1.86,2.63.13,3.64-.61,7.36,2.35,10.59,1.4,1.54,1.37,4.11.23,6.25A21.74,21.74,0,0,0,120,367.35Zm4.31-3.89a1.25,1.25,0,0,0-1.34-1,1.21,1.21,0,0,0-1.18,1.44c.06.86.47,1.66,1.48,1.49C124,365.25,124.32,364.52,124.3,363.46Z"/><path class="cls-2" d="M210.38,368.62c-3.23-.42-6.34-1.83-9.7-1.23a11,11,0,0,1,1.91-7.33c1.5-2.1,1-5.24,1-7.94a5.52,5.52,0,0,1,.13-2.34c1.14,2.2-.1,4.74,1.36,7v-7.49c1.5-.17,2.3.36,2.24,2-.06,1.82.07,3.64,0,5.46a5.85,5.85,0,0,0,1.66,4.67C211,363.43,210.36,366.12,210.38,368.62Zm-7.33-6.21a1.32,1.32,0,0,0-1.12,1.33c0,.88.3,1.66,1.29,1.66s1.15-.72,1.2-1.46S204.13,362.59,203.05,362.41Z"/><path class="cls-2" d="M200.15,380.4l10.24-.12c0,.61,0,1.22,0,1.82.38,3.61.19,6.49-4.4,7.69-3.32.87-5.6.09-5.84-3.63C200,384.25,200.15,382.33,200.15,380.4Z"/><path class="cls-2" d="M140.23,367.89c-.42-2.83,0-5.43,2.22-7.46,1.08-1,.57-2.25.7-3.4,1.26-.43.6,1.29,1.56,1.34.58-2.89.09-5.81.3-8.69,1.3,0,2.33,0,2.13,1.93a44.55,44.55,0,0,0,.2,6.66,2.59,2.59,0,0,0,.62,2c2.31,2.12,2.67,4.88,2.49,7.8-1,.76-1.91.08-2.85-.15C145.14,367.28,142.68,366.94,140.23,367.89ZM144.4,364a1.28,1.28,0,0,0-1.17-1.47c-1-.19-1.3.39-1.35,1.15s.31,1.65,1.27,1.71S144.27,364.73,144.4,364Z"/><path class="cls-2" d="M230.59,368c-3.4-.13-6.8-.81-10.22-.18-.4-2.82,0-5.42,2.21-7.45,1.08-1,.54-2.25.68-3.4,1.16-.59.61,1.38,1.63,1.08a51.86,51.86,0,0,0,.11-8.79c1.56-.2,2.22.5,2.11,2-.09,1.3-.08,2.6-.19,3.9a6.75,6.75,0,0,0,1.82,5.74C230.7,363,230.66,365.52,230.59,368Zm-6.06-4.1a1.28,1.28,0,0,0-1.22-1.42c-1-.16-1.28.45-1.3,1.21s.34,1.65,1.32,1.66S224.43,364.68,224.53,363.95Z"/><path class="cls-1" d="M140.23,367.89c2.46-1,4.91-.61,7.37,0,.94.23,1.86.91,2.85.15q.07,3.5.14,7c0,1-.35,2.15-1.49,1.55-2.24-1.17-4.39-.32-6.55-.11-1.77.17-2.69-.15-2.5-2.2S140.18,370,140.23,367.89Z"/><path class="cls-2" d="M220.29,380.36l10.26,0q0,.76,0,1.52c0,5.1,0,5.1-5,6.63-.48.15-1.09.25-1.36.6-.77,1-1.38,2-2.93,1.21s-.89-2.12-.94-3.22C220.19,384.83,220.27,382.59,220.29,380.36Z"/><path class="cls-2" d="M160.28,367.44c-.24-2.67.08-5.18,2.26-7.07,1.1-1,.53-2.24.78-3.36,1.53.11.24,1.82,1.39,2.31.87-3.38,0-6.8.59-10.12,1.52-.16,1.89.66,1.85,2-.06,1.91,0,3.83,0,5.73,0,.89,0,2.1.5,2.61,3.48,3.43,2.76,7.73,2.73,11.9l-1,.45-.07-.1c.59-2.19.2-3.89-2.42-4.09-1.87-.14-2.73-.65-2.23-2.75.29-1.21-.18-2.8-1.71-2.57s-1.16,1.69-.76,2.91C162.71,367,162.21,367.89,160.28,367.44Z"/><path class="cls-2" d="M190.31,368.67a18.68,18.68,0,0,0-3.45-.93c-1.92-.15-2.74-.93-2.35-2.88.18-.91.17-1.84-.85-2.36a1,1,0,0,0-1.37.16,2.05,2.05,0,0,0,0,2.52c.86,1.74-.34,2.33-1.65,2.83-.58-2.68-.48-5.22,1.65-7.29,1.32-1.27,1-3,1.24-4.52.35-2.22-.76-4.58.65-6.69q0,4.85,0,9.7c1.64-3.27.49-6.73,1.31-10,1.52-.06,1.84.79,1.79,2.13-.07,2,0,4.05,0,6.08a3.53,3.53,0,0,0,.8,2.84C190.72,362.57,190.46,365.62,190.31,368.67Z"/><path class="cls-2" d="M105.33,349.18c1.25,0,1.85.52,1.79,1.84-.07,1.52.05,3.06,0,4.58-.13,2.31.14,4.41,2,6.11a3.19,3.19,0,0,1,1,3c-.21.07-.31.15-.37.12-2.24-.95-4.86-1.47-6.61-3s.6-3.93.39-6.12c-.19-2-.87-4.21.54-6.13a2.15,2.15,0,0,1,.48,2c-.76,2.52-.3,5.09-.07,7.65C105.59,355.94,104.51,352.47,105.33,349.18Z"/><path class="cls-1" d="M160.28,367.44c1.93.45,2.43-.48,1.89-2.13-.4-1.22-.9-2.67.76-2.91s2,1.37,1.71,2.57c-.5,2.1.36,2.61,2.23,2.75,2.61.19,3,1.89,2.42,4.09-1.27.16-2.32-.56-3.45-.9-3.64-1.08-4.24-.73-4.59,3A16.42,16.42,0,0,1,160.28,367.44Z"/><path class="cls-1" d="M120,367.35a21.74,21.74,0,0,1,9.74,1.38c-1,.93,1.24,2.31-.15,2.84-2,.77-4.43,1.34-6.4.23C121.62,370.92,119.3,370.06,120,367.35Z"/><path class="cls-2" d="M325.53,349.21c1.48-.17,2,.62,1.95,2a44.22,44.22,0,0,0,.12,6.33c.29,2.07-.67,2.17-2.17,1.94Z"/><path class="cls-1" d="M325.53,349.21l-.1,10.23c-4.21-1.87-1.11-5.51-1.92-8.21C323.12,349.91,323.83,348.86,325.53,349.21Z"/><path class="cls-1" d="M165.29,349.2c-.59,3.32.28,6.74-.59,10.12-1.14-.49.15-2.2-1.39-2.31a45.64,45.64,0,0,1,.06-6.49C163.44,348.93,164.2,349,165.29,349.2Z"/><path class="cls-1" d="M145,349.67c-.21,2.88.27,5.8-.3,8.69-1-.05-.29-1.77-1.56-1.34,0-2-.17-3.94-.11-5.91C143.07,350,143.11,348.44,145,349.67Z"/><path class="cls-1" d="M225,349.32a51.86,51.86,0,0,1-.11,8.79c-1,.29-.47-1.68-1.63-1.08,0-2-.14-3.94-.12-5.91C223.15,350,223.39,348.88,225,349.32Z"/><path class="cls-1" d="M243.32,354.22c0-1.29,0-2.4,0-3.51s.6-1.66,1.7-1.69c.9,0,1.8-.24,2.35.87s-.19,1.37-1,1.95S245.21,353.93,243.32,354.22Z"/><path class="cls-1" d="M185.46,349.19c-.82,3.29.33,6.75-1.31,10q0-4.85,0-9.7A.94.94,0,0,1,185.46,349.19Z"/><path class="cls-1" d="M105.33,349.18c-.82,3.29.25,6.75-.93,10-.22-2.56-.68-5.13.07-7.65a2.15,2.15,0,0,0-.48-2C104.27,348.88,104.79,349,105.33,349.18Z"/><path class="cls-1" d="M346.22,353.45c-.37.79-1,1.4-1.85,1.18-1-.27-.92-1.42-.68-2,.49-1.21-1.23-3.82,2-3.41C345.49,350.66,344.78,352.19,346.22,353.45Z"/><path class="cls-2" d="M346.22,353.45c-1.44-1.26-.73-2.79-.53-4.26C349.29,350.18,347.06,351.9,346.22,353.45Z"/><path class="cls-1" d="M205.09,349.24v7.49c-1.47-2.21-.22-4.75-1.36-7C203.92,348.93,204.51,349.1,205.09,349.24Z"/><path class="cls-1" d="M169.37,371.91l1-.45c0,.25,0,.62-.13.73C169.93,372.44,169.57,372.32,169.37,371.91Z"/><path class="cls-1" d="M124.3,363.46c0,1.06-.27,1.78-1,1.91-1,.17-1.42-.63-1.48-1.49a1.21,1.21,0,0,1,1.18-1.44A1.25,1.25,0,0,1,124.3,363.46Z"/><path class="cls-1" d="M203.05,362.41c1.07.18,1.43.73,1.38,1.52s-.36,1.47-1.2,1.46-1.34-.78-1.29-1.66A1.32,1.32,0,0,1,203.05,362.41Z"/><path class="cls-1" d="M144.4,364c-.13.73-.38,1.46-1.25,1.4s-1.33-.84-1.27-1.71.39-1.35,1.35-1.15A1.29,1.29,0,0,1,144.4,364Z"/><path class="cls-1" d="M224.53,363.95c-.11.73-.35,1.47-1.21,1.45s-1.34-.8-1.32-1.66.34-1.37,1.3-1.21A1.28,1.28,0,0,1,224.53,363.95Z"/></g><g id="line8"><path class="cls-2" d="M280.4,323.15a11,11,0,0,1,2.21-7.26c1.64-2.24,1.05-5.4,1.14-8.18,0-.95-.48-2,.62-2.63q0,3.76,0,7.51l.66,0v-7.51c1.66-.5,2.25.52,2.1,1.83-.46,4-.15,7.72,2.62,10.95a4.75,4.75,0,0,1,.8,3.19c0,7.43-.08,14.86,0,22.29,0,2.21-.88,2.83-2.92,2.76-8.33-.29-7.18,1.5-7.36-7.19,0-1,0-2,0-3.05,2,0,4,.06,6,.07s3.45-.74,3.24-3.25a54.91,54.91,0,0,1-.07-6.69c.07-1.85-.75-2.54-2.51-2.55C284.83,323.39,282.62,323.24,280.4,323.15Zm3.18-2.19c.83-.21,1-.87,1-1.61s-.38-1.38-1.27-1.32c-1,.06-1.34.79-1.19,1.67A1.44,1.44,0,0,0,283.58,321Z"/><path class="cls-2" d="M185.21,305c1.32-.2,2.12.12,2,1.71-.09,1.82,0,3.65,0,5.47a5.62,5.62,0,0,0,1.65,4.69c1.37,1.28,1.51,3,1.5,4.79,0,7.1-.13,14.19,0,21.29,0,2.33-.63,3.28-3.11,3.17-8.07-.35-6.78,1.42-7-6.84,0-1.2.14-2.41.23-3.62.81.09,1.62.19,2.43.25,6.09.48,6.45.16,6.44-5.81,0-1.53-.09-3.05-.1-4.58s-.47-1.92-2-1.75c-2.33.25-3.82-.63-2.83-3.37a1.69,1.69,0,0,0-.75-2.34,1,1,0,0,0-1.36.3,1.71,1.71,0,0,0,0,2.24c1.63,2.39.11,2.75-1.84,2.82-.26-2.8-.13-5.44,2.19-7.53,1.18-1.07.57-2.69.83-4.06.42-2.23-.73-4.59.61-6.72.24,3.15-.36,6.36.57,10.27C185.59,311.39,184.92,308.16,185.21,305Z"/><path class="cls-2" d="M100.32,323.4c-.19-2.62-.33-5.22,1.89-7.2,1-.87.43-2.08.65-3.12,1.4-.55,1.06,1.15,2.23,2.08V305c1.31-.18,2.13.1,2,1.71-.1,1.82,0,3.65,0,5.47a5.59,5.59,0,0,0,1.63,4.69c1.36,1.27,1.53,3,1.52,4.78,0,7.1-.12,14.19,0,21.29,0,2.32-.62,3.29-3.11,3.18-8.06-.35-6.77,1.45-7-6.83,0-1.11,0-2.23,0-3.35,1.52,0,3,.07,4.56,0,4.29-.07,4.6-.4,4.61-4.73C109.21,322.47,109.21,322.47,100.32,323.4Zm3.93-3.92c-.08-.73-.25-1.4-1.16-1.46a1.19,1.19,0,0,0-1.36,1.25,1.37,1.37,0,0,0,1.33,1.64C104,321,104.11,320.18,104.25,319.48Z"/><path class="cls-1" d="M240.45,335.71q0-6.18,0-12.37c1.88.23,2.42-.71,1.94-2.36-.35-1.18-1.11-2.67.66-2.95,2-.3,1.61,1.6,1.81,2.83.15.91-.46,2.3,1.07,2.41s3.19.85,4.78,0a71,71,0,0,1-.14,12.53C247.19,334.95,243.8,336.85,240.45,335.71Z"/><path class="cls-1" d="M330.83,323.34a77.21,77.21,0,0,1-.13,12.46c-3.37-.34-6.76.79-10.13-.1q0-6.18,0-12.37c2.47.21,2.38-1.22,1.74-2.86a2,2,0,0,1,.24-2.23,1.09,1.09,0,0,1,1.38-.15c.85.46.82,1.25.82,2.09C324.74,323,328.11,324.77,330.83,323.34Z"/><path class="cls-1" d="M350.65,323.41c.66,4-.13,8.07-.13,12.1-3.27,0-6.53,1.12-9.82.12-1.37-4.08.27-8.16,0-12.24,1.91,0,3.44-.38,1.88-2.76a1.76,1.76,0,0,1,.09-2.45,1.08,1.08,0,0,1,1.4-.07c1,.62.8,1.47.52,2.4-.35,1.16-.86,2.56,1.05,2.73C347.29,323.38,349,324,350.65,323.41Z"/><path class="cls-1" d="M260.57,335.63a31.09,31.09,0,0,1,0-12.23c3.32-.85,6.63.58,9.94,0,.65,4-.11,8.08-.11,12.11C267.12,335.49,263.86,336.63,260.57,335.63Z"/><path class="cls-1" d="M210.42,323.43q0,6.1,0,12.2a48.52,48.52,0,0,1-10.22.16,97.55,97.55,0,0,1,.06-12.6Z"/><path class="cls-1" d="M220.31,335.75q0-6.22,0-12.45c3.44-.58,6.85.58,10.29.1a96.63,96.63,0,0,1,0,12.27C227.13,335.65,223.73,336.43,220.31,335.75Z"/><path class="cls-1" d="M310.72,323.43a101,101,0,0,1,0,12.22c-3.41.1-6.82.77-10.24.11V323.28C303.87,322.57,307.27,324.58,310.72,323.43Z"/><path class="cls-1" d="M160.34,335.71q0-6.18,0-12.36c3.36-.71,6.72.58,10.08,0a45.92,45.92,0,0,1-.06,12.24C167,335.23,163.68,336.73,160.34,335.71Z"/><path class="cls-1" d="M140.19,335.74c-.09-4-.41-8,.21-12,1.35.59,2.41-1.24,3.71-.53,2.11,1.16,4.23.38,6.35.2a111.24,111.24,0,0,1,0,12.89Z"/><path class="cls-1" d="M120,335.77l0-12.54,10.22.2a81.62,81.62,0,0,1-.07,11.67C126.89,336.17,123.46,336,120,335.77Z"/><path class="cls-1" d="M180.45,323.4c1.95-.07,3.47-.43,1.84-2.82a1.71,1.71,0,0,1,0-2.24,1,1,0,0,1,1.36-.3,1.69,1.69,0,0,1,.75,2.34c-1,2.74.5,3.62,2.83,3.37,1.57-.17,2,.34,2,1.75s.1,3.05.1,4.58c0,6-.35,6.29-6.44,5.81-.81-.06-1.62-.17-2.43-.25A30.38,30.38,0,0,1,180.45,323.4Z"/><path class="cls-1" d="M280.4,323.15c2.21.09,4.42.23,6.63.26,1.76,0,2.58.71,2.51,2.55a54.91,54.91,0,0,0,.07,6.69c.21,2.51-1.09,3.25-3.24,3.25s-4,0-6-.07A88.56,88.56,0,0,1,280.4,323.15Z"/><path class="cls-1" d="M370,331c-.47.63-.54,1.66-1.39,1.87-3.17.79-5.49,2.79-7.75,5.25a50.67,50.67,0,0,1-.16-14.7l1.5-.16c7.07-.78,7.72-.2,7.76,6.83C370,330.39,370,330.69,370,331Z"/><path class="cls-1" d="M100.32,323.4c8.89-.94,8.89-.94,8.88,7.84,0,4.32-.32,4.66-4.61,4.73-1.52,0-3,0-4.56,0C99.77,331.74,99.38,327.56,100.32,323.4Z"/><path class="cls-2" d="M210.42,323.43l-10.18-.24a11.18,11.18,0,0,1,2.23-7.29c1.64-2.27,1-5.42,1.13-8.2,0-1-.44-2,.66-2.62v7.51l.65,0v-7.52c1.66-.5,2.26.53,2.11,1.82-.46,4-.15,7.67,2.57,10.94C210.91,319.41,210.36,321.52,210.42,323.43Z"/><path class="cls-2" d="M120,335.77c3.43.24,6.85.41,10.19-.67,0,2.83,0,5.65.06,8.48,0,1.79-.71,2.53-2.54,2.49-8.91-.22-7.6,1.4-7.77-7.27C120,337.78,120,336.78,120,335.77Z"/><path class="cls-2" d="M130.3,323.43l-10.22-.2a11,11,0,0,1,2.24-7.32c1.64-2.3,1.15-5.45,1.07-8.23-.05-1.73,0-2.79,2-2.69,2.19.11,1.27,1.51,1.27,2.74,0,3.37,0,6.78,2.44,9.58C130.68,319.07,130.28,321.31,130.3,323.43ZM123,317.92a1.3,1.3,0,0,0-1.15,1.31c-.06.88.31,1.62,1.29,1.62s1.17-.67,1.2-1.42S124,318.09,123,317.92Z"/><path class="cls-2" d="M310.72,323.43c-3.44,1.15-6.84-.86-10.28-.14a10.17,10.17,0,0,1,2.3-7.52c1.64-2,.7-5.1.86-7.7a3.34,3.34,0,0,1,1-2.67,2.17,2.17,0,0,1,2-.36c1.12.26.49,1.12.48,1.75,0,3.91-.58,7.85,2.68,11.09C311.13,319.26,310.75,321.5,310.72,323.43ZM303,318c-.6-.09-.9.45-.92,1.27a1.45,1.45,0,0,0,1.07,1.61c.83.19,1.31-.39,1.43-1.16C304.77,318.73,304.39,318.12,303,318Z"/><path class="cls-2" d="M240.45,335.71c3.35,1.14,6.74-.76,10.09.13,0,2.54,0,5.07,0,7.61,0,1.81-.73,2.7-2.77,2.64-9-.26-7.12,1.27-7.36-7C240.33,337.94,240.42,336.83,240.45,335.71Z"/><path class="cls-2" d="M220.31,335.75c3.42.68,6.82-.1,10.23-.07,0,2.53,0,5.05,0,7.58,0,2-.79,2.89-2.92,2.83-8.8-.25-7.22,1.29-7.4-7.31C220.22,337.77,220.29,336.76,220.31,335.75Z"/><path class="cls-2" d="M200.18,335.79a48.52,48.52,0,0,0,10.22-.16c0,2.43,0,4.85,0,7.28,0,.61.2,1.41-.11,1.78-2.28,2.75-5.41.81-8.12,1.3-1.68.3-2-1-2-2.32C200.16,341,200.18,338.42,200.18,335.79Z"/><path class="cls-2" d="M320.57,335.71c3.37.88,6.76-.24,10.13.1,0,2.54,0,5.08,0,7.62,0,1.76-.7,2.72-2.77,2.66-8.95-.26-7.18,1.26-7.4-7C320.45,337.95,320.54,336.83,320.57,335.71Z"/><path class="cls-2" d="M300.44,335.76c3.42.66,6.83,0,10.24-.11,0,2.63,0,5.26,0,7.89,0,1.66-.7,2.58-2.57,2.53-9.21-.22-7.54,1.33-7.73-7.28C300.35,337.78,300.42,336.77,300.44,335.76Z"/><path class="cls-2" d="M140.19,335.74l10.25.53c0,2.43,0,4.85,0,7.28,0,1.65-.71,2.56-2.59,2.52-9.36-.21-7.47,1.27-7.68-7.3C140.09,337.76,140.16,336.75,140.19,335.74Z"/><path class="cls-2" d="M340.7,335.64c3.29,1,6.54-.13,9.82-.12,0,2.75,0,5.5,0,8.24,0,1.69-.66,2.35-2.36,2.31-9.26-.22-7.4,1.37-7.66-7.09C340.49,337.86,340.64,336.75,340.7,335.64Z"/><path class="cls-2" d="M160.34,335.71c3.34,1,6.67-.48,10-.09,0,2.53,0,5.06,0,7.58,0,1.92-.59,2.87-2.8,2.9-7.3.1-7.3.19-7.29-7.06C160.24,337.93,160.3,336.82,160.34,335.71Z"/><path class="cls-2" d="M150.45,323.38c-2.12.18-4.24,1-6.35-.2-1.3-.71-2.35,1.12-3.71.53-.71-2.8-.32-5.37,1.82-7.41,1.23-1.17.83-2.55.95-3.9,1.68.08.34,1.87,1.77,2.76V305c1.59-.38,2.25.24,2.12,1.86s-.1,3.22-.25,4.81a5.08,5.08,0,0,0,1.25,4.17C150.15,318,150.64,320.57,150.45,323.38Zm-7.33-2.48a1.48,1.48,0,0,0-.19-2.94c-.71,0-1,.58-1.06,1.22A1.5,1.5,0,0,0,143.12,320.9Z"/><path class="cls-2" d="M170.4,323.38c-3.36.55-6.72-.75-10.08,0-.31-2.87,0-5.55,2.37-7.59.9-.77.43-1.87.61-2.81,1.33-.22.36,1.62,1.51,1.74.58-3.29.13-6.49.27-9.68,1.33-.25,2.12.08,2.07,1.66-.07,2,0,4.05,0,6.07a4.61,4.61,0,0,0,1.08,3.39C170.31,318.16,170.72,320.66,170.4,323.38Z"/><path class="cls-2" d="M230.58,323.41c-3.43.48-6.85-.68-10.29-.1-.24-2.7,0-5.24,2.22-7.2,1.17-1,.61-2.45.76-3.7,1.64.06.44,1.83,1.78,3V305c1.2-.17,2.21-.31,2,1.56-.22,1.68,0,3.42-.12,5.12a5.23,5.23,0,0,0,1.3,4.17C230.29,318,230.79,320.59,230.58,323.41Zm-6-4.08a1.31,1.31,0,0,0-1.3-1.37c-.9,0-1.25.6-1.25,1.35s.43,1.62,1.42,1.55C224.22,320.79,224.5,320.09,224.54,319.32Z"/><path class="cls-2" d="M330.83,323.34c-2.72,1.43-6.09-.31-6.09-3.16,0-.84,0-1.62-.82-2.09a1.09,1.09,0,0,0-1.38.15,2,2,0,0,0-.24,2.23c.64,1.64.73,3.06-1.74,2.86-.31-2.83,0-5.45,2.33-7.48,1.09-1,.42-2.3.7-3.44,1.45.16.3,1.79,1.5,2.39.53-3.34.16-6.57.25-9.79,1.33-.3,2.25.06,2.14,1.6-.29,4.27-.35,8.39,2.68,12C331.11,319.76,331,321.71,330.83,323.34Z"/><path class="cls-2" d="M270.51,323.41c-3.32.57-6.63-.86-9.94,0-.28-2.85-.1-5.56,2.29-7.62.87-.75.63-1.82.71-2.79,1.25-.17.41,1.52,1.41,1.83.67-3.42.12-6.64.36-9.83,1.32-.21,2.11.11,2,1.69-.08,2,0,4,0,6.07,0,1.14,0,2.4.84,3.14C270.59,318,270.61,320.65,270.51,323.41Zm-5.82-4c-.16-.86-.55-1.54-1.54-1.51s-1.19.78-1.17,1.48a1.37,1.37,0,0,0,1.49,1.51C264.33,320.89,264.59,320.2,264.7,319.46Z"/><path class="cls-2" d="M250.68,323.31c-1.59.82-3.2.08-4.78,0s-.93-1.5-1.07-2.41c-.2-1.23.15-3.13-1.81-2.83-1.77.27-1,1.77-.66,2.95.49,1.64-.06,2.58-1.94,2.36-.32-2.85,0-5.49,2.34-7.51.92-.81.48-1.9.66-2.87,1.35-.24.35,1.64,1.52,1.72.56-3.28.15-6.48.26-9.67,1.32-.27,2.2,0,2.11,1.61-.25,4.25-.4,8.38,2.71,12C251,319.71,250.8,321.68,250.68,323.31Z"/><path class="cls-2" d="M350.65,323.41c-1.69.59-3.36,0-5-.17-1.92-.16-1.4-1.57-1.05-2.73.28-.93.45-1.78-.52-2.4a1.08,1.08,0,0,0-1.4.07,1.76,1.76,0,0,0-.09,2.45c1.56,2.38,0,2.71-1.88,2.76-.34-2.92,0-5.65,2.39-7.69,1.05-.88.05-2.46,1.22-3.26.48.62-.29,1.71.79,2.29.71-3.34.13-6.56.37-9.74,1.33-.22,2.11.12,2.05,1.69-.07,2,0,4,0,6.06,0,1.13,0,2.41.85,3.14C350.73,318,350.74,320.65,350.65,323.41Z"/><path class="cls-2" d="M370,331c0-.3,0-.6,0-.91,0-7-.69-7.61-7.76-6.83l-1.5.16a9.71,9.71,0,0,1,2.11-7.59c1.71-2.27,3.21-1.83,4.76-.63,1.85,1.43,3.36,3.3,3.06,5.94C370.29,324.41,371.13,327.76,370,331Zm-5.34-11.72c-.11-.85-.52-1.39-1.37-1.3a1.22,1.22,0,0,0-1.07,1.53,1.19,1.19,0,0,0,1.23,1.09C364.39,320.6,364.67,320,364.69,319.27Z"/><path class="cls-2" d="M260.57,335.63c3.29,1,6.55-.14,9.83-.11,0,2.19,0,4.39,0,7.08-1.72-1.53-2.21-4.23-4.58-3.83-1.78.3-3.87.39-5.25,2.31Z"/><path class="cls-1" d="M225.06,305v10.33c-1.34-1.13-.14-2.91-1.78-3-.05-1.87-.13-3.74-.15-5.61C223.12,305.52,223.5,304.62,225.06,305Z"/><path class="cls-1" d="M144.94,305v10.13c-1.43-.89-.09-2.68-1.77-2.76-.05-1.87-.12-3.75-.15-5.62C143,305.5,143.38,304.61,144.94,305Z"/><path class="cls-1" d="M105.09,305v10.17c-1.17-.92-.83-2.62-2.23-2.08-.56-2.26,1.78-4.35.34-6.76A1.31,1.31,0,0,1,105.09,305Z"/><path class="cls-1" d="M325.33,305c-.09,3.21.28,6.45-.25,9.79-1.2-.59,0-2.23-1.5-2.39,0-1.89-.08-3.78-.15-5.67C323.38,305.39,323.79,304.59,325.33,305Z"/><path class="cls-1" d="M245.21,305c-.1,3.19.31,6.39-.26,9.67-1.17-.08-.17-2-1.52-1.72,0-2.18.19-4.38,0-6.55C243.33,304.79,244,304.76,245.21,305Z"/><path class="cls-1" d="M165.08,305c-.14,3.18.31,6.39-.27,9.68-1.14-.12-.17-2-1.51-1.74,0-2.28,0-4.56,0-6.84C163.26,304.6,164.17,304.85,165.08,305Z"/><path class="cls-1" d="M345.46,305c-.24,3.18.35,6.4-.37,9.74-1.09-.58-.31-1.67-.79-2.29-.89-2-.57-4.12-.56-6.23C343.76,304.71,344.48,304.83,345.46,305Z"/><path class="cls-1" d="M265.34,305c-.24,3.19.32,6.41-.36,9.83-1-.31-.16-2-1.41-1.83.3-2.14.8-4.25.21-6.46C263.52,305.56,263.79,304.45,265.34,305Z"/><path class="cls-1" d="M185.21,305c-.3,3.18.38,6.4-.56,10.37-.92-3.91-.33-7.12-.57-10.27Z"/><path class="cls-1" d="M204.92,305.06v7.52l-.65,0v-7.51Z"/><path class="cls-1" d="M285,305.06v7.51l-.66,0q0-3.76,0-7.51Z"/><path class="cls-1" d="M283.58,321a1.44,1.44,0,0,1-1.48-1.26c-.14-.89.14-1.61,1.19-1.67.89-.05,1.24.54,1.27,1.32S284.41,320.75,283.58,321Z"/><path class="cls-1" d="M104.25,319.48c-.14.7-.26,1.48-1.19,1.43a1.37,1.37,0,0,1-1.33-1.64,1.19,1.19,0,0,1,1.36-1.25C104,318.08,104.18,318.75,104.25,319.48Z"/><path class="cls-1" d="M123,317.92c1,.17,1.37.74,1.34,1.5s-.37,1.43-1.2,1.42-1.35-.74-1.29-1.62A1.3,1.3,0,0,1,123,317.92Z"/><path class="cls-1" d="M303,318c1.36.16,1.74.77,1.58,1.71-.13.78-.6,1.35-1.43,1.16a1.45,1.45,0,0,1-1.07-1.61C302.14,318.41,302.44,317.87,303,318Z"/><path class="cls-1" d="M143.12,320.9a1.5,1.5,0,0,1-1.25-1.72c0-.64.35-1.21,1.06-1.22a1.48,1.48,0,0,1,.19,2.94Z"/><path class="cls-1" d="M224.54,319.33c0,.76-.32,1.46-1.13,1.52-1,.07-1.42-.67-1.42-1.55s.35-1.39,1.25-1.35A1.31,1.31,0,0,1,224.54,319.33Z"/><path class="cls-1" d="M264.7,319.46c-.11.74-.36,1.43-1.21,1.48a1.37,1.37,0,0,1-1.49-1.51c0-.7.28-1.44,1.17-1.48S264.54,318.59,264.7,319.46Z"/><path class="cls-1" d="M364.69,319.27c0,.75-.3,1.33-1.21,1.31a1.19,1.19,0,0,1-1.23-1.09,1.22,1.22,0,0,1,1.07-1.53C364.18,317.88,364.58,318.42,364.69,319.27Z"/></g><g id="line7"><path class="cls-2" d="M280.31,279.16c-.18-1.58-.84-3.48.25-4.65,3.36-3.64,3.37-7.91,3-12.37,0-.52.44-1.07.68-1.61.29,2.53-.3,5.12.82,7.63v-7.69c1.87-.25,2.48.42,2.1,2.37-.7,3.54-.32,6.94,2.07,9.87a5.89,5.89,0,0,1,1.29,3.94c0,7.31-.12,14.63,0,21.94,0,2.3-.89,3-2.94,3.22-6.77.66-7.34.19-7.36-6.41q0-1.83,0-3.66c.7,0,1.4-.15,2.11-.14,7.21.16,7.21.17,7.19-6.92,0-5.47-1.47-6.76-6.9-6.07A23.16,23.16,0,0,0,280.31,279.16Zm2.89-5.7A1.38,1.38,0,0,0,282,275c0,.83.31,1.39,1.22,1.4,1.09,0,1.39-.7,1.31-1.62A1.31,1.31,0,0,0,283.2,273.46Z"/><path class="cls-2" d="M205,260.47c1.87-.23,2.45.45,2.1,2.39-.65,3.52-.34,6.94,2.07,9.87a5.9,5.9,0,0,1,1.29,4c0,7.32-.12,14.63,0,21.95,0,2.32-1,3-3,3.2-6.79.64-7.33.19-7.35-6.45,0-1.22,0-2.44,0-3.66,1.31,0,2.62,0,3.93-.06,5.37,0,5.39,0,5.39-5.41,0-6.68,0-6.71-6.48-7.68-1.08-.16-1.78-.52-1.68-1.63.13-1.44,1-.68,1.78-.55a1.08,1.08,0,0,0,1.32-.93,1.41,1.41,0,0,0-.72-1.8,11.64,11.64,0,0,0-2.37-.4c2.77-2.84,2.05-6.53,2.28-9.95.07-1-.21-2,.58-2.78.27,2.53-.33,5.12.45,8.16C205.41,265.62,204.79,263,205,260.47Z"/><path class="cls-2" d="M320.54,278.72c-.26-2.74.08-5.29,2.33-7.22,1-.89.47-2.1.7-3.15,1.4.27,1.91-.27,1.84-1.71-.1-2.06,0-4.14,0-6.21,1.71-.31,2.07.64,2.05,2.09,0,2,0,4.05.1,6.08,0,.89.06,2.08.6,2.59,3,2.82,2.63,6.34,2.56,9.91-.12,5.58-.15,11.16,0,16.74.07,2.78-.85,4-3.76,4-6.47.06-6.47.17-6.48-6.3,0-1.32,0-2.64,0-4,1.92,0,3.84-.06,5.75,0s3.8-.4,3.43-2.68c-.54-3.32,2.15-7.37-2-9.91a2.4,2.4,0,0,0-1.19-.15c-1.66,0-2.05-.9-1.85-2.36.14-1,.47-2-.6-2.76a1,1,0,0,0-1.38,0c-.87.87-.48,1.79-.17,2.8C323,278.16,322.46,279.11,320.54,278.72Zm4.17-9.14a3.56,3.56,0,0,0-.3.71c0,.06.25.18.38.27a4.17,4.17,0,0,0,.37-.65S324.92,269.73,324.71,269.58Z"/><path class="cls-2" d="M145,260.45c1.12-.14,2-.08,1.94,1.47s0,3.25-.12,4.86a6.58,6.58,0,0,0,1.67,5.28,7.34,7.34,0,0,1,1.94,5.27c0,6.92-.11,13.83,0,20.75,0,2.54-.85,3.65-3.44,3.77-6.84.32-6.89.34-6.89-6.55,0-1.22,0-2.44,0-3.66,10-.26,10-.26,9.28-9.43a8.33,8.33,0,0,0-.23-1.5c-.24-.87-.94-1.61-1.72-1.45-2.82.56-3-1-2.88-3.11.1-1.27-.11-2.79-1.72-2.59-1.43.18-1.2,1.53-.82,2.7.53,1.64.38,2.91-1.9,2.45a8.18,8.18,0,0,1,2.35-7.19c1.25-1.22.45-2.88.68-4.33,1.67.55.58,2.33,1.83,3.24Z"/><path class="cls-2" d="M180.4,278.84c-.29-2.8.07-5.33,2.24-7.47,1.42-1.4.7-3.44.84-5.19s.06-3.42.07-5.12c1,.74.51,1.82.55,2.75a31.66,31.66,0,0,0,.54,7.31c1-4,.18-7.39.7-10.71,1.5-.19,2,.57,1.92,2-.05,2,0,4.07,0,6.11a4.16,4.16,0,0,0,1.12,3.36,6.83,6.83,0,0,1,2,5.84c-.45,7-.11,14,0,21.06,0,2.08-.73,2.85-2.7,3.08-6.75.76-7.42.22-7.43-6.57,0-1.22,0-2.44.07-3.66,1.92,0,3.85-.06,5.77,0,2.33.11,3.36-.91,3.29-3.23-.07-2.13-.07-4.26,0-6.39,0-1.85-.83-2.94-2.62-3s-2.52-.88-2.21-2.69c.21-1.25.2-2.86-1.46-2.69s-1.29,1.74-.9,2.92C182.68,278.14,182.33,279.06,180.4,278.84Z"/><path class="cls-2" d="M305.26,260.45c1.3-.17,2.12,0,2,1.72-.39,4-.76,8.06,2.62,11.34.84.82.92,2.38.9,3.76-.06,6.92-.14,13.84,0,20.76.06,2.82-1.1,3.74-3.72,3.81-6.65.18-6.65.23-6.66-6.52,0-1.22,0-2.44,0-3.66,9.91-.4,9.91-.4,9.29-9.37,0-.3,0-.61-.08-.91-.2-1.34-.79-2.41-2.33-2.2-2.3.3-2.45-1.07-2.43-2.75,0-1.3.19-3.1-1.7-2.86-1.57.2-1.2,1.72-.8,3,.53,1.67,0,2.6-1.92,2.12-.19-2.61.13-5.08,2.22-6.93,1.12-1,.6-2.24.73-3.39,1.73-.24.47,1.58,1.88,2.27Z"/><path class="cls-2" d="M260.5,278.77c-.24-2.77,0-5.39,2.3-7.35,1-.85.55-2,.87-3.05,1.29.25.16,1.7,1.19,2.23,1-3.38,0-6.84.59-10.18,1.5-.21,2,.56,1.93,1.94,0,2,0,4.07,0,6.11a4.22,4.22,0,0,0,1.13,3.36,6.83,6.83,0,0,1,2,5.84c-.45,7-.12,14,0,21.07,0,2.07-.69,2.85-2.68,3.07-6.74.75-7.42.21-7.42-6.56,0-1.22,0-2.44.06-3.66,10.54,0,8.94,1.69,9-9.59,0-.2-.05-.4-.07-.61A2.31,2.31,0,0,0,267.1,279c-1.91-.07-2.71-.64-2.23-2.73.27-1.18-.14-2.78-1.69-2.69s-1.23,1.5-1,2.65S262.77,279,260.5,278.77Z"/><path class="cls-2" d="M103.54,278.61c.86-6,1.2-12.09,2.85-18,1.11,2.4.6,4.91.69,7.34a5.78,5.78,0,0,0,1.6,4.41c1.45,1.37,1.58,3.22,1.57,5.09,0,6.93-.21,13.86,0,20.78.08,2.79-1.07,3.52-3.49,3.61-4.85.16-5.81-1.2-3.73-5.75.86-1.87,1.5-4.09,4-4.58,1.78,0,2.1-1.27,2.15-2.66s0-2.82,0-4.23C109.2,279.08,109.2,279.08,103.54,278.61Z"/><path class="cls-1" d="M170.47,279.79a48.69,48.69,0,0,1-.12,11.8H160.28q0-6.43,0-12.86c1.91.33,2.47-.54,1.87-2.23-.44-1.23-.88-2.74.75-2.94s1.76,1.5,1.82,2.86c0,.82-.47,2.19.83,2.22C167.32,278.71,168.74,279.89,170.47,279.79Z"/><path class="cls-1" d="M220.26,291.65q0-6.48,0-13c2,.47,2.44-.53,2-2.16-.35-1.23-.87-2.78.77-3,1.8-.19,1.66,1.6,1.7,2.94,0,.83-.42,2.18.92,2.17,1.79,0,3.17,1.23,4.89,1.25a82.57,82.57,0,0,1,0,11.7Z"/><path class="cls-1" d="M240.4,291.6q0-6.44,0-12.87c1.77.16,3.26,0,2-2.34a2.1,2.1,0,0,1,0-2.51,1,1,0,0,1,1.33-.27c1,.5,1,1.39.9,2.34s-.66,2.39.61,2.6c1.78.28,3.64,1.42,5.48.13a82,82,0,0,1-.14,13.11C247.18,291,243.78,292,240.4,291.6Z"/><path class="cls-1" d="M130.26,279.94a85.31,85.31,0,0,1,0,11.66l-10.3.08.08-13.08c2.14.64,2.75-.27,2.27-2.26,1-.59.39-1.09-.09-1.59l.07.07-.6-.81c1.56-1,2.89-.43,2.69,1.23-.37,3.08,1.06,3.88,3.67,3.86C128.88,279.1,129.34,280.15,130.26,279.94Z"/><path class="cls-1" d="M348.86,278.76c2.69,4,1.83,8.38,1.67,12.71-3.3-.2-6.61.57-9.91-.1l0-12.55c2.44.15,2.4-1.11,1.67-2.85-.43-1-.37-2.21.86-2.44s1.83.87,1.61,2C344.08,279.26,346.34,279.13,348.86,278.76Z"/><path class="cls-1" d="M260.5,278.77c2.27.24,1.84-1.29,1.63-2.58s-.45-2.57,1-2.65,2,1.51,1.69,2.69c-.48,2.09.32,2.66,2.23,2.73a2.31,2.31,0,0,1,2.26,2.42c0,.2.07.4.07.61-.06,11.28,1.54,9.55-9,9.59A42,42,0,0,1,260.5,278.77Z"/><path class="cls-1" d="M300.42,278.66c1.95.48,2.45-.45,1.92-2.12-.4-1.25-.76-2.77.8-3,1.88-.25,1.71,1.56,1.7,2.86,0,1.68.13,3.06,2.43,2.75,1.54-.2,2.13.86,2.33,2.2,0,.3.06.6.08.91.62,9,.62,9-9.29,9.37Q300.4,285.16,300.42,278.66Z"/><path class="cls-1" d="M201.3,273.25a11.64,11.64,0,0,1,2.37.4,1.41,1.41,0,0,1,.72,1.8,1.08,1.08,0,0,1-1.32.93c-.73-.13-1.64-.89-1.78.55-.1,1.12.6,1.47,1.68,1.63,6.49,1,6.49,1,6.48,7.68,0,5.36,0,5.37-5.39,5.41-1.31,0-2.62,0-3.93.06-.07-5-.14-10-.2-14.93A4,4,0,0,1,201.3,273.25Z"/><path class="cls-1" d="M180.4,278.84c1.93.22,2.28-.69,1.74-2.35-.39-1.18-.78-2.76.9-2.92s1.67,1.45,1.46,2.69c-.31,1.81.37,2.58,2.21,2.69s2.66,1.19,2.62,3c0,2.13,0,4.26,0,6.39.08,2.32-1,3.34-3.29,3.23-1.92-.09-3.85,0-5.77,0A41.2,41.2,0,0,1,180.4,278.84Z"/><path class="cls-1" d="M140.15,278.7c2.27.46,2.43-.81,1.9-2.45-.38-1.17-.61-2.51.82-2.7,1.61-.2,1.82,1.31,1.72,2.59-.17,2.12.06,3.68,2.88,3.11.78-.15,1.48.59,1.72,1.45a8.33,8.33,0,0,1,.23,1.5c.76,9.17.76,9.17-9.28,9.43Q140.14,285.17,140.15,278.7Z"/><path class="cls-1" d="M320.54,278.72c1.92.39,2.44-.57,1.94-2.2-.31-1-.7-1.93.17-2.8a1,1,0,0,1,1.38,0c1.07.73.74,1.78.6,2.76-.21,1.46.19,2.37,1.85,2.36a2.4,2.4,0,0,1,1.19.15c4.17,2.55,1.48,6.59,2,9.91.37,2.28-1.48,2.74-3.43,2.68s-3.83,0-5.75,0Q320.53,285.16,320.54,278.72Z"/><path class="cls-1" d="M280.31,279.16a23.16,23.16,0,0,1,2.36-.55c5.43-.69,6.88.6,6.9,6.07,0,7.09,0,7.09-7.19,6.92-.7,0-1.4.09-2.11.14Q280.3,285.45,280.31,279.16Z"/><path class="cls-2" d="M120,291.68l10.3-.08c0,2.54,0,5.09,0,7.63,0,1.45-.48,2.35-2.06,2.4a2.21,2.21,0,0,0-.3.07c-6.77,1.17-8,.19-8-6.66C120,293.92,120,292.8,120,291.68Z"/><path class="cls-2" d="M220.26,291.65l10.3,0c0,2.44,0,4.89,0,7.33,0,1.69-.71,2.68-2.47,2.76-.1,0-.2,0-.3,0-6.73.88-7.54.18-7.54-6.45C220.24,294.09,220.25,292.87,220.26,291.65Z"/><path class="cls-2" d="M340.62,291.37c3.3.67,6.61-.1,9.91.1,0,2.64-.06,5.28,0,7.92.06,1.55-.58,2.23-2.06,2.27a2.57,2.57,0,0,0-.3.06C340.59,302.87,338,299.3,340.62,291.37Z"/><path class="cls-2" d="M240.4,291.6c3.38.35,6.79-.55,10.16.19,0,2.43,0,4.87,0,7.3,0,1.62-.75,2.44-2.5,2.68-6.71.91-7.64.17-7.65-6.51C240.36,294,240.38,292.82,240.4,291.6Z"/><path class="cls-2" d="M160.28,291.6h10.07c0,2.32-.12,4.66,0,7s-1.05,3.12-3.18,3.27c-6.84.48-6.94.43-6.95-6.29C160.24,294.23,160.27,292.91,160.28,291.6Z"/><path class="cls-2" d="M130.26,279.94c-.92.22-1.38-.84-2.2-.83-2.62,0-4-.78-3.67-3.86.2-1.66-1.13-2.23-2.69-1.23-.16-.24-.51-.63-.46-.7,2.68-3.38,2.18-7.31,2-11.2,0-.51.51-1.05.79-1.58.26,2.49-.38,5,.81,7.5v-7.56c1.85-.22,2.44.47,2.11,2.38-.63,3.61-.3,7.09,2.17,10.08C130.88,275,130.16,277.56,130.26,279.94Z"/><path class="cls-2" d="M250.69,278.67c-1.84,1.29-3.71.15-5.48-.13-1.28-.2-.67-1.67-.61-2.6s.08-1.84-.9-2.34a1,1,0,0,0-1.33.27,2.1,2.1,0,0,0,0,2.51c1.29,2.37-.21,2.5-2,2.34-.28-2.78.1-5.34,2.36-7.3,1-.86.43-2.06.66-3.09,1.56,0,.21,1.81,1.85,2.34V260.43c1.45-.27,2,.38,2,1.8,0,1.92,0,3.85,0,5.77a5.88,5.88,0,0,0,1.62,4.41C250.65,274.13,250.67,276.43,250.69,278.67Z"/><path class="cls-2" d="M230.55,279.92c-1.72,0-3.1-1.25-4.89-1.25-1.34,0-.89-1.34-.92-2.17,0-1.34.1-3.12-1.7-2.94-1.64.17-1.12,1.72-.77,3,.46,1.63,0,2.64-2,2.16-.22-2.61.14-5,2.18-6.93,1.41-1.31.59-3,.84-4.57,1.69.54.59,2.33,1.84,3.25v-10c1.09-.12,2.07-.14,2,1.43s-.07,3.23-.19,4.83,0,3.41,1.12,4.53C230.52,273.75,230.77,276.73,230.55,279.92Z"/><path class="cls-2" d="M170.47,279.79c-1.73.09-3.15-1.09-4.9-1.13-1.3,0-.8-1.4-.83-2.22-.05-1.37-.07-3.08-1.82-2.86s-1.19,1.71-.75,2.94c.6,1.69,0,2.56-1.87,2.23-.3-2.78.08-5.35,2.34-7.31,1-.86.44-2.06.68-3.1,1.53,0,.22,1.8,1.4,2.21.82-3.39.08-6.78.46-10.11,1.44-.26,2,.36,2,1.8,0,1.91,0,3.83,0,5.75a6,6,0,0,0,1.61,4.39C170.78,274.45,170.53,277.17,170.47,279.79Z"/><path class="cls-1" d="M103.54,278.61c5.66.47,5.66.47,5.67,6,0,1.41,0,2.82,0,4.23s-.37,2.63-2.15,2.66a2.34,2.34,0,0,0-1.47-2.94c-2-.14-1.48,2.42-2.93,3.7C102.95,287.48,103.69,283.07,103.54,278.61Z"/><path class="cls-2" d="M348.86,278.76c-2.51.37-4.78.5-4.06-3.26.21-1.1-.36-2.2-1.61-2s-1.29,1.4-.86,2.44c.72,1.74.76,3-1.67,2.85-.32-2.84,0-5.53,2.37-7.45,1.09-.89,0-2.5,1.32-3.16.56.63-.4,1.7.71,2.29.88-3.38,0-6.78.53-10.1,1.5-.22,2,.54,1.93,1.92a34.93,34.93,0,0,0,.34,8.21c0,.1.1.26.06.29C344.06,274,348.46,276.13,348.86,278.76Z"/><path class="cls-1" d="M245.3,260.43v10.25c-1.64-.52-.3-2.32-1.85-2.34q-.07-3-.13-6.09C243.28,260.89,243.74,260.06,245.3,260.43Z"/><path class="cls-1" d="M305.26,260.45V270.6c-1.42-.69-.15-2.5-1.88-2.27,0-2-.13-4-.11-6C303.28,261.1,303.71,260.15,305.26,260.45Z"/><path class="cls-1" d="M165.17,260.43c-.38,3.33.36,6.72-.46,10.11-1.18-.41.13-2.17-1.4-2.21,0-2.16.17-4.33.06-6.48C163.29,260.31,164,260.19,165.17,260.43Z"/><path class="cls-1" d="M345.57,260.42c-.51,3.32.36,6.72-.53,10.1-1.11-.59-.15-1.66-.71-2.29-1.27-2.25-.56-4.67-.58-7C343.75,260,344.82,260.35,345.57,260.42Z"/><path class="cls-1" d="M225.14,260.45v10c-1.25-.92-.14-2.71-1.84-3.25,0-1.61-.13-3.21-.12-4.82C223.19,261.13,223.55,260.13,225.14,260.45Z"/><path class="cls-1" d="M145,260.45v10c-1.26-.91-.16-2.69-1.83-3.24,0-1.61-.13-3.22-.13-4.82C143,261.09,143.44,260.13,145,260.45Z"/><path class="cls-1" d="M265.45,260.41c-.57,3.34.44,6.8-.59,10.18-1-.53.1-2-1.19-2.23a14.75,14.75,0,0,0-.07-6.9C263.27,260.21,264.53,260.28,265.45,260.41Z"/><path class="cls-1" d="M325.41,260.44c0,2.07-.11,4.14,0,6.21.07,1.44-.44,2-1.84,1.71q-.06-3-.13-6.09C323.41,260.91,323.85,260.07,325.41,260.44Z"/><path class="cls-1" d="M185.33,260.41c-.52,3.31.29,6.73-.7,10.71a31.66,31.66,0,0,1-.54-7.31c0-.93.47-2-.55-2.75C183.82,259.95,184.64,260.36,185.33,260.41Z"/><path class="cls-2" d="M122.34,276.34c.47,2-.14,2.89-2.27,2.26.12-1.63-.61-3.77,2.24-3.78l-.06-.06C121.32,275.34,121.83,275.84,122.34,276.34Z"/><path class="cls-1" d="M124.86,260.46V268c-1.2-2.45-.55-5-.81-7.5Z"/><path class="cls-1" d="M205,260.47c-.19,2.56.43,5.15-.37,8.22-.78-3-.18-5.63-.45-8.16Z"/><path class="cls-1" d="M285.1,260.47v7.69c-1.13-2.51-.53-5.1-.82-7.63Z"/><path class="cls-1" d="M283.2,273.46a1.31,1.31,0,0,1,1.34,1.33c.08.92-.22,1.63-1.31,1.62-.91,0-1.22-.57-1.22-1.4A1.38,1.38,0,0,1,283.2,273.46Z"/><path class="cls-1" d="M324.71,269.58c.21.15.47.29.45.33a4.17,4.17,0,0,1-.37.65c-.14-.09-.4-.21-.38-.27A3.56,3.56,0,0,1,324.71,269.58Z"/><path class="cls-3" d="M122.34,276.34c-.51-.5-1-1-.09-1.59C122.73,275.25,123.32,275.75,122.34,276.34Z"/></g><g id="line6"><path class="cls-2" d="M280.39,234.48a11.37,11.37,0,0,1,2.31-7.31c1.55-2.15,1-5.27,1.07-8,0-1-.48-2,.55-2.73q0,3.74,0,7.47l.77,0v-7.48a1.5,1.5,0,0,1,2.13,1.65,13.74,13.74,0,0,0,2.71,11.46,4.51,4.51,0,0,1,.62,2.93c0,7.32-.09,14.64,0,22,0,2.26-.77,3.13-3,3.08-8.49-.17-7.1.94-7.3-7,0-1.12,0-2.24,0-3.35,1.9.11,3.8.29,5.71.32,2.18,0,3.38-1,3.27-3.32-.1-2.12-.1-4.24,0-6.36s-.45-3.25-2.86-3.09A57.53,57.53,0,0,1,280.39,234.48Zm3-5.12a1.21,1.21,0,0,0-1.31,1.31,1.38,1.38,0,0,0,1.39,1.59c.74,0,1-.53,1.08-1.17C284.62,230.23,284.39,229.52,283.38,229.36Z"/><path class="cls-2" d="M205,216.42a1.51,1.51,0,0,1,2.14,1.65,13.85,13.85,0,0,0,2.69,11.47,5,5,0,0,1,.64,3.23c0,7.12-.12,14.24,0,21.36.05,2.57-.87,3.44-3.34,3.38-8-.19-6.83.84-7-6.74,0-1.22,0-2.44,0-3.66,1.6.13,3.2.36,4.81.37,4.12,0,4.81-.66,4.82-4.67a37.34,37.34,0,0,1,0-4.55c.35-2.82-.86-3.74-3.55-3.58-2,.12-4-.11-6-.18a10.94,10.94,0,0,1,2.25-7.24c1.65-2.25,1-5.39,1.13-8.15.05-1-.43-2,.59-2.67q0,3.74,0,7.47l.77,0Zm-3.07,14.39c.15.88.6,1.55,1.55,1.46s1-.84,1-1.58-.44-1.33-1.31-1.31S202,230.08,201.89,230.81Z"/><path class="cls-2" d="M140.17,234.64c-.3-2.72.08-5.25,2.24-7.2,1.18-1.07.58-2.46.75-3.71,1.7.11.34,1.91,1.36,2.56,1-3.36-.41-6.69.44-9.91,1.27-.17,2.23-.05,2.07,1.66-.14,1.51,0,3-.17,4.55a6.24,6.24,0,0,0,1.67,5.27,7.36,7.36,0,0,1,1.92,5.28c0,6.92-.09,13.84,0,20.76,0,2.53-.77,3.69-3.49,3.63-8.36-.19-6.64.59-6.83-6.82,0-1.22,0-2.44,0-3.66,2.34.68,4.67-.23,7,0,1.33.1,2.35-.89,2.26-2.59a36.1,36.1,0,0,1,0-5.76c.32-3-.76-4.29-3.86-4A48.6,48.6,0,0,1,140.17,234.64Zm2.88-2.4a1.48,1.48,0,0,0,.28-2.9c-.85-.19-1.33.29-1.45,1.09A1.51,1.51,0,0,0,143.05,232.24Z"/><path class="cls-2" d="M320.57,234.65c-.33-2.84.09-5.43,2.35-7.46,1.07-1,.39-2.31.67-3.45.84.28,1.88,1.13,1.81-.81-.08-2.18,0-4.37,0-6.55.87,0,2.22-.31,2,1.07-.4,2.13,1.15,4.51-1.09,6.5-.82.73-1,2.81.75,3.19,3.33.71,3.7,3.32,3.75,5.74.15,7.2,0,14.42-.07,21.63,0,2.11-.89,3.06-3.14,3-8.72-.18-6.81.74-7.05-6.85,0-1.22,0-2.44.07-3.65,2,.06,4,.77,6,.46,1.52-.23,2.79-.68,2.87-2.51.12-2.72.49-5.4,0-8.18-.27-1.63-.82-2.11-2.25-2-2.1.12-3.66-.13-2.61-2.91a1.76,1.76,0,0,0-.75-2.38,1,1,0,0,0-1.35.2,2,2,0,0,0,0,2.28C323.79,234.25,322.74,234.86,320.57,234.65Zm4.76-8.76-.36-.43a3.5,3.5,0,0,0-.53.48s.22.37.24.36A6.12,6.12,0,0,0,325.32,225.89Z"/><path class="cls-2" d="M180.44,234.11c-.27-2.5,0-4.87,2-6.65,1.18-1,.8-2.4,1-3.65.4-2.44-.57-5,.58-7.36q0,4.85,0,9.7h.77c.85-3.22.07-6.56.48-9.81,1.39-.21,2.05.27,2,1.79-.09,2,0,4.07,0,6.11a3.87,3.87,0,0,0,.93,3.12c2.25,2,2.21,4.6,2.17,7.3-.1,6.41-.15,12.83,0,19.24.06,2.57-.61,3.71-3.38,3.62-7.89-.26-6.51.86-6.73-6.63,0-1.32.1-2.64.15-4a43.26,43.26,0,0,0,4.83.53c3.49,0,4.1-.67,4.12-4.08,0-1.93-.1-3.87,0-5.8s-.6-3.06-2.76-2.86-3.09-.63-2.27-2.83a1.8,1.8,0,0,0-.6-2.42,1.06,1.06,0,0,0-1.39.17c-.75.84-.49,1.66.12,2.47s.95,1.49.25,2.19S181.17,234.38,180.44,234.11Z"/><path class="cls-2" d="M225.08,216.38c1.24-.16,2.19-.13,1.95,1.65-.21,1.49,0,3-.11,4.54a6.61,6.61,0,0,0,1.73,5.27,7.24,7.24,0,0,1,1.93,5.27c0,6.82-.12,13.64,0,20.46.05,2.82-.77,4.05-3.8,4-7.83-.22-6.41.51-6.55-6.52,0-1.32,0-2.65,0-4,.9.11,1.81.2,2.71.34,5.3.79,6.56-.27,6.56-5.55a20.73,20.73,0,0,1,0-2.75c.42-3.13-.53-4.84-4.05-4.46-1.11.12-2.92,0-1.77-1.93,1.93-3.2-.29-3.25-2.41-3.52,1.06-1.67,2.53-3.2,1.93-5.46,1.71.1.4,1.85,1.3,2.51.63-1.14.23-2.27.39-3.33C225.3,220.73,224.19,218.54,225.08,216.38Z"/><path class="cls-1" d="M260.52,246.95a35.73,35.73,0,0,1,.05-12.84,42.85,42.85,0,0,0,9.94.62c.67,4.21-.15,8.41-.08,12.61C267.13,247,263.78,248,260.52,246.95Z"/><path class="cls-1" d="M340.65,246.95a33.45,33.45,0,0,1,0-12.23c3.32-.61,6.64.46,10,0,.76,4.2-.18,8.39-.1,12.58C347.25,247.05,343.91,248,340.65,246.95Z"/><path class="cls-1" d="M240.44,247q0-6.18,0-12.36c3.41-.52,6.83.63,10.24,0a82,82,0,0,1-.11,13.12c-.41-.43-.78-1-1.5-.76C246.19,248,243.31,247.32,240.44,247Z"/><path class="cls-1" d="M170.53,234.59c.09,4.24.74,8.5-.43,12.7-3.26-.22-6.55.66-9.78-.28q0-6.18,0-12.35C163.72,234.09,167.13,235.33,170.53,234.59Z"/><path class="cls-1" d="M310.71,234.74a101.42,101.42,0,0,1,0,12.22c-3.42.15-6.84,1.19-10.27.1q0-6.23,0-12.46Z"/><path class="cls-1" d="M130.29,234.73q0,6.11,0,12.22a31.77,31.77,0,0,1-10.26.13l0-12.53Z"/><path class="cls-1" d="M221.35,229.19c2.11.27,4.34.31,2.41,3.52-1.15,1.91.66,2.05,1.77,1.93,3.52-.38,4.48,1.32,4.05,4.46a20.73,20.73,0,0,0,0,2.75c0,5.28-1.26,6.34-6.56,5.55-.9-.13-1.81-.23-2.71-.34q0-6.22,0-12.43c1.92-.12,3-1,1.68-2.78-.69-.94.1-1.91-.59-2.66Z"/><path class="cls-1" d="M180.44,234.11c.73.27,1.53.92,2.23.21s.25-1.52-.25-2.19-.87-1.63-.12-2.47a1.06,1.06,0,0,1,1.39-.17,1.8,1.8,0,0,1,.6,2.42c-.82,2.2.16,3,2.27,2.83s2.87.84,2.76,2.86,0,3.86,0,5.8c0,3.41-.63,4.09-4.12,4.08a43.26,43.26,0,0,1-4.83-.53A35.87,35.87,0,0,1,180.44,234.11Z"/><path class="cls-1" d="M200.23,234.52c2,.07,4,.3,6,.18,2.68-.16,3.9.75,3.55,3.58a37.34,37.34,0,0,0,0,4.55c0,4-.69,4.71-4.82,4.67-1.6,0-3.2-.24-4.81-.37A104.18,104.18,0,0,1,200.23,234.52Z"/><path class="cls-1" d="M320.57,234.65c2.18.21,3.23-.4,2-2.7a2,2,0,0,1,0-2.28,1,1,0,0,1,1.35-.2,1.76,1.76,0,0,1,.75,2.38c-1.05,2.77.51,3,2.61,2.91,1.42-.08,2,.4,2.25,2,.45,2.77.08,5.46,0,8.18-.08,1.83-1.35,2.28-2.87,2.51-2.06.31-4-.4-6-.46Q320.56,240.83,320.57,234.65Z"/><path class="cls-1" d="M140.17,234.64a48.6,48.6,0,0,0,5.44,0c3.1-.31,4.18,1,3.86,4a36.1,36.1,0,0,0,0,5.76c.09,1.7-.93,2.69-2.26,2.59-2.36-.18-4.69.73-7,0Q140.17,240.84,140.17,234.64Z"/><path class="cls-2" d="M130.29,234.73l-10.22-.18a11.22,11.22,0,0,1,2.29-7.33c1.59-2.29,1.14-5.47,1-8.27-.07-1.62,0-2.57,1.87-2.59,2.16,0,1.48,1.3,1.43,2.6-.14,3.52,0,7,2.55,9.91C130.71,230.56,130.26,232.72,130.29,234.73Zm-7.24-5.38a1.25,1.25,0,0,0-1.26,1.43,1.36,1.36,0,0,0,1.52,1.48c.88-.08,1-.84,1-1.58S123.88,229.35,123.05,229.35Z"/><path class="cls-1" d="M280.39,234.48a57.53,57.53,0,0,0,6,.21c2.41-.15,2.93,1.06,2.86,3.09s-.07,4.25,0,6.36c.12,2.37-1.08,3.35-3.27,3.32-1.9,0-3.8-.21-5.71-.32A92.5,92.5,0,0,1,280.39,234.48Z"/><path class="cls-2" d="M120,247.08a31.77,31.77,0,0,0,10.26-.13c0,2.64-.05,5.27,0,7.91,0,1.77-.69,2.61-2.5,2.61-9.33,0-7.6.84-7.81-7C120,249.31,120,248.19,120,247.08Z"/><path class="cls-2" d="M300.42,247.06c3.44,1.09,6.85,0,10.27-.1,0,2.53,0,5.07,0,7.61,0,2-.84,3-2.9,2.93-9.07-.11-7.21.8-7.43-7.09C300.34,249.29,300.4,248.17,300.42,247.06Z"/><path class="cls-2" d="M240.44,247c2.88.31,5.76,1,8.64,0,.71-.25,1.09.33,1.5.76q0,3.51-.07,7c0,1.82-.78,2.65-2.76,2.75-7.38.37-7.38.44-7.37-6.84C240.36,249.46,240.41,248.23,240.44,247Z"/><path class="cls-2" d="M260.52,246.95c3.27,1.07,6.61.07,9.91.4,0,2.53-.07,5.06,0,7.59.06,1.83-.72,2.55-2.51,2.54-9.32-.07-7.26.89-7.55-6.9C260.33,249.37,260.47,248.16,260.52,246.95Z"/><path class="cls-2" d="M160.32,247c3.24.95,6.53.06,9.78.28.08,1,.24,2,.22,3-.14,8.09,1.46,7.2-8,7.15-1.53,0-2.17-.68-2.12-2.23C160.32,252.48,160.3,249.75,160.32,247Z"/><path class="cls-2" d="M340.65,246.95c3.26,1.07,6.6.1,9.89.37,0,2.63,0,5.27,0,7.91,0,1.53-.64,2.09-2.15,2.25-7.56.84-7.88.6-7.87-6.89C340.52,249.38,340.61,248.16,340.65,246.95Z"/><path class="cls-2" d="M250.68,234.63c-3.41.66-6.83-.49-10.24,0-.35-2.85.07-5.47,2.36-7.49.91-.8.44-1.91.63-2.88,1.51-.15.25,1.78,1.48,2.08.62-3.44.14-6.73.35-10,1.39-.26,2.09.22,2,1.74-.05,2,0,4.07.05,6.1,0,1.1,0,2.32.92,3.15C250.4,229.37,250.76,231.92,250.68,234.63Z"/><path class="cls-2" d="M350.64,234.73c-3.32.45-6.64-.62-10,0-.37-2.82-.12-5.5,2.23-7.44,1.19-1,.2-2.63,1.38-3.5l.35,2.43c1.15-3.27.54-6.59.87-9.85,1.37-.22,2,.24,2,1.74-.07,2,0,4,0,6,0,1.12,0,2.39.84,3.12C350.75,229.31,350.69,232,350.64,234.73Z"/><path class="cls-2" d="M310.71,234.74l-10.27-.14c-.1-2.75-.06-5.4,2.43-7.38,1.05-.83.37-2.31.53-3.49,1.73.08.44,1.85,1.67,2.75a26.77,26.77,0,0,1,0-3.57c.32-2.18-.85-4.38.1-6.53,1.11,0,2.07-.36,1.93,1.59-.29,4.06-.61,8.16,2.76,11.52C311.16,230.75,310.75,232.92,310.71,234.74Zm-7.26-2.45c1,0,1.2-.67,1.22-1.41a1.36,1.36,0,0,0-1.38-1.57c-1-.07-1.16.61-1.16,1.34A1.53,1.53,0,0,0,303.45,232.29Z"/><path class="cls-2" d="M170.53,234.59c-3.4.74-6.81-.5-10.2.07-.36-2.86,0-5.47,2.35-7.5.91-.8.45-1.92.63-2.88,1.48-.13.28,1.76,1.47,2.11.64-3.46.13-6.75.37-10,1.4-.26,2.07.23,2,1.75-.07,1.93,0,3.86,0,5.79,0,1.22,0,2.56,1,3.43C170.26,229.36,170.58,231.89,170.53,234.59Zm-6-3.9c-.25-.77-.69-1.47-1.63-1.34s-1,.87-.89,1.6a1.28,1.28,0,0,0,1.38,1.25C164.18,232.13,164.45,231.49,164.48,230.69Z"/><path class="cls-2" d="M270.51,234.73a42.85,42.85,0,0,1-9.94-.62c-.32-2.58.06-5,2.13-6.78,1-.84.81-2,.87-3,1.46,0,.2,1.65,1.33,2,.87-3.31.1-6.68.5-10,1.36-.21,2.05.23,2,1.75-.08,2,0,4,0,6,0,1.13,0,2.38.84,3.12C270.61,229.31,270.57,232,270.51,234.73Zm-6-3.84c0-.73-.21-1.39-1.07-1.52a1.13,1.13,0,0,0-1.39,1.16,1.41,1.41,0,0,0,1.24,1.71C264.2,232.35,264.37,231.6,264.51,230.89Z"/><path class="cls-1" d="M105.27,247.57c-1.41-1-1.81-2.5-.57-3.46.91-.7,2.55,1.06,3.92,0-1-4.16-2.4-8.29-1.89-12.69,1.6.64,1.66,2.9,3.48,3.3a32.14,32.14,0,0,1-.08,11.6C108.51,246.76,107,247.76,105.27,247.57Z"/><path class="cls-2" d="M110.21,234.74c-1.82-.41-1.88-2.66-3.48-3.3-.29-2.51-.47-5-.92-7.53-.32-1.75,1.45-4.51-2.19-4.93-.49-.06-.42-1.34-.15-2,.4-.92,1.43-.53,2.13-.61.89-.1,1.46.6,1.48,1.54,0,2,0,4.06,0,6.1,0,1.13-.11,2.37.78,3.16C110.22,229.27,110.43,231.92,110.21,234.74Z"/><path class="cls-1" d="M245.26,216.38c-.2,3.26.28,6.55-.35,10-1.23-.31,0-2.23-1.48-2.08,0-2.18.21-4.38,0-6.54C243.34,216,244.17,216.18,245.26,216.38Z"/><path class="cls-1" d="M165.14,216.37c-.23,3.26.27,6.55-.37,10-1.18-.35,0-2.24-1.47-2.11,0-2.18.18-4.37,0-6.54C163.21,216.05,164,216.17,165.14,216.37Z"/><path class="cls-1" d="M305.2,216.38c-1,2.16.22,4.35-.1,6.53a26.77,26.77,0,0,0,0,3.57c-1.23-.9.06-2.68-1.67-2.75,0-1.83-.11-3.65-.15-5.48C303.22,216.94,303.59,216,305.2,216.38Z"/><path class="cls-1" d="M225.08,216.38c-.89,2.16.22,4.35-.11,6.53-.16,1.06.23,2.19-.39,3.33-.89-.66.42-2.42-1.3-2.51-.05-1.83-.1-3.66-.15-5.48C223.1,216.91,223.48,216,225.08,216.38Z"/><path class="cls-1" d="M145,216.38c-.86,3.22.57,6.55-.44,9.91-1-.65.35-2.45-1.36-2.56-.05-1.87-.11-3.74-.16-5.61C143,216.79,143.46,216,145,216.38Z"/><path class="cls-1" d="M345.52,216.36c-.33,3.26.28,6.57-.87,9.85l-.35-2.43c-.9-2-.57-4.12-.55-6.23C343.77,216,344.6,216.25,345.52,216.36Z"/><path class="cls-1" d="M265.4,216.35c-.39,3.29.38,6.65-.5,10-1.14-.36.13-2-1.33-2,.36-2.16.85-4.25,0-6.48C263.13,216.53,264.16,216.08,265.4,216.35Z"/><path class="cls-1" d="M325.38,216.38c0,2.18-.06,4.37,0,6.55.07,1.93-1,1.09-1.81.81,0-1.89-.08-3.78-.15-5.67C323.38,216.66,323.9,216,325.38,216.38Z"/><path class="cls-1" d="M185.28,216.35c-.42,3.25.37,6.59-.48,9.81H184q0-4.85,0-9.7Z"/><path class="cls-2" d="M105.27,247.57c1.77.19,3.24-.81,4.86-1.23,0,1.5,0,3,0,4.79A21.75,21.75,0,0,1,105.27,247.57Z"/><path class="cls-2" d="M221.39,229.17c.69.75-.09,1.72.59,2.66,1.32,1.81.24,2.67-1.68,2.78C220.38,232.75,219.79,230.74,221.39,229.17Z"/><path class="cls-2" d="M107.92,254.18c.65,1.17,2.47,1.14,1.73,2.69a1.62,1.62,0,0,1-2.17.48C106.45,256.54,107.4,255.56,107.92,254.18Z"/><path class="cls-1" d="M205,216.42v7.49l-.77,0q0-3.74,0-7.47Z"/><path class="cls-1" d="M285.09,216.43v7.48l-.77,0q0-3.74,0-7.47Z"/><path class="cls-1" d="M283.38,229.36c1,.16,1.24.87,1.16,1.74-.06.63-.34,1.21-1.08,1.17a1.38,1.38,0,0,1-1.39-1.59A1.21,1.21,0,0,1,283.38,229.36Z"/><path class="cls-1" d="M201.9,230.8c.11-.73.31-1.4,1.21-1.43s1.24.53,1.31,1.31-.09,1.5-1,1.58S202,231.69,201.9,230.8Z"/><path class="cls-1" d="M143.05,232.24a1.51,1.51,0,0,1-1.17-1.8c.12-.8.6-1.28,1.45-1.09a1.48,1.48,0,0,1-.28,2.9Z"/><path class="cls-1" d="M325.32,225.89a6.12,6.12,0,0,1-.65.41s-.27-.32-.24-.36a3.5,3.5,0,0,1,.53-.48Z"/><path class="cls-1" d="M123.05,229.35c.83,0,1.19.54,1.24,1.33s-.1,1.5-1,1.58a1.36,1.36,0,0,1-1.52-1.48A1.25,1.25,0,0,1,123.05,229.35Z"/><path class="cls-1" d="M303.45,232.29a1.53,1.53,0,0,1-1.33-1.64c0-.73.18-1.4,1.16-1.34a1.36,1.36,0,0,1,1.38,1.57C304.66,231.62,304.43,232.25,303.45,232.29Z"/><path class="cls-1" d="M164.48,230.69c0,.79-.3,1.44-1.14,1.5a1.28,1.28,0,0,1-1.38-1.25c-.11-.73.05-1.48.89-1.6S164.23,229.92,164.48,230.69Z"/><path class="cls-1" d="M264.5,230.9c-.13.71-.3,1.46-1.23,1.35a1.41,1.41,0,0,1-1.24-1.71,1.13,1.13,0,0,1,1.39-1.16C264.3,229.5,264.47,230.16,264.5,230.9Z"/></g><g id="line5"><path class="cls-2" d="M285.18,171.85c1.75-.27,2.32.51,2.28,2.24-.08,3.89-.71,7.91,2.49,11.11.73.73.59,1.89.59,2.92,0,7.3-.09,14.61,0,21.91,0,2.27-.9,3.05-3,3.21-7,.52-7.29.31-7.3-6.82q0-1.67,0-3.35l3.34-.06c6.89-.16,5.85.52,5.95-5.83,0-1.12-.06-2.24,0-3.35.14-2.19-.43-3.3-3-3.3-2,0-4-.67-6-.16a10.13,10.13,0,0,1,2.1-7.63c1.56-2.2,1-5.25,1.12-7.95a6.54,6.54,0,0,1,.08-2.37c1.19,2.18-.12,4.73,1.34,6.93Zm-1.83,15.87c1,0,1.24-.64,1.22-1.42s-.39-1.42-1.24-1.44-1.19.73-1.24,1.45A1.29,1.29,0,0,0,283.35,187.73Z"/><path class="cls-2" d="M141.76,184.37c2.08-3,1.56-6.53,1.49-9.86,0-2,.71-2.63,2.37-2.67,1.9-.05,1.33,1.47,1.3,2.44-.09,3.92-.56,7.84,2.8,11,.77.71.75,2.24.74,3.5-.06,6.92-.12,13.83,0,20.75,0,2.55-.84,3.69-3.48,3.77-6.84.2-6.84.27-6.84-6.63,0-1.22,0-2.44,0-3.66,2.23,0,4.45-.06,6.68,0,1.63,0,2.54-.67,2.55-2.27a41.9,41.9,0,0,0-.24-8.18c-.27-1.43-.69-2.32-2.31-2-1.9.41-2.46-.67-2.2-2.21C145,186,143.88,184.85,141.76,184.37Zm2.51-5c.58-2,1.05-4.08,0-6.09Z"/><path class="cls-2" d="M105.29,171.79c1.53-.12,1.88.72,1.83,2.07-.07,2,0,4.06,0,6.09a4.08,4.08,0,0,0,1.18,3.31,7,7,0,0,1,2,5.55c-.06,7-.16,14,0,21,0,2.6-1,3.43-3.39,3.4-7.9-.08-6.5.31-6.77-6.4-.05-1.32.05-2.64.09-4,2.12,0,4.25,0,6.36.1,1.79.08,2.66-.75,2.67-2.48,0-2.53,0-5.05-.06-7.58,0-1.51-.68-2.62-2.3-2.63-2.18,0-2.84-1-2.43-3a1.81,1.81,0,0,0-1-2.28,1.26,1.26,0,0,0-1.1.13,1.93,1.93,0,0,0-.28,2.48c.8,1.75.37,2.75-1.75,2.51-.21-2.7,0-5.22,2.15-7.29,1.48-1.44.72-3.47.91-5.23s.09-3.45.12-5.17c1.33,3-.19,6.35,1.11,9.62C105.62,178.53,104.53,175.08,105.29,171.79Z"/><path class="cls-2" d="M260.52,190.14c-.32-2.8,0-5.41,2.29-7.38,1-.87.53-2.06.86-3.07,1.37.11,0,1.89,1.3,2.14.79-3.35-.08-6.74.55-10,1.53-.14,1.89.7,1.85,2-.06,2,0,4.06,0,6.1a4.15,4.15,0,0,0,1.2,3.32,6.48,6.48,0,0,1,1.92,5.55c-.45,7-.16,14,0,21,0,2.6-1,3.34-3.36,3.41-6.73.2-6.73.25-6.74-6.4,0-1.32.05-2.64.08-4,2.23,0,4.46.08,6.69,0,.63,0,1.36.21,1.91-.52.95-1.24,1-10,0-11.25a2.34,2.34,0,0,0-1.88-.87c-2.14.07-2.94-.89-2.49-3a1.87,1.87,0,0,0-.95-2.33,1.25,1.25,0,0,0-1.1.1,1.91,1.91,0,0,0-.34,2.48C263.05,189.3,262.64,190.32,260.52,190.14Z"/><path class="cls-1" d="M190.27,190.37c.86,4.15,0,8.3,0,12.46l-10,.08a42.18,42.18,0,0,1,.08-12.82c1.65.3,1.91-.69,1.76-2s-1-3.08.91-3.17c2.07-.09,1.48,2,1.41,3.28s.4,2,1.67,1.91S188.86,190.91,190.27,190.37Z"/><path class="cls-1" d="M160.29,202.94q0-6.44,0-12.88c1.09.17,2.2.18,2-1.35a39.47,39.47,0,0,0-.89-4.17l0,0c1.28.54,3,.15,3.27,2.43.34,3.41,2.1,4.21,5.81,3a64.86,64.86,0,0,1-.2,12.95Z"/><path class="cls-1" d="M330.84,190a88.39,88.39,0,0,1-.13,13.06l-10.19-.14q0-6.45,0-12.9c1.89.37,2.48-.49,1.89-2.18-.43-1.25-.82-2.74.77-2.93,1.74-.22,1.86,1.49,1.76,2.84s.17,2.83,1.54,2.72S329.52,191.13,330.84,190Z"/><path class="cls-1" d="M210.43,190.13q0,6.39,0,12.78l-10.27.12c-.07-5-.06-10-.25-14.94-.06-1.51,1.12-2.31,1.41-3.55l.59.11c1.16.23,2.66.19,2.5,1.93-.15,1.55-1.23,1.14-2.27.83-.61-.18-.81.4-.85.94-.05.7.39,1.41.9,1.4C204.93,189.68,207.64,191,210.43,190.13Z"/><path class="cls-1" d="M240.41,202.94q0-6.45,0-12.89c1.83.18,3.31,0,2-2.38-.51-.92-.71-1.67,0-2.49a1,1,0,0,1,1.37-.16c1,.57.83,1.49.79,2.42s-.63,2.33.83,2.51c1.73.2,3.53,1.18,5.29,0a81.73,81.73,0,0,1-.14,13.12C247.18,202.43,243.79,203.29,240.41,202.94Z"/><path class="cls-1" d="M82.11,202.33c-1-.15-1.88-.64-1.88-1.67,0-3.31-.72-6.66.5-9.91,2.07-.52,1.69-1.9,1.14-3.3-.42-1.07-.43-2.24.74-2.52,1.46-.35,1.82.95,1.93,2.11a8.78,8.78,0,0,1-.11,2.11c-.14.87.19,1.58,1,1.44,1.64-.26,3.4.4,4.92-.67a59.23,59.23,0,0,1-.2,13C87.5,202.49,84.72,203.59,82.11,202.33Z"/><path class="cls-1" d="M260.52,190.14c2.12.17,2.53-.85,1.75-2.59a1.91,1.91,0,0,1,.34-2.48,1.25,1.25,0,0,1,1.1-.1,1.87,1.87,0,0,1,.95,2.33c-.45,2.09.35,3.06,2.49,3a2.34,2.34,0,0,1,1.88.87c1.05,1.25,1,10,0,11.25-.56.73-1.28.51-1.91.52-2.23.05-4.46,0-6.69,0A39.9,39.9,0,0,1,260.52,190.14Z"/><path class="cls-1" d="M220.27,203q0-6.49,0-13c3.44-.58,6.87.86,10.31.09a111.32,111.32,0,0,1,0,12.86Z"/><path class="cls-1" d="M310.72,190.12q0,6.4,0,12.81l-10.3.06q0-6.51,0-13C303.86,189.45,307.28,190.83,310.72,190.12Z"/><path class="cls-1" d="M130.31,190.12l0,12.8L120,203c0-4.22-.41-8.46.29-12.66.58-.23.92-.66,1.79-.64C124.82,189.79,127.53,191,130.31,190.12Z"/><path class="cls-1" d="M141.76,184.37c2.12.48,3.25,1.59,2.86,4-.26,1.55.3,2.63,2.2,2.21,1.62-.35,2,.54,2.31,2a41.9,41.9,0,0,1,.24,8.18c0,1.59-.91,2.31-2.55,2.27-2.22-.06-4.45,0-6.68,0q0-6.47,0-12.95c1.56.36,2.61-.25,2-1.81-.53-1.31.11-2.52-.29-3.72Z"/><path class="cls-1" d="M100.27,190.09c2.13.24,2.55-.76,1.75-2.51a1.93,1.93,0,0,1,.28-2.48,1.26,1.26,0,0,1,1.1-.13,1.81,1.81,0,0,1,1,2.28c-.41,2,.25,3,2.43,3,1.62,0,2.28,1.11,2.3,2.63,0,2.53.07,5.05.06,7.58,0,1.72-.87,2.56-2.67,2.48-2.12-.09-4.24-.07-6.36-.1A41.77,41.77,0,0,1,100.27,190.09Z"/><path class="cls-1" d="M280.54,190.37c2-.5,4,.16,6,.16,2.6,0,3.17,1.1,3,3.3-.07,1.11,0,2.24,0,3.35-.1,6.35.94,5.67-5.95,5.83l-3.34.06C280.2,198.83,279.85,194.59,280.54,190.37Z"/><path class="cls-2" d="M200.14,203l10.27-.12c0,2.52-.08,5.05,0,7.57a2.28,2.28,0,0,1-2.5,2.68c-1.81.08-3.63.05-5.45,0a2.19,2.19,0,0,1-2.32-2.54C200.19,208.08,200.15,205.56,200.14,203Z"/><path class="cls-2" d="M300.39,203l10.3-.06c0,2.43,0,4.85,0,7.28,0,2-1,2.85-2.93,3-7,.63-7.4.27-7.4-6.6C300.37,205.42,300.39,204.2,300.39,203Z"/><path class="cls-2" d="M120,203l10.29-.08c0,2.42-.1,4.85,0,7.27.11,2.12-.91,2.85-2.84,3-7,.65-7.48.23-7.49-6.58C120,205.43,120,204.22,120,203Z"/><path class="cls-2" d="M220.27,203l10.29,0c0,2.32-.08,4.65,0,7s-1,3.2-3.26,3.32c-7,.36-7.07.33-7.07-6.63C220.24,205.4,220.26,204.19,220.27,203Z"/><path class="cls-2" d="M240.41,202.94c3.38.35,6.78-.51,10.15.18,0,2.34-.08,4.67,0,7,0,2.18-1,3-3.12,3.12-6.94.42-7,.36-7-6.65C240.36,205.38,240.39,204.16,240.41,202.94Z"/><path class="cls-2" d="M320.53,202.94l10.19.14c-.13,2.81.29,5.68-1.08,8.34-1.78,3.46-4.84,1.46-7.29,1.6-2.21.13-1.85-1.91-1.85-3.39C320.5,207.4,320.51,205.17,320.53,202.94Z"/><path class="cls-2" d="M180.3,202.91l10-.08c0,2.64,0,5.29,0,7.92a2,2,0,0,1-2.11,2.37c-1.92.09-3.86.09-5.78,0a2,2,0,0,1-2.16-2.31C180.32,208.19,180.29,205.55,180.3,202.91Z"/><path class="cls-2" d="M160.29,202.94l10.05,0c0,2.53,0,5.06,0,7.59a2.37,2.37,0,0,1-2.54,2.69l-.3,0c-6.9.67-7.26.35-7.26-6.63C160.24,205.36,160.27,204.15,160.29,202.94Z"/><path class="cls-2" d="M130.31,190.12c-2.79.87-5.49-.33-8.24-.41-.86,0-1.21.41-1.79.64l-.24-2.58c.86.17,1.59-.82,2.57-.18.66.43,1.37.14,1.62-.73a1.44,1.44,0,0,0-1-1.89,13.44,13.44,0,0,0-2-.42c2.84-2.92,2-6.66,2.2-10.15a6.46,6.46,0,0,1,.22-2c1.18,2.19-.18,4.76,1.34,7v-7.5c1.73-.23,2.28.54,2.27,2.24,0,3.84-.77,7.79,2.41,11.05C130.83,186.38,130.25,188.42,130.31,190.12Z"/><path class="cls-2" d="M210.43,190.13c-2.8.84-5.5-.45-8.28-.37-.51,0-.95-.69-.9-1.4,0-.54.24-1.13.85-.94,1,.31,2.13.72,2.27-.83.17-1.74-1.34-1.7-2.5-1.93l-.59-.11c2.86-2.89,2.08-6.63,2.25-10.12a7.73,7.73,0,0,1,.17-2c1.19,2.19-.15,4.74,1.34,6.95v-7.5c1.87-.14,2.21.59,1.94,2.45-.51,3.46-.29,6.93,2.16,9.79C210.7,185.89,210.4,188,210.43,190.13Z"/><path class="cls-2" d="M90.38,189.92c-1.52,1.07-3.28.42-4.92.67-.84.13-1.17-.57-1-1.44a8.78,8.78,0,0,0,.11-2.11c-.11-1.16-.47-2.46-1.93-2.11-1.17.28-1.16,1.45-.74,2.52.55,1.4.93,2.79-1.14,3.3-1.14-2.14-1.15-4.51.41-6.14,1.93-2,2-4.28,2.15-6.69l.24,0,.24-.06c.28.33.54.68,1.06.53.35.09.71.13.86-.29,0,0-.38-.23-.58-.36a.58.58,0,0,0-.19-.48l.21-5.5c1.53-.2,1.92.61,1.87,2-.06,1.92,0,3.85,0,5.77a4.48,4.48,0,0,0,1,3.4C90.05,184.88,90.39,187.34,90.38,189.92Z"/><path class="cls-2" d="M310.72,190.12c-3.45.71-6.86-.67-10.31-.14-.2-2.62.16-5.07,2.25-6.92,1.12-1,.55-2.25.7-3.4,1.81-.06.52,1.55,1.23,2.21.47-3.25,1.06-6.41-.2-9.55.52-.69,1.3-.43,2-.54l.73.38.38.78v1.26a8,8,0,0,0,0,3.55,1.19,1.19,0,0,0,.07,1.37,5.44,5.44,0,0,0,1.5,4.73C310.8,185.55,310.81,187.86,310.72,190.12Zm-6.07-3.6a1.41,1.41,0,0,0-1.36-1.61c-.87-.06-1.15.69-1.18,1.4a1.25,1.25,0,0,0,1.18,1.43C304.15,187.82,304.57,187.33,304.66,186.52Z"/><path class="cls-2" d="M230.59,190.09c-3.44.77-6.87-.68-10.31-.09-.24-2.63.16-5.09,2.24-6.94,1.13-1,.59-2.25.73-3.4,1.22-.58.62,1.28,1.56,1.17.66-3,0-6,.39-9,1.16-.13,2,.12,1.91,1.56s-.06,2.61-.19,3.91a7.56,7.56,0,0,0,2.06,6.57C230.66,185.56,230.67,187.85,230.59,190.09Zm-6.06-3.65a1.4,1.4,0,0,0-1.43-1.54c-.82,0-1.11.74-1.1,1.48a1.24,1.24,0,0,0,1.26,1.36C224.12,187.78,224.47,187.24,224.53,186.44Z"/><path class="cls-2" d="M250.69,190c-1.76,1.13-3.56.16-5.29,0-1.46-.17-.87-1.58-.83-2.51s.19-1.85-.79-2.42a1,1,0,0,0-1.37.16c-.69.82-.48,1.57,0,2.49,1.29,2.34-.2,2.56-2,2.38-.31-2.79.14-5.34,2.39-7.29,1-.87.38-2.07.63-3.09,1.6.07.2,1.84,1.93,2.49V171.81c1.47-.2,2,.54,1.94,1.91,0,1.9,0,3.81,0,5.72a5.89,5.89,0,0,0,1.64,4.36C250.62,185.49,250.68,187.77,250.69,190Z"/><path class="cls-2" d="M190.27,190.37c-1.41.53-2.75-.3-4.15-.23s-1.74-.65-1.67-1.91.67-3.37-1.41-3.28c-1.87.08-1.06,1.93-.91,3.17s-.11,2.26-1.76,2c-.24-2.72.09-5.23,2.19-7.28,1.5-1.47.72-3.47.9-5.22s.08-3.45.1-5.18c1.31,3-.06,6.35,1.11,10.13.93-4,.14-7.44.74-10.75,1.54-.13,1.88.72,1.84,2.07-.06,2,0,4.07,0,6.11a3.82,3.82,0,0,0,1,3.08C190.47,185.08,190.57,187.67,190.27,190.37Z"/><path class="cls-2" d="M330.84,190c-1.32,1.1-2.92.36-4.34.47s-1.65-1.4-1.54-2.72,0-3.06-1.76-2.84c-1.58.2-1.2,1.69-.77,2.93.59,1.68,0,2.54-1.89,2.18-.3-2.76.14-5.29,2.35-7.21,1-.9.41-2.11.67-3.15,1.61,0,.2,1.83,1.93,2.46V171.81c1.72-.22,2,.78,2,2.2-.09,3.88-.58,7.77,2.48,11.08C331,186.26,330.94,188.3,330.84,190Z"/><path class="cls-2" d="M170.54,190c-3.71,1.2-5.47.39-5.81-3-.23-2.28-2-1.89-3.27-2.43.78-1.56,2.38-2.81,1.85-4.87,1.57.08.22,1.83,1.39,2.3.84-3.39,0-6.81.54-10.14,1.53-.2,1.94.6,1.9,2-.05,1.93,0,3.86,0,5.79,0,1.22.06,2.5,1,3.42C170.2,184.91,170.56,187.37,170.54,190Z"/><path class="cls-2" d="M343.36,189.55c-1.9,1.29-3,1.34-2.81-1.51a6.61,6.61,0,0,1,1.85-4.59,4.53,4.53,0,0,0,1.35-3.78c1.45.13.13,1.83,1.3,2.26.88-3.39,0-6.81.6-10.13,1.24-.11,1.81.4,1.88,1.71.18,3.52-.65,7,1.41,10.54.71,1.21-1.55,4.05-4,4.84,0-.69-.1-1.38-.1-2.06a1.73,1.73,0,0,0-1.14-1.9,1.22,1.22,0,0,0-1,.25,1.73,1.73,0,0,0-.25,2.2A22.55,22.55,0,0,1,343.36,189.55Z"/><path class="cls-2" d="M82.11,202.33c2.61,1.26,5.39.16,8.07.57,0,2.64,0,5.27,0,7.91,0,1.72-.59,1.94-2.2,1.13-2.62-1.33-3.48-3.86-4.58-6.16C82.85,204.73,80.9,204,82.11,202.33Z"/><path class="cls-1" d="M325.49,171.81v10.32c-1.73-.63-.31-2.42-1.93-2.46,0-2-.07-3.94-.13-5.92C323.4,172.33,323.79,171.39,325.49,171.81Z"/><path class="cls-1" d="M245.37,171.81v10.34c-1.73-.65-.33-2.42-1.93-2.49,0-2.07-.09-4.14-.12-6.21C243.3,172,244,171.45,245.37,171.81Z"/><path class="cls-1" d="M165.25,171.81c-.49,3.33.29,6.75-.54,10.14-1.17-.47.18-2.22-1.39-2.3a50,50,0,0,1,.05-6.49C163.4,171.56,164.15,171.59,165.25,171.81Z"/><path class="cls-1" d="M345.65,171.8c-.61,3.32.27,6.74-.6,10.13-1.18-.43.15-2.13-1.3-2.26.1-2.17-.14-4.34,0-6.53C343.9,171.48,344.58,171.61,345.65,171.8Z"/><path class="cls-1" d="M225.21,171.83c-.38,3,.28,6-.39,9-.94.11-.34-1.75-1.56-1.17,0-2-.12-4-.12-6C223.14,172.31,223.72,171.51,225.21,171.83Z"/><path class="cls-1" d="M304.41,172.32c1.26,3.14.67,6.31.2,9.55-.71-.66.58-2.27-1.23-2.21,0-2-.1-4-.13-6C303.24,172.9,303.41,172.23,304.41,172.32Z"/><path class="cls-1" d="M265.53,171.79c-.63,3.3.24,6.68-.55,10-1.3-.24.06-2-1.3-2.14a17.08,17.08,0,0,0,0-6.9C263.43,171.29,264.69,171.72,265.53,171.79Z"/><path class="cls-2" d="M67.15,173.61c-.51.6,0,2-1.23,1.73A2.7,2.7,0,0,1,63.54,173c-.1-1.25,1.05-1,1.71-1.14C66.72,171.49,66.8,172.7,67.15,173.61Z"/><path class="cls-1" d="M105.29,171.79c-.76,3.3.33,6.74-.74,10.24-1.3-3.27.22-6.6-1.11-9.62C103.77,171.33,104.58,171.7,105.29,171.79Z"/><path class="cls-1" d="M185.41,171.79c-.59,3.31.2,6.74-.74,10.75-1.17-3.78.2-7.1-1.11-10.13C183.89,171.33,184.7,171.7,185.41,171.79Z"/><path class="cls-1" d="M343.36,189.55a22.55,22.55,0,0,0-.95-2.18,1.73,1.73,0,0,1,.25-2.2,1.22,1.22,0,0,1,1-.25,1.73,1.73,0,0,1,1.14,1.9c0,.69.06,1.38.1,2.06A1.26,1.26,0,0,1,343.36,189.55Z"/><path class="cls-1" d="M121.18,184.54a13.44,13.44,0,0,1,2,.42,1.44,1.44,0,0,1,1,1.89c-.25.87-1,1.16-1.62.73-1-.64-1.71.35-2.57.18C119.28,186.29,121.12,185.72,121.18,184.54Z"/><path class="cls-1" d="M83.77,177.9l-.24.06-.24,0c0-1.59-.16-3.16-.07-4.76s.78-1.6,1.91-1.37l-.21,5.5C84.47,177.37,83.92,177.24,83.77,177.9Z"/><path class="cls-2" d="M141.84,184.5c.4,1.2-.24,2.41.29,3.72.63,1.56-.42,2.17-2,1.81C140.33,188.06,139.44,185.78,141.84,184.5Z"/><path class="cls-2" d="M161.44,184.54a39.47,39.47,0,0,1,.89,4.17c.17,1.52-.94,1.51-2,1.35C160.44,188.17,159.66,186.09,161.44,184.54Z"/><path class="cls-1" d="M285.18,171.85v7.49c-1.45-2.2-.14-4.75-1.34-6.93C284,171.5,284.61,171.73,285.18,171.85Z"/><path class="cls-1" d="M205.06,171.85v7.5c-1.49-2.2-.15-4.76-1.34-6.95C203.87,171.51,204.49,171.73,205.06,171.85Z"/><path class="cls-1" d="M124.94,171.84v7.5c-1.52-2.2-.17-4.76-1.34-7C123.76,171.51,124.37,171.72,124.94,171.84Z"/><path class="cls-1" d="M307.59,179.11a1.19,1.19,0,0,1-.07-1.37Z"/><path class="cls-1" d="M307.49,174.19v-1.26A.79.79,0,0,1,307.49,174.19Z"/><path class="cls-1" d="M307.12,172.16l-.73-.38C306.77,171.64,307,171.74,307.12,172.16Z"/><path class="cls-1" d="M283.35,187.73a1.29,1.29,0,0,1-1.26-1.41c0-.72.34-1.46,1.24-1.45s1.23.66,1.24,1.44S284.3,187.71,283.35,187.73Z"/><path class="cls-1" d="M144.27,179.32v-6.09C145.32,175.25,144.85,177.3,144.27,179.32Z"/><path class="cls-3" d="M83.77,177.9c.14-.66.7-.53,1.15-.6a.58.58,0,0,1,.19.48l-.28.65C84.32,178.58,84.05,178.23,83.77,177.9Z"/><path class="cls-3" d="M85.11,177.78c.2.12.59.31.58.36-.15.42-.5.38-.86.29Z"/><path class="cls-1" d="M304.66,186.52c-.09.81-.5,1.3-1.35,1.21a1.25,1.25,0,0,1-1.18-1.43c0-.72.31-1.47,1.18-1.4A1.41,1.41,0,0,1,304.66,186.52Z"/><path class="cls-1" d="M224.53,186.45c-.06.79-.41,1.34-1.28,1.29a1.24,1.24,0,0,1-1.26-1.36c0-.74.28-1.48,1.1-1.48A1.4,1.4,0,0,1,224.53,186.45Z"/></g><g id="line4"><path class="cls-2" d="M120.1,145.84a11.32,11.32,0,0,1,2.28-7.53c1.62-2.22,1.18-5.47,1-8.27-.12-1.79.33-2.47,2-2.45,1.85,0,1.39,1.14,1.36,2.41-.08,3.48-.15,7,2.42,9.92a5.74,5.74,0,0,1,1.16,4c0,7.12-.13,14.25,0,21.37.05,2.75-1,3.52-3.6,3.44-7.36-.22-6.68,1-6.75-6.67,0-1.22,0-2.44,0-3.66,1.83,0,3.66,0,5.49.13,2.78.16,4.21-.81,3.85-3.87a32.26,32.26,0,0,1,0-5.49c.11-2.08-.5-3.13-2.85-3.26C124.35,145.8,122.23,145.8,120.1,145.84Zm2.89-2.35a1.36,1.36,0,0,0,1.3-1.42c.06-1-.46-1.45-1.45-1.45-.79,0-1.05.45-1.06,1.12A1.54,1.54,0,0,0,123,143.48Z"/><path class="cls-2" d="M285,127.7c1.85-.48,2.07.46,2,2-.18,3.71-.16,7.39,2.57,10.44a5,5,0,0,1,1,3.44c0,7.32-.1,14.64,0,22,0,2.41-.82,3.24-3.19,3.17-7.89-.22-6.95,1.15-7.09-6.92,0-1.12,0-2.24,0-3.36l3.93.08c5.33.08,5.34.07,5.34-5.31,0-8-.49-8.4-8.67-7.23-1.75-2.08-.46-4.33.6-5.67,2.45-3.11,2-6.58,2.26-10,.07-.93-.53-2,.63-2.61,0,2.38-.34,4.78.64,7.15Zm-1.57,15.79a1.51,1.51,0,0,0,1.1-1.61,1.14,1.14,0,0,0-1.37-1.24,1.19,1.19,0,0,0-1.13,1.5A1.37,1.37,0,0,0,283.47,143.49Z"/><path class="cls-2" d="M360.84,146a8.84,8.84,0,0,1,1.8-7.4c1.8-2.35,1-5.47,1.3-8.26.09-.93-.6-2,.59-2.68.06,2.38-.32,4.78.35,7.78.71-3,.37-5.41.28-7.79,1.85-.49,2.07.46,2,2-.18,3.72-.14,7.39,2.6,10.44a5.33,5.33,0,0,1,.93,3.76c0,7.12,0,14.24,0,21.36,0,1.28.37,3.06-1.39,3.2-2.17.18-4.39,1-6.58-.74-3.31-2.62-1.93-6.07-2.21-9.24l3.95,0c5.24.07,5.28,0,5.29-5.11C369.7,145.21,369.18,144.77,360.84,146Zm2.55-5.41a1.2,1.2,0,0,0-1.2,1.41c.06.88.59,1.58,1.54,1.48s1-.89,1-1.62A1.15,1.15,0,0,0,363.39,140.63Z"/><path class="cls-2" d="M325.31,127.64c1.59-.37,2.2.2,2.16,1.88-.1,3.92-.64,7.89,2.53,11.2.83.86.93,2.62.84,4.09-.44,6.61-.18,13.23-.17,19.85,0,3.81-.25,4.06-3.91,4-7.31-.06-6.14.88-6.27-6.38,0-1.32,0-2.65.07-4,1.72,0,3.45.17,5.17.13,4-.11,4.05-.16,4.07-4.16,0-9.18,0-9.18-9.22-8.34-.34-2.83,0-5.47,2.28-7.49,1.11-1,.45-2.29.72-3.42,1.52.13.28,1.8,1.73,2.5Zm-.54,14.42a1.35,1.35,0,0,0-1.18-1.49c-.9-.16-1.32.39-1.38,1.18a1.4,1.4,0,0,0,1.29,1.69C324.39,143.51,324.63,142.79,324.76,142.06Z"/><path class="cls-2" d="M340.73,146c-.38-2.88-.12-5.58,2.23-7.66.88-.78.66-1.81.76-2.78,1.22-.14.36,1.56,1.42,1.82.52-3.41.22-6.61.27-9.8,1.3-.21,2.16,0,2.1,1.65-.08,2,0,4.07,0,6.11a4.6,4.6,0,0,0,1.3,3.62,6.18,6.18,0,0,1,1.82,5.29c-.48,7.12-.14,14.25-.05,21.37,0,2.49-.92,3.15-3.25,3.08-7.91-.23-6.64,1.1-6.81-6.81,0-1.22.1-2.43.15-3.65,1.42.09,2.83.25,4.25.26,4.89,0,5-.06,5-4.83C349.89,145.14,349.5,144.81,340.73,146Zm2.7-5.53a1.26,1.26,0,0,0-1.28,1.35,1.49,1.49,0,0,0,1.32,1.69c.84.07,1.16-.69,1.27-1.39C344.88,141.2,344.33,140.69,343.43,140.5Z"/><path class="cls-2" d="M210.42,146.07c-3.4.36-6.75-.82-10.15-.26a10.84,10.84,0,0,1,2.19-7.33c1.66-2.31,1.18-5.46,1.1-8.23,0-1.75.05-2.78,2-2.66,2.15.13,1.13,1.65,1.21,2.78.22,3.34,0,6.79,2.53,9.58C210.89,141.67,210.38,144,210.42,146.07Zm-7.12-5.44a1.19,1.19,0,0,0-1.37,1.27,1.33,1.33,0,0,0,1.15,1.54c.87.09,1.27-.55,1.35-1.33S204.22,140.71,203.3,140.63Z"/><path class="cls-2" d="M24.91,127.58c1.48-.21,2.24.18,2.1,1.93-.17,2,0,4.07,0,6.11a3.83,3.83,0,0,0,1,3.08c2.21,2,2.35,4.61,2,7.32-3.24,1.09-6.49-1.07-9.73,0a9.64,9.64,0,0,1,1.92-7.57c1.82-2.37.94-5.61,1.06-8.48,0-1-.44-2.36,1.37-2.35.41,2.19-1.49,4.49.31,6.6ZM21.55,142c.15.89.62,1.55,1.54,1.48s1-.85,1-1.58c0-.92-.48-1.57-1.46-1.46C21.83,140.59,21.62,141.32,21.55,142Z"/><path class="cls-2" d="M310.71,146.07c-3.43.44-6.82-.9-10.25-.17-.22-2.78,0-5.4,2.31-7.42,1.07-.94.46-2.28.62-3.44,1.55-.14.55,1.61,1.71,2.23v-9.63c1.14-.16,2.22-.23,2.46,1.3l0,.6c-.47,1.4-.09,2.79,0,4.19-.05.08-.16.16-.14.23a3.32,3.32,0,0,0,.18.52,5.86,5.86,0,0,0,1.55,5C310.89,141.28,310.81,143.72,310.71,146.07Zm-7.16-2.84a1.19,1.19,0,0,0,1.07-1.37,1.25,1.25,0,0,0-1.36-1.24c-1-.06-1.19.52-1.15,1.29S302.61,143.16,303.56,143.23Z"/><path class="cls-2" d="M250.68,145.94c-3.41.76-6.82-.92-10.22,0-.33-2.83,0-5.47,2.26-7.49,1.11-1,.47-2.29.74-3.43,1.5.15.28,1.81,1.45,2.37.61-3.31.26-6.55.28-9.77,1.28-.25,2.17-.09,2.11,1.58-.14,4.12-.55,8.22,2.64,11.73C251,142.09,250.81,144.21,250.68,145.94Zm-6.09-4.08a1.24,1.24,0,0,0-1.33-1.32,1.41,1.41,0,0,0-1.57,1.49c0,1,.76,1.14,1.49,1.16A1.32,1.32,0,0,0,244.58,141.87Z"/><path class="cls-2" d="M230.58,146c-3.43.49-6.83-.9-10.26-.12-.34-2.83.14-5.4,2.33-7.45,1-1,.47-2.28.63-3.43,1.81,0,.29,1.88,1.42,2.41.85-3.32-.36-6.6.29-9.81,1.52-.34,2.33.11,2.18,1.82s-.1,3.24-.25,4.85a5,5,0,0,0,1.31,4.17C230.35,140.64,230.77,143.23,230.58,146Zm-7.32-2.55a1.37,1.37,0,0,0,1.27-1.44,1.29,1.29,0,0,0-1.45-1.5,1.13,1.13,0,0,0-1.08,1.21A1.52,1.52,0,0,0,223.26,143.49Z"/><path class="cls-2" d="M270.51,146.05c-3.3.54-6.59-1-9.88,0-.29-2.91,0-5.58,2.2-7.88,1.27-1.33.57-3.29.82-5,.28-1.82-.78-3.78.57-5.49.18,3.16-.34,6.37.58,9.48.8-3.18.4-6.39.48-9.58,1.28-.19,2.18,0,2.09,1.64-.09,1.82,0,3.66,0,5.48a5.8,5.8,0,0,0,1.66,4.7C271,141.3,270.43,143.76,270.51,146.05Zm-5.85-4.13c-.14-.91-.62-1.5-1.56-1.45s-1.14.8-1.09,1.5a1.47,1.47,0,0,0,1.55,1.48C264.43,143.42,264.5,142.59,264.66,141.93Z"/><path class="cls-2" d="M190.38,146.06c-3.29.55-6.58-1-9.87,0-.28-2.9,0-5.57,2.18-7.87,1.26-1.31.56-3.3.83-5,.3-1.82-.77-3.79.57-5.49.18,3.16-.34,6.37.57,10.25.94-4,.16-7.22.67-10.41,1.37-.15,2,.34,1.92,1.85-.11,2,0,4,0,6,0,1,0,2.17.73,2.85C190.37,140.43,190.54,143.17,190.38,146.06Zm-5.83-4.24c-.21-.73-.6-1.43-1.59-1.34a1.24,1.24,0,0,0-1.08,1.54c.09.82.5,1.62,1.51,1.51C184.23,143.43,184.38,142.65,184.54,141.82Z"/><path class="cls-2" d="M170.52,145.91c-3.39.84-6.8-.92-10.19.06-.32-2.82-.07-5.47,2.24-7.5,1.11-1,.48-2.3.75-3.44,1.47.17.29,1.8,1.43,2.39.61-3.32.27-6.55.28-9.77,1.29-.25,2.16,0,2.1,1.59-.06,2,0,4,0,6.06a4.54,4.54,0,0,0,1.07,3.38C170.34,140.68,170.58,143.24,170.52,145.91Zm-6-4a1.39,1.39,0,0,0-1.53-1.36,1.21,1.21,0,0,0-1.18,1.42,1.47,1.47,0,0,0,1.53,1.5C164.21,143.44,164.41,142.71,164.52,141.9Z"/><path class="cls-2" d="M110.2,146.28c-3.28,0-6.53-1.12-9.83-.24a.79.79,0,0,1,0-.58c.16-.07.45-.12.47-.22.08-.38-.23-.39-.5-.41-.26-2.15-.09-4.21,1.63-5.77,1.05-1,.77-2.18.89-3.34,1.41-.56,1,1.17,1.84,1.77.61-3.5.23-6.7.33-9.88,1.54-.27,2.21.26,2.1,1.93-.13,2,0,4.05,0,6.08a3.55,3.55,0,0,0,.81,2.84C110.39,140.61,110.38,143.4,110.2,146.28ZM103,140.45c-.87,0-1.21.62-1.26,1.35a1.49,1.49,0,0,0,1.43,1.64c.78.1,1-.59,1-1.19A1.43,1.43,0,0,0,103,140.45Z"/><path class="cls-1" d="M307.52,129.54l0-.6a2.75,2.75,0,0,1,.15.44S307.59,129.49,307.52,129.54Z"/><path class="cls-1" d="M70.31,146a88.42,88.42,0,0,1-.05,12.37l-10.22,0q0-6.2,0-12.4c2.1.12,2.4-1,1.84-2.7-.39-1.14-.7-2.41.81-2.64,1.74-.27,1.7,1.27,1.77,2.48s-.4,2.67,1.4,2.79C67.34,146,68.82,146.7,70.31,146Z"/><path class="cls-1" d="M150.45,146a93.64,93.64,0,0,1,0,12.32l-10.24,0,0-11.86c3.67-1.42,1.35-3.89,1.05-6h0c2.66-.28,3.7.92,3.34,3.54-.14,1,.26,1.87,1.42,1.87C147.5,145.9,149,146.7,150.45,146Z"/><path class="cls-1" d="M90.28,146c.36,4,.78,8-.31,11.93a35.13,35.13,0,0,1-9.77.38q0-6.18,0-12.36c1.65,0,3-.32,2-2.47-.41-.84-.88-1.64-.16-2.54a1.12,1.12,0,0,1,1.36-.37c1.19.45,1.18,1.52,1.22,2.55s-.32,2.67,1.5,2.76C87.48,146,88.87,146.67,90.28,146Z"/><path class="cls-1" d="M270.51,146.05c.65,4.05-.1,8.09-.12,12.13-3.28.13-6.56.64-9.85.09a30.54,30.54,0,0,1,.09-12.24C263.92,145,267.21,146.59,270.51,146.05Z"/><path class="cls-1" d="M180.4,158.27a30.39,30.39,0,0,1,.11-12.24c3.29-1,6.58.57,9.87,0a97,97,0,0,1-.1,12.14C187,158.29,183.69,158.84,180.4,158.27Z"/><path class="cls-1" d="M100.25,158.27a30.91,30.91,0,0,1,.12-12.23c3.3-.88,6.55.28,9.83.24a85.43,85.43,0,0,1,0,11.92C106.85,158.26,103.56,158.86,100.25,158.27Z"/><path class="cls-1" d="M300.42,158.38q0-6.24,0-12.48c3.43-.73,6.83.6,10.25.17q0,6.11,0,12.22Z"/><path class="cls-1" d="M220.3,158.37q0-6.23,0-12.45c3.43-.78,6.83.62,10.26.12a97.49,97.49,0,0,1,0,12.27Z"/><path class="cls-1" d="M200.17,158.42a94.83,94.83,0,0,1,.1-12.61c3.4-.57,6.76.62,10.15.26l0,12.2Z"/><path class="cls-1" d="M170.52,145.91c.1,4,.77,8.07-.43,12.05a35.22,35.22,0,0,1-9.77.38q0-6.18,0-12.37C163.73,145,167.13,146.75,170.52,145.91Z"/><path class="cls-1" d="M240.44,158.34q0-6.19,0-12.37c3.41-.94,6.82.74,10.22,0,0,4,.78,8.05-.46,12A35.21,35.21,0,0,1,240.44,158.34Z"/><path class="cls-1" d="M50.18,146.06a101.16,101.16,0,0,1,0,12.24,8.23,8.23,0,0,0-4.95.61c-1.09-1.14-2-2.47-4-2-1.36.35-1.44-.66-1.42-1.64q.09-4.72.18-9.43C43.38,145.11,46.75,147.09,50.18,146.06Z"/><path class="cls-1" d="M340.73,146c8.77-1.22,9.16-.9,9.16,7.67,0,4.77-.08,4.86-5,4.83-1.42,0-2.83-.17-4.25-.26C339.61,154.19,340.32,150.11,340.73,146Z"/><path class="cls-1" d="M360.84,146c8.34-1.28,8.87-.84,8.86,7.38,0,5.14,0,5.18-5.29,5.11l-3.95,0C360.37,154.34,359.82,150.17,360.84,146Z"/><path class="cls-1" d="M320.58,146c9.26-.84,9.26-.84,9.22,8.34,0,4,0,4.06-4.07,4.16-1.72,0-3.45-.08-5.17-.13Q320.57,152.15,320.58,146Z"/><path class="cls-1" d="M280.9,146c8.18-1.17,8.67-.76,8.67,7.23,0,5.38,0,5.39-5.34,5.31l-3.93-.08C280.39,154.3,279.43,150.09,280.9,146Z"/><path class="cls-1" d="M120.1,145.84c2.13,0,4.25,0,6.39.07,2.34.12,3,1.17,2.85,3.26a32.26,32.26,0,0,0,0,5.49c.36,3.06-1.07,4-3.85,3.87-1.83-.11-3.66-.09-5.49-.13A107.08,107.08,0,0,1,120.1,145.84Z"/><path class="cls-2" d="M200.17,158.42l10.24-.15c0,2.34,0,4.68,0,7,0,.61.19,1.36-.09,1.81-2,3.2-5.13,1-7.71,1.56-1.63.33-2.44-.65-2.44-2.3C200.18,163.71,200.17,161.06,200.17,158.42Z"/><path class="cls-2" d="M300.42,158.38l10.26-.1c0,2.54,0,5.09,0,7.63,0,1.8-.7,2.83-2.73,2.79-9-.16-7.42,1.12-7.58-7.28C300.35,160.42,300.41,159.4,300.42,158.38Z"/><path class="cls-2" d="M220.3,158.37l10.25-.06c0,2.44,0,4.88,0,7.32,0,2.12-.77,3.14-3.08,3.09-8.51-.18-7.1,1-7.24-7C220.22,160.61,220.28,159.49,220.3,158.37Z"/><path class="cls-2" d="M140.17,158.36l10.24,0c0,2.44,0,4.88,0,7.32,0,2.12-.8,3.12-3.09,3.07-8.54-.18-7.06,1-7.2-7C140.09,160.6,140.15,159.48,140.17,158.36Z"/><path class="cls-2" d="M240.44,158.34a35.21,35.21,0,0,0,9.78-.38c.64,2.79.22,5.62.23,8.42,0,1.49-.73,2.36-2.46,2.33-9.35-.17-7.37,1.14-7.61-7.05C240.33,160.56,240.41,159.45,240.44,158.34Z"/><path class="cls-2" d="M80.21,158.34A35.13,35.13,0,0,0,90,158c.06,2.74.14,5.48.17,8.23,0,1.72-.71,2.57-2.59,2.53-9.21-.18-7.17,1.1-7.43-7C80.09,160.58,80.18,159.46,80.21,158.34Z"/><path class="cls-2" d="M100.25,158.27c3.31.59,6.6,0,9.9-.07q0,3.49,0,7a8.76,8.76,0,0,1,0,1.21c-.57,4.14-3.78,1.9-5.78,2.19-1.59.23-4.21,1.13-4.23-2.15C100.12,163.72,100.21,161,100.25,158.27Z"/><path class="cls-2" d="M160.32,158.34a35.22,35.22,0,0,0,9.77-.38c.5,2.73.17,5.48.19,8.22,0,.88,0,2.11-1.1,2.29a26.53,26.53,0,0,1-7.89,0c-1.14-.14-1.06-1.31-1.05-2.24C160.28,163.63,160.3,161,160.32,158.34Z"/><path class="cls-2" d="M180.4,158.27c3.3.57,6.58,0,9.88-.08q0,3.49,0,7c0,.4,0,.81,0,1.21-.33,3.86-3.33,2.13-5.14,2.18s-4.69,1.56-4.83-2.13C180.19,163.73,180.35,161,180.4,158.27Z"/><path class="cls-2" d="M260.54,158.27c3.29.55,6.57,0,9.85-.09q0,3.49,0,7c0,.41,0,.81,0,1.22,0,3.29-2.61,2.46-4.19,2.2-2-.33-5.35,2-5.74-2.14A75.39,75.39,0,0,1,260.54,158.27Z"/><path class="cls-2" d="M50.18,146.06c-3.43,1-6.8-.95-10.23-.19-.69-3.38,1.12-5.88,2.91-8.4.85-.4,2.32-.11,1.7-2s.54-3.72-.7-5.51c-.22-.32,1-1.54-.63-1.66,3.14-1.36,3.34-1.07,3.35,2.08,0,3.31-.19,6.75,2.43,9.53C50.6,141.64,50.16,143.95,50.18,146.06Z"/><path class="cls-2" d="M60,158.36l10.22,0c0,2.53,0,5.07,0,7.6,0,1.38-.31,2.72-2.13,2.71-1.18,0-2.64.67-2.53-1.77,0-1.07-1.65-2.09-3-2.06-2.64.05-2.81-1.45-2.56-3.46C60.08,160.39,60,159.37,60,158.36Z"/><path class="cls-2" d="M70.31,146c-1.49.7-3,0-4.44-.11-1.8-.12-1.34-1.65-1.4-2.79s0-2.75-1.77-2.48c-1.51.23-1.2,1.51-.81,2.64.56,1.65.26,2.82-1.84,2.7-.38-2.85.11-5.43,2.32-7.48,1.07-1,.52-2.28.67-3.44,1.16-.34.57,1.32,1.51,1.33.66-2.93-.2-5.78-.29-8.64,1.83-.43,2.75-.14,2.62,2.16-.22,3.82-.6,7.69,2.63,10.88C70.74,142,70.37,144.18,70.31,146Z"/><path class="cls-2" d="M90.28,146c-1.41.64-2.8-.05-4.19-.12-1.83-.09-1.46-1.59-1.5-2.76s0-2.09-1.22-2.55A1.12,1.12,0,0,0,82,141c-.71.9-.25,1.7.16,2.54,1.05,2.15-.31,2.43-2,2.47-.31-2.82-.09-5.48,2.22-7.51,1.1-1,.5-2.3.77-3.45,1.45.19.28,1.8,1.48,2.43a67.66,67.66,0,0,0,.24-9.8c1.32-.26,2.15,0,2.08,1.62-.08,1.93,0,3.86,0,5.79a4.88,4.88,0,0,0,1.15,3.68C90.25,140.78,90.47,143.34,90.28,146Z"/><path class="cls-2" d="M150.45,146c-1.49.68-2.95-.12-4.42-.12-1.15,0-1.56-.88-1.42-1.87.36-2.62-.68-3.82-3.34-3.54.68-1.8,2.62-3.17,1.89-5.46,1.58-.06.43,1.69,1.45,2.17.74-3.24-.32-6.43.26-9.56,1.56-.37,2.27.18,2.14,1.85s0,3.23-.2,4.83a5,5,0,0,0,1.28,4.17C150.2,140.63,150.62,143.21,150.45,146Z"/><path class="cls-1" d="M20.25,146c3.24-1.08,6.49,1.09,9.73,0a11.74,11.74,0,0,1,.15,1.49c-.15,6.57-.15,6.57-6.41,3.92C19.17,149.52,19.17,149.52,20.25,146Z"/><path class="cls-2" d="M5,146l-.89-1.67c.69-2.87-.53-4.06-3.37-3.82.94-2.72,4-2.67,5.76-4.36,1.72,3.07,4.48,5.88,3.64,10C8.41,146.62,6.72,145.72,5,146Z"/><path class="cls-1" d="M5,146c1.72-.23,3.41.67,5.14.15.1.28.33.58.28.82-.31,1.55,1,4-.93,4.51-2.14.57-2.94-1.91-3.87-3.51A9.37,9.37,0,0,1,5,146Z"/><path class="cls-1" d="M43.24,128.35c1.66.11.41,1.34.63,1.66,1.24,1.79.12,3.77.7,5.51s-.85,1.56-1.7,2C42.75,134.42,42.43,131.36,43.24,128.35Z"/><path class="cls-1" d="M225,127.64c-.65,3.21.56,6.48-.29,9.81-1.13-.53.39-2.45-1.42-2.41,0-1.93-.11-3.85-.14-5.78C223.12,128,223.59,127.29,225,127.64Z"/><path class="cls-1" d="M325.31,127.64v9.91c-1.45-.7-.21-2.36-1.73-2.5,0-1.88-.08-3.76-.13-5.64C323.41,128.12,323.72,127.21,325.31,127.64Z"/><path class="cls-1" d="M305.1,127.64v9.63c-1.16-.62-.16-2.36-1.71-2.23,0-1.92-.11-3.84-.13-5.76C303.24,128.06,303.7,127.3,305.1,127.64Z"/><path class="cls-1" d="M144.86,127.64c-.57,3.13.49,6.33-.26,9.56-1-.48.13-2.23-1.45-2.17,0-1.93-.11-3.86-.14-5.79C143,128,143.47,127.29,144.86,127.64Z"/><path class="cls-1" d="M105,127.6c-.1,3.18.28,6.38-.33,9.88-.8-.59-.43-2.33-1.84-1.77-.34-2.21,1.95-4.32.24-6.58C103.76,128.65,103.72,127.28,105,127.6Z"/><path class="cls-1" d="M165,127.64c0,3.22.33,6.46-.28,9.77-1.15-.59,0-2.22-1.43-2.39,0-2.07.1-4.15,0-6.22C163.27,127.32,164.08,127.45,165,127.64Z"/><path class="cls-1" d="M84.92,127.64a67.66,67.66,0,0,1-.24,9.8c-1.19-.63,0-2.24-1.48-2.43,0-2.07.09-4.14,0-6.21C83.15,127.34,84,127.43,84.92,127.64Z"/><path class="cls-1" d="M245.18,127.64c0,3.22.33,6.46-.28,9.77-1.17-.56,0-2.22-1.45-2.37,0-2.08.11-4.17,0-6.24C243.4,127.27,244.24,127.47,245.18,127.64Z"/><path class="cls-1" d="M345.42,127.62c-.05,3.19.26,6.39-.27,9.8-1.07-.26-.2-2-1.42-1.82.38-2.31-.31-4.62.2-7C344.2,127.29,344.67,127.56,345.42,127.62Z"/><path class="cls-1" d="M64.26,127.72c.09,2.87,1,5.71.29,8.64-.94,0-.35-1.67-1.51-1.33-.05-1.88-.13-3.77-.14-5.65C62.9,128.52,62.8,127.45,64.26,127.72Z"/><path class="cls-1" d="M185.34,127.55c-.51,3.19.27,6.45-.67,10.41-.91-3.88-.39-7.1-.57-10.25C184.46,127.25,184.84,126.95,185.34,127.55Z"/><path class="cls-1" d="M265.29,127.61c-.09,3.19.32,6.4-.48,9.58-.92-3.11-.4-6.32-.58-9.48Z"/><path class="cls-2" d="M45.21,158.91a8.23,8.23,0,0,1,4.95-.61c-.28,1,.65,2.72-.67,2.81A4.28,4.28,0,0,1,45.21,158.91Z"/><path class="cls-1" d="M.74,140.46c2.84-.24,4.06,1,3.37,3.82C2.09,143.79.16,143.24.74,140.46Z"/><path class="cls-2" d="M5.19,129.21c.59,0,1.56-.72,1.57.57,0,1.48.48,3.07-.28,4.39-.24.41-1.14-.48-1.65-.92C5,131.91,4.52,130.51,5.19,129.21Z"/><path class="cls-2" d="M141.26,140.51c.29,2.11,2.62,4.58-1.05,6C140.38,144.48,139.35,142.23,141.26,140.51Z"/><path class="cls-1" d="M5.19,129.21c-.67,1.3-.2,2.69-.36,4C2.38,133,2.86,131,3,129.59S4.4,129.1,5.19,129.21Z"/><path class="cls-1" d="M24.91,127.58v6.65c-1.8-2.11.1-4.41-.31-6.6l.14-.13Z"/><path class="cls-1" d="M365.15,127.7c.09,2.39.43,4.78-.28,7.79-.68-3-.29-5.4-.35-7.78Z"/><path class="cls-1" d="M285,127.7v7.17c-1-2.36-.6-4.77-.64-7.15Z"/><path class="cls-1" d="M307.59,134.48a3.32,3.32,0,0,1-.18-.52c0-.07.09-.15.14-.23Z"/><path class="cls-1" d="M100.34,144.83c.27,0,.58,0,.5.41,0,.1-.31.15-.47.22Z"/><path class="cls-1" d="M123,143.48a1.54,1.54,0,0,1-1.22-1.75c0-.68.27-1.12,1.06-1.12,1,0,1.51.46,1.45,1.45A1.36,1.36,0,0,1,123,143.48Z"/><path class="cls-1" d="M283.47,143.49a1.37,1.37,0,0,1-1.4-1.35,1.19,1.19,0,0,1,1.13-1.5,1.14,1.14,0,0,1,1.37,1.24A1.51,1.51,0,0,1,283.47,143.49Z"/><path class="cls-1" d="M363.39,140.63a1.14,1.14,0,0,1,1.31,1.27c0,.73-.11,1.53-1,1.62s-1.48-.6-1.54-1.48A1.2,1.2,0,0,1,363.39,140.63Z"/><path class="cls-1" d="M324.76,142.06c-.13.73-.37,1.45-1.26,1.38a1.4,1.4,0,0,1-1.29-1.69c.06-.79.48-1.34,1.38-1.18A1.35,1.35,0,0,1,324.76,142.06Z"/><path class="cls-1" d="M343.43,140.5c.89.19,1.44.7,1.3,1.65-.11.71-.43,1.46-1.27,1.39a1.49,1.49,0,0,1-1.32-1.69A1.26,1.26,0,0,1,343.43,140.5Z"/><path class="cls-1" d="M203.3,140.63c.93.08,1.2.69,1.12,1.48s-.48,1.42-1.35,1.33a1.33,1.33,0,0,1-1.15-1.54A1.19,1.19,0,0,1,203.3,140.63Z"/><path class="cls-1" d="M21.55,142c.07-.73.28-1.46,1.09-1.55,1-.12,1.44.53,1.46,1.46,0,.72-.17,1.51-1,1.58S21.69,142.94,21.55,142Z"/><path class="cls-1" d="M303.56,143.23c-.95-.07-1.39-.52-1.43-1.32s.18-1.36,1.15-1.29a1.25,1.25,0,0,1,1.36,1.24A1.19,1.19,0,0,1,303.56,143.23Z"/><path class="cls-1" d="M244.58,141.87a1.32,1.32,0,0,1-1.42,1.33c-.72,0-1.49-.2-1.49-1.16a1.41,1.41,0,0,1,1.57-1.49A1.24,1.24,0,0,1,244.58,141.87Z"/><path class="cls-1" d="M223.26,143.49a1.52,1.52,0,0,1-1.26-1.73,1.13,1.13,0,0,1,1.08-1.21,1.29,1.29,0,0,1,1.45,1.5A1.37,1.37,0,0,1,223.26,143.49Z"/><path class="cls-1" d="M264.66,141.93c-.16.67-.23,1.49-1.1,1.53A1.47,1.47,0,0,1,262,142c-.05-.7.21-1.45,1.09-1.5S264.52,141,264.66,141.93Z"/><path class="cls-1" d="M184.54,141.82c-.16.84-.31,1.62-1.15,1.71-1,.11-1.42-.69-1.51-1.51a1.24,1.24,0,0,1,1.08-1.54C183.94,140.39,184.33,141.09,184.54,141.82Z"/><path class="cls-1" d="M164.52,141.9c-.11.81-.31,1.54-1.18,1.55a1.47,1.47,0,0,1-1.53-1.5,1.21,1.21,0,0,1,1.18-1.42A1.39,1.39,0,0,1,164.52,141.9Z"/><path class="cls-1" d="M103,140.45a1.43,1.43,0,0,1,1.21,1.79c-.08.6-.26,1.29-1,1.19a1.49,1.49,0,0,1-1.43-1.64C101.79,141.07,102.13,140.44,103,140.45Z"/></g><g id="line3"><path class="cls-2" d="M205,83.12c1.53-.27,2.12.3,2,1.9-.39,3.95-.19,7.76,2.67,11a5,5,0,0,1,.82,3.49c0,7.22-.1,14.43,0,21.65,0,2.2-.65,3.17-2.9,3.14-8.73-.13-7.2.81-7.41-6.88,0-1,0-2,0-3a5.84,5.84,0,0,1,1.19-.19c9.55.4,8,.43,8.13-8.59a1.17,1.17,0,0,0,0-.3c-.44-1.71-.65-3.54-3.2-3.32-1.57.14-1.84-1.11-1.62-2.27.48-2.48-.53-3.69-2.95-3.91,2.11-3,1.82-6.55,1.92-10,0-1-.3-1.93.62-2.66v7.53H205Z"/><path class="cls-2" d="M105.22,83.06c1.17-.13,2,.1,1.9,1.56-.07,1.72.07,3.46,0,5.18-.11,2.11.21,4,1.87,5.52,1.21,1.12,1.28,2.71,1.28,4.26,0,7.21-.13,14.43,0,21.64,0,2.28-.81,3.11-3,3.06-8.66-.2-6.86.93-7.19-6.73,0-1.12,0-2.23,0-3.35,1.72,0,3.44.07,5.16,0,1.08,0,2.25.27,3.18-.63,1.18-1.15,1.08-10.6-.22-11.67a2.66,2.66,0,0,0-1.69-.46c-1.79.09-2.21-.62-1.91-2.35.22-1.27,0-3.08-1.69-3s-1.2,1.71-1,2.91.2,2.51-1.67,2.36c-.28-2.8,0-5.35,2.24-7.48,1.27-1.21.53-3.09.83-4.64.39-2-.68-4.19.55-6.14.32,3.24-.26,6.55.55,10.55C105.55,89.66,104.6,86.31,105.22,83.06Z"/><path class="cls-2" d="M360.33,101.33c-.19-4.75,3.33-10.3,7.22-11.19a6.52,6.52,0,0,0,1.91,5.24A4.94,4.94,0,0,1,370.68,99c0,7.43-.09,14.86,0,22.28,0,2.12-.71,3-2.77,2.95-9-.11-7.17.88-7.47-6.79,0-1,0-2,0-3.05,2.81-.8,6.37,1.22,8.44-1.05s.51-5.85.79-8.83a4.27,4.27,0,0,0-.17-1.2c-.22-1.12-.87-1.94-2.05-1.84-2.53.22-2.87-1.15-2.56-3.17a1.93,1.93,0,0,0-.86-2.12,1,1,0,0,0-1.37.19,1.91,1.91,0,0,0-.21,2.27C363.63,101,362.4,101.52,360.33,101.33Z"/><path class="cls-2" d="M345.61,83.08c.5.61,1.5,1.31,1.41,1.83-1.11,6.54,4.35,11.67,3.61,18.29-.68,6-.15,12.19-.05,18.29,0,1.89-.56,2.65-2.56,2.78-7.5.5-7.5.57-7.5-7,0-1,0-2,0-3.05a11.12,11.12,0,0,1,1.2-.07c9.88.47,8-.07,8.14-7.76,0-.81,0-1.62-.08-2.43-.11-1.66-.86-2.67-2.68-2.52S344.55,101,345,99a2.41,2.41,0,0,0-1.2-2.87,1.22,1.22,0,0,0-1.1.15c-.9.81-.68,1.82-.28,2.8.73,1.79,0,2.45-1.78,2.31-.35-2.79,0-5.39,2.24-7.37,1-.87.69-2,.83-3.05,1.46,0,.05,1.86,1.37,2C345.88,89.71,345.08,86.36,345.61,83.08Z"/><path class="cls-1" d="M270.52,101.41c.72,4.24-.17,8.47-.11,12.71l-10,.11a42.3,42.3,0,0,1,.14-12.82c2.81.25,1.86-1.5,1.56-2.92-.22-1.05-.27-2.24,1.05-2.4s1.62,1,1.72,2.07a7.46,7.46,0,0,1-.19,1.8c-.14.88.2,1.41,1.11,1.37C267.37,101.26,268.93,102.11,270.52,101.41Z"/><path class="cls-1" d="M170.54,101.28a66.77,66.77,0,0,1-.18,13H160.27l0-12.87c2.61.24,2.25-1.18,1.63-2.84-.39-1-.33-2.2,1-2.41s1.69.88,1.8,2c.06.6,0,1.21,0,1.82s.12,1.5,1.09,1.45C167.38,101.25,169,102.23,170.54,101.28Z"/><path class="cls-1" d="M230.59,101.41a111.63,111.63,0,0,1,0,12.85l-10.31,0,0-13c3,.32,2.11-1.46,1.68-3.06-.26-1-.1-2,1-2.16s1.59.7,1.68,1.69c.07.7,0,1.42,0,2.13s.13,1.48,1.11,1.43C227.42,101.26,229,102.14,230.59,101.41Z"/><path class="cls-1" d="M150.45,101.38a106.55,106.55,0,0,1,0,12.91l-10.3,0q0-6.47,0-12.94c3,.3,2.14-1.46,1.68-3.07-.27-1-.11-2,1-2.16s1.6.68,1.7,1.68c.07.7,0,1.42,0,2.13s.11,1.49,1.1,1.44C147.28,101.26,148.86,102.14,150.45,101.38Z"/><path class="cls-1" d="M300.38,114.29q0-6.5.05-13c2.62.41,2.32-1.12,1.77-2.73a1.8,1.8,0,0,1,.63-2.39c.72-.42,1.76.07,1.68.7-.51,4.18,2,5.2,5.37,5.45a3.4,3.4,0,0,1,.8.27,86.74,86.74,0,0,1,0,11.66Z"/><path class="cls-1" d="M120,114.31l.1-13.08c2.79.52,2.13-1.25,1.81-2.76-.2-1-.26-1.9.75-2.37.59-.28,1.53.14,1.47.67-.5,4.29,2.19,5.3,5.59,5.68a5.38,5.38,0,0,1,.57.12,84.87,84.87,0,0,1,0,11.67Z"/><path class="cls-1" d="M340.66,101.41c1.78.15,2.5-.52,1.78-2.31-.4-1-.63-2,.28-2.8a1.22,1.22,0,0,1,1.1-.15A2.41,2.41,0,0,1,345,99c-.46,2,.31,2.57,2.12,2.42s2.57.86,2.68,2.52c.05.81.09,1.62.08,2.43-.17,7.69,1.74,8.23-8.14,7.76a11.12,11.12,0,0,0-1.2.07A41.37,41.37,0,0,1,340.66,101.41Z"/><path class="cls-1" d="M320.5,114.23l.05-12.89c3.43-.64,6.85.68,10.28,0a89,89,0,0,1-.12,13.06C327.32,113.74,323.9,114.53,320.5,114.23Z"/><path class="cls-1" d="M250.69,101.31a81.46,81.46,0,0,1-.13,13.12c-3.38-.73-6.79.13-10.17-.2l.05-12.88C243.85,100.67,247.27,102.06,250.69,101.31Z"/><path class="cls-1" d="M100.28,101.41c1.87.14,1.93-1,1.67-2.36s-.71-2.81,1-2.91,1.91,1.7,1.69,3c-.3,1.73.12,2.44,1.91,2.35a2.66,2.66,0,0,1,1.69.46c1.3,1.07,1.4,10.52.22,11.67-.93.9-2.1.6-3.18.63-1.72,0-3.44,0-5.16,0A44.11,44.11,0,0,1,100.28,101.41Z"/><path class="cls-1" d="M360.33,101.33c2.08.19,3.3-.29,2.12-2.68a1.91,1.91,0,0,1,.21-2.27,1,1,0,0,1,1.37-.19,1.93,1.93,0,0,1,.86,2.12c-.31,2,0,3.39,2.56,3.17,1.19-.1,1.83.72,2.05,1.84a4.27,4.27,0,0,1,.17,1.2c-.29,3,1.31,6.51-.79,8.83s-5.63.25-8.44,1.05Z"/><path class="cls-1" d="M201.66,95.75c2.41.22,3.43,1.43,2.95,3.91-.22,1.16,0,2.41,1.62,2.27,2.55-.23,2.76,1.61,3.2,3.32a1.17,1.17,0,0,1,0,.3c-.14,9,1.42,9-8.13,8.59a5.84,5.84,0,0,0-1.19.19c.08-4.14-.69-8.33.58-12.42,3.29-1.51.37-4.12,1.07-6.09Z"/><path class="cls-1" d="M180.4,100.8c1.91.92,4,.35,5.95.53s2.89,1.2,2.94,3c.07,2.43.07,4.86,0,7.29a2.35,2.35,0,0,1-2.7,2.55l-6.36,0A48.08,48.08,0,0,1,180.4,100.8Z"/><path class="cls-2" d="M9.66,111.61c.6,3.77.32,7.3.3,10.81,0,1-.47,1.73-1.64,1.73H1.63c-1.12,0-1.67-.49-1.62-1.66,0-.91,0-1.83,0-2.74,0-5-.05-5.13,4.9-5.72C6.74,113.81,8.06,112.82,9.66,111.61Z"/><path class="cls-1" d="M280.82,102c2.38-1.63,4.9-.52,7.36-.31.61.05.94.73,1.1,1.34a4.61,4.61,0,0,1,.25,1.5c-.28,3,1.33,6.53-.79,8.84s-5.64.29-8.46,1C280.37,110.24,279.51,106.07,280.82,102Z"/><path class="cls-2" d="M90.25,118.51c-.19,5.85.9,5.78-5.83,5.73-4.25,0-4.25,0-4.29-4.3,0-.2,0-.41,0-.61,0-1.73-.51-3.82.28-5.08,1-1.52,3.08.51,4.69-.16a1,1,0,0,1,.6,0c1.46.45,3.25-1.46,4.19,0C90.61,115.14,90.17,117,90.25,118.51Z"/><path class="cls-2" d="M70.25,118.21c0,6.15.68,6.21-5.8,6-1.6-.06-4.15,1.26-4.49-2-.52-4.89.63-7.26,3.9-8.06.49-.12,1-.1,1.51-.18C70.25,113.16,70.25,113.16,70.25,118.21Z"/><path class="cls-2" d="M28.79,108.72c1-1,1.13-.32,1.14.6,0,4.17.06,8.35.14,12.52,0,1.68-.73,2.23-2.37,2.4-7.52.75-7.79.55-7.82-7,0-.92,0-1.83,0-2.75,1.45-.7,3-.12,4.44-.16C29.07,114.14,29.54,113.61,28.79,108.72Z"/><path class="cls-1" d="M390.81,102.59a2.55,2.55,0,0,1-.73,2.69c-2.44,2.9-4.71,6-7,8.95l-2.53.07.06-13c2.36.37,3.07-.44,2-2.66-.52-1-.48-2.16.74-2.49a1.34,1.34,0,0,1,1.63,1.65c-1.1,3.53,1,3.9,3.54,3.76C389.49,101.46,389.83,102.66,390.81,102.59Z"/><path class="cls-2" d="M300.38,114.29l10.32-.05c0,2.33-.06,4.67,0,7,.05,2-.64,2.9-2.76,3-7.58.5-7.57.57-7.58-6.94C300.37,116.32,300.38,115.31,300.38,114.29Z"/><path class="cls-2" d="M120,114.31l10.31-.08c0,2.43-.09,4.87,0,7.3.09,2-.8,2.73-2.68,2.72-9.11,0-7.43.77-7.64-6.9C120,116.34,120,115.32,120,114.31Z"/><path class="cls-2" d="M220.25,114.28l10.31,0c0,2.43,0,4.87,0,7.3,0,1.92-.92,2.58-2.78,2.71-7.54.51-7.54.56-7.54-6.95C220.24,116.31,220.25,115.29,220.25,114.28Z"/><path class="cls-2" d="M50.16,114.25c0,2.43-.05,4.87,0,7.3,0,1.7-.53,2.52-2.4,2.7-7.7.75-7.94.6-7.94-6.93,0-1,0-2,0-3Z"/><path class="cls-2" d="M140.12,114.27l10.3,0q0,3.65,0,7.29c0,1.66-.66,2.49-2.48,2.66-7.63.73-7.81.62-7.81-6.94C140.11,116.29,140.12,115.28,140.12,114.27Z"/><path class="cls-2" d="M320.5,114.23c3.4.31,6.82-.49,10.21.17,0,2.42,0,4.84-.06,7.27,0,1.6-.65,2.45-2.49,2.6-7.7.63-7.69.7-7.69-7C320.48,116.25,320.49,115.24,320.5,114.23Z"/><path class="cls-2" d="M240.39,114.23c3.39.33,6.8-.53,10.17.2,0,1.93,0,3.87-.06,5.8,0,3.92-.13,4.07-4.16,4-7.41-.09-5.76.42-6-6.06C240.32,116.87,240.38,115.55,240.39,114.23Z"/><path class="cls-2" d="M260.4,114.23l10-.11c0,2.34-.15,4.7,0,7,.22,2.51-.93,3.2-3.17,3.15-8.44-.21-6.63.82-6.92-6.7C260.33,116.47,260.39,115.35,260.4,114.23Z"/><path class="cls-2" d="M160.27,114.22h10.09c0,2.54,0,5.07,0,7.61,0,1.55-.7,2.25-2.38,2.41-7.51.72-7.71.6-7.72-6.68C160.24,116.45,160.26,115.34,160.27,114.22Z"/><path class="cls-1" d="M50.16,114.25l-10.32,0c0-2.83,0-5.65,0-8.48,0-.91-.05-2.13,1.3-1.82,2.6.6,5.3.92,7.53,2.71C51.29,108.84,50.12,111.64,50.16,114.25Z"/><path class="cls-2" d="M310.68,102.58a3.4,3.4,0,0,0-.8-.27c-3.38-.25-5.88-1.28-5.37-5.45.08-.63-1-1.12-1.68-.7a1.8,1.8,0,0,0-.63,2.39c.55,1.61.85,3.14-1.77,2.73A10,10,0,0,1,302.71,94c1.64-2.21.68-5.26.89-7.93.09-1.1-.3-2.21.89-2.94q0,3.76,0,7.51l.78,0V83.1c.93,0,2-.49,1.87,1.37-.3,4.21-.56,8.38,2.81,11.91C311.41,97.93,310.64,100.47,310.68,102.58Z"/><path class="cls-2" d="M130.26,102.57a5.38,5.38,0,0,0-.57-.12c-3.39-.38-6.09-1.39-5.59-5.68.06-.53-.87-.94-1.47-.67-1,.47-1,1.42-.75,2.37.32,1.51,1,3.28-1.81,2.76-.11-2.57.14-5,2.21-6.9,1-.88.72-2,.81-3.06.21-2.46-.59-5,.59-7.38,1,3-.17,6.12.86,9.32.61-3.5.22-6.81.32-10.1,1.53-.26,2.11.29,2,1.91-.35,3.94-.13,7.7,2.63,11C131,97.86,130.18,100.36,130.26,102.57Z"/><path class="cls-2" d="M330.83,101.34c-3.43.68-6.85-.64-10.28,0-.29-2.73,0-5.29,2.26-7.22,1-.9.55-2.08.75-3.13,1.58,0,.21,1.79,1.43,2.13.75-3.36.11-6.73.43-10,1.72-.35,2.05.57,2,2.05C327.4,89,326.85,93,330,96.34,331.05,97.47,331,99.59,330.83,101.34Zm-6.08-3.76c-.11-.91-.58-1.56-1.53-1.51s-1.06.85-1,1.56.39,1.39,1.27,1.36S324.65,98.35,324.75,97.57Z"/><path class="cls-2" d="M250.69,101.31c-3.41.75-6.84-.64-10.25,0-.29-2.73,0-5.3,2.24-7.23,1-.89.57-2.08.76-3.14,1.51,0,.29,1.76,1.43,2.26.74-3.51.12-6.86.44-10.15,1.42-.3,2.06.23,2,1.73-.06,1.93,0,3.86,0,5.79A5.91,5.91,0,0,0,249,95C250.7,96.75,250.66,99.06,250.69,101.31ZM243.14,99a1.34,1.34,0,0,0,1.45-1.47A1.39,1.39,0,0,0,243,96.06a1.37,1.37,0,0,0-1.4,1.34C241.58,98.4,242,98.92,243.14,99Z"/><path class="cls-2" d="M230.59,101.41c-1.59.73-3.17-.15-4.75-.07-1,.05-1.11-.67-1.11-1.43s0-1.42,0-2.13c-.1-1-.55-1.89-1.68-1.69s-1.29,1.19-1,2.16c.43,1.6,1.34,3.38-1.68,3.06a8.09,8.09,0,0,1,2.31-7.18c1.26-1.21.46-2.87.69-4.31,1.71.5.58,2.3,1.84,3.18V83.1c1.33-.23,2.15,0,2,1.68s-.09,3.45-.23,5.17a5.29,5.29,0,0,0,1.35,4.19C230.29,96.23,230.76,98.68,230.59,101.41Z"/><path class="cls-2" d="M150.45,101.38c-1.59.75-3.17-.13-4.76,0-1,.05-1.09-.69-1.1-1.44s0-1.42,0-2.13c-.1-1-.56-1.88-1.7-1.68s-1.28,1.21-1,2.16c.45,1.62,1.3,3.37-1.68,3.07a8,8,0,0,1,2.29-7.19c1.28-1.23.5-2.87.72-4.32,1.49.64.49,2.28,1.37,3.61.77-3.68.19-7,.47-10.33,1-.09,2.07-.24,2,1.4s0,3.44-.17,5.15a5.66,5.66,0,0,0,1.31,4.48A9,9,0,0,1,150.45,101.38Z"/><path class="cls-2" d="M170.54,101.28c-1.56.95-3.15,0-4.73.06-1,.05-1.08-.7-1.09-1.45s0-1.22,0-1.82c-.11-1.09-.56-2.17-1.8-2s-1.34,1.37-1,2.41c.62,1.65,1,3.08-1.63,2.84-.29-2.73,0-5.31,2.22-7.25,1-.89.58-2.08.78-3.14,1.49,0,.31,1.75,1.42,2.28.73-3.53.1-6.87.45-10.16,1.42-.27,2,.27,2,1.76-.07,2,0,4.05,0,6.08a4.47,4.47,0,0,0,1.08,3.38C170.31,96.22,170.55,98.7,170.54,101.28Z"/><path class="cls-2" d="M270.52,101.41c-1.59.7-3.15-.15-4.74-.08-.9,0-1.24-.49-1.11-1.37a7.46,7.46,0,0,0,.19-1.8c-.1-1-.45-2.22-1.72-2.07s-1.27,1.34-1.05,2.4c.3,1.41,1.26,3.17-1.56,2.92-.33-2.77-.05-5.39,2.22-7.35,1-.85.62-2,.92-3,1.28.21.14,1.69,1.26,2.18.82-3.39,0-6.8.53-10.12,1.49-.26,2,.42,1.92,1.85-.07,2,0,4.06,0,6.1,0,1.14,0,2.34.92,3.12C270.59,96.12,270.56,98.75,270.52,101.41Z"/><path class="cls-2" d="M390.81,102.59c-1,.07-1.31-1.13-2.36-1.07-2.58.15-4.64-.23-3.54-3.76a1.34,1.34,0,0,0-1.63-1.65c-1.22.33-1.26,1.46-.74,2.49,1.11,2.22.4,3-2,2.66q0-.46,0-.92c0-2.18,0-4.84,2.18-5.57s4.94.14,6.91,1.51C391.8,97.78,390.59,100.44,390.81,102.59Z"/><path class="cls-1" d="M28.79,108.72c.75,4.88.28,5.42-4.51,5.57-1.48,0-3-.53-4.44.16-.59-2.36-.42-4.28,2.74-4C24.91,110.71,26.8,109.59,28.79,108.72Z"/><path class="cls-1" d="M325.42,83.08c-.32,3.31.33,6.68-.43,10-1.22-.35.15-2.18-1.43-2.13,0-2.08-.08-4.15-.12-6.23C323.42,83.41,323.94,82.67,325.42,83.08Z"/><path class="cls-1" d="M245.31,83.08c-.32,3.3.3,6.65-.44,10.15-1.13-.5.08-2.29-1.43-2.26,0-2.08-.09-4.15-.12-6.23C243.29,83.38,243.84,82.67,245.31,83.08Z"/><path class="cls-2" d="M380.51,114.31l2.53-.07c-.6,3-1.49,6-1.88,9.19C380.21,120.42,380.63,117.34,380.51,114.31Z"/><path class="cls-1" d="M165.18,83.08c-.35,3.29.29,6.64-.45,10.16-1.11-.53.07-2.3-1.42-2.28,0-2.18.19-4.36.06-6.53C163.27,82.79,164.08,82.86,165.18,83.08Z"/><path class="cls-1" d="M145,83.09c-.28,3.3.3,6.66-.47,10.33-.88-1.32.11-3-1.37-3.61,0-1.67-.11-3.34-.14-5C143,83.47,143.53,82.7,145,83.09Z"/><path class="cls-1" d="M345.61,83.08c-.53,3.27.27,6.62-.5,9.92-1.32-.17.09-2-1.37-2,0-2.19.21-4.38,0-6.55C343.65,82.69,344.53,82.89,345.61,83.08Z"/><path class="cls-1" d="M184.77,83.09c.76,3.35.36,6.68.17,10.21-1.21-.65-.12-2.11-1.45-2.31-.08-2.49.61-5,.06-7.47C183.45,83.06,184.27,83,184.77,83.09Z"/><path class="cls-1" d="M225.14,83.1V93c-1.27-.88-.14-2.68-1.84-3.18,0-1.67-.11-3.34-.13-5C223.16,83.51,223.64,82.7,225.14,83.1Z"/><path class="cls-1" d="M265.46,83.07c-.5,3.32.29,6.74-.53,10.12-1.11-.49,0-2-1.26-2.18a14.91,14.91,0,0,0-.06-6.91C263.28,82.83,264.55,82.92,265.46,83.07Z"/><path class="cls-1" d="M105.22,83.06c-.62,3.25.33,6.6-.78,10.64-.81-4-.23-7.31-.55-10.55Z"/><path class="cls-2" d="M201.77,95.84c-.7,2,2.22,4.57-1.07,6.09C199.67,99.65,199.21,97.48,201.77,95.84Z"/><path class="cls-1" d="M124.87,83.11c-.11,3.29.29,6.6-.32,10.1-1-3.19.1-6.35-.86-9.32C123.52,82.78,124.26,83,124.87,83.11Z"/><path class="cls-1" d="M205,83.12v7.53h-.78V83.13Z"/><path class="cls-1" d="M285.11,83.12v7.53c-1.11-2.47-.57-5-.78-7.52Z"/><path class="cls-1" d="M305.26,83.1v7.54l-.78,0q0-3.76,0-7.51Z"/><path class="cls-1" d="M282,97.54c.14-.7.32-1.46,1.2-1.45s1.34.75,1.32,1.63-.36,1.39-1.27,1.28S282.13,98.29,282,97.54Z"/><path class="cls-1" d="M183.44,99.41c-1-.33-1.57-.88-1.55-1.76s.27-1.72,1.36-1.55a1.5,1.5,0,0,1,1.25,1.78A1.59,1.59,0,0,1,183.44,99.41Z"/><path class="cls-1" d="M324.75,97.57c-.1.78-.44,1.38-1.29,1.41s-1.25-.59-1.27-1.36.14-1.52,1-1.56S324.65,96.67,324.75,97.57Z"/><path class="cls-1" d="M243.14,99c-1.09-.12-1.56-.64-1.49-1.64a1.37,1.37,0,0,1,1.4-1.34,1.39,1.39,0,0,1,1.54,1.51A1.34,1.34,0,0,1,243.14,99Z"/><path class="cls-2" d="M280.82,102c-1-1.87-1.34-3.87.18-5.49,2.93-3.1,2.64-6.93,2.74-10.68,0-1-.36-1.95.58-2.69.21,2.5-.33,5.06.78,7.52V83.12c1.55-.28,2.12.31,1.95,1.9-.43,4-.13,7.75,2.69,11a5,5,0,0,1,.8,3.48c0,7.21-.12,14.43,0,21.63.05,2.49-.92,3.23-3.18,3.18-8.3-.2-6.91.88-7.12-6.86,0-1,0-2,0-3,2.82-.72,6.38,1.25,8.46-1s.51-5.86.79-8.84a4.61,4.61,0,0,0-.25-1.5c-.16-.61-.49-1.29-1.1-1.34C285.72,101.47,283.2,100.36,280.82,102ZM282,97.54c.1.75.43,1.35,1.25,1.45s1.25-.5,1.27-1.28-.31-1.63-1.32-1.63S282.17,96.83,282,97.54Z"/><path class="cls-2" d="M180.4,100.8c-.18-2.55.06-5,2.22-6.76,1-.82.63-2,.88-3,1.33.2.24,1.66,1.45,2.31.19-3.53.59-6.86-.17-10.21,1.72-.29,2.67.1,2.49,2.17s0,4.06,0,6.09a4.17,4.17,0,0,0,1.32,3.27,6.31,6.31,0,0,1,1.8,5.29c-.43,7.11-.13,14.22,0,21.32,0,2.28-.78,3.1-3,3-8.74-.2-6.85.89-7.17-6.73,0-1.11,0-2.23,0-3.35l6.36,0a2.35,2.35,0,0,0,2.7-2.55c0-2.43,0-4.86,0-7.29-.05-1.85-.82-2.86-2.94-3S182.3,101.72,180.4,100.8Zm3-1.39a1.59,1.59,0,0,0,1.06-1.54,1.5,1.5,0,0,0-1.25-1.78c-1.09-.16-1.34.75-1.36,1.55S182.48,99.08,183.44,99.41Z"/></g><g id="line2"><path class="cls-2" d="M265.6,38.53c1.49,0,1.83.85,1.77,2.19-.08,2,0,5.07,0,7.1a3.66,3.66,0,0,0,.85,2.85c2.43,2.19,2.27,5,2.23,7.87-.1,6.4-.14,12.81,0,19.21.05,2.41-.84,2.27-3.15,2.23-8.26-.14-6.72,1.66-6.93-5.75,0-1.21.1-2.43.15-3.64,2.23,0,4.45,0,6.68,0,1.47,0,2.28-.52,2.25-2.11-.05-2.53-.07-5.06,0-7.59,0-1.47-.61-1.74-2-2.2-2.33-.74-6.06.8-6.68-3.37-.4-1.65.48-2.84,1.5-3.94a4,4,0,0,0,1.36-3.42c1.28-.28.34,1.61,1.55,1.67C265.27,46.14,265.43,41.83,265.6,38.53Z"/><path class="cls-2" d="M280.47,58.07c-.25-3.45.22-6.56,3.86-8.15,1.15-.51,1.07-1.61,1.35-2.54.19-.61.42-2.24,1.16-2.18.93.07.65,1.89.62,2.41a5.2,5.2,0,0,0,1.65,4.1,5.62,5.62,0,0,1,1.45,4.2c0,7.33-.1,14.65,0,22,0,2.3-.9,2-3,2.11-7.23.31-7.23,1.36-7.24-5.87,0-1.12,0-2.24,0-3.36.61,0,1.21-.1,1.82-.1,7.49,0,7.49,0,7.46-7.54,0-.71,0-1.42,0-2.13,0-1.55-.51-2-2.25-2.36C285,58.17,282.74,58.33,280.47,58.07Z"/><path class="cls-1" d="M230.59,58.37a99.42,99.42,0,0,1,0,12.26l-10.26.05,0-12.45c2.48-.85,4.92-.25,7.38.16C228.65,58.55,229.64,59.17,230.59,58.37Z"/><path class="cls-1" d="M170.52,58.23a56.42,56.42,0,0,1-.19,12.35l-10,.06a98,98,0,0,1,.16-11.92,5.23,5.23,0,0,1,4.49-.84C166.77,58.23,168.61,59.26,170.52,58.23Z"/><path class="cls-1" d="M200.15,70.72a90.92,90.92,0,0,1,.15-12.62c3.45-.78,6.75.27,10.09.84a84.3,84.3,0,0,1,0,11.65Z"/><path class="cls-1" d="M250.63,58.83a60.15,60.15,0,0,1-.07,12c-3.37-.78-6.76.24-10.13-.15l0-12.35C243.92,56.93,247.23,58.76,250.63,58.83Z"/><path class="cls-1" d="M190.32,59a72,72,0,0,1,0,11.53l-9.89.07c-.6-3.94-1.08-7.87.33-11.75a2.56,2.56,0,0,1,2.84-1.1C185.76,58.62,188.08,58.49,190.32,59Z"/><path class="cls-1" d="M260.69,55.3c.62,4.17,4.35,2.63,6.68,3.37,1.43.46,2.06.72,2,2.2,0,2.53,0,5.06,0,7.59,0,1.59-.78,2.13-2.25,2.11-2.22,0-4.45,0-6.68,0A44.06,44.06,0,0,1,260.69,55.3Z"/><path class="cls-1" d="M280.47,58.07c2.26.26,4.52.1,6.82.55,1.74.34,2.27.81,2.25,2.36,0,.71,0,1.42,0,2.13,0,7.57,0,7.57-7.46,7.54-.61,0-1.21.06-1.82.1A80.82,80.82,0,0,1,280.47,58.07Z"/><path class="cls-2" d="M200.15,70.72l10.25-.13c0,2.54-.06,5.09,0,7.63.06,1.79-.71,1.54-2.47,1.73-7.38.8-7.82,1.45-7.82-5.88C200.13,73,200.14,71.84,200.15,70.72Z"/><path class="cls-2" d="M220.29,70.68l10.26-.05c0,2.44,0,4.89,0,7.33,0,2-.85,2-2.93,2-9.16,0-7.19,1.48-7.39-5.92C220.21,72.92,220.27,71.8,220.29,70.68Z"/><path class="cls-2" d="M308.38,70.35c2.11,1.51,3.27,6.82,1.79,8.73-.89,1.15-2.19.86-3.37.87-7.54,0-6.31,1.27-6.43-5.28,0-1.31,0-2.63.05-3.94Z"/><path class="cls-2" d="M240.43,70.64c3.37.39,6.76-.63,10.13.15,0,2.43,0,4.86,0,7.29,0,1.95-.9,1.81-3,1.91-7.19.34-7.19,1.4-7.19-5.71C240.36,73.07,240.4,71.86,240.43,70.64Z"/><path class="cls-2" d="M180.39,70.59l9.89-.07c0,2.64,0,5.27,0,7.91,0,1.64-.63,1.47-2.27,1.5-.2,0-.4,0-.61,0-8.55-.06-7,1.74-7.2-5.74C180.19,73,180.33,71.8,180.39,70.59Z"/><path class="cls-2" d="M160.31,70.64l10-.06c0,2.42,0,4.84,0,7.27,0,2.09-.77,2.05-3,2.14-7.11.29-7.11,1.36-7.11-5.72C160.24,73.06,160.29,71.85,160.31,70.64Z"/><path class="cls-2" d="M190.32,59c-2.23-.5-4.55-.37-6.76-1.24a2.56,2.56,0,0,0-2.84,1.1l-.12-1.08c.89-.81,1.68-1.65,1.15-3-1.5-2.11.31-3.4,1.21-4.91,3.63-.2,2.06-3.55,1.81-5.36l1.87-3.75h.59c0,1.21,0,2.43,0,3.64-.08,2.55.15,5.87,2.12,7.94C191.07,54.13,190.28,56.7,190.32,59Z"/><path class="cls-2" d="M320.59,73c3.44-.3,5.73,6.21,9.86,1.14.52,6.33.29,5.85-3.46,5.79C319.68,79.81,320.38,82.25,320.59,73Z"/><path class="cls-2" d="M102.16,70.61c.61,1.69,1.13,3.41,1.84,5.06.84,1.92,1.95,3.55,4.52,3,.48-.11,1.29-1.35,1.51-.53a1.22,1.22,0,0,1-1,1.59,22,22,0,0,1-7.81,0c-1-.18-1-.15-1-.94,0-2.72-.37-5.44.09-8.16Z"/><path class="cls-1" d="M83.94,70.72A6.79,6.79,0,0,1,83.41,69c0-1.46-.84-3.41.84-4.17a5.8,5.8,0,0,1,5.57.43c1.56,1.22.81,3.49.35,5.34Z"/><path class="cls-2" d="M83.94,70.72l6.23-.14c0,2.62,0,5.25,0,7.87,0,.86,0,.94-1.13,1.23-1.34.33-1.32-.91-1.69-1.65C86,75.34,84.78,73.61,83.94,70.72Z"/><path class="cls-1" d="M144.92,70.49c.6-2.83.76-5.86,3.51-7.71,1.19-.8,2.25-1.34,2.16.92s-.13,4.64-.19,7C148.6,70,146.74,70.94,144.92,70.49Z"/><path class="cls-1" d="M308.38,70.35l-8,.37c.6-1.38-.34-2.74,0-4.12.18-.83-.47-2,.55-2.44a2.52,2.52,0,0,1,2.69.9C305,67.06,307.7,67.8,308.38,70.35Z"/><path class="cls-2" d="M170.52,58.23c-1.92,1-3.75,0-5.57-.35a5.23,5.23,0,0,0-4.49.84c.84-2.23,7.27-5.72,9.12-4.69C171.19,54.92,170.29,56.8,170.52,58.23Z"/><path class="cls-2" d="M142.2,79.85c1.67-2.15,3.69-2,5.87-2.41.67-.12,1.94-1.09,2.26.34s0,1.85-1.7,2C146.62,80,144.59,79.85,142.2,79.85Z"/><path class="cls-2" d="M144.92,70.49c1.82.45,3.68-.48,5.49.17,0,1.48,0,3,0,5.2C148.16,73.84,144.26,74.75,144.92,70.49Z"/><path class="cls-1" d="M265.6,38.53c-.16,3.3-.33,7.61-.5,11.09-1.21-.06-.27-2-1.55-1.67,0-2.3,1.16-5.6-.1-7.94C263.34,39.79,264,37.72,265.6,38.53Z"/><path class="cls-1" d="M245.44,38.55V49.87c-1.76-.69-.46-2.42-2-2.52,0-1.91-.09-4.83-.13-6.74C243.28,39.17,243.73,38.21,245.44,38.55Z"/><path class="cls-1" d="M225.27,38.57V49.64c-1.73-.31-.28-2.48-2-2.29,0-1.9-.1-4.81-.12-6.71C223.12,39.21,223.59,38.25,225.27,38.57Z"/><path class="cls-1" d="M102.16,70.61l-1.91,0c-1-1.5-.3-3.15-.42-4.73,0-.51-.52-1.63.83-1.42.73.11,1.37.41,1.39,1.32C102.08,67.37,102.13,69,102.16,70.61Z"/><path class="cls-2" d="M344.06,79.88c-3.72-.17-3.75.8-3.26-3.58C342.48,77.44,343.75,77.74,344.06,79.88Z"/><path class="cls-1" d="M184.77,44.48c.25,1.81,1.82,5.16-1.81,5.36C182.83,48.09,182.7,45.33,184.77,44.48Z"/><path class="cls-1" d="M181.75,54.76c.53,1.35-.27,2.19-1.15,3C179.32,56.13,179.4,55,181.75,54.76Z"/><path class="cls-1" d="M204.68,38.91a21,21,0,0,1-.12,8.15,28,28,0,0,1-.11-8.14Z"/><path class="cls-1" d="M204.43,53.82c0,1-.27,1.76-1,1.88-1,.17-1.43-.61-1.46-1.47a1.25,1.25,0,0,1,1.18-1.45A1.23,1.23,0,0,1,204.43,53.82Z"/><path class="cls-1" d="M244.56,54.25a1.24,1.24,0,0,1-1.19,1.19,1.14,1.14,0,0,1-1.3-1.3c0-.75.26-1.47,1.22-1.32A1.55,1.55,0,0,1,244.56,54.25Z"/><path class="cls-1" d="M224.54,54.19c-.08.79-.33,1.51-1.18,1.53S222,55,222,54.09s.39-1.38,1.3-1.3A1.31,1.31,0,0,1,224.54,54.19Z"/><path class="cls-2" d="M210.39,58.94c-3.34-.56-6.64-1.62-10.09-.84a10.33,10.33,0,0,1,2.07-7.29c1.78-2.41,1.06-6.58,1.23-9.44.06-1-.5-2,.86-2.45a28,28,0,0,0,.11,8.14,21,21,0,0,0,.12-8.15c2.33-.88,2.27.57,2.22,2.19-.1,3.58-.12,8.13,2.45,11.12C211,54.18,210.31,56.66,210.39,58.94Zm-6-5.12a1.23,1.23,0,0,0-1.31-1,1.25,1.25,0,0,0-1.18,1.45c0,.86.46,1.64,1.46,1.47C204.16,55.58,204.45,54.87,204.43,53.82Z"/><path class="cls-2" d="M250.63,58.83c-3.4-.07-6.7-1.89-10.18-.53-.32-2.93,0-5.66,2.39-7.77,1-.87.34-2.13.61-3.17,1.53.1.23,1.83,2,2.52V38.55c1.48-.09,1.9.7,1.87,2.05,0,2,0,5,0,7a4.23,4.23,0,0,0,.93,3.11C250.64,53,250.8,55.86,250.63,58.83Zm-6.07-4.57a1.55,1.55,0,0,0-1.27-1.42c-1-.15-1.21.57-1.22,1.32a1.14,1.14,0,0,0,1.3,1.3A1.24,1.24,0,0,0,244.56,54.25Z"/><path class="cls-2" d="M230.59,58.37c-1,.8-1.93.17-2.88,0-2.46-.4-4.9-1-7.38-.16-.32-2.82,0-5.44,2.26-7.48,1.07-1,.54-2.26.68-3.41,1.73-.19.28,2,2,2.29V38.57c1.23-.11,1.93.32,1.86,1.69-.1,1.81-.07,4.64-.22,6.44a4.66,4.66,0,0,0,1.21,3.88C230.37,52.78,230.78,55.46,230.59,58.37Zm-6-4.18a1.31,1.31,0,0,0-1.24-1.4c-.91-.09-1.28.52-1.3,1.3s.36,1.65,1.36,1.63S224.46,55,224.54,54.19Z"/></g><g id="line1"><path class="cls-2" d="M210.43,12.77l-10.2-.24c-.11-2.7.2-5.24,2.41-7.17,1-.86.39-2.11.65-3.15.19-.78-.4-2,1-2.18s3,1,2.95,1.82c-.07,2.43,1.4,3.87,2.54,5.61S210.33,11,210.43,12.77Zm-6-3.81c0-.77-.25-1.42-1.08-1.53-1-.14-1.45.55-1.44,1.45a1.33,1.33,0,0,0,1.27,1.4C204.11,10.35,204.36,9.71,204.45,9Z"/><path class="cls-1" d="M225.74,12.1a19.83,19.83,0,0,0,3.8,1.6c1.15.23,1.19.84,1.18,1.66,0,3.41-.1,6.81-.16,10.22-3.45-.59-6.9.14-10.35,0l.07-12.93C222.12,12.54,224,12.78,225.74,12.1Z"/><path class="cls-2" d="M249.59,24.76c1.79,3.21.87,6.57.48,9.87-.11.92-1.11.68-1.77.76-7.76.92-8,.75-7.94-7,0-1.11.06-2.23.09-3.34A15.76,15.76,0,0,0,249.59,24.76Z"/><path class="cls-2" d="M220.22,25.56c3.45.16,6.9-.56,10.35,0,0,2.24-.08,4.48,0,6.72s-.9,3.24-3.27,3.19c-8.58-.19-6.86.78-7.06-6.88C220.21,27.59,220.23,26.57,220.22,25.56Z"/><path class="cls-1" d="M249.59,24.76a15.76,15.76,0,0,1-9.15.29V15.7c1.47,1.58,1,3.47,1.3,5.09.47,2.63,1.85,3.56,4.38,3.52C247.27,24.28,248.56,23.74,249.59,24.76Z"/><path class="cls-2" d="M225.74,12.1c-1.77.68-3.62.44-5.44.53,0-2.07-.41-4.25,1.69-6.16C222.08,9.28,224.88,10,225.74,12.1Z"/><path class="cls-2" d="M268.4,35.37c-2.31,0-4.31,0-6.31,0-1.4,0-1.63-.85-1.68-1.95-.07-1.55,1.07-1.13,1.88-1.12C264.7,32.36,266.89,32.91,268.4,35.37Z"/><path class="cls-2" d="M190.08,24.68V34.8h-1l.46-10.12Z"/><path class="cls-1" d="M200.1,25.63l.13-13.1,10.2.24V25.53C207,25.1,203.54,25.57,200.1,25.63Z"/><path class="cls-2" d="M200.1,25.63c3.44-.06,6.88-.54,10.32-.1,0,2.54,0,5.08,0,7.63,0,1.5-.63,2.1-2.17,2.27-7.77.88-8.11.63-8.12-7.06C200.13,27.46,200.11,26.55,200.1,25.63Z"/><path class="cls-1" d="M204.45,9c-.09.76-.34,1.4-1.25,1.31a1.33,1.33,0,0,1-1.27-1.4c0-.9.41-1.59,1.44-1.45C204.2,7.53,204.45,8.19,204.45,9Z"/></g></svg>