<svg xmlns="http://www.w3.org/2000/svg" viewBox="0 0 556.15 933.6"><defs><style>.cls-1{font-size:33.08px;font-family:MyriadPro-Regular, Myriad Pro;}.cls-2{letter-spacing:-0.01em;}.cls-3{letter-spacing:0em;}.cls-4{letter-spacing:-0.01em;}.cls-5{letter-spacing:-0.01em;}.cls-6{letter-spacing:0em;}</style></defs><title>3 jeu cepages</title><g id="Grappe_1" data-name="Grappe 1"><path d="M101.8,243.53a8,8,0,1,1-6.86-6.86A8,8,0,0,1,101.8,243.53Z" transform="translate(-65.07 -202.4)"/><path d="M101.8,278.33a8,8,0,1,1-6.86-6.86A8,8,0,0,1,101.8,278.33Z" transform="translate(-65.07 -202.4)"/><path d="M122.88,244.57a8,8,0,1,1-8-8A8,8,0,0,1,122.88,244.57Z" transform="translate(-65.07 -202.4)"/><path d="M80.91,243.53a8,8,0,1,1-6.86-6.86A8,8,0,0,1,80.91,243.53Z" transform="translate(-65.07 -202.4)"/><path d="M90.86,261.43A8,8,0,1,1,84,254.58,8,8,0,0,1,90.86,261.43Z" transform="translate(-65.07 -202.4)"/><path d="M112.73,261.43a8,8,0,1,1-6.86-6.86A8,8,0,0,1,112.73,261.43Z" transform="translate(-65.07 -202.4)"/><path d="M128,204.81v5.14a1,1,0,0,1-1,1A29.67,29.67,0,0,0,97.44,232.6a.49.49,0,0,1-.58.34,11.75,11.75,0,0,0-2.66-.31,11.26,11.26,0,0,0-1.45.1.5.5,0,0,1-.55-.6A36.33,36.33,0,0,1,94,226.58a.19.19,0,0,0-.29-.23,14.42,14.42,0,0,1-18.87-1.93,1,1,0,0,1,0-1.29A14.16,14.16,0,0,1,81,218.89a.5.5,0,0,0,.22-.79A14.28,14.28,0,0,1,77.93,208a1,1,0,0,1,.92-.92,14.33,14.33,0,0,1,10,3.37.5.5,0,0,0,.79-.22A14.17,14.17,0,0,1,93.9,204a1,1,0,0,1,1.29,0,14.35,14.35,0,0,1,4.44,12.57.19.19,0,0,0,.34.15,36.69,36.69,0,0,1,27-13A1,1,0,0,1,128,204.81Z" transform="translate(-65.07 -202.4)"/></g><g id="Nom_1" data-name="Nom 1"><text class="cls-1" transform="translate(79.36 29.93)"><tspan class="cls-2">C</tspan><tspan x="18.96" y="0">abe</tspan><tspan class="cls-3" x="70.3" y="0">r</tspan><tspan x="81.25" y="0">net </tspan><tspan x="0" y="39.7">sauvi</tspan><tspan class="cls-4" x="70.93" y="39.7">g</tspan><tspan x="89.22" y="39.7">non</tspan></text></g><g id="Grappe_2" data-name="Grappe 2"><path d="M387.8,242.14a8,8,0,1,1-6.86-6.86A8,8,0,0,1,387.8,242.14Z" transform="translate(-65.07 -202.4)"/><path d="M387.8,276.95a8,8,0,1,1-6.86-6.86A8,8,0,0,1,387.8,276.95Z" transform="translate(-65.07 -202.4)"/><path d="M408.88,243.18a8,8,0,1,1-8-8A8,8,0,0,1,408.88,243.18Z" transform="translate(-65.07 -202.4)"/><path d="M366.91,242.14a8,8,0,1,1-6.86-6.86A8,8,0,0,1,366.91,242.14Z" transform="translate(-65.07 -202.4)"/><path d="M376.86,260a8,8,0,1,1-6.86-6.86A8,8,0,0,1,376.86,260Z" transform="translate(-65.07 -202.4)"/><path d="M398.73,260a8,8,0,1,1-6.86-6.86A8,8,0,0,1,398.73,260Z" transform="translate(-65.07 -202.4)"/><path d="M414,203.42v5.14a1,1,0,0,1-1,1,29.67,29.67,0,0,0-29.55,21.66.49.49,0,0,1-.58.34,11.75,11.75,0,0,0-2.66-.31,11.26,11.26,0,0,0-1.45.1.5.5,0,0,1-.55-.6,36.33,36.33,0,0,1,1.79-5.55.19.19,0,0,0-.29-.23A14.42,14.42,0,0,1,360.82,223a1,1,0,0,1,0-1.29A14.16,14.16,0,0,1,367,217.5a.5.5,0,0,0,.22-.79,14.28,14.28,0,0,1-3.33-10.06,1,1,0,0,1,.92-.92,14.33,14.33,0,0,1,10,3.37.5.5,0,0,0,.79-.22,14.17,14.17,0,0,1,4.24-6.24,1,1,0,0,1,1.29,0,14.35,14.35,0,0,1,4.44,12.57.19.19,0,0,0,.34.15,36.69,36.69,0,0,1,27-13A1,1,0,0,1,414,203.42Z" transform="translate(-65.07 -202.4)"/></g><g id="Nom_2" data-name="Nom 2"><text class="cls-1" transform="translate(366.14 28.54)"><tspan class="cls-5">C</tspan><tspan x="18.96" y="0">abe</tspan><tspan class="cls-6" x="70.3" y="0">r</tspan><tspan x="81.25" y="0">net </tspan><tspan x="0" y="39.7">sauvi</tspan><tspan class="cls-4" x="70.93" y="39.7">g</tspan><tspan x="89.22" y="39.7">non</tspan></text></g><g id="Grappe_3" data-name="Grappe 3"><path d="M101.8,380.53a8,8,0,1,1-6.86-6.86A8,8,0,0,1,101.8,380.53Z" transform="translate(-65.07 -202.4)"/><path d="M101.8,415.33a8,8,0,1,1-6.86-6.86A8,8,0,0,1,101.8,415.33Z" transform="translate(-65.07 -202.4)"/><path d="M122.88,381.57a8,8,0,1,1-8-8A8,8,0,0,1,122.88,381.57Z" transform="translate(-65.07 -202.4)"/><path d="M80.91,380.53a8,8,0,1,1-6.86-6.86A8,8,0,0,1,80.91,380.53Z" transform="translate(-65.07 -202.4)"/><path d="M90.86,398.43A8,8,0,1,1,84,391.58,8,8,0,0,1,90.86,398.43Z" transform="translate(-65.07 -202.4)"/><path d="M112.73,398.43a8,8,0,1,1-6.86-6.86A8,8,0,0,1,112.73,398.43Z" transform="translate(-65.07 -202.4)"/><path d="M128,341.81v5.14a1,1,0,0,1-1,1A29.67,29.67,0,0,0,97.44,369.6a.49.49,0,0,1-.58.34,11.75,11.75,0,0,0-2.66-.31,11.26,11.26,0,0,0-1.45.1.5.5,0,0,1-.55-.6A36.33,36.33,0,0,1,94,363.58a.19.19,0,0,0-.29-.23,14.42,14.42,0,0,1-18.87-1.93,1,1,0,0,1,0-1.29A14.16,14.16,0,0,1,81,355.89a.5.5,0,0,0,.22-.79A14.28,14.28,0,0,1,77.93,345a1,1,0,0,1,.92-.92,14.33,14.33,0,0,1,10,3.37.5.5,0,0,0,.79-.22A14.17,14.17,0,0,1,93.9,341a1,1,0,0,1,1.29,0,14.35,14.35,0,0,1,4.44,12.57.19.19,0,0,0,.34.15,36.69,36.69,0,0,1,27-13A1,1,0,0,1,128,341.81Z" transform="translate(-65.07 -202.4)"/></g><g id="Nom_3" data-name="Nom 3"><text class="cls-1" transform="translate(79.36 164.93)"><tspan class="cls-2">C</tspan><tspan x="18.96" y="0">abe</tspan><tspan class="cls-3" x="70.3" y="0">r</tspan><tspan x="81.25" y="0">net </tspan><tspan x="0" y="39.7">sauvi</tspan><tspan class="cls-4" x="70.93" y="39.7">g</tspan><tspan x="89.22" y="39.7">non</tspan></text></g><g id="Grappe_4" data-name="Grappe 4"><path d="M387.8,378.53a8,8,0,1,1-6.86-6.86A8,8,0,0,1,387.8,378.53Z" transform="translate(-65.07 -202.4)"/><path d="M387.8,413.33a8,8,0,1,1-6.86-6.86A8,8,0,0,1,387.8,413.33Z" transform="translate(-65.07 -202.4)"/><path d="M408.88,379.57a8,8,0,1,1-8-8A8,8,0,0,1,408.88,379.57Z" transform="translate(-65.07 -202.4)"/><path d="M366.91,378.53a8,8,0,1,1-6.86-6.86A8,8,0,0,1,366.91,378.53Z" transform="translate(-65.07 -202.4)"/><path d="M376.86,396.43a8,8,0,1,1-6.86-6.86A8,8,0,0,1,376.86,396.43Z" transform="translate(-65.07 -202.4)"/><path d="M398.73,396.43a8,8,0,1,1-6.86-6.86A8,8,0,0,1,398.73,396.43Z" transform="translate(-65.07 -202.4)"/><path d="M414,339.81v5.14a1,1,0,0,1-1,1,29.67,29.67,0,0,0-29.55,21.66.49.49,0,0,1-.58.34,11.75,11.75,0,0,0-2.66-.31,11.26,11.26,0,0,0-1.45.1.5.5,0,0,1-.55-.6,36.33,36.33,0,0,1,1.79-5.55.19.19,0,0,0-.29-.23,14.42,14.42,0,0,1-18.87-1.93,1,1,0,0,1,0-1.29,14.16,14.16,0,0,1,6.24-4.24.5.5,0,0,0,.22-.79A14.28,14.28,0,0,1,363.93,343a1,1,0,0,1,.92-.92,14.33,14.33,0,0,1,10,3.37.5.5,0,0,0,.79-.22A14.17,14.17,0,0,1,379.9,339a1,1,0,0,1,1.29,0,14.35,14.35,0,0,1,4.44,12.57.19.19,0,0,0,.34.15,36.69,36.69,0,0,1,27-13A1,1,0,0,1,414,339.81Z" transform="translate(-65.07 -202.4)"/></g><g id="Nom_4" data-name="Nom 4"><text class="cls-1" transform="translate(366.36 162.93)"><tspan class="cls-2">C</tspan><tspan x="18.96" y="0">abe</tspan><tspan class="cls-3" x="70.3" y="0">r</tspan><tspan x="81.25" y="0">net </tspan><tspan x="0" y="39.7">sauvi</tspan><tspan class="cls-4" x="70.93" y="39.7">g</tspan><tspan x="89.22" y="39.7">non</tspan></text></g><g id="Grappe_5" data-name="Grappe 5"><path d="M101.8,510.53a8,8,0,1,1-6.86-6.86A8,8,0,0,1,101.8,510.53Z" transform="translate(-65.07 -202.4)"/><path d="M101.8,545.33a8,8,0,1,1-6.86-6.86A8,8,0,0,1,101.8,545.33Z" transform="translate(-65.07 -202.4)"/><path d="M122.88,511.57a8,8,0,1,1-8-8A8,8,0,0,1,122.88,511.57Z" transform="translate(-65.07 -202.4)"/><path d="M80.91,510.53a8,8,0,1,1-6.86-6.86A8,8,0,0,1,80.91,510.53Z" transform="translate(-65.07 -202.4)"/><path d="M90.86,528.43A8,8,0,1,1,84,521.58,8,8,0,0,1,90.86,528.43Z" transform="translate(-65.07 -202.4)"/><path d="M112.73,528.43a8,8,0,1,1-6.86-6.86A8,8,0,0,1,112.73,528.43Z" transform="translate(-65.07 -202.4)"/><path d="M128,471.81v5.14a1,1,0,0,1-1,1A29.67,29.67,0,0,0,97.44,499.6a.49.49,0,0,1-.58.34,11.75,11.75,0,0,0-2.66-.31,11.26,11.26,0,0,0-1.45.1.5.5,0,0,1-.55-.6A36.33,36.33,0,0,1,94,493.58a.19.19,0,0,0-.29-.23,14.42,14.42,0,0,1-18.87-1.93,1,1,0,0,1,0-1.29A14.16,14.16,0,0,1,81,485.89a.5.5,0,0,0,.22-.79A14.28,14.28,0,0,1,77.93,475a1,1,0,0,1,.92-.92,14.33,14.33,0,0,1,10,3.37.5.5,0,0,0,.79-.22A14.17,14.17,0,0,1,93.9,471a1,1,0,0,1,1.29,0,14.35,14.35,0,0,1,4.44,12.57.19.19,0,0,0,.34.15,36.69,36.69,0,0,1,27-13A1,1,0,0,1,128,471.81Z" transform="translate(-65.07 -202.4)"/></g><g id="Nom_5" data-name="Nom 5"><text class="cls-1" transform="translate(79.36 295.93)"><tspan class="cls-2">C</tspan><tspan x="18.96" y="0">abe</tspan><tspan class="cls-3" x="70.3" y="0">r</tspan><tspan x="81.25" y="0">net </tspan><tspan x="0" y="39.7">sauvi</tspan><tspan class="cls-4" x="70.93" y="39.7">g</tspan><tspan x="89.22" y="39.7">non</tspan></text></g><g id="Verre"><path d="M323.74,1032.53H315.1c-48.38-3.46-95-30.24-126.13-73.43-32.83-44.92-44.92-100.21-32.83-152,21.6-95.89,33.69-147.72,47.51-181.41l3.46-8.64H438.63l2.59,8.64C455,659.33,468,712,485.28,807.92A198,198,0,0,1,443,969.46C411,1009.2,366.07,1032.53,323.74,1032.53ZM224.19,643c-11.25,32.9-24.24,84.84-43.28,169.67-10.39,45,.87,92.63,28.57,130.72,27.7,37.22,66.66,59.73,107.34,63.19,36.36,2.6,77-17.31,105.61-52.81,32.9-39,45.88-90.9,37.22-141.11C444.07,725.21,432,675,419.83,643Z" transform="translate(-65.07 -202.4)"/><path d="M296.85,1076.81c1.88,17.39,3.5,37.58,4.46,59.19h37.07c1-21.86,2.58-42.19,4.47-59.19,1.74-15.62,3.47-28.64,5.21-38.19a118.83,118.83,0,0,1,3.47-14.75H288.17a118.81,118.81,0,0,1,3.47,14.75C293.38,1048.17,295.11,1061.19,296.85,1076.81Z" transform="translate(-65.07 -202.4)"/></g></svg>