<svg id="Calque_1" data-name="Calque 1" xmlns="http://www.w3.org/2000/svg" viewBox="0 0 612 792"><defs><style>.cls-1{fill:#504f1b;}.cls-2{fill:#828928;}.cls-3{fill:#5c751e;}.cls-4{fill:#a38034;}.cls-5{fill:#645c2e;}.cls-6{fill:#eecd84;}.cls-7{fill:#c6b178;}.cls-8{fill:#a48963;}.cls-9{fill:#77581e;}.cls-10{fill:#17100c;}.cls-11{fill:#443d12;}.cls-12{fill:#b2aa3d;}.cls-13{fill:#312c12;}.cls-14{fill:#4b4640;}.cls-15{fill:#7d674e;}</style></defs><title>fondChampagne</title><path class="cls-1" d="M664.14,371.53l-1.35,11.84c-16-.67-31-3.82-41.93-16.91l-1.62-4.72L616.64,366c-10.31,5.68-22.63-3-32.67,4.55-4.6-1.15-6.9-4-6.72-8.83,5.17-1.9,8.39-5.44,9.3-10.95,3.9-.53,8.32,3.14,11.91-1.36-3.53-5.75-9.33-6.21-14.91-7.14v0l-7.59-4.7h0c-2.29-7.35-8.14-9.23-14.92-9.69h0l1-8.1c18.13-5.57,12.41-21.45,9.06-30.65-5.34-14.69-14.28,1.33-21.92,1.39l-3.95-.51L541,292.7l-.89.38c-4.44.75-8.05,2-4.85,7.65l-3.8,3.56L515,310.5a49,49,0,0,1,12.45-30.14c8.93-10.31,16.16-22.1,24-33.33,4.89-7,5.78-13.31-3.69-17.32a87.18,87.18,0,0,0,.78-27.08c-.91-6.55-2.62-16.07,6.58-18.12,13.3-3,14.31-13.27,17-23.12l3.26-.62c5.71-1.41,11.28-1.93,15.93,2.76,8.84,11.59,18.3,23.21,34.94,19.6,15.84-3.44,30.9.1,46.23,2.17-4.21,3.66-10.59,6.57-6.51,13.82,4.48,8,11.6,1.85,17.45,2.68l-9.87,86.84c-9.45-1.24-19.15-14.21-28.27.59-8.19-1.23-10.9,3-13.61,10.41-4.22,11.49-9.08,23.89-27.91,22.55,15.74,9.7,34.44,4.8,42.33,23.36,3.63,8.53,3,10.21-5.07,11.16-3.5.41-8.42-1.51-8.59,5.3Zm-88.78-98c12.37,3.49,23.29-3.8,35.09-4.79,3.75-.31,5.43-3.65,4.85-7.27-.54-3.4-2.55-6.25-6.32-6.54-4.39-.33-9.44,1.56-11.63-4.41l.69-5.94c9.08-8.22,17.35-16.86,16-30.54.74-5.79,1.89-11.57,2.08-17.38.15-4.84-2.09-9.17-7.22-10.33-7.81-1.77-7.62,5-9.4,9.58-9.6-6.94-18.8-14.56-31.49-5.39-15.05,10.87,2.76,20.84-1.7,32,9.32-1.45,17.48-8.57,23.74-.67,6.83,8.61-3.49,13.83-6.25,20.58-1,2.39-1.2,5.09-1.77,7.65-4.16,4.63-8.47,9.14-12.45,13.93C562.59,272.4,569.26,272.85,575.37,273.52Zm36.78,85.6c-1.13-1.35-1.74-2.75-2.46-2.81a5.76,5.76,0,0,0-3.59,1.19c-.33.24.47,2.74.58,2.73A53.08,53.08,0,0,0,612.15,359.12Z"/><path class="cls-2" d="M643.06,557.06l-1.79,15.79c-8.91,4.2-19.55,14.92-26.81,10.41-23.17-14.4-47.65,6.14-69.94-5.48l-11.16-.93-5.09,2.89a21.26,21.26,0,0,1-3.78-.37c2.35-13.75,17.31-19.65,20.46-32.9,15.79,2.13,18.25-11.35,23.94-21.51,3.36,7.21-3.66,15.86,4.75,22.32,5.74-12.65,15.84-22.19,14.69-36.41l0,0c3.83,5.18,7.69,10.3,15.23,5.86l1.43.81-1.2-1c-.38-9.43,16.33-19.1-.41-28.29l1-11.52c15.76-2.91,22.72-9.56,11.06-24.86-3.29-4.31-5-9.89-.49-14.23,4.24-4.06,8.69.52,12.54,2,9.14,3.53,16.44,13.83,28.14,6.91l-5.83,51.32c-9.34,8.62-20.77-15.11-30.2,1.78,10,7.22,22.94,14.33,21.33,26.66-1.76,13.47-16.8,2.12-28.34,9.1C629.93,536.24,630.58,553.35,643.06,557.06Z"/><path class="cls-3" d="M655.62,446.53c-11.71,6.93-19-3.37-28.14-6.91-3.86-1.49-8.3-6.07-12.54-2-4.53,4.34-2.8,9.92.49,14.23,11.66,15.3,4.69,22-11.07,24.86-9.81-3.69-16.07-8.77-3.64-16.62,8.59-5.43,6-12.63,1.46-16.21-10.41-8.24-11.18-21.59-20.73-30.39,7.62-4.31,18.27-1.85,18.82-12.86.47-9.4-6.75-11.67-13.74-14L584,370.58c10-7.6,22.36,1.13,32.68-4.55l4.23.43c11,13.09,25.95,16.23,41.93,16.91Z"/><path class="cls-4" d="M672.5,185.29c-15.33-2.07-30.39-5.61-46.23-2.17-16.65,3.61-26.1-8-34.94-19.6.67-2.53,1.82-6,4.71-4.69,20.7,9.49,43.41,7.1,64.7,12.59,2.81-6.11-8.91-11.71-.32-15.46,17.06-7.44,4-13.45-1.05-17.52-9.69-7.88-16.11-16.79-17.89-29.3-.82-5.81-2.85-11.65-9.83-13.38L620.44,74.95c5.14.51,10,1.37,14.28,4.88,9.16,7.51,10.36-.13,12-6.65,6.92,9.71,9.46,20.94,12.16,32.34,2.18,9.24,4.8,19.55,18,18.89,4.9,5.82-5.88,13,1.62,18.59-.25,12.31-9.29,26.51,7.59,35.11l-.45,3.95Z"/><path class="cls-5" d="M664.14,371.53,632.45,362c.16-6.81,5.09-4.89,8.59-5.3,8.11-.95,8.7-2.63,5.07-11.16-7.89-18.56-26.59-13.66-42.33-23.36,18.83,1.34,23.69-11.05,27.91-22.55,2.71-7.37,5.42-11.64,13.61-10.4,6.47,9.75,16.86,10.1,26.92,11.24Z"/><path class="cls-6" d="M633.64,640l-9,78.95c-17.31,4.78-16.26-16.57-28-19.69q.3-5.58.6-11.16c-.42-8.18,16.42-15.4,1.36-24.4l-6.15-19.84c1.89-5.79,5.87-9,11.48-5.86C613.74,643.51,623.64,641.07,633.64,640Z"/><path class="cls-7" d="M633.64,640c-10,1.12-19.89,3.55-29.69-2-5.61-3.18-9.59.07-11.48,5.86-9.74-8.12-13.35,6.16-21,5.75-4.14-11.09-13-20.53-11.7-33.53l-2.6-8.6,10.38-10.61c4.56.84,6.36,3.93,6.73,8.2-2.71,8.08,1.11,13.23,7.68,17.14,3.68-11.71,23.41,4.65,23.46-13.41,9.26-4.11,19.22,19.68,28.07-.7l1.86.22,1.87.1Z"/><path class="cls-8" d="M580.44,830l-5.23-8.74c-.4-17.83-.27-35.58,7.13-52.34L592,785.52c7.2-.92,4.79-10.61,10.29-10.82,6.83-.27,9.33-3.09,9.16-9.38l7.88,1-5.83,51.32-5.19-.66c-19.36-8.7-25-5.63-24.38,13.32A21.75,21.75,0,0,1,580.44,830Z"/><path class="cls-4" d="M567.56,596.82l-10.38,10.61c.9-12.08-8.93-19.57-12.68-29.66,22.29,11.62,46.77-8.92,69.94,5.48,7.26,4.51,17.9-6.21,26.81-10.41l-4,35.53-1.87-.1-1.86-.22c-8.18-8.28-21.53-4.9-30.47-16C598.69,586.63,577.91,582.74,567.56,596.82Z"/><path class="cls-8" d="M596.65,699.21c11.76,3.11,10.71,24.47,28,19.69l-2.24,19.74c-9,2.23-9.68-10.22-18.44-10.19q-1.91,11.49-3.82,23.05c-7.85.13-7.75,12.35-16.62,10.94l-1.55-6.1,3.75-14.13c2.35-7.79,8-14.81,5.57-23.71Z"/><path class="cls-1" d="M600.15,751.49l3.83-23c8.76,0,9.4,12.42,18.44,10.19l-.9,7.89c-7.25,3.17-6,7.32-1.35,11.84l-.9,7.89-7.88-1C601.89,765.4,599.84,759.41,600.15,751.49Z"/><path class="cls-9" d="M86,957.48q-1.25,6.15-2.49,12.3c-16.85-6.41-30.77-6.72-34.48,15.88-.23,1.43-4.14,2.25-6.34,3.35,0-6-2.91-11.35-4.18-16.88-3.32-14.47-16.9-24.13-17.75-39C20.11,922,16,910.5,6.09,910.81c-12.17.38-7.59,13.93-7.91,22.29-.18,4.68,1.39,9.78-4.31,11.66-6.69,2.2-9.17-3.54-11.92-7.91-3.3-5.24-4.61-14.23-13.88-8.69-6.7,4-12.13,8.29-17.89-1.14-5.62-9.21-5.2-17.59,2.52-24.95,13.19-12.56,20.75-28.49,29.36-44.18C-.55,826.23,16.67,794,38.2,765.25c11.12-14.86,21.07-29.6,28.52-46.27,5-11.14-.66-11.3-9-7.91.57-5.92,1.45-11.84,1.61-17.77.14-5-1.76-10.08-7.53-9.48-6.67.69-16.58,7.87-18.14-2.07C32.41,673.6,46,675,52,670.53c.95-.7,1.48-2,2.89-3.91-10.5-1-19.86-3.7-26.83-11.47,8.48-13.94,4.48-22.41-10.47-28.61C9,623,1.28,618.48-8.46,621c-7.9,2-12.71-1.5-14.33-9.26-1.23-5.89-5.89-8.34-10.29-11.17q1.87-12.43,3.74-24.85c11.63,3.47,18.58-3.11,24.7-11.49,8.06.19,7.78-12.07,16.42-11,1.16,9,8.45,8.77,14.82,9.55q27.32,3.33,54.68,6.35C116,573,116,573,118.17,538.55c.1-1.57,2.25-3,3.44-4.53l7.92,4.91c-1.21,7.61.27,14.5,5.56,20.33-1,6.44-1,13.23-8.74,16.23-9.1,3.52-17.92,7.81-27.08,11.17-9.41,3.45-20.39,5.24-13.35,19.7,2.77,5.69-2.44,6.05-5.5,8-4.26,2.75-4.58,7.33-.87,9.74,8.9,5.78,8.49,16.72,13.9,25.47,12.91-12.73,24-25.87,29.43-40.71,6.53-18,21.94-22.27,34.79-31.09l6.38,1.48-5.3,18.35c-9.37,4.35-13.31,12.48-14.61,22-4,29.38-8.31,58.79-2.2,88.43-11.43,21.62-5.27,45-7,67.66l-5.65,42.81-4.82,3.78c-6.12-1.53-14.34-.9-13.77-10.52.82-14-10.82-26.88-1.14-41.24-11.63-1.57-15.46,4-15.75,12.13-1.05,29.92-13.2,59.37-3.7,89.76,1.41,4.52,1,9.84-2.88,12.88C72.61,897,79.42,911.23,81.61,925,82.31,935.93,73.34,948.16,86,957.48ZM57.87,904.19l6.36-.65Q63,876.86,61.85,850.19c-.2-4.34,1.21-10.13-5.65-10.23-5.47-.08-7.62,5-8.89,9.19C41.14,869.52,48.52,887.11,57.87,904.19Z"/><path class="cls-10" d="M129.29,818.55q2.83-21.41,5.65-42.82l23.45-2.53c24.94,7.7,45.56,22.36,64.32,40l-1.39,15.09c-6.71,35.37-11.35,39-45,35.57l-7.88-.84q0-3.52,0-7c4.34-14-4.86-19.73-15.45-22A37.3,37.3,0,0,1,129.29,818.55Z"/><path class="cls-4" d="M91,909.86c-5.07,3.73-4.22,9.12-4,14.33l-5.4.81c-2.19-13.77-9-28.05,5.63-39.65,3.84-3,4.29-8.36,2.88-12.88-9.49-30.39,2.65-59.84,3.7-89.76.29-8.15,4.12-13.7,15.75-12.13-9.68,14.36,2,27.28,1.14,41.24-.57,9.62,7.64,9,13.77,10.52.16,10.63-4.61,21.42,1,31.89-14.32,13.43-21.48,30.5-25.1,49.37l-.16-.06C95.3,903,92.26,905.12,91,909.86Z"/><path class="cls-9" d="M572.12,161.38c-2.67,9.85-3.67,20.16-17,23.12-9.2,2-7.49,11.56-6.58,18.12a87.34,87.34,0,0,1-.78,27.09c-5,2.8-11.59,3.76-12.95,10.91l-3.19-8.92,4.71-25.52c-23.76,6.54-23.79,6.58-24.53,28.4-3,12.88-14.54,24.73-4.66,39.15-2.5,9.3-3.36,19.68-15.22,22.75-14.28,3.7-16.45,15.71-16.74,27.34-.1,4-3.56,11.13,2.91,13.76,4.78,1.94,8.58-2.25,12-5.14,8.43-7.15,16.61-14.6,24.89-21.93l16.47-6.21-6,21.06c-10.1,10.4,1.54,20.23.8,30.39-8.36-8.12-16.78-14-26.27-1.27-.29.39-3.32-1.25-5.06-1.95-10.85-8.32-21.51-1.43-32.24.41-5.42-8.85-15.94-8-22.3-6.48-8.77,2.06-8.89,14.84-15,21.48l-5.84,4.9c-3.87,2.42-3.65,6.53-4.28,10.29l-7-.09c-1.39-9.87,12.66-16.56,5.67-27.58-4.71-20.15-17-39.11-9.61-61.15,4.71,3.9,8,10,15.45,9.53-5,12.33-2.43,22.7,7.91,31.2,1.77,1.45,3.2,2,4.17-.27.75-1.75.76-3.82,1.09-5.74,13.19.61,12.93-9.38,14.28-18.11,8-15.61-5.18-23.51-12.29-33.61l.9-7.89,7.63.52,8.84.59c5.44.1,12.24,6.09,15.91-.79,3-5.57-1.29-11.12-6.1-15.28-3.84-3.32-4.5-9.8-10.66-10.91l.68-12.49c3.25-9.25,8.2-13.17,17.35-6.06,16.87,13.11,21.06,11,24.79-12.32,13.39-2.19,23.44-9.21,30.28-20.88,2-8.93-.27-15.82-7-22.83-24.47-25.63-24.18-25.92,3.15-49.54,1.46-1.26,3.08-2.35,4.62-3.52,1.09,11.65,5.86,24.6,2.33,34.63-4.36,12.4,4.66,11.93,7.63,9.5C548.66,149.11,560,160.76,572.12,161.38Z"/><path class="cls-11" d="M526.3,355.73c.73-10.16-10.91-20-.8-30.4l8.17-5.22L561,327.93h0c.67,9.86,8.51,8.67,14.92,9.69h0L579,342l-1.78,19.74c-.18,4.78,2.12,7.68,6.72,8.83q1.28,8,2.56,16.08c-8.05,15.33-21.67,6.88-33.68,6,2.16,7.4,8,6.05,11.56,8.39,9.9,6.49,9,15.81,7.16,25.9-1.25,6.82,1,15.39-10.82,12.73-3.48-7.84-12.71-11.85-14-21.12l-12-25.91c7.6-7.17,7.85-14.4,1-22.48C532,365.84,529.39,360.58,526.3,355.73Z"/><path class="cls-9" d="M631.65,95.76c7,1.73,9,7.56,9.83,13.38,1.77,12.51,8.2,21.42,17.89,29.3,5,4.07,18.11,10.08,1.05,17.52-8.59,3.75,3.14,9.34.32,15.46-21.29-5.49-44-3.1-64.7-12.59-2.89-1.32-4,2.16-4.71,4.69-4.66-4.69-10.22-4.16-15.93-2.75,1-7.53-3.91-10.48-9.79-12.78-7.48-2.93-12.32-7.63-10.56-16.51,4.52.06,9.21.82,12.78-3.07l16.35-2.14.12.18c-.26,7.55,5,8.52,10.71,9,3.79,1.58,6.5,5.69,11.68.47,12.53-12.59,11-22-7.18-35.73l.28-7.82C610.25,95,620.13,103.25,631.65,95.76Z"/><path class="cls-11" d="M515,310.5c-8.28,7.33-16.46,14.78-24.89,21.93-3.4,2.89-7.2,7.08-12,5.14-6.47-2.63-3-9.72-2.91-13.76.29-11.63,2.46-23.64,16.74-27.34,11.86-3.07,12.72-13.45,15.22-22.75,16.87-4.65,24.27-17.2,27.66-33.1,1.35-7.15,7.93-8.11,12.95-10.91,9.47,4,8.58,10.33,3.69,17.32-7.86,11.23-15.08,23-24,33.33A49,49,0,0,0,515,310.5Z"/><path class="cls-9" d="M614.07,214c1.32,13.67-6.95,22.32-16,30.53-6.41-1.35-10.56,3.93-16,5.46.57-2.56.79-5.26,1.77-7.65,2.76-6.75,13.08-12,6.25-20.58-6.26-7.9-14.42-.78-23.74.67,4.47-11.11-13.35-21.08,1.7-32,12.69-9.17,21.89-1.56,31.49,5.39C600.62,205,604.47,211.81,614.07,214Z"/><path class="cls-4" d="M555,131.48c-1.75,8.87,3.08,13.57,10.56,16.5,5.88,2.3,10.8,5.25,9.79,12.78l-3.27.61c-12.12-.62-23.46-12.27-36.79-1.35-3,2.43-12,2.9-7.63-9.5,3.53-10-1.24-23-2.33-34.63l11.09,2c2.63,4.5,5.39,8.8,11.62,8.14Z"/><path class="cls-11" d="M549.18,290.56c7.64-.06,16.57-16.08,21.92-1.39,3.35,9.21,9.07,25.09-9.06,30.65l-7.45-1.43c-1.12-8.53-6.58-6.28-11.75-4.72q-1.45-.36-2.92-.65C540.24,304.4,551.2,300.16,549.18,290.56Z"/><path class="cls-11" d="M597.35,250.52c2.19,6,7.24,4.08,11.63,4.41,3.77.28,5.78,3.13,6.32,6.54.58,3.61-1.1,7-4.85,7.27-11.79,1-22.72,8.27-35.09,4.79Z"/><path class="cls-4" d="M614.07,214c-9.6-2.23-13.45-9.07-14.54-18.13,1.78-4.55,1.58-11.35,9.39-9.58,5.13,1.16,7.38,5.5,7.22,10.33C616,202.47,614.8,208.25,614.07,214Z"/><path class="cls-4" d="M597.35,250.52l-22,23c-6.1-.67-12.77-1.12-5.76-9.55,4-4.79,8.29-9.29,12.45-13.93,5.43-1.54,9.58-6.81,16-5.47Q597.69,247.55,597.35,250.52Z"/><path class="cls-4" d="M549.18,290.56c2,9.6-8.94,13.83-9.27,22.46l-6.24,7.09-8.17,5.22q3-10.51,6-21l3.81-3.55c3.58-1.31,4.57-4.25,4.85-7.65l.89-.38,4.2-2.65Z"/><path class="cls-5" d="M533.67,320.11l6.24-7.09q1.47.3,2.92.65c2.73,4.52,7.17,4.81,11.75,4.72l7.45,1.43-1,8.1Z"/><path class="cls-3" d="M577.24,361.75q.89-9.87,1.79-19.74l4.52.3v0l3,8.51C585.63,356.31,582.41,359.86,577.24,361.75Z"/><path class="cls-5" d="M576,337.62c-6.41-1-14.25.17-14.92-9.69C567.83,328.39,573.67,330.27,576,337.62Z"/><path class="cls-5" d="M586.54,350.8l-3-8.51c5.57.94,11.38,1.39,14.91,7.14C594.86,353.94,590.44,350.28,586.54,350.8Z"/><path class="cls-9" d="M540.13,293.08c-.28,3.4-1.27,6.34-4.85,7.65C532.08,295.12,535.69,293.83,540.13,293.08Z"/><path class="cls-3" d="M612.15,359.12a53.08,53.08,0,0,1-5.47,1.11c-.11,0-.91-2.48-.58-2.73a5.76,5.76,0,0,1,3.59-1.19C610.41,356.37,611,357.77,612.15,359.12Z"/><path class="cls-5" d="M583.55,342.31,579,342l-3.07-4.4Z"/><path class="cls-9" d="M545.23,290.05,541,292.7Z"/><path class="cls-8" d="M569.28,812.08c-5.2,1.35-9.72,4.55-5.17,9.52,12.62,13.77,5.65,27.19-2.18,38-7.07,9.76-1.89,20.21-6.28,29.67-1.44,3.11,4.35,5.79,8.51,6.38.72,6.78,1.74,13.44,6.12,19.49,7.52-5.23,4.57-12.52,6.43-18.27,11.85,3.72,4.93,13.31,6.34,20.3q-2.08,17.59-4.14,35.17c-7.06,1.3-7.68-8.23-14.34-8.57-4.75,11.92-3.87,23.83-1.27,35.83l-.77.58c-14.7-4.36-16.6,3.28-16.21,15.65.69,22.13,3.75,44.47-1.42,66.19-7.44,1.45-7.51-3.85-7.58-7.16-.75-38.16-16.38-75.68-5.75-114.21,3.34-12.09-6.51-21.33-4.59-32.64,7.22-1.71,12.85,6.89,20.72,3.37-.49-11.22-6.05-19.88-10.14-29.45-3.65-8.53,3.75-23.59,3.27-36.12-.06-1.63-2.08-3.18-3.19-4.77q3.4-19.25,6.79-38.51c5-.86,9.29-2.72,11.15-8q.49-1.6,1-3.19l8-3.08C569.34,795.59,572,803.3,569.28,812.08Z"/><path class="cls-8" d="M528.51,824.18c-15.42,7-11.24,22.33-15.09,35.92-7.89-7,1.44-17.89-5.85-24.23-8.2,4.79-3.22,13.79-8.43,20.6-2.83-8,1-19.63-11.46-21-4.45-22.83-15.91-45.11-4.6-69.12,2.3-4.87,1.14-10.43-1.64-15.3,1.19-6-5.91-12.61.06-17.84,5-4.36,9.08,1.14,13.17,3.65,1.35,24.11-8.22,48.4-2.59,74,9.12-3.8,5.42-10.53,10.66-13.93.4,10.06,1.54,16.85,12.9,6.83,12.56-11.08,7.46-17.61-3.79-23.2-3.89-1.93-9.6-.52-8.73-7.59.68-5.48,4.85-7.41,9.22-9.19,11.8-4.83,21.65-7,18.65,11.88-.45,2.82,1.72,6.06,2.68,9.11-.79,3-.73,5.9,1.88,8.17C533.83,803.45,533.78,814.4,528.51,824.18Z"/><path class="cls-5" d="M481.46,751c2.77,4.87,3.93,10.42,1.63,15.3-11.31,24,.15,46.29,4.6,69.12-2.87,15.58-2.61,31.8-9.49,46.57a36.06,36.06,0,0,1-3.89-.4c-4.31-18.07-.13-36.31-1-54.47-.31-6.49,1.66-13.09-2.38-19.06.21-10.4,2.42-21.82-12.49-24.55l-6.62-7.37,3.54-15.91C462.55,753,469.29,744.31,481.46,751Z"/><path class="cls-1" d="M560.74,439.69c11.85,2.66,9.57-5.91,10.82-12.73,1.86-10.09,2.74-19.41-7.16-25.9-3.57-2.34-9.39-1-11.56-8.39,12,.88,25.63,9.33,33.68-6,7,2.29,14.21,4.56,13.74,14-.55,11-11.2,8.55-18.82,12.86,9.55,8.8,10.32,22.15,20.73,30.39,4.52,3.58,7.13,10.78-1.46,16.21-12.43,7.86-6.17,12.93,3.64,16.62q-.48,5.76-1,11.52c-18.09,17.25-22.49-7.11-33.48-11.22-13.51,21.44-18.62,45.68-25,69.46-3.15,13.25-18.11,19.15-20.46,32.9l-.1.1c-9.84,0-15.14-6.27-19.21-14.15l4.77-26.14c16.25-5.9,16.58-9,2.36-22.13A17.87,17.87,0,0,0,507,505.27q-.94-3.42-1.86-6.85c7.71-15.52-8.16-27.22-6.78-41.71,6-7.82,5.69-16.3,4.73-25.82-1.55-15.45-6.9-16.61-17.59-7.16a3.29,3.29,0,0,1-1.84-1.75L485,411.11c4.24-4.39,3.69-10.36,5.15-15.66,3.89,1.26,7.7,3,8.89,7.19,5.67,19.73,11.45,5.67,17.22.16,6.25-3.17,5.27-19.49,18.41-10.13l12,25.91c-7.66,7,2,32.93-24.78,18.26C535.68,458,544.83,458,560.74,439.69Z"/><path class="cls-3" d="M544.93,546.47c6.36-23.79,11.46-48,25-69.46,11,4.12,15.39,28.47,33.48,11.22,16.75,9.18,0,18.86.42,28.29l-.23.18c-7.53,4.44-11.4-.67-15.23-5.86l-1.26-.87,1.22.9c1.15,14.22-8.95,23.76-14.69,36.41-8.41-6.45-1.39-15.11-4.75-22.32C563.18,535.12,560.72,548.6,544.93,546.47Z"/><path class="cls-12" d="M544.51,577.78c3.75,10.09,13.58,17.58,12.68,29.66l2.6,8.6-6,6.94c-5.85-1.6-8.76-26.12-17.88-2.3l-11.42-1.34c-.51-3.06-.17-6.48-3.49-8.37-1.18-6.13-5.83-7.92-11.13-8.88l-7.83-1,1.31-7.87,6.68-3.74c2.34,8.55,9.23,7.45,14,4.57,5.81-3.53-.49-9.62.38-14.59l.1-.1a21.56,21.56,0,0,0,3.78.37l5.09-2.89Z"/><path class="cls-4" d="M533.34,576.85l-5.09,2.89Z"/><path class="cls-3" d="M603.8,516.52l1.2,1-1.43-.81Z"/><path class="cls-9" d="M643.17,65.15l3.53,8c-1.62,6.52-2.83,14.16-12,6.65-4.28-3.51-9.14-4.37-14.26-4.88l-18-5.94L591,67.13q.56-5.84,1.13-11.69c12.19-3,24.47,8.64,36.63-.21C634.93,56.51,636.2,65,643.17,65.15Z"/><path class="cls-1" d="M602.42,69l18,5.94Q626,85.35,631.65,95.76c-11.53,7.49-21.4-.78-31.87-3.34-3.35-1.89-14.74-.06-4.55-8.4C600.43,79.77,600.16,74,602.42,69Z"/><path class="cls-12" d="M571.49,649.56c7.63.41,11.24-13.87,21-5.75q3.07,9.92,6.14,19.84l-11.49,22-5.34,3.07-9.81,0c-6-2.91-11.6-2.65-16.55,2.26-6.75-.74-13.65-3.63-20,1.4l-23.63-2.68,1.68-15.71c8.81-15.5,20.85-19.92,32-11.15,4,3.18,6.94,7.76,12.57,8.52l1.4.83-1.22-1C553.39,658.39,558.68,651.68,571.49,649.56Z"/><path class="cls-13" d="M581.78,688.74l5.35-3.05,10.12,2.36q-.3,5.58-.6,11.16l-5.33,19.28L582,717.43Z"/><path class="cls-14" d="M597.25,688.05l-10.12-2.36,11.49-22C613.67,672.65,596.83,679.87,597.25,688.05Z"/><path class="cls-2" d="M571.49,649.56c-12.81,2.12-18.1,8.83-13.29,21.73l-.18.15c-5.63-.76-8.54-5.35-12.57-8.52-11.11-8.77-23.16-4.35-32,11.15-10.63,1.63-15.86-8-23.94-11.65-5.44-2.49-10.72-3.42-13.29,2.74-1.93,4.61-6.61,11.32,2.63,14.27,3.68,1.17,5.42,3.21,5.49,6.92-9.49,4-21.67-1.48-29.49,8.39-11,.74-10-4.89-6.37-11.94l7-10.59c4.8-1,7-3.94,6.61-8.84l2.12-6.29c10.18.87,17-15,30-4.18,12.69,10.62,22.72,6,26.75-10.41,1.85-7.55,2.33-15.43,3.43-23.16l11.42,1.34c8.94,3.24,9.15,13.6,14.39,20.06,6.61-6,.74-12.49,3.49-17.76l6-6.94C558.46,629,567.35,638.47,571.49,649.56Z"/><path class="cls-12" d="M567.56,596.82c10.34-14.09,31.13-10.19,35.47-4.8,8.94,11.12,22.29,7.74,30.47,16-8.85,20.39-18.81-3.4-28.07.7-9.43-9.21-20.82-2-31.14-3.73C573.92,600.76,572.12,597.66,567.56,596.82Z"/><path class="cls-4" d="M574.29,605c10.32,1.76,21.71-5.49,31.14,3.73,0,18.06-19.78,1.7-23.46,13.41C575.4,618.25,571.58,613.1,574.29,605Z"/><path class="cls-4" d="M643.17,65.15c-7-.17-8.24-8.64-14.46-9.92L621.58,42.9c-1.52-5.39-5.26-8.43-10.46-9.94l.59-6.93c3.18-2.19,6.06-5.18,9.57-6.45,17.42-6.31,20.35-14.14,5.6-21.94-13.63-7.21-11.07-22.28-9.41-25.87,7.68-16.67-3-24.36-11.61-33.86,7.18-.8,9.19-5.52,9-11.89,1.4-6.64,1.35-12.3-7.9-11.81-3.78-.11-7.59-.17-8.19-5.25l3.35-7.64,17.64,1.18,6.12-3c24-2.56,12.18-14.26,6.22-24.45l5.21-6.28c5,3.24,8.11,9.46,15.12,9.5l-7.64,27c-4.8.5-9,1.4-5.29,7.72-.68,4.35-1.07,8.78-2.11,13-1,4.09-5.43,8.8-1.06,12.06,5.23,3.9,8.56-3.46,13.2-4.56L661.24-64c.09,1.08.17,2.15.23,3.23-.09,8.67-5.46,14.16-11.53,19.22-5.59-4-9-16.7-17.72-8.72-7.46,6.85,1.89,13.87,6.82,18.52,4.29,4.05,5.94,8,5.9,13.28,6.5,18.42,3.74,36.6-1.4,54.72-6.65,5.57-.89,9.63,1.73,14.07Q644.22,57.73,643.17,65.15Z"/><path class="cls-14" d="M569.28,812.08c2.75-8.78.06-16.48-4.69-23.78,8.87-9,2.29-26.38,17.4-32l1.55,6.1-1.2,6.46c-7.4,16.76-7.54,34.51-7.13,52.34C570.85,819.72,569.92,816,569.28,812.08Z"/><path class="cls-15" d="M582.34,768.89l1.2-6.46c8.86,1.41,8.77-10.8,16.62-10.93-.31,7.91,1.73,13.9,11.25,13.82.17,6.28-2.33,9.11-9.16,9.38-5.5.22-3.09,9.91-10.29,10.82Z"/><path class="cls-15" d="M582,756.34c-15.12,5.58-8.53,23-17.4,32l-8,3.08c.16-10.85,4.43-21.76-.54-32.52L572,688.79l9.81,0q.1,14.33.2,28.68c-1.28,8.64-8.44,18.18,3.75,24.77Z"/><path class="cls-14" d="M585.74,742.2c-12.19-6.6-5-16.13-3.75-24.77l9.33,1.06C593.69,727.39,588.09,734.41,585.74,742.2Z"/><path class="cls-4" d="M37.68,991.5c-3.61-1.25-8.29-1.48-10.65-3.93-8.73-9.07-15.09-6.88-22.34,2-10.48,12.9-23.05,16.57-37.36,5.32-2-6.55-6.7-5.93-12.3-5.43-10.79,1-21.68.85-32.53,1.19q1.09-14.1,2.19-28.19,7.75-62.81,15.49-125.64c9.44.23,20.49,6.14,27.26-4.7,7.14-11.43,15.51-20.74,27.81-26.7,5.59-2.71,5-8.9,4.11-14.12-.73-4.18-3.8-6.89-8-7.73-6.78-1.34-9.51,2.61-10.74,8.49-2.7,13-13.92,6.45-21.14,9-3.88,1.37-7.77.82-10.06-3.58-4.7-9,3.78-34.73,13.83-37.07A47.72,47.72,0,0,0-15,748.4c10.72-11,32.81-13.74,30.44-36.49-23.07,16.26-54.92,9-59.61-13l9.44-90.6,1.67-7.79c4.4,2.82,9.06,5.27,10.29,11.16,1.62,7.76,6.43,11.29,14.33,9.26,9.74-2.5,17.43,2,26.06,5.56,15,6.2,19,14.68,10.47,28.61-5.3,2.66-10.7,5.16-15.89,8-4,2.23-8.73,4.7-8.3,10.09.47,6,6.6,4.56,9.91,6.67,8.88,5.66,13.93,16.57,26.66,17.6,3,.24,2.43,7.91-.82,10.23-15.23,10.9-19.42,27-22.3,44.4,8.32-1.32,19.28,1.76,22.42-8.45,3.82-12.41,14.71-20.33,18-32.64,8.32-3.39,13.94-3.23,9,7.91-7.44,16.68-17.4,31.41-28.52,46.27C16.67,794-.55,826.23-17.93,857.89c-8.61,15.69-16.18,31.62-29.36,44.18-7.72,7.36-8.14,15.73-2.52,24.95,5.76,9.43,11.19,5.14,17.89,1.14,9.27-5.54,10.58,3.45,13.88,8.69,2.75,4.36,5.22,10.1,11.92,7.91,5.7-1.87,4.13-7,4.31-11.66.32-8.36-4.26-21.9,7.91-22.29,9.94-.31,14,11.21,14.66,22.34.85,14.83,14.43,24.5,17.75,39,1.27,5.53,4.17,10.86,4.18,16.88l-.18-.06Z"/><path class="cls-15" d="M158.74,597.63q2.65-9.18,5.31-18.35c4.18-11.8,1.31-26.24,13.25-35.1l-3.58-4.4c2.46-11.14,10.31-14.15,20.52-13.58,1.77,6,3.81,16.91,10,13.2,7.93-4.79,21.09-5,23.09-18.17,1.65-10.83-3.29-15.87-13.48-17,.52-9.18-.32-14.77-11.41-7.26-13,8.82-24.39,7.14-31.13-8.73,8.84-5.15.18-26.2,16.09-22.13,27.91,7.13,21.84-9.52,20.19-24.46,14.05,2.06,15.4,14.89,20.68,24.39-4.95,14.1-7.61,26.9,14.51,25.74,7.22,8.23,16.77,10.77,27.2,11.18,10.29,12.1,2.23,23.8-.77,35.61l.15-.11-4.85,1.48,4.37,2.43c-.27,7.14,4.43,9,10.26,9.61,1.09,8.16,3.47,15.71,10.08,21.26,3.7,24.23-.72,30.32-18.31,25.21-4.38-9.21,1.94-14.74,9.85-20.56-9.21-3.38-16-4.44-18.89,3.64-2.74,7.58.14,14.2,8.19,17.6.61,18.75,5.06,36.54,16.92,51.25,6.88,8.54,8.23,17.43,7.33,27.46-13.55,7.32-7.71,17.34-3.78,27.1-5.45-.17-11.31-1.35-13.8,5.68-11.15-3.9-15.47,7.74-23.73,10.43l6.38-23.33c11.29-17.77-.81-30.76-9.12-44.52,13-16.16,6.61-32.1-.54-48-2.8-13.94-4.92-28.06-8.63-41.75-2.85-10.53-20.5-13.49-27.47-3.73-6.37,8.92-16.55,15.47-18.82,27.23-7.33.34-13.83,1.47-18.41,8.69C171.92,602.49,165.58,605,158.74,597.63Z"/><path class="cls-13" d="M158.74,597.63c6.84,7.41,13.17,4.86,17.61-2.12,4.58-7.22,11.08-8.35,18.42-8.69l11,20.36c-6.17,13.05-12.24,26.16-18.54,39.14-7.66,15.77-14.5,31.33,4.63,44.23l-.58,10.61c-10.6,1.3-29-6.73-20.2,17.53,1.51,4.15-3.69,6.32-7.42,7.83-3.75-10.26-9.35-18.34-21.73-18.44-6.11-29.64-1.8-59,2.2-88.43C145.43,610.11,149.37,602,158.74,597.63Z"/><path class="cls-1" d="M157.66,577.79c-12.85,8.82-28.26,13.11-34.79,31.09-5.39,14.85-16.52,28-29.43,40.71-5.4-8.76-5-19.69-13.9-25.47-3.71-2.41-3.39-7,.87-9.74,3.06-2,8.28-2.33,5.5-8-7-14.46,3.94-16.24,13.35-19.7,9.16-3.36,18-7.65,27.08-11.17,7.76-3,7.76-9.79,8.74-16.23l15.78,1.8C157.79,564.75,157.56,571.34,157.66,577.79Z"/><path class="cls-2" d="M57.75,711.07c-3.28,12.31-14.17,20.23-18,32.64-3.14,10.21-14.11,7.13-22.42,8.45,2.87-17.38,7.06-33.5,22.3-44.4,3.24-2.32,3.81-10,.82-10.23-12.74-1-17.78-11.93-26.66-17.6-3.3-2.11-9.44-.7-9.91-6.67-.42-5.38,4.27-7.86,8.3-10.09,5.19-2.87,10.58-5.37,15.89-8,7,7.78,16.33,10.48,26.82,11.47-1.41,1.95-1.94,3.21-2.89,3.91-6,4.46-19.59,3.07-18.31,11.22,1.56,9.94,11.46,2.76,18.14,2.07,5.78-.6,7.67,4.49,7.53,9.48C59.19,699.24,58.32,705.15,57.75,711.07Z"/><path class="cls-15" d="M129.53,538.93,121.62,534l-7.6-4.94-3.28-7.9c19.92-10,36.38-22.77,37.95-47.45l12.75.68,4.28,12.23c1.3,18,7.49,37.27-12.31,50.12Z"/><path class="cls-2" d="M114,529.08l7.6,4.94c-1.2,1.51-3.34,3-3.44,4.53C116,573,116,573,81.29,569.13q-27.35-3.06-54.68-6.35c-6.37-.78-13.66-.51-14.82-9.54l4.36-3.51,7.19.63c17.45,10.58,37.18,8.23,56.15,9.18,6.6.33,11.28-5.63,13.07-12.54C97.81,538.75,105.83,533.81,114,529.08Z"/><path class="cls-11" d="M141.93,708.08c12.37.1,18,8.19,21.73,18.44-.36,10.66-4.31,21.42.82,31.94l-6.09,14.74-23.45,2.53C136.66,753.12,130.51,729.69,141.93,708.08Z"/><path class="cls-11" d="M16.15,549.73l-4.36,3.51c-8.64-1.08-8.37,11.18-16.43,11l-.75-.89c4.23-19.12-4.5-28.43-23-30.39a9.51,9.51,0,0,0-.29-2.57L9.83,533.2C12.7,538.42,22.95,540.81,16.15,549.73Z"/><path class="cls-8" d="M157.66,577.79c-.1-6.46.12-13-6.79-16.74-.39-6,2.31-10.67,6.45-14.7l16.4-6.59,3.58,4.4c-11.94,8.86-9.07,23.31-13.25,35.1Z"/><path class="cls-11" d="M157.33,546.36c-4.14,4-6.84,8.69-6.45,14.7l-15.78-1.8c-5.3-5.84-6.77-12.72-5.56-20.33l23.87-2.18C153.48,540.46,154.2,543.9,157.33,546.36Z"/><path class="cls-13" d="M158.39,773.2l6.09-14.74c8.88,4.33,17.63,9,26.68,12.88,7,3,14.93,8,19.88-3.24l1.83.18,1.83.23c.11,5.2-1.1,11.2,4.78,14,4,1.88,5.62-1.79,6.89-4.92L236.54,783l.08,7.81c-5,.25-9.35.93-4.73,7.36l-.84,8c-1.15,4.28-3.48,7.15-8.34,7C203.94,795.57,183.33,780.91,158.39,773.2Z"/><path class="cls-8" d="M245.81,834.54c-8-7.87-1.71-23.15-14.77-28.37q.42-4,.84-8c3.17-1.43,8.51-1.47,4.73-7.36q0-3.91-.08-7.81c2.19-4.69,2.19-11.52,10.23-10.53,2.22,4,6.2,4.43,10.09,5.07,1.39,5.3-6.79,10.19-.67,15.7l2.5,8a26,26,0,0,0,3.88,16.18c-2.36,10.87,5,12.78,13,14.16,1.07,7.57-5.07,10.61-9.32,14.84Z"/><path class="cls-11" d="M408.27,383l7,.09c3.8-2.44,4.43-6.21,4.28-10.29l5.83-4.89L436,369.28c5,12.2-2.15,28.31,12.06,37.56-2.54,43.32-20.13,83-30.42,124.37-10.19,4.14-13.6,12.69-14.78,22.69l-6.95-40.56c9.4-12.88,9.34-28.55,12.75-43.19,2.14-28.16,3.14-55.87-25.29-73.65-1.75-1.1-1.91-4.76-2.8-7.22,3.83-4.15,8.69-5.47,14.14-5.13l4,.71C402.38,386.72,405.53,385.92,408.27,383Z"/><path class="cls-15" d="M452.15,231q-.34,6.25-.69,12.49-3.48,9.57-6.94,19.14l-1,7.24-7.62-.51c-9.51-1.14-18.66,2.82-28.77-.85-23.1-8.4-33.66-.71-33.18,22l-12.1-.72-11.94-2c-3.23-12.94-3.34-27.7-19.32-33.23,4.8-5.52,10.93-2.41,16.56-2.58,33.24-1,44.62-8.91,50.51-35.09a9,9,0,0,1,.95-3.06c6.12,1.37,13.82-1.09,17.56,6.13,2.29,4.43,4,9.16,9.78,5,4.31-3.08,8.5-7.79,5-13.3-5.54-8.63.81-14.93,2.87-22.12l13.88,9.7C446.48,210.22,447.68,220.87,452.15,231Z"/><path class="cls-4" d="M361.79,289.79l12.1.73c1.29,7.34,2.58,14.68,4,22.7,10.06-4.74,10.15-12.9,11.42-20.46h8l7,1.53c-7.35,22,4.9,41,9.61,61.14-5.73-1.35-11.06-.21-16.11,2.6-21.66-7-39.88-25.39-65.36-19.82l-11.54-2.07-.09-17.76c14.19,1.85,22-15.81,38.17-11.63,6,1.55,5.13-8.33,2.34-13.87A29.25,29.25,0,0,1,361.79,289.79Z"/><path class="cls-5" d="M452.15,231c-4.47-10.18-5.67-20.82-4.53-31.8,10.25-10.45,12.32-28,3.35-36.59-5-4.81-6-9.78-5.18-15.91a13.51,13.51,0,0,1,8.83-6.74c15.62,9.41,26.92,23.62,39.92,35.94-4.85,12.21-11.59,24.41-.25,36.73C490.56,236,486.37,238.09,469.5,225,460.35,217.88,455.4,221.79,452.15,231Z"/><path class="cls-1" d="M494.53,175.94c-13-12.31-24.3-26.53-39.92-35.94,5.06-5.6,9.81-11.39,11.21-19.13,12.94-1.06,25.9-1.94,38.81-3.3,2.77-.29,8.41,3.8,7.8-4-.8-10.29,5.48-17.3,14.4-15.95,9.66,1.46,11.91,10.83,9.63,20.28l-11.09-2c-1.54,1.17-3.16,2.25-4.62,3.52C493.43,143,493.14,143.32,517.61,169c6.69,7,9,13.89,7,22.83l-15.09-6.37c-1.07-3.89,4-13.19-7.2-8.12Z"/><path class="cls-5" d="M404.32,294.29l-7-1.53c-2.67-3.56-5.34-3.68-8,0-1.27,7.55-1.36,15.72-11.42,20.46-1.41-8-2.7-15.36-4-22.7-.47-22.68,10.09-30.37,33.19-22,10.11,3.67,19.25-.29,28.77.85l-.9,7.89c-2.05,10.56-9.89,17.82-15.17,26.54C412.36,304.32,409,298.18,404.32,294.29Z"/><path class="cls-5" d="M534.65,392.66c-13.15-9.36-12.16,7-18.41,10.13,1.41-7,.94-14.36,5.3-20.62,4.47-6.43,3.91-11.49-5.07-11.29-9.57.22-14-9.3-22.54-10.57l1-7.81c1.75.7,4.77,2.34,5.06,1.95,9.49-12.7,17.91-6.85,26.27,1.27,3.09,4.85,5.69,10.11,9.37,14.46C542.5,378.27,542.25,385.5,534.65,392.66Z"/><path class="cls-1" d="M419.78,303.82c5.27-8.72,13.12-16,15.17-26.54,7.11,10.1,20.26,18,12.29,33.6-21-6.76-17.34,5.91-14.28,18.11-.34,1.93-.34,4-1.09,5.74-1,2.26-2.4,1.73-4.17.27C417.35,326.52,414.81,316.15,419.78,303.82Z"/><path class="cls-1" d="M534.84,240.61c-3.39,15.91-10.79,28.46-27.66,33.1-9.88-14.41,1.69-26.27,4.66-39.15l19.82-2.88Z"/><path class="cls-4" d="M494.53,175.94l7.75,1.35c-.19,5,1.88,8,7.2,8.12l15.09,6.37c-6.85,11.68-16.9,18.7-30.29,20.88C482.95,200.35,489.69,188.15,494.53,175.94Z"/><path class="cls-4" d="M495,352.51q-.52,3.9-1,7.81l-2.54,6.58c-15.76-3.75-15.18,12.25-22,19.48-3.55-3.85-3.05-9.91-8.88-10.51q-1.06-7.81-2.12-15.62l4.37-7.33C473.45,351.08,484.11,344.19,495,352.51Z"/><path class="cls-8" d="M531.66,231.69l-19.82,2.88c.74-21.82.77-21.85,24.53-28.39Z"/><path class="cls-1" d="M462.73,352.92l-4.37,7.33c-9.11-1.08-17.87-1.32-22.35,9l-10.64-1.36c6.16-6.64,6.28-19.42,15.05-21.48C446.78,344.95,457.31,344.07,462.73,352.92Z"/><path class="cls-1" d="M444.52,262.67q3.47-9.57,6.94-19.14c6.16,1.12,6.82,7.6,10.66,10.92,4.82,4.16,9.07,9.71,6.1,15.28-3.67,6.88-10.47.89-15.92.8C451.55,266.09,449.05,263.37,444.52,262.67Z"/><path class="cls-12" d="M397.82,358c5.06-2.81,10.38-4,16.11-2.61,7,11-7.07,17.71-5.67,27.58-2.74,2.91-5.88,3.71-9.55,1.85,1.15-6.88,1.45-13.67-2.16-20Z"/><path class="cls-11" d="M433,329c-3.06-12.2-6.72-24.88,14.28-18.11C445.88,319.62,446.14,329.61,433,329Z"/><path class="cls-5" d="M444.52,262.67c4.53.7,7,3.42,7.79,7.85l-8.84-.6Q444,266.29,444.52,262.67Z"/><path class="cls-1" d="M419.54,372.82c.14,4.09-.48,7.85-4.28,10.29C415.9,379.35,415.68,375.23,419.54,372.82Z"/><path class="cls-2" d="M560.74,439.69c-15.91,18.32-25.06,18.3-38.83-2.86,26.79,14.68,17.12-11.25,24.78-18.26C548,427.84,557.25,431.86,560.74,439.69Z"/><path class="cls-11" d="M536.47,117.9c2.28-9.46,0-18.82-9.63-20.28-8.92-1.35-15.2,5.66-14.4,15.95.61,7.81-5,3.72-7.8,4-12.91,1.36-25.87,2.24-38.81,3.3-2.43-14.83-2.26-30.18-9.07-44.1,4.62.85,9.63,5.85,13.14-2.17,5.06-11.56,9-6.74,11.56,1.43,1.37,4.31,2.92,9.31,2,13.48-2.93,13.49,8.74,12.4,14.49,12.69,7.59.39,9.92-7.3,9-14.47a73.72,73.72,0,0,0-3.21-13.4c-1.69-5.25-7.88-11.64.15-15.16C511.27,56,518,60.55,521.66,67.7c3.35,6.52,1.59,16.05,11.54,19.11,4.83-4.07-2.09-10.79,3.39-14.34,5.87.18,7,10,15.89,7-2.53-12.52-20.81-28.31,5.13-36C569,51,573.88,67.68,591,67.13L602.42,69c-2.26,5-2,10.76-7.19,15-10.19,8.33,1.2,6.51,4.55,8.4q-.14,3.91-.29,7.82c-14.33,3.3-28.34,4.51-42.41-7.8,7.7,15.63-9.34,21.68-9,33.61C541.86,126.7,539.09,122.4,536.47,117.9Z"/><path class="cls-1" d="M548.09,126c-.34-11.94,16.69-18,9-33.61,14.07,12.31,28.08,11.1,42.41,7.8C617.7,114,619.2,123.37,606.68,136c-5.19,5.21-7.89,1.1-11.68-.47-1.78-5.13-5.45-8-10.71-9l-.12-.18c.69-8.65-3-13.77-12-12.43-10.62,1.59-5.68,8.85-4.39,14.58-3.57,3.89-8.26,3.13-12.78,3.07Z"/><path class="cls-2" d="M567.82,128.41c-1.29-5.72-6.23-13,4.39-14.58,8.94-1.34,12.65,3.78,12,12.43Z"/><path class="cls-2" d="M584.29,126.45c5.26,1,8.93,3.92,10.71,9C589.32,135,584,134,584.29,126.45Z"/><path class="cls-1" d="M554.58,318.4c-4.59.09-9-.2-11.75-4.72C548,312.12,553.46,309.86,554.58,318.4Z"/><path class="cls-13" d="M-119.19,934.21l6.38-55.23c8.26-19,9.85-38.76,6.89-59.06l1.54-15.85,14.81.86c-1.5,15.78-3.2,31.53-4.4,47.33-.41,5.43-4.07,14,3.89,15.13,8.29,1.17,6.87-8.08,7.5-13.38,5.29-44.6,10.3-89.24,15.29-133.88.72-6.4,2.8-13.56-6.07-16.55,8-66.72,13.42-133.34,11.81-200.89-1.2-50.54.12-101.17-5-151.54-5-48.77-8.72-97.78-18.48-145.92C-93.14,165.47-96,124.48-112.2,86.6c3.48-11.37,15.67-13.06,22.74-20.43,8.75-21.61-2.3-41.29-6-61.69l-.59-11.15,19.37-1.53c-.4,6-.63,13.42,5.76,15.09,11.39,3,15.09,13.46,22.86,19.79C-59.7,37.36-62.53,50.3-55.36,64.12c7.46,14.38,5.92,25.26-8.79,33.23-2.42,5.57-12.71,4.55-10.86,14.07,3.67,18.9,1.42,39.27,14.4,55.76l-.69,5.48-.16,4.21c-1,14.21,6,27.33,4.95,42-.53,7.32,2.3,23,16.88,8.42,4.16-4.16,10.13-5.74,16.31-5.07,2.48,5,6.4,9.38,6.06,15.46l-12.93,4.71-11-2c-9.64,8.72-8.09,48.22,2.34,56.07.64.48,2.45-.59,3.72-.94l7.42,5.31c10.25,3.8,20.05-.07,30-1.74l8.4,14.7c-3.31,7.87-7,7.15-12.85,1.76-9-8.38-10,.57-12,6.49l-12.53-.37-16.34-7,5.1,37.75C-39.66,364.3-30.49,375.7-36.7,388c-2.37,4.71-2.23,11.59,1.73,14.7,4.53,3.56,6.13-7.45,12.09-5,4.19,10,12.57,14.21,22.44,16.43l3.34,2.86c-1.82,16.84,10.94,27.25,19.17,38.71,5.41,7.53,15.47,4,24.16-2.18,13.55-9.65,12.33-19.75,5.15-31.77C46,413.41,49,403,44,393.91S46,381.31,55,382.44c-2.18,19.14,3.29,33.8,23.37,39.89,4.47,4.14,10.44,3.49,15.76,4.91-.92,5.21-4.5,8.34-8.62,11.06-7.55-1-17.74-4.77-19.7,5.76-1.9,10.23,10.07,9.41,16.25,13.05-.15,7.9,0,15.61,9.84,18.08,2.28,5.11,6.49,7.67,11.74,8.84a25.77,25.77,0,0,0,5,15.65l-.93,8.67c-8.3-.09-12.46-6.51-17.84-11.3-3.87-3.44-9.55-4.7-10.78,1.9-4.79,25.71-17.53,11.3-26.46,4.67C38.76,493.3,26.27,481,13.17,469.6c-14.74-2.9-22.75-18.85-38.47-19.86l-5.25-32.34c-5.67,27-7.3,53.67.23,80.18l-.61,5.9c-1.94,1.7-2.09,3.55-.48,5.55l2,14.36c-9,11.92-5.34,26.14-6.79,39.35-1.62,14.81-1.86,29.77-2.7,44.67-5.3,5.17-4.69,12.14-5.43,18.59Q-62.51,784.72-80.51,943.46c-.73,6.45-2.85,13.11,1.11,19.34-5.29,36.55-5.21,73.9-16.15,109.62l-10.85-.14c-2.32-9.08,7.58-24-3.4-26.38-10.49-2.29-11,13.41-13.14,22.54-1.8,7.59-8.11,11.81-12.22,17.58-3.36,4.72-6.71,6.86-12.77-.8-7.55-9.56-17.94-19.71-32.3-4.24-5.05,5.44-17.4,4.29-26.47,5.76-7.29,1.18-9.52-3.3-8.75-9.51,1.21-9.79,2.71-19.62,13-24.69,14.23-7.5,18.46-38.44,7.76-56.63a1.85,1.85,0,0,1,.51-2c17.17-8,35.74-5.1,53.51-5.2,12.77-.07,15.79-4.19,16.46-15.33.7-11.79,3-23.49,4.57-35.23.48-.35,1.39-.76,1.35-1A15.78,15.78,0,0,0-119.19,934.21ZM-67.67,215c3.5-10.31,1.37-19.23-4.56-29.85C-77.7,198-69.75,206.13-67.67,215Z"/><path class="cls-1" d="M338.5,918.21c1-10.82-3.75-19.82-9.18-28.58,1.1-5.75.29-12.26,6.4-16l26.8,13.64c4.38-23.07-10-40.1-14.83-59.6,10-7.32-6.44-4.91-3.54-9.61C350.54,805.93,359,794.8,362,781c4.84.93,6.92,4,6.72,8.76-5.11,3.15-5,7.37-2.46,12.07-6.88,32.8,4.77,61.63,19.26,89.85-12.53-1.53-15.74,4.51-10.64,14.79,3.32,6.68,8.79,12.28,13.29,18.37.15,10-.66,20.76,14.39,20.16l9.16,1a6.88,6.88,0,0,1,.37,3c-3.43,6.9-2.08,13.1,2.74,18.79l-1.25,1.07-12.89-3.69.16.14c.14-4.86-2.1-7.76-7-8.48l-7.52-5.13c-9.34-3.82-9.16-18.79-21.87-18.66.22-9,3.7-21-13.22-12.09C348.33,922.54,342.83,919.26,338.5,918.21Z"/><path class="cls-5" d="M368.74,789.81c.2-4.79-1.88-7.84-6.72-8.77-5.81-1-7.74-6.41-11.24-10q.21-1.8.47-3.59c4.6-1.69,10.8-1.85,11.65-8,.95-6.92-6-7.22-10.08-9.4-3.17-1.71-7.2-1.82-10.84-2.65.18-6.09,1.29-11.45,9-11.66l12,2L368.89,754c.62,8.91,2.46,17.13,11.84,22.37,2.8-8.14,4.69-14.82-.41-21.3l.75-7.78c-.47-11.43,14.32-12.54,15.48-22.87,7,1.56,11.52-.47,12.53-8.24.76-5.82.93-12.21,8.69-13.66.93,11.82,9.56,6.38,15.52,6.91l5.11.26,16.53-9.72c5.91.61,11.84,1.08,17.73,1.89,3.17.44,7.1.86,7,5.25-.08,3.9-3.8,6.42-6.69,5.74-17-4.06-25.27,10.1-37,17.08-5-3.89-11.13-6.34-16-1.6-7.26,7.1,6.74,5,5.44,10.58-.72,3.06-.12,6.43-.12,9.66-5.58-.11-16.34,3.09-9.67,7,23.52,13.66,2.46,21.05-1.87,30.81-8,12.37-.83,26.67-5,39.52l-.89,1.6,1.17-1.25c5.61,7.51-2.39,19.89,9.05,25.31a15.7,15.7,0,0,1-.87,3.72l-22.91-2.33q-.07-9.26-.14-18.53l6.41-9.08c3.47-28.49-8.2-41.54-30.12-33.66Q369.56,790.75,368.74,789.81Z"/><path class="cls-15" d="M408.77,825.81c4.21-12.85-2.92-27.14,5-39.51l13.32,6.7c-1.67,10.33,3.61,17.56,10.67,24-8,9.1-10.46,21-15.74,31.4l-3.95,3.06c-11.45-5.42-3.44-17.8-9.05-25.31Z"/><path class="cls-15" d="M458.44,783.56c14.9,2.73,12.7,14.15,12.49,24.55-4.49,5.23-11.6,4.45-17.09,7.4l-4.64-.87C454.07,804.81,457.72,794.62,458.44,783.56Z"/><path class="cls-5" d="M556,758.85c5,10.76.71,21.67.54,32.52q-.52,1.59-1,3.2l-11.88-.86-8.14-.83c-2.62-2.27-2.68-5.12-1.89-8.17l7.39-2.94c3.83,8.28,6.27,3.51,8.3-1C552.48,773.73,548.79,764.62,556,758.85Z"/><path class="cls-15" d="M541.06,781.77l-7.39,2.94c-1-3-3.12-6.29-2.67-9.11,3-18.85-6.85-16.71-18.65-11.88-4.37,1.79-8.54,3.72-9.22,9.19-.87,7.07,4.84,5.66,8.73,7.59,11.26,5.59,16.35,12.12,3.79,23.2-11.36,10-12.5,3.23-12.9-6.83-5.25,3.4-1.54,10.13-10.66,13.93-5.63-25.55,3.94-49.85,2.59-74l4.3-36.3c14.89-7.89,23.59,2.64,33.82,15l2.63-23.12c6.35-5,13.25-2.14,20-1.4C548.88,721,538.87,750.42,541.06,781.77ZM519.5,750c4.06,0,5.53-2,5-4.83-.22-1.1-2.51-2.6-3.76-2.51-2.46.18-5.26,1.35-4.47,4.59C516.56,748.59,518.74,749.43,519.5,750Z"/><path class="cls-11" d="M499,700.55l-4.3,36.3c-4.09-2.5-8.19-8-13.17-3.64-6,5.23,1.13,11.82-.06,17.84-12.17-6.73-18.9,1.92-26.1,9.23q-.46-12-.94-24.08c-.4-2.44-1.45-3.16-3.46-1.29a6.49,6.49,0,0,1-3,.78c-4.19-1.5-9.21-1.31-12-5.78,11.68-7,19.92-21.14,37-17.08,2.89.69,6.61-1.83,6.69-5.74.09-4.39-3.84-4.82-7-5.25-5.88-.81-11.82-1.28-17.73-1.89q0-2.6-.06-5.2c7.82-9.86,20-4.4,29.49-8.38,1.17,3.51,4,4.82,7.3,5.54Z"/><path class="cls-8" d="M454.42,736.19q.47,12,.94,24.08-1.77,8-3.53,15.91c-13.11-1.57-21.72,3.49-24.7,16.82l-13.32-6.7c4.34-9.76,25.4-17.15,1.88-30.81-6.66-3.87,4.09-7.07,9.68-7,8.18-3.16,17.52-4.29,22.64-12.85a6.51,6.51,0,0,0,3-.77A25.74,25.74,0,0,0,454.42,736.19Z"/><path class="cls-7" d="M427.13,793c3-13.33,11.58-18.4,24.7-16.82q3.29,3.69,6.61,7.38c-.71,11.06-4.36,21.26-9.24,31.08L437.79,817C430.74,810.57,425.45,803.33,427.13,793Z"/><path class="cls-13" d="M557.6,43.52c-25.94,7.65-7.65,23.45-5.13,36-8.91,3-10-6.83-15.89-7C531.11,76,538,82.75,533.2,86.82c-9.94-3.06-8.19-12.59-11.54-19.11C518,60.55,511.27,56,503.91,59.18c-8,3.52-1.84,9.91-.15,15.16A73.72,73.72,0,0,1,507,87.74c.89,7.16-1.44,14.85-9,14.47-5.75-.29-17.42.8-14.49-12.69.9-4.17-.64-9.16-2-13.48-2.6-8.17-6.5-13-11.56-1.43-3.51,8-8.52,3-13.13,2.17L450.09,76c-2-6.31-4.48-11.74-11.2-15.05-7.74-3.82-10.63-11.08-9.38-19.75l.58-.47c5.25.59,10.49,1.38,15.75,1.69,3.53.21,6.86-1.26,7.11-5.15.15-2.32-1.16-6.59-2.49-6.88-17.24-3.78-22.3-25.19-40.3-27.56.57-6.23,2.27-11.43,10.09-11,5.44.33,10.29-.34,12-6.7,16.9-2.05,22.79-14.45,26.86-28.56,10,.64,17.41-5.29,27.52-8.71C464.39-64.68,464-64.55,459.14-43.3c-6.53.62-11.12-1.8-13.09-8.34l3.64-13.63c10.94-.2,11.2-11.63,17.54-16.83,9.88-8.1,18.54-19.13,32.2-5.45,4.58-13.41-10.67-17.7-11.66-28.2-2.11-22.34-19.85-18.49-34.24-19.89-3.5-.34-8.1,2.13-6.53,5.3,8.4,16.88-9.27,29.4-6.75,45L422-95.5l-23.79-6.86c2.91-31,2.91-31-20.22-35-.27-6.53-3.32-13.42,2.51-19.15,31.66,5.85,39,.71,34.72-24.17,3.08-.31,6.36-.57,7.12-4.35,1-4.85-2.58-6.21-6.23-7.32-3.3.46-8,1.52-7.33,4.89,4.27,23.23-10.06,28.7-28.35,30.8-12.51-4.09-13.14-28.64-33.4-19.38-4.4-8-.36-12.5,6.58-15.78,28.31,16.18,31.82,15.29,64.29-16.16,15.85-.23,25.93,4.77,21.73,23.35-.67,3-1.31,7.16,2.72,8.48,5,1.62,6.32-2.86,8.63-6,9.89-13.48,26.87-6.49,39.22-13.15.61-.33,2.79.88,3.23,1.84,8.6,18.74,26.66,28.3,40.88,41.43,6.94,6.4-.82,19.16,10.31,21.52,12.06,2.56,11.14,10.06,10.7,19.24-.54,11.2-4.75,19.05-15.48,22.55-9.41,3.07-20.07,4.56-20.75,17.5-.81,15.42,15.18,5.09,20.61,12.75-5.47,9.65-16.55,10-24.89,16.09C523-38.47,531-35.36,538.24-31c10.18,6.18,20.75,13.11,4,24.23-3.25,2.16-7.51,5-5.12,9.31s8.21,3.23,12.67,4l10.86,9.31-2.63,23.89Q557.78,41.63,557.6,43.52Z"/><path class="cls-11" d="M549.83,6.56c-4.46-.75-10.19.44-12.67-4s1.87-7.15,5.12-9.31c16.71-11.12,6.13-18-4-24.23C531-35.36,523-38.47,514.82-42.39c8.34-6.06,19.42-6.44,24.89-16.09-5.43-7.66-21.42,2.66-20.61-12.75.68-12.94,11.35-14.43,20.75-17.5,10.73-3.5,14.95-11.36,15.48-22.55.44-9.19,1.36-16.68-10.7-19.24-11.13-2.36-3.38-15.12-10.31-21.52-14.22-13.13-32.28-22.68-40.88-41.43-.44-1-2.62-2.16-3.23-1.84-12.35,6.66-29.32-.33-39.22,13.15-2.3,3.14-3.67,7.62-8.63,6-4-1.32-3.4-5.5-2.72-8.48,4.2-18.58-5.88-23.59-21.73-23.35-.27-9.12,6.5-12.12,13.21-15.17,5.39,11.62,14,17.23,26.73,12.88,5.6-1.92,10.85-4.36,16.92-3.36-1.54,18.87,8.63,7.39,15,5.78q.18,1.84.26,3.68c1.38,3.18,4,4.27,7.24,4.36,8.61.78,12.87,6.74,17.87,13,5.58,7,8.23,18,20,18.62,20.07.69,30.15,14.31,38.72,29.89,3.32,12.59-1.42,30.75,20.89,30.23-4.49,9.11-14.52,10.45-21.91,15.43-15.06,10.14-15.16,24.41.22,33.92l.06.1c-.72,5.72-.62,11,6.54,12.68L578.92-38c-7,9,.15,10.62,6.57,12.63L592.93-24c-3.07,21.13-12,27.46-30,22.27C556.49-3.53,551.72-.12,549.83,6.56ZM447.24-193.3l-1.49-.3.45,1.67Z"/><path class="cls-4" d="M507,505.27a17.88,17.88,0,0,1,5.31,11.78c-7.9,6.62-9.18,13.94-2.36,22.13q-2.38,13.07-4.76,26.14c-6.47-1.22-10.94,2.41-15.27,6.36l-4.51-1.25c0-3.19,0-7-3.48-7.91-3.06-.83-3.71,2.49-4,4.91-.53,5-.86,10-1.27,15l-.48-.25c-5.28-1.7-6.42-5.61-6.47-10.72,0-4.91,4.09-11.43-1.45-14.44-6.48-3.52-9.75,4.88-15,6.82-4.49-13.29-6.73-26.66-1.59-40.33,13.55-3.68,26.45-7.92,26.46-25.69,0-5.35,5.92-4,8.5-6.51C489.11,502.25,496.17,506.5,507,505.27Z"/><path class="cls-5" d="M460.48,375.87c5.83.6,5.33,6.66,8.88,10.51,6.84-7.23,6.27-23.22,22-19.47q-.63,14.27-1.27,28.54c-1.46,5.31-.91,11.27-5.16,15.66l-9.63-1.21c-9.42-6.59-10.29,2.8-13.66,7.37-5.68,7.68-1.77,13.38,4,18.65q-1.73,12.17-3.46,24.34c-4.33,5.81-13.93,4.7-16.71,12.38-7.17,19.8-20.42,37.61-19.81,60l-8.06-1.39c10.3-41.42,27.89-81.05,30.43-124.37l4.63-7.43c4.66-2.42,5.27-6.81,5.53-11.37Z"/><path class="cls-11" d="M490.13,395.44q.64-14.27,1.27-28.54,1.26-3.3,2.53-6.59c8.53,1.28,13,10.79,22.54,10.57,9-.2,9.55,4.86,5.07,11.29-4.36,6.26-3.89,13.66-5.3,20.62-5.78,5.5-11.56,19.57-17.23-.16C497.83,398.48,494,396.7,490.13,395.44Z"/><path class="cls-4" d="M498.34,456.71c-1.38,14.5,14.49,26.19,6.78,41.7-4.11-1.49-6.07-4.2-6.37-8.77-1-15.06-6.92-5.67-11.59-2.18-4.81-16.11-5.15-32.49-3-49v0C493,441.3,489,454.22,498.34,456.71Z"/><path class="cls-5" d="M498.34,456.71c-9.34-2.49-5.3-15.41-14.2-18.23q.67-7.37,1.34-14.75c10.69-9.45,16-8.3,17.59,7.16C504,440.41,504.35,448.89,498.34,456.71Z"/><path class="cls-6" d="M485.48,423.73q-.67,7.37-1.34,14.75s0,0,0,0l-18.45-2.54c-5.78-5.26-9.69-11-4-18.65,3.37-4.57,4.24-14,13.66-7.36-1.22,6.78-.49,12.2,8.31,12.09A3.29,3.29,0,0,0,485.48,423.73Z"/><path class="cls-2" d="M489.9,571.68c4.33-3.95,8.79-7.58,15.27-6.36,4.07,7.88,9.36,14.11,19.2,14.15-.88,5,5.43,11.05-.38,14.59-4.75,2.89-11.64,4-14-4.57l-6.68,3.74C506.52,581.28,497.05,577.2,489.9,571.68Z"/><path class="cls-7" d="M509.93,539.18c-6.82-8.19-5.54-15.51,2.36-22.13C526.51,530.17,526.18,533.28,509.93,539.18Z"/><path class="cls-7" d="M487.16,487.46c4.68-3.49,10.59-12.88,11.59,2.18.3,4.57,2.26,7.29,6.37,8.77q.93,3.44,1.86,6.86c-10.81,1.23-17.87-3-20.35-14Q487,489.4,487.16,487.46Z"/><path class="cls-4" d="M483.65,422c-8.8.12-9.53-5.31-8.31-12.09L485,411.1Q484.32,416.55,483.65,422Z"/><path class="cls-2" d="M588.31,510.87l-1.22-.9,1.26.87Z"/><path class="cls-9" d="M524.46,619.33c-1.1,7.73-1.57,15.61-3.43,23.16-4,16.43-14.06,21-26.75,10.41-13-10.85-19.82,5-30,4.17,2.33-4.67,3.74-10.22,7.18-13.84,10.54-11.08,9.19-18.8-4.31-26.08-6.66-3.59-14-8-14.81-17.23.67-.17,1.34-.33,2-.48,7.09,3.95,13.76,3.69,19.88-2,8.31,8.49,17.74,8.48,27.8,3.66l7.83,1L505.67,623c10.18,1.72,12.27-5.76,15.31-12.06C524.29,612.85,523.95,616.26,524.46,619.33Z"/><path class="cls-13" d="M502,601.1c-10.06,4.82-19.49,4.83-27.8-3.66l2-15.27.48.25c4.92-2.53,6.12-7.77,8.72-12l4.51,1.25c7.15,5.52,16.62,9.6,13.43,21.55Z"/><path class="cls-6" d="M553.75,623c-2.74,5.27,3.12,11.79-3.49,17.76-5.24-6.47-5.45-16.82-14.39-20.06C545,596.85,547.9,621.36,553.75,623Z"/><path class="cls-6" d="M521,611c-3,6.3-5.12,13.78-15.31,12.06l4.18-20.95C515.15,603,519.79,604.83,521,611Z"/><path class="cls-1" d="M549.83,6.56c1.89-6.68,6.66-10.08,13.07-8.24,18.06,5.19,27-1.14,30-22.28,11.27-.13,21.45,6.95,12.67,15.6-17.43,17.18-.71,24,6.1,34.38q-.3,3.47-.59,6.94c-4.17,11.39.28,13.69,10.47,9.94l7.13,12.34c-12.16,8.85-24.44-2.78-36.63.21l0,.06q.2-2,.38-3.92c.15-21.48-12.15-31.88-31.82-35.71Z"/><path class="cls-1" d="M557.6,43.52q.18-1.89.46-3.77c7.69.69,15.52,1.1,18.78,10.06,3.75,5.51,9.84,4.72,15.28,5.69l0-.06q-.57,5.85-1.13,11.69C573.88,67.68,569,51,557.6,43.52Z"/><path class="cls-8" d="M541.06,781.77c-2.19-31.35,7.82-60.76,14.37-90.72,4.95-4.9,10.53-5.16,16.54-2.26L556,758.85c-7.25,5.77-3.56,14.88-6.68,21.88C547.33,785.28,544.89,790,541.06,781.77Z"/><path class="cls-4" d="M491.67,691.89c-3.29-.72-6.13-2-7.3-5.54-.07-3.71-1.81-5.75-5.49-6.92-9.23-2.95-4.56-9.66-2.63-14.27,2.57-6.16,7.85-5.23,13.29-2.74,8.08,3.7,13.31,13.28,23.94,11.65q-.85,7.85-1.68,15.71Z"/><path class="cls-8" d="M491.67,691.89l20.13-2.11,23.63,2.68c-.73,6.45-1.47,12.89-2.63,23.12-10.23-12.38-18.92-22.91-33.82-15Z"/><path class="cls-2" d="M558.2,671.29l1.22,1-1.4-.83Z"/><path class="cls-13" d="M452.32,599.92c.8,9.27,8.16,13.64,14.83,17.23,13.5,7.27,14.85,15,4.31,26.08-3.44,3.62-4.85,9.17-7.18,13.84q-1.06,3.15-2.11,6.3c-4.47,1.25-7,3.94-6.62,8.84l-7,10.59c-14.39,4.8-7,17.81-10.11,26.86l-5.11-.26c-3-9.37-6.84-18.62-4.58-28.83,6.81-23.58,1.76-48.92,11.1-72.36,2-5-4-6.27-9.49-3.77C414,612,413.79,628.1,409.29,642l-3.64,1.23c-2.53-4.79-5-3.9-8.85-.88-11.69,9.27-8.61,21.57-7.67,33.53-7.22.52-8.28,5.57-8.33,11.35l-2.57,15.57-4.17,3.48L363,704.69c-3.25-4.37-1.13-7.76,2-11,11.3-4.06,9.39-13.49,6.69-21-2.32-6.49-8-11.79-7.51-19.53,19-10.39,8.93-35.71,24.8-48.51,3.57-2.88-1.42-11.16-8.11-13-9.53-2.57-11-9.84-11.76-18-.69-7.06-1-14.35-5.55-20.42l1.22-7.72c2.47-.24,5.39-.36,5.77-3.41s-2.43-3.87-4.78-4.68l.67-7.74c4.26-.6,8-2.11,4.67-7.08-3.6-5.35-2.92-10.75-1.93-16.4,7.94,6,17.75,5.09,26.75,7.15q3.47,20.28,7,40.56c1.42,4.67-3,12.14,3.34,13.8,6.78,1.76,7.68-5.48,8.5-10.49,1-6,3-8.54,8.68-4.17C422,575.47,432.68,590.47,452.32,599.92Z"/><path class="cls-1" d="M438.4,709.66c3.11-9.05-4.28-22.06,10.11-26.86-3.63,7-4.6,12.68,6.36,11.94q0,2.59.06,5.2Z"/><path class="cls-9" d="M455.55,672.2c-.4-4.9,2.15-7.59,6.62-8.84C462.58,668.27,460.34,671.19,455.55,672.2Z"/><path class="cls-9" d="M611.71,26c-6.81-10.41-23.53-17.2-6.1-34.38,8.78-8.66-1.39-15.74-12.67-15.6l-7.45-1.43c5.42-8.16,2.61-12.05-6.56-12.63l.74-7.91c4.11-.52,8.76-1.41,7-6.85-2-6.42-8.73-4.51-13.57-5.83l-.06-.1q1.18-6.6,2.36-13.19c8.1,9.62,20.56,5.69,30.44,9.79,8.6,9.5,19.3,17.18,11.61,33.85-1.66,3.6-4.22,18.67,9.41,25.87,14.75,7.81,11.83,15.64-5.6,21.94C617.77,20.85,614.88,23.83,611.71,26Z"/><path class="cls-9" d="M621.58,42.9c-10.19,3.75-14.64,1.45-10.47-9.94C616.32,34.47,620.06,37.51,621.58,42.9Z"/><path class="cls-12" d="M-44.18,698.95c4.69,22,36.54,29.22,59.61,13C17.8,734.66-4.29,737.41-15,748.4a47.72,47.72,0,0,1-21.78,12.06c-10,2.34-18.53,28.06-13.83,37.07,2.3,4.4,6.18,4.95,10.06,3.58,7.22-2.54,18.43,4,21.14-9,1.22-5.88,4-9.84,10.74-8.49,4.24.84,7.31,3.56,8,7.73.92,5.21,1.48,11.41-4.11,14.12-12.31,6-20.68,15.27-27.81,26.7-6.77,10.83-17.81,4.92-27.26,4.7Q-52,767.91-44.18,698.95Z"/><path class="cls-14" d="M161.44,474.4l-12.75-.68c-9.54-3.66-18.69-.39-27.91,1.57.13-6.15,5.44-9.47,7.67-13.67,6.8-12.81,31.28-12.6,25-34.15L163.58,418c9.43,15.07,24.64,12.07,38.83,12.58,19.65.7,33.65-17.3,27-36.2-2.15-6.1-2.6-11.29-.69-17.07,7.26.42,4.53,10.64,13.66,11.77,19.11,2.36,23.69,13.84,11.93,29.29-9.6,12.62-4.92,18.54,6.71,23.82-1.72,7.66-2.72,15.59-5.33,22.93-3.38,9.49,1.71,13.8,9,12.09,16.08-3.78,35.55-.17,46-18.29,8.58,8.62,11.6,18.07,4.36,29.06-11.53-1.18-23.9-6.84-31.21,9-1.8,3.88-8.22,6.3-13.9,6-10.43-.41-20-3-27.2-11.19.48-11.58,7.2-26.68-14.51-25.74-5.27-9.5-6.62-22.33-20.67-24.39C175.28,434,164.95,441.34,161.44,474.4Z"/><path class="cls-7" d="M191.86,690.55c-19.13-12.91-12.29-28.47-4.63-44.23,6.31-13,12.37-26.09,18.54-39.14,9.87-3.92,5.57-19.39,17.72-21.56,14.67-2.63,12.53,15.17,22.44,18.24,1.26.39,2.5.81,3.75,1.22,7.14,15.93,13.5,31.88.54,48-4.26,7.64-4.23,19.3-15.87,20.35-12.32,1.11-11.83-13.37-18.84-19.18C206.81,666.92,205.54,682.75,191.86,690.55Z"/><path class="cls-1" d="M191.86,690.55c13.67-7.8,14.94-23.63,23.64-36.27,7,5.82,6.52,20.29,18.84,19.18,11.64-1,11.61-12.71,15.87-20.35,8.3,13.76,20.41,26.74,9.12,44.51-3.3-9.08-10.71-11.52-18.7-9-11.24,3.51-15.29,12.85-15.22,24.18-7.47,15.89-1.36,32.29-1.89,48.44-5-.09-7.51,2.9-8.82,7.3l-1.83-.23L211,768.1c-10.5-14.57-14.21-31.06-13.91-48.74a29.2,29.2,0,0,0-5.85-18.21Z"/><path class="cls-5" d="M294.26,677.76c.89-10-.45-18.93-7.34-27.46-11.86-14.71-16.31-32.49-16.92-51.25l.85-.68c17.59,5.11,22-1,18.31-25.21l4.83-3.76c13.79,5,17-14.32,29.37-12.75l5,21.63c-10.44,8.54,8.63,14.48,2,22.69-4.18-1.48-8.32-3.1-12.56-4.39-3-.91-6.74-2-8.58,1.28-2.45,4.41,3.09,6.27,4.2,9.67-10.18,10.48-12.49,22-6.39,35.76,1.95,4.39.5,10.28.61,15.48-12.11,1.59-7.76,12.32-10.59,19.06Q295.69,677.79,294.26,677.76Z"/><path class="cls-11" d="M269.93,502.9c5.68.35,12.11-2.07,13.9-6,7.31-15.8,19.69-10.14,31.21-9l2.68,12.68-6.66,18.59c-6.14,0-13.87-3.2-15.79,6.31C293.12,536.2,299.41,542.43,308,547c-3.7,12.25-10,5.07-15.8,2.15l-3.54-4.26c-2.28-14.88-12.75-5-19.46-6.43C272.17,526.7,280.22,515,269.93,502.9Z"/><path class="cls-12" d="M249.68,605.08c-1.25-.41-2.5-.83-3.75-1.22-9.91-3.08-7.77-20.87-22.44-18.24-12.14,2.18-7.85,17.65-17.72,21.56l-11-20.36c2.27-11.75,12.45-18.3,18.82-27.23,7-9.76,24.62-6.79,27.47,3.73C244.75,577,246.87,591.14,249.68,605.08Z"/><path class="cls-8" d="M161.44,474.4c3.51-33.06,13.84-40.41,46.1-32.82,1.64,14.95,7.71,31.6-20.19,24.47-15.9-4.06-7.25,17-16.09,22.12l-5.54-1.55Z"/><path class="cls-5" d="M225.41,712.77c-.07-11.31,4-20.66,15.22-24.17,8-2.49,15.4-.06,18.7,9L252.95,721l4.81,20.38-14.84-1.78C233.2,733.16,230.4,722.25,225.41,712.77Z"/><path class="cls-14" d="M165.72,486.62l5.54,1.55c6.75,15.87,18.1,17.55,31.13,8.73,11.09-7.51,11.93-1.92,11.41,7.26-10.1,4.16-19.43,9-19.56,22-10.22-.57-18.06,2.44-20.52,13.58l-16.39,6.59c-3.13-2.45-3.85-5.9-3.92-9.61C173.21,523.9,167,504.66,165.72,486.62Z"/><path class="cls-8" d="M194.24,526.19c.12-13,9.46-17.85,19.56-22,10.2,1.17,15.14,6.21,13.49,17-2,13.15-15.16,13.37-23.09,18.17C198,543.1,196,532.16,194.24,526.19Z"/><path class="cls-7" d="M276.68,710.54c2.48-7,8.35-5.85,13.8-5.68l3.36,4.46c0,8-4.11,16.27,1.12,24.07-3.55,6.66-6.35,13.91-10.89,19.8-3.6,4.67-7.43,13.65-16.07,5.42C274,743.15,281.59,728,276.68,710.54Z"/><path class="cls-8" d="M276.68,710.54C281.59,728,274,743.15,268,758.61l-11.17-1.8.93-15.47L252.95,721C261.2,718.27,265.53,706.63,276.68,710.54Z"/><path class="cls-1" d="M293.84,709.31l-3.36-4.46c-3.93-9.76-9.76-19.78,3.78-27.1l2.86.09c3.83,3.27,6.2,8.76,12.53,8.2q2.78,3.21,5.58,6.4l3.59,7.7C313.44,711.26,302.43,707,293.84,709.31Z"/><path class="cls-10" d="M228.21,466c21.71-.94,15,14.16,14.51,25.74C220.61,492.88,223.27,480.08,228.21,466Z"/><path class="cls-5" d="M270,599.05c-8.05-3.4-10.94-10-8.19-17.6,2.93-8.09,9.69-7,18.89-3.64-7.91,5.82-14.23,11.35-9.85,20.56Z"/><path class="cls-5" d="M269.16,538.51c6.71,1.46,17.18-8.46,19.46,6.42a15.14,15.14,0,0,1-9.53,7c-5.82-.64-10.53-2.47-10.26-9.61a26.85,26.85,0,0,1,.48-3.91Z"/><path class="cls-1" d="M279.09,551.92a15.14,15.14,0,0,0,9.53-7l3.54,4.26c-1.17,6.9-1.22,13.7,1.84,20.21l-4.83,3.76C282.56,567.63,280.18,560.08,279.09,551.92Z"/><path class="cls-11" d="M269.31,538.4a26.85,26.85,0,0,0-.48,3.91l-4.37-2.43Z"/><path class="cls-10" d="M191.28,701.16a29.2,29.2,0,0,1,5.85,18.21c-.29,17.68,3.41,34.16,13.91,48.74-4.95,11.23-12.84,6.28-19.88,3.24-9.06-3.92-17.8-8.55-26.68-12.88-5.13-10.52-1.17-21.28-.81-31.94,3.72-1.51,8.92-3.68,7.42-7.83C162.29,694.42,180.68,702.45,191.28,701.16Z"/><path class="cls-11" d="M13.17,469.61c13.1,11.44,25.59,23.69,39.51,34,8.93,6.63,21.67,21,26.46-4.67,1.23-6.6,6.92-5.34,10.78-1.9,5.38,4.79,9.54,11.21,17.84,11.29,1.31,4.2-1.23,9.29,3,12.82l3.28,7.9c-8.19,4.74-16.21,9.67-21.47,17.91-19.55-4.72-39.42-5.32-59.39-4.55-.42-4.26-3-6.61-6.9-7.71,2.87-13.75-3.76-23.9-12.58-33.22Z"/><path class="cls-8" d="M110.74,521.17c-4.2-3.53-1.66-8.62-3-12.82l.93-8.66,4.18-14.56,7.9-9.86c9.22-2,18.37-5.23,27.91-1.57C147.12,498.41,130.65,511.17,110.74,521.17Z"/><path class="cls-5" d="M13.68,501.49c8.82,9.32,15.45,19.47,12.57,33.23q-.65,4.37-1.3,8.74l-1.62,6.89-7.18-.63c6.8-8.92-3.45-11.31-6.32-16.53,5.38-7.07,5.83-13.74-4-16.12-7.76-1.88-12-5.24-14.61-12.94C-11.88,495-20,492.49-29.18,493q.51-4.23,1-8.44C-11.51,483.53-1.32,498.48,13.68,501.49Z"/><path class="cls-4" d="M23.33,550.35l1.62-6.9,8.2-1c20-.77,39.84-.17,59.39,4.55-1.79,6.91-6.47,12.88-13.07,12.55C60.51,558.59,40.79,560.94,23.33,550.35Z"/><path class="cls-4" d="M-29.18,493c9.14-.56,17.3,2,20.41,11.1,2.62,7.7,6.85,11.06,14.61,12.94,9.83,2.37,9.38,9,4,16.12l-38.49-2.83q-.36-3.47-.73-7l-2-14.37.48-5.55.61-5.91Z"/><path class="cls-1" d="M257.76,741.34q-.46,7.73-.93,15.47c-.77,6.87-7.15,10.13-10.06,15.62-8-1-8,5.84-10.23,10.53l-10.17-5.37c-.19-5.79,2.43-10.55,5.58-15.11,4.43-7.27,10.19-13.9,11-22.91Z"/><path class="cls-5" d="M232,762.47c-3.15,4.56-5.77,9.32-5.58,15.11-1.27,3.13-2.92,6.8-6.88,4.92-5.88-2.78-4.67-8.79-4.78-14,1.3-4.41,3.79-7.39,8.82-7.3Z"/><path class="cls-1" d="M236.62,790.77c3.78,5.89-1.56,5.93-4.73,7.36C227.27,791.69,231.61,791,236.62,790.77Z"/><path class="cls-15" d="M246.77,772.43c2.91-5.49,9.29-8.75,10.06-15.62l11.17,1.8c8.64,8.23,12.46-.75,16.06-5.42,4.55-5.89,7.34-13.14,10.89-19.8a28,28,0,0,0,3.55-.17c-.63,13.79-1.72,27.51-5.49,40.88-8.36-5.22-12.66-2.82-10.35,6.77,1.92,8,5.84,15.47,8.88,23.18l-20-1.77c-.62-7-.73-14.05-2-20.91-1.59-8.58-6.85-7.92-12.73-3.87C253,776.86,249,776.4,246.77,772.43Z"/><path class="cls-1" d="M256.86,777.5c5.88-4.05,11.14-4.71,12.73,3.87,1.27,6.86,1.38,13.93,2,20.92-7.89,10.25,3.13,7.2,6.63,9.43-2.68,8.88-9.54,6.28-15.66,5.68a26,26,0,0,1-3.87-16.18c6.53-5,3.24-6.89-2.51-8C250.07,787.69,258.25,782.8,256.86,777.5Z"/><path class="cls-1" d="M395.92,513.36c-9-2.07-18.81-1.12-26.75-7.16l-7.5-1.32c-3.85-5.24-9.25-8-15.41-9.42l-10.67-13.23c19.48,1.51,42.05-13.77,35.22-21.21-12.7-13.83-1.92-33.28-15.68-44.75,4.08-10.47,11.71-7.45,17.49-3.19,12.75,9.39.92,34.71,24,38-14,17.79,6.78,13.5,12.07,19.05C405.26,484.81,405.32,500.48,395.92,513.36Z"/><path class="cls-5" d="M408.67,470.16c-5.29-5.55-26.1-1.26-12.07-19.05-23.06-3.33-11.23-28.65-24-38-5.78-4.25-13.41-7.28-17.49,3.19-1.31-.12-2.85.16-3.88-.44-6.26-3.68-20.2,6.46-18.85-11.39,1-13.26,5.63-19.1,19.52-16.79,4.92.82,10.33-1.25,15.51-2l13.15,3.65c.9,2.47,1,6.13,2.8,7.22C411.82,414.3,410.81,442,408.67,470.16Z"/><path class="cls-7" d="M380.58,389.29l-13.15-3.65c-7.73-13-14.44-27.23-33.2-26.25.23-7.13,1.45-14.33-1.77-21.17,25.48-5.58,43.7,12.78,65.35,19.81q-.63,3.4-1.27,6.8c-8.31-.08-20.3-3-22.2,6.76-2.27,11.71,11.95,5.54,17.38,10,1,.83,2,1.68,3,2.53C389.26,383.82,384.41,385.14,380.58,389.29Z"/><path class="cls-13" d="M452.71,399.41l-4.63,7.43c-14.21-9.25-7-25.36-12.06-37.56,4.48-10.35,13.24-10.12,22.34-9q1.06,7.81,2.12,15.62Q459.36,382,458.24,388C450.55,389,448.09,392.48,452.71,399.41Z"/><path class="cls-9" d="M423.4,553.06c-5.67-4.37-7.7-1.82-8.68,4.17-.83,5-1.72,12.25-8.5,10.49-6.39-1.66-1.92-9.13-3.34-13.8,1.18-10,4.59-18.56,14.78-22.69l8.06,1.39Q424.55,542.83,423.4,553.06Z"/><path class="cls-6" d="M394.72,384.16c-1-.84-2-1.69-3-2.53-5.43-4.5-19.65,1.68-17.38-10,1.9-9.81,13.89-6.84,22.2-6.76,3.61,6.36,3.31,13.15,2.16,20Z"/><path class="cls-1" d="M445.79,146.75c-.81,6.12.16,11.1,5.18,15.91,9,8.59,6.9,26.14-3.35,36.59l-13.9-9.7-15.5-10.35c1.64-4.14,5.6-9,4.54-12.3C414.51,141.37,431.6,145.92,445.79,146.75Z"/><path class="cls-14" d="M397.61,216.87C391.72,243.06,380.34,251,347.1,252c-5.63.17-11.77-2.94-16.57,2.57l-4.26-.24q.08-4.52.16-9c20.28-1.17,35.08-12.09,47.71-26.85Z"/><path class="cls-14" d="M418.23,179.2l15.5,10.35c-2.05,7.19-8.4,13.49-2.87,22.12,3.54,5.51-.66,10.22-5,13.3-5.77,4.13-7.49-.6-9.78-5-3.74-7.22-11.44-4.76-17.56-6.14.11-8.73,14.53-10.07,10.8-21.65l-17.28,1.29c4.77-6.53,7.54-15.49,18.15-14.91Z"/><path class="cls-10" d="M392.07,193.45l17.29-1.29c3.73,11.59-10.69,12.92-10.8,21.65a9,9,0,0,0-.95,3.06l-23.47,1.54c-6.38-6.85-7.34-15.13-6.28-23.93a24.49,24.49,0,0,1,1.85-3.3c.27-.36,1.17-.25,1.77-.35.15,17,7.67,11.44,15.58,5.16C388.5,194.85,390.39,194.28,392.07,193.45Z"/><path class="cls-8" d="M326.28,254.3l4.26.23c16,5.54,16.1,20.29,19.33,33.24l-.14.11-18.83-10.05-5.75-21.22A12.78,12.78,0,0,0,326.28,254.3Z"/><path class="cls-8" d="M361.79,289.79a29.54,29.54,0,0,0-.46,3.09l-11.79,2.44.16-7.45.14-.11Z"/><path class="cls-9" d="M349.55,295.33l11.79-2.44c2.8,5.54,3.68,15.42-2.34,13.87-16.22-4.18-24,13.48-38.16,11.62l-9.22-7.13,9.75-14.15C331,301,340.72,304.85,349.55,295.33Z"/><path class="cls-7" d="M311.62,311.26l9.22,7.13q0,8.89.08,17.77l-5.3,7.41c-3.27-12.63-21.85-14.27-21.31-29.65,4.41.17,9,1.11,12.68-2.4Z"/><path class="cls-12" d="M315.63,343.56l5.3-7.41,11.54,2.06c3.22,6.84,2,14,1.77,21.17-6.92,5.34-11.36.95-15.67-4Z"/><path class="cls-9" d="M389.31,292.76c2.67-3.67,5.34-3.56,8,0Z"/><path class="cls-15" d="M418.23,179.2l-8-.66c.6-7.33-.89-13-10.11-10.87-6.19,1.45-11-.89-15.85-4.06-.09-6.37,3-10.93,7.59-15.16,11-10.28,6.91-15.17-6.28-16.52-3.24-.33-6.43-1.06-9.64-1.61l-2.3-15c8.27-7.49,21.35,7.8,28.3-6,1.2-4.49-1.35-7.84-3.43-11.34,27.56-1,27.66,26.3,43.92,46.4,2.92-25.71,5.16-45.41,7.4-65.12q.11-1.65.28-3.3l6.67.75c6.8,13.93,6.64,29.28,9.06,44.11-1.4,7.74-6.14,13.53-11.21,19.13a13.52,13.52,0,0,0-8.83,6.74c-14.18-.82-31.28-5.38-23,20.15C423.83,170.16,419.86,175.06,418.23,179.2Z"/><path class="cls-5" d="M509.48,185.41c-5.32-.12-7.39-3.12-7.2-8.12C513.46,172.22,508.41,181.52,509.48,185.41Z"/><path class="cls-14" d="M55,382.44c-9-1.13-16.1,2.3-11,11.47s2,19.49,7.39,27.9l-8.92,2.65c-3.52-3.72-7.71-7-10.43-11.23-10.66-16.63-11.08-3.35-13.49,4.4L2.9,417.06l-3.34-2.87.62-6.33c0-17.58,7.78-33.6,10.17-50.7,10.14,4,11.44,20.26,25.68,18.67,5.75.35,7.22-3.33,8.91-8.07,5.75-16,12.63-31.76,9.86-49.46L65,331.87q0,1.95.07,3.89l3.1,4,.11-.36c-2.48,10,3.24,19.09,3.09,28.89-.08,5.13-13.62,10.31-1,14.86,8.68,3.13,12.44-4.42,14.81-11.74,1.14-3.54,4.29-4.62,7.49-5.49q.27,2.34.55,4.67c-4.32,14.27,8,21.36,13.94,31,3,4.83,9.56,5,13.68-.07,13.71-16.92,33.83-30.87,27.59-57.41,9.46,4.44,20.15,12.93,15.2,21.72-7.65,13.56-4.39,34.56-24,40.38-7.89,2.35-14.11,6.49-20.05,11.63-10.94-3.47-18.94,1-25.41,9.46-5.32-1.42-11.29-.78-15.76-4.93C75,406.43,63.94,395.08,55,382.44Z"/><path class="cls-14" d="M2.29,299.11c-9.93,1.66-19.74,5.53-30,1.74,3.13-12.63,11.95-25.94-4.32-36.26l.55-7.75,1.24-14.45,12.95-4.72,19,10.17c.05,8.29,4.8,13.71,11.09,18.19l-.09,4C1.12,276.76.82,287.62,2.29,299.11Z"/><path class="cls-15" d="M120.78,475.29l-7.91,9.85-9.19-1.1c-5.25-1.17-9.46-3.73-11.74-8.84,15.71-10.81,9.63-26,5.4-41.1,11.54,3.35,14,10.69,16.37,22.85,4.08-15,29.12-19.69,8.95-37.33,11.2-1,20.32,6.17,30.84,7.86,6.23,21.54-18.25,21.33-25,34.14C126.22,465.82,120.91,469.14,120.78,475.29Z"/><path class="cls-11" d="M2.9,417.06l15.65.58c6.35,8,10.33,24.23,23.91,6.82l8.92-2.65c7.19,12,8.41,22.12-5.14,31.77-8.7,6.19-18.75,9.7-24.16,2.18C13.84,444.31,1.08,433.89,2.9,417.06Z"/><path class="cls-8" d="M122.66,419.62c20.17,17.63-4.87,22.33-9,37.32-2.39-12.16-4.83-19.5-16.37-22.85,4.24,15.12,10.31,30.3-5.4,41.1-9.81-2.47-10-10.19-9.84-18.08l3.45-18.82c4.11-2.72,7.7-5.86,8.62-11.06,6.48-8.5,14.48-12.92,25.41-9.46Q121.13,418.66,122.66,419.62Z"/><path class="cls-1" d="M13.68,501.49c-15-3-25.19-18-41.85-16.89q1.43-17.43,2.87-34.86c15.72,1,23.72,17,38.47,19.86Q13.42,485.55,13.68,501.49Z"/><path class="cls-15" d="M1.77,247.83l-19-10.17c.34-6.09-3.59-10.5-6.06-15.47q2-12,4-24.07l4-3.36c9.58.75,18.69,3.79,21.14,13.77,3,12.37,3.9,25.28,5.7,38Z"/><path class="cls-8" d="M2.29,299.11C.82,287.62,1.12,276.76,12.77,270c14.11,5.14,22.06,12.21,12.78,28.69-3.62,6.44-3,15.28-4.25,23-5.53,0-6.72-5.75-10.61-7.91Z"/><path class="cls-5" d="M10.69,313.81c3.9,2.15,5.09,7.94,10.62,7.91L26,323.63C24.47,332,6.7,327.13,11.83,341l-14,11-6.38-.85c-11.82-7.76-4.87-19.16-5.64-29.07,2-5.92,3-14.87,12-6.49C3.65,321,7.38,321.68,10.69,313.81Z"/><path class="cls-8" d="M-22.88,397.76C-23,384-24.43,369.93-13.24,359c14.38,3.33,15.67,10.67,8.55,22.86-5.29,9-12.63,20.39,4.87,26l-.62,6.33C-10.31,412-18.69,407.73-22.88,397.76Z"/><path class="cls-15" d="M55,382.44c8.91,12.64,20,24,23.37,39.88C58.32,416.24,52.86,401.58,55,382.44Z"/><path class="cls-11" d="M85.54,438.31,82.1,457.12c-6.18-3.65-18.16-2.83-16.25-13.05C67.81,433.54,78,437.32,85.54,438.31Z"/><path class="cls-11" d="M103.68,484l9.19,1.1q-2.08,7.29-4.17,14.56A25.81,25.81,0,0,1,103.68,484Z"/><path class="cls-15" d="M350.78,771c3.5,3.62,5.43,9,11.24,10-3,13.76-11.48,24.89-17.87,37-4.71-.52-5.66-3.88-5.9-7.77l-4.86-28.34C339.17,778.27,342.43,770.6,350.78,771Z"/><path class="cls-15" d="M380.44,827.07c-7.42-6.88,3.36-24-14.16-25.19-2.51-4.7-2.66-8.92,2.45-12.07.55.63,1.12,1.23,1.71,1.79,15.26,6.54,17.59,24.68,30.14,33.68l-6.4,9.07Z"/><path class="cls-9" d="M350.78,771c-8.35-.42-11.62,7.25-17.39,10.92-6.7,1.2-16-.4-18.61,6.72-3.09,8.5,8.62,7.29,11.82,12.29a79.77,79.77,0,0,1,4.1,8.3c-.77,8.66-5.3,12.26-13.92,10.33,2-14.12-16.21-22.07-11.31-37.07l2-12.12C322,777.79,326.92,763.11,336,758a24.32,24.32,0,0,1,15.25,9.42Q351,769.21,350.78,771Z"/><path class="cls-11" d="M305.47,782.51c-4.9,15,13.31,23,11.31,37.08-5,3.88-7.66,9.09-9,15.13l-.4.27c-14.9-1.27-15-21.11-29.18-23.26-3.5-2.23-14.52.81-6.63-9.43l20,1.76c9.14-7.92.75-18,3.34-26.77Z"/><path class="cls-1" d="M330.7,809.25a79.77,79.77,0,0,0-4.1-8.3c-3.2-5-14.91-3.79-11.82-12.29,2.59-7.12,11.91-5.52,18.61-6.72l4.85,28.34Z"/><path class="cls-8" d="M405.65,643.24l3.64-1.23c6.34,11.83,9.3,24.72,11.83,37.75l-3.35,22.74c-7.76,1.45-7.93,7.84-8.69,13.66-1,7.76-5.52,9.8-12.53,8.24-3.1-6.33-2.37-13-2-19.72l.63-7.92a13,13,0,0,0,.53-3.85C399.88,676.51,404.83,660.29,405.65,643.24Z"/><path class="cls-1" d="M394.54,704.66c-.36,6.68-1.09,13.4,2,19.72-1.15,10.33-15.95,11.44-15.47,22.87-13.81-6.44.35-20.65-7.94-28.62l.93-12.35,4.17-3.48Z"/><path class="cls-9" d="M374.07,706.29q-.47,6.17-.93,12.34-1.79-.34-3.57-.64c-14.58-2.9-18.26,5.62-18.53,17.7-7.75.21-8.87,5.57-9.05,11.65l-4.82,7-3.71-7.68L345.8,711.4q1.67.19,3.35.3c6.22.81,10.55-2.1,13.87-7Z"/><path class="cls-8" d="M400.59,825.27c-12.55-9-14.88-27.14-30.14-33.68C392.38,783.73,404.06,796.78,400.59,825.27Z"/><path class="cls-14" d="M448,735.67c-5.12,8.56-14.45,9.69-22.64,12.85,0-3.23-.6-6.6.12-9.66,1.3-5.53-12.7-3.47-5.44-10.58,4.85-4.74,11-2.29,16,1.6C438.79,734.36,443.8,734.17,448,735.67Z"/><path class="cls-11" d="M337.15,754.35l4.82-7c3.65.83,7.68.95,10.85,2.65,4.05,2.18,11,2.47,10.08,9.4-.84,6.18-7,6.34-11.65,8A24.31,24.31,0,0,0,336,758,7.85,7.85,0,0,1,337.15,754.35Z"/><path class="cls-11" d="M369.56,718q1.79.3,3.57.64c8.29,8-5.86,22.18,7.94,28.63q-.38,3.89-.75,7.78L368.89,754,363,737.7C369.21,732.46,367.88,724.73,369.56,718Z"/><path class="cls-1" d="M417.77,702.49l3.35-22.74,7.59.82c-2.26,10.21,1.53,19.46,4.58,28.83C427.32,708.87,418.7,714.31,417.77,702.49Z"/><path class="cls-15" d="M369.56,718c-1.68,6.74-.35,14.47-6.55,19.71l-12-2C351.29,723.61,355,715.09,369.56,718Z"/><path class="cls-1" d="M368.89,754,380.32,755c5.1,6.48,3.21,13.16.41,21.3C371.35,771.1,369.52,762.88,368.89,754Z"/><path class="cls-8" d="M519.5,750c-.77-.61-2.94-1.45-3.26-2.75-.79-3.24,2-4.41,4.47-4.59,1.25-.09,3.54,1.41,3.76,2.51C525,748,523.56,750,519.5,750Z"/><path class="cls-14" d="M454.42,736.19A25.74,25.74,0,0,1,451,734.9C453,733,454,733.74,454.42,736.19Z"/><path class="cls-10" d="M339.06-176.23l8,.17c20.26-9.26,20.89,15.29,33.4,19.39l.08.15c-5.83,5.73-2.78,12.62-2.51,19.16-7.05,1.19-14.55,1.66-16.82,10.5l4.93,29.4q-.06,1.19-.14,2.39c1.62,10.19-18,3.38-12.58,14.21,5.27,10.5,16.13,5.33,25,3.79,3.88-.68,7.73-1.5,11.61-2.14,13.9-2.28,17-8.57,7.39-19.67a29.1,29.1,0,0,1,.86-3.48L422-95.51c-1.5,8-4,14.94-12.31,18.87-10.76,5.07-10.34,14.48-2.91,20.62a43.49,43.49,0,0,1,15.31,24c4.22,16.69-13.51,9.52-18.58,17-12.86,18.91-20.58,8.53-26.74-6,7.85-12.11,8.86-24.4.64-36.71-2.37-3.55-56.15-7.18-58.23-3.54-8.37,14.65-13.23,6.57-19.17-2-3.23-4.65-6-10.36-12.42-12-4.57-9.66-12.11-14.5-22.88-14.14-5.73-6.82-6.84-.33-9.12,3.11-3.35,5.07-7.14,7.71-12.12,1.75,15.69-17.09,17.87-36.77,11.13-58.16-9.1-7.93-20-15.1-31.28-8.9-9.57,5.29-2.23,16.55-2,25.18q-.41,1.84-.94,3.65l-8-.91c-.73-10-8.77-8.75-15.22-10-4.85.25-7.5,2.75-7.8,7.64-1.64,27.14,13.49,41.7,46.49,44.72L235.44-77c-3.27,2.18-7.21,3.78-9.69,6.65-8.9,10.29-.38,23.58-4.69,33.93-4.59,11-26.31.94-27.73,19.18-3.6,9.42,2,18.77.19,28.17-5.75-1.17-10.95.53-16,3.12,0-12.17-6.07-22.83-8.57-34.38L200.76-49c5.69-6.73,8.14-15.87,2.6-21.74-10.58-11.21-17-27.14-36.17-32.12,8.73-6,19.61-9.6,10.78-21.56-1.53-2.08,1.37-7.36,2.1-11.19,3.7-19.43,25.93-17.7,34.9-30.52,6.45-9.22,14.19-7.74,22.72-6.47,13.13,12,22.05,29.32,41.8,32.9,5.32,1.12,15.62-1.5,5.78,9.64-5.91,6.68-13.13,14.49-8.26,24.74,5.41,11.4,16.62,8.08,26.14,8.78,1.1.08,2.11,1.36,3,2,2.87,6.56-12.29,4.43-5.83,11.07,4.9,5,11.38,1.6,15.2-3.66,2.64-3.64,5.75-8.14,5.77-12.27.07-14.85,3.63-30.69-4.87-44.06-5.31-8.34-.39-11.75,3.93-16.49l-.37.15c7.46-4.33,14.84,3.36,23.12.5Z"/><path class="cls-14" d="M376.78-21c6.16,14.5,13.88,24.89,26.74,6,5.07-7.46,22.8-.28,18.58-17a43.49,43.49,0,0,0-15.31-24c-7.43-6.14-7.85-15.55,2.91-20.62C418-80.57,420.5-87.53,422-95.51l18.25,10.19c5,5.82,12.15,10.59,9.44,20q-1.82,6.82-3.62,13.62c-8.74-2.43-9.71,3.48-10.46,9.72-1.09,9-2.24,18.09-3.37,27.14-1.68,6.36-6.54,7-12,6.7-7.82-.47-9.53,4.72-10.09,11-8.65,9.58-11.75,39.19-5.33,50.89-9.88,10,.43,20.83-.63,31.56l9.69-14.11c12.1,2.16,23.23,8.63,35.93,8.13l-7.4,65.12C426.16,124.34,426.06,97,398.51,98c-10.18-2.41-19.41-8.49-30.37-7.94-2.65-9.32.69-19.6-4.57-28.5,1.33-4.18,4-6.13,8.51-6.91,4.84-.83,13.92,5.09,13.53-5.07-.27-7-8.55-7.41-14.39-7.46-15.15-.14-28.76-2.83-36.38-18q1.48-5.21,3-10.44C347.22,9.56,353.42.54,365.27-1c6.7-.86,9.14-9.5-1.45-13C365.51-21.14,370.69-21.89,376.78-21Z"/><path class="cls-11" d="M404.83,53.74c-6.42-11.7-3.32-41.31,5.33-50.89,18,2.36,23.06,23.78,40.3,27.56,1.33.29,2.64,4.55,2.49,6.88-.25,3.88-3.58,5.36-7.11,5.15-5.27-.31-10.5-1.1-15.75-1.69l-1.66-.69,1.08,1.15c-1.25,8.67,1.64,15.94,9.38,19.75,6.72,3.31,9.22,8.74,11.2,15.05q-.16,1.65-.27,3.31c-12.7.51-23.83-6-35.93-8.12Z"/><path class="cls-11" d="M576.85,49.81c-3.26-9-11.1-9.37-18.78-10.06l2.63-23.89c19.67,3.83,32,14.23,31.82,35.71Z"/><path class="cls-1" d="M423.4,553.06q1.15-10.23,2.31-20.45c-.62-22.37,12.63-40.18,19.81-60,2.78-7.68,12.37-6.57,16.71-12.37,3.34,10.18,15,18.92,6.32,31.23-7.07,10-12.24,20.84-16.87,32-5.14,13.67-2.9,27,1.59,40.33q.54,17.8,1.07,35.6c-.67.15-1.33.31-2,.48C432.68,590.47,422,575.47,423.4,553.06Z"/><path class="cls-2" d="M451.67,523.52c4.63-11.2,9.8-22.06,16.87-32,8.72-12.31-3-21-6.32-31.23q1.73-12.17,3.46-24.34l18.46,2.53c-2.13,16.53-1.79,32.91,3,49q-.2,1.94-.53,3.85c-2.58,2.53-8.49,1.17-8.5,6.51C478.12,515.6,465.22,519.83,451.67,523.52Z"/><path class="cls-12" d="M454.34,599.44q-.54-17.8-1.07-35.6c5.27-1.94,8.54-10.34,15-6.82,5.54,3,1.4,9.53,1.45,14.44,0,5.11,1.19,9,6.47,10.72l-2,15.27C468.1,603.14,461.43,603.39,454.34,599.44Z"/><path class="cls-2" d="M485.39,570.43c-2.59,4.23-3.79,9.47-8.72,12,.41-5,.74-10,1.27-15,.26-2.43.91-5.74,4-4.91C485.4,563.46,485.41,567.24,485.39,570.43Z"/><path class="cls-11" d="M452.71,399.41c-4.62-6.93-2.16-10.42,5.53-11.37C458,392.6,457.37,397,452.71,399.41Z"/><path class="cls-9" d="M576.85,49.81l15.67,1.77q-.18,2-.38,3.92C586.69,54.53,580.6,55.32,576.85,49.81Z"/><path class="cls-11" d="M313.48,607.55c-1.11-3.4-6.65-5.26-4.2-9.67,1.84-3.31,5.59-2.19,8.58-1.28,4.24,1.29,8.37,2.91,12.55,4.39,6.4,8.91,8.88,20.49,18.79,29.35,4.77-15.61-5.05-26.91-5.47-39.54.4-.38,1.2-.91,1.13-1.12a16.75,16.75,0,0,0-1.42-2.57l-.22.34,3.1-20.37c9.69.3,8.46-13,17.22-13.85,4.55,6.07,4.87,13.35,5.55,20.42.8,8.2,2.24,15.48,11.76,18,6.69,1.8,11.68,10.09,8.11,13-15.86,12.8-5.76,38.11-24.79,48.51-11.45,0-16.91-10.63-26.1-14.62C325,632.07,329.29,611.84,313.48,607.55Z"/><path class="cls-5" d="M338.08,638.54c9.2,4,14.66,14.65,26.1,14.62-.49,7.74,5.19,13,7.51,19.53,2.7,7.54,4.61,17-6.7,21-5.85-5.53-11.5-10-13.65,2.72-.86,5.07-1.47,10.18-2.2,15.27q-1.68-.1-3.35-.3l-7.74-5.66c-2.45-11.66-1.63-23.35-.4-35.05C349.6,660.13,333.3,649.2,338.08,638.54Z"/><path class="cls-5" d="M428.71,680.57l-7.59-.82c-2.53-13-5.49-25.91-11.83-37.75,4.5-13.9,4.72-30.05,21-37.56,5.44-2.51,11.49-1.24,9.49,3.77C430.46,631.65,435.51,657,428.71,680.57Z"/><path class="cls-5" d="M394.54,704.66l-16.3-1.85,2.56-15.57c7.37-.41,8.31-5.54,8.33-11.35-.94-12-4-24.26,7.67-33.53,3.81-3,6.32-3.92,8.85.88-.82,17.06-5.76,33.28-10,49.66-.48.33-1.38.7-1.35,1a15.23,15.23,0,0,0,.83,2.87Z"/><path class="cls-5" d="M363.55,553.23c-8.76.86-7.53,14.14-17.23,13.85-1.39-12.49,5.72-23.16,7.51-35l4.42-3.63,8.18,1.21q-.34,3.87-.67,7.74-.5,4-1,8.08Z"/><path class="cls-15" d="M349.15,711.7c.73-5.09,1.34-10.2,2.2-15.27,2.14-12.69,7.8-8.25,13.65-2.72-3.11,3.21-5.23,6.6-2,11C359.7,709.6,355.37,712.51,349.15,711.7Z"/><path class="cls-11" d="M366.43,529.68l-8.18-1.21,3.42-23.6,7.5,1.32c-1,5.65-1.67,11.05,1.93,16.41C374.45,527.57,370.69,529.08,366.43,529.68Z"/><path class="cls-1" d="M389.13,675.88c0,5.81-1,10.94-8.33,11.35C380.85,681.45,381.91,676.4,389.13,675.88Z"/><path class="cls-11" d="M364.77,545.51q.49-4,1-8.08c2.36.81,5.16,1.61,4.78,4.68S367.24,545.26,364.77,545.51Z"/><path class="cls-13" d="M315.63,343.56l2.93,11.85c5,16.57-6.23,25.52-16.41,35-12.88-2.48-23.65-3-15.51,15.6,2.6,5.95-1.74,13.34,3.52,18.89L289,436.15c-10-.91-19.42.61-28,6-11.64-5.28-16.32-11.21-6.72-23.83,11.75-15.45,7.18-26.93-11.93-29.29-9.13-1.13-6.4-11.35-13.67-11.76a28.09,28.09,0,0,1-.82-3.31A291.88,291.88,0,0,0,239,318.68l55.27-4.76C293.78,329.29,312.35,330.93,315.63,343.56Z"/><path class="cls-15" d="M227.86,374a28.44,28.44,0,0,0,.82,3.31c-1.9,5.78-1.46,11,.7,17.07,6.68,18.89-7.32,36.9-27,36.2-14.19-.51-29.4,2.49-38.83-12.58-9.61-18.95-2.59-33.36,12.69-45.2,5.1-4,10.9-7,16.38-10.48C205.87,361.78,216.9,367.78,227.86,374Z"/><path class="cls-13" d="M192.65,362.34c-5.48,3.47-11.28,6.52-16.38,10.48C161,384.66,154,399.07,163.58,418l-10.09,9.46c-10.51-1.69-19.63-8.87-30.84-7.86-1-.63-2-1.25-3.08-1.83,6-5.14,12.17-9.28,20.06-11.63,19.57-5.82,16.32-26.82,24-40.38,5-8.79-5.74-17.28-15.2-21.72l-3.77-3.85c5.93-7.64.5-16,1.53-24l1.42-7.31c17.23.27,31,9.8,45.64,17C196,338.13,181,350,192.65,362.34Z"/><path class="cls-13" d="M353.83,532.1c-1.78,11.81-8.89,22.48-7.51,35l-3.1,20.37c-4.91-3.09-8.17-8.87-14.81-9.15l-5-21.63.82-8.15c2.44-.07,5.75-.19,5.68-3-.14-5-5.31-3.94-8.37-5.42,3.81-7.44,7.54-14.92,11.46-22.3,3.44-6.5,7-14.53,2.35-20-5-5.95-11.63,1.48-17.56,2.95L315,488c7.24-11,4.22-20.44-4.36-29.06a17,17,0,0,1,.1-3.68c6,3.82,20.75-8.43,18.79,10.16-9.31,9.67.85,12.34,6,16.8h0l10.67,13.23c-1.16,6.89-1.23,14.21-3.71,20.59C337.88,528,344.17,530.92,353.83,532.1Z"/><path class="cls-15" d="M310.79,455.25a17,17,0,0,0-.1,3.68c-10.46,18.12-29.93,14.51-46,18.29-7.29,1.72-12.38-2.6-9-12.09,2.62-7.35,3.61-15.27,5.33-22.93,8.61-5.44,18.06-7,28-6C299.51,438.85,305.4,446.76,310.79,455.25Z"/><path class="cls-15" d="M232,762.47l-8.43-1.26c.52-16.15-5.59-32.56,1.88-48.44,5,9.47,7.79,20.39,17.51,26.79C242.15,748.58,236.38,755.21,232,762.47Z"/><path class="cls-14" d="M338.08,638.54c-4.78,10.66,11.51,21.59-.42,32.15-3.45-2.33-6.62-6.23-11.28-2.09-5.79-.54-11.47-.89-12.68,6.95l-6-16.75c-.11-5.2,1.34-11.09-.61-15.48-6.1-13.75-3.79-25.28,6.39-35.76C329.29,611.84,325,632.07,338.08,638.54Z"/><path class="cls-9" d="M317.72,500.66c5.94-1.47,12.54-8.9,17.56-2.95,4.64,5.51,1.1,13.54-2.35,20-3.91,7.38-7.64,14.87-11.46,22.31l2.7,8.45-.82,8.15C311,555.08,307.79,574.37,294,569.41c-3.06-6.51-3-13.31-1.84-20.21,5.76,2.92,12.11,10.11,15.81-2.15q1.55-13.9,3.1-27.8Z"/><path class="cls-15" d="M328.41,578.29c6.65.28,9.9,6.06,14.81,9.15l.21-.34a6.13,6.13,0,0,0,.29,3.69c.42,12.63,10.24,23.93,5.47,39.54-9.91-8.85-12.4-20.44-18.79-29.35C337,592.77,318,586.83,328.41,578.29Z"/><path class="cls-15" d="M307.7,658.79l6,16.75L309.65,686c-6.33.56-8.71-4.92-12.53-8.2C299.93,671.1,295.59,660.37,307.7,658.79Z"/><path class="cls-1" d="M311.07,519.25q-1.55,13.9-3.1,27.8c-8.55-4.62-14.85-10.85-12.69-21.49C297.2,516.05,304.93,519.22,311.07,519.25Z"/><path class="cls-8" d="M337.15,754.35A7.85,7.85,0,0,0,336,758c-9.09,5.11-14,19.79-28.54,12.39l-.21.11-3.43-8c3.13-10,7.95-19.74,4.64-30.74-.88-2.95.08-7.76-4.3-7.6-5.07.18-4.27,5.67-5.66,9.07a28,28,0,0,1-3.55.17c-5.23-7.8-1.16-16-1.12-24.07,8.59-2.32,19.6,1.94,25-9.16,8,.77,6.45,9.86,11.47,13.22-.45,11.25-9.5,23.31,3.17,33.3Z"/><path class="cls-15" d="M330.28,713.38c-5-3.37-3.45-12.45-11.47-13.22l-3.59-7.71c20.43-.13,13.77-12.94,11.17-23.85,4.66-4.14,7.83-.24,11.28,2.09-1.23,11.7-2.05,23.4.4,35.06Z"/><path class="cls-8" d="M326.39,668.59c2.6,10.91,9.26,23.72-11.17,23.85q-2.8-3.19-5.58-6.4,2-5.26,4.07-10.51C314.91,667.71,320.59,668.05,326.39,668.59Z"/><path class="cls-1" d="M33.16,542.43l-8.2,1q.65-4.36,1.3-8.74C30.2,535.82,32.74,538.17,33.16,542.43Z"/><path class="cls-11" d="M-116.76-76.79c3.49-1,4.86-3.76,5.64-7,4.92.07,9.68-.36,13.18-4.49C-84.35-89.36-71.3-90-61.89-76.62A15.48,15.48,0,0,0-46-70.92c8.81-2.23,15.08-.79,19,8.24,4.23,9.86,15.36-3.55,20.13,5.52C-8.49-24.64,1.67-12.8,31.58-12.29,62-21.68,43.72.37,45.61,9.39,34.89,19.66,16.37,25.78,25.74,46.74l-1.13,4.21L16.92,50c-1.74-3-4.46-4.14-7.77-4.19L-9.4,36c-.66-3.16-.35-8.35-2.11-9.19-22.27-10.56-34-40.55-64.78-35.32C-79.87-19-82.09-31-97.95-27.38c-5.68-8.72-11.66-17.34-8.7-28.68,8.76-1.29,9.73,8.78,16,11.95,6.11-9.31,16.91-17.17.81-26.63-14.47-8.51-11,8.13-17,11.35L-117-72.76Z"/><path class="cls-5" d="M298.5,733.22c1.39-3.4.58-8.9,5.66-9.07,4.38-.15,3.42,4.66,4.3,7.6,3.3,11-1.51,20.73-4.64,30.74-5.78,5.63-1.25,6.86,3.43,8l.21-.11q-1,6.06-2,12.12l-10.56-5.23A13.65,13.65,0,0,1,293,774.1C296.79,760.73,297.87,747,298.5,733.22Z"/><path class="cls-8" d="M293,774.1a13.66,13.66,0,0,0,1.89,3.19c-2.62,8.73,5.78,18.85-3.36,26.77-3-7.71-7-15.2-8.88-23.18C280.36,771.28,284.65,768.88,293,774.1Z"/><path class="cls-11" d="M310.79,455.25c-5.39-8.49-11.28-16.4-21.76-19.09q.57-5.65,1.14-11.3c-1.63-13.45,13.66-21,12-34.49,10.18-9.44,21.41-18.39,16.41-35,4.31,4.93,8.75,9.32,15.67,4,18.76-1,25.47,13.28,33.2,26.25-5.18.75-10.59,2.82-15.51,2-13.89-2.31-18.52,3.53-19.52,16.79-1.35,17.85,12.59,7.71,18.85,11.39,1,.6,2.57.32,3.88.44,13.76,11.47,3,30.91,15.68,44.74,6.83,7.44-15.74,22.72-35.22,21.21h0c.46-6.49,3.44-13.89-6-16.8C331.54,446.82,316.82,459.07,310.79,455.25Z"/><path class="cls-10" d="M353.83,532.1c-9.66-1.19-15.95-4.08-11.28-16.06,2.48-6.38,2.55-13.7,3.71-20.59,6.16,1.47,11.55,4.19,15.41,9.43q-1.7,11.8-3.42,23.6Z"/><path class="cls-15" d="M367.86,194.48c-1.07,8.81-.1,17.08,6.28,23.93-12.63,14.76-27.43,25.68-47.71,26.85L307,241.81c-2.21-4.52-6.75-7.94-6.52-13.64-1.45-13.88,14.08-27.33,1-41.49,1.7-5.53,13.94-8.34,3.34-17.12-13.26-11-13.18-24.74-5.18-39.06,7.13,1.57,13-9.42,20-2.94,6.74,6.2,2,13.27-.77,19.94-2.14,5.15-2.59,11.1,2.17,14.59,13.26,9.74,6.71,14.52-9.64,18.49,18.94,6.09,32.43,9.44,46.69,3.8Z"/><path class="cls-13" d="M307,241.8l19.45,3.46q-.08,4.52-.16,9a12.84,12.84,0,0,1-1.15,2.32l-16.91,2.63-3.08-3.79Z"/><path class="cls-13" d="M367.86,194.48l-9.74-10.11q0-1.82.07-3.64c11.33-.23,18.59-5.66,21.39-16.76l4.68-.35c4.81,3.17,9.65,5.51,15.85,4.06,9.22-2.16,10.71,3.55,10.11,10.87-10.61-.59-13.37,8.37-18.15,14.91-1.69.84-3.58,1.41-5,2.55-7.92,6.28-15.43,11.81-15.58-5.16-.61.1-1.5,0-1.77.35A24.49,24.49,0,0,0,367.86,194.48Z"/><path class="cls-15" d="M349.55,295.33c-8.83,9.52-18.51,5.63-28.19,1.78l-.75-.75-2-15.71c4.26-.24,8.8.76,12.3-2.81l18.83,10.05Z"/><path class="cls-14" d="M330.88,277.83c-3.5,3.58-8,2.58-12.3,2.81L307.53,267l.68-7.72,16.92-2.63Z"/><path class="cls-4" d="M311.62,311.26l-4.61.25c.58-7.83-5.77-10.45-10.64-14.18l13.24-5.81,11,4.83.75.75Z"/><path class="cls-12" d="M296.36,297.33c4.87,3.73,11.22,6.35,10.64,14.18-3.72,3.52-8.27,2.58-12.69,2.41L239,318.68l-.22.22c3.78-13.43,1.14-25.48-7.78-36.19,9-.23,13.43,7.29,19.94,11.41,10.07,6.38,16.73,21.29,32.69,14.4Z"/><path class="cls-14" d="M384.27,163.6l-4.68.35L372,154.72l3.9-24.4c3.21.55,6.41,1.28,9.64,1.61,13.19,1.35,17.31,6.24,6.28,16.52C387.31,152.68,384.18,157.24,384.27,163.6Z"/><path class="cls-13" d="M368.14,90.1c11-.55,20.19,5.53,30.37,7.94,2.07,3.5,4.62,6.86,3.42,11.35-10.41-1.28-19.58-8.12-30.56-6.86l-3.67-12.08Z"/><path class="cls-13" d="M375.93,130.32q-1.95,12.2-3.89,24.4l-1.78-.11c2.79-14.8-8.41-27.16-7.3-41.67l5.59,1.11,5.08,1.31Z"/><path class="cls-14" d="M373.63,115.36,368.56,114q1.41-5.76,2.81-11.52c11-1.26,20.15,5.58,30.56,6.86C395,123.15,381.9,107.86,373.63,115.36Z"/><path class="cls-13" d="M92.64,365.88c-3.2.87-6.35,2-7.5,5.49-2.37,7.32-6.13,14.87-14.81,11.74-12.61-4.55.94-9.73,1-14.86.15-9.8-5.57-18.91-3.09-28.89l7.15.95c21,3,32.78-6.08,34.48-28.81.56-7.51.17-12.92,9.28-13.19,4.1,7.42-7,25.61,14.6,20.63l-2.59,19.18C111.06,337.28,99,347.63,92.64,365.88Z"/><path class="cls-15" d="M144.63,340.21l3.76,3.85c6.25,26.53-13.88,40.49-27.59,57.4-4.11,5.07-10.71,4.89-13.68.07-5.9-9.61-18.27-16.71-13.95-31,9.41,4.14,20.48,4.29,28.64,1.22,6.78-2.55,2.76-13.79,2-21.43-.87-8.65,8.17-6.46,12.07-10Z"/><path class="cls-8" d="M11.83,341C6.7,327.13,24.47,332,26,323.63c7.17-.3,8.88-6.05,11.19-11.2l5.49,2.15C48.76,335.9,27,354.19,36,375.83c-14.24,1.59-15.54-14.62-25.68-18.67L10,357Z"/><path class="cls-8" d="M135.89,340.36c-3.9,3.53-12.94,1.34-12.07,10,.76,7.64,4.78,18.88-2,21.43-8.16,3.07-19.23,2.92-28.64-1.22l-.55-4.67c6.36-18.26,18.42-28.61,38.54-27.77Z"/><path class="cls-15" d="M36,375.83c-9-21.64,12.74-39.93,6.68-61.26l11.64,0a35,35,0,0,1,.46,3.78c2.77,17.71-4.11,33.42-9.86,49.46C43.24,372.5,41.77,376.18,36,375.83Z"/><path class="cls-15" d="M.18,407.86c-17.51-5.62-10.16-17-4.87-26,7.12-12.19,5.83-19.53-8.55-22.86l4.7-7.86,6.4.85c3.06,4.1,7.58,4.65,12.17,5l.31.16C8,374.26.19,390.28.18,407.86Z"/><path class="cls-8" d="M54.79,318.3a36.12,36.12,0,0,0-.45-3.78q1.57-7.93,3.12-15.84c13.69-1.77,6.52,17.34,17.9,17.9l-1.19,12L65,331.87Z"/><path class="cls-13" d="M42.46,424.46c-13.58,17.4-17.56,1.16-23.91-6.82,2.41-7.76,2.83-21,13.49-4.41C34.75,417.46,38.95,420.74,42.46,424.46Z"/><path class="cls-15" d="M65,331.87l9.19-3.33c3.28,3.62,2.51,7.67,1.23,11.77l-7.15-.95-.11.35-3.1-4Q64.95,333.82,65,331.87Z"/><path class="cls-13" d="M65.05,335.76l3.1,4Z"/><path class="cls-13" d="M-22.93,180.89l4.08.13c11.66,4.9,22.49,1.19,33.27-3.15C20,180.78,26,183.11,31,186.77c5.64,4.1,14.71,7.14,9.37,17.43-10-4.56-19.64-9.9-29.94-13.45-8.78-3-18.81-7.25-25.82,4l-4,3.36C-24.69,193.26-22.07,186.71-22.93,180.89Z"/><path class="cls-15" d="M37.22,312.43c-2.31,5.15-4,10.9-11.19,11.2l-4.72-1.9c1.28-7.75.62-16.6,4.25-23,9.28-16.48,1.32-23.55-12.78-28.69q.06-2,.1-4c4.84-2.61,9.86-4.28,15.46-2.94,3.65,6.15,9.75,5.86,15.7,6l0,0C52.5,285.23,45.29,298.9,37.22,312.43Z"/><path class="cls-10" d="M28.32,263.08c-5.59-1.34-10.62.32-15.46,2.94-6.29-4.48-11-9.9-11.09-18.19l9.72-1.34C22.88,246.16,31.55,248.59,28.32,263.08Z"/><path class="cls-14" d="M28.32,263.08c3.22-14.49-5.45-16.92-16.82-16.59-1.8-12.67-2.66-25.58-5.7-37.95-2.45-10-11.56-13-21.14-13.77,7-11.27,17-7,25.82-4,10.3,3.55,20,8.89,29.93,13.46-1.84,3.17-6.43,5.72-3.38,10.09,2.21,3.16,5.92,2.53,8.89.86,6.27-3.52,12.35-7.37,18.52-11.08,32,3.38,40.26,18.91,24.12,47.41-4.79,8.45-2.08,13.26,4,18.31-18.78,1-33.17,7.39-35.11,28.88l-3.13,15.84-11.64.05-5.48-2.14c8.07-13.53,15.29-27.2,6.85-43.33,22.19-1,11.23-19.32,15.18-29.67,2.16-5.66.77-11.75-7.25-13.27s-12.16,3.1-14.82,9.62c-5.11,12.56,1.91,22.73,6.86,33.28C38.07,268.94,32,269.23,28.32,263.08Z"/><path class="cls-10" d="M-4.08,60C-17.58,55.06-22,40.51-32.83,32.82L-9.4,35.95,9.15,45.81,16.92,50l7.69.94L11.73,61.38Z"/><path class="cls-14" d="M10,357c-4.59-.37-9.11-.92-12.17-5l14-11Z"/><path class="cls-1" d="M395.17,696.74a15.23,15.23,0,0,1-.83-2.87c0-.27.88-.65,1.35-1A13.05,13.05,0,0,1,395.17,696.74Z"/><path class="cls-11" d="M330.28,713.38l7.79-7.63,7.74,5.65-12.36,35.27C320.78,736.68,329.82,724.62,330.28,713.38Z"/><path class="cls-14" d="M363,112.94c-1.11,14.51,10.08,26.87,7.28,41.67-.47,10.34-17.49,13.05-12.06,26.12q-.08,1.82-.07,3.64c-14.25,5.64-27.74,2.29-46.68-3.8,16.35-4,22.9-8.75,9.64-18.49-4.76-3.49-4.31-9.44-2.17-14.59,2.77-6.67,7.52-13.74.77-19.94-7-6.48-12.9,4.51-20,2.94l11.72-30.08c-7.61-2.08-13.61-9.91-24.29-10.19,8.79,14.81,3.83,55-7.47,64.77-2.7,2.35-7.07,2.77-10.67,4.08-9.68-5.22-14.58-11-10.65-23.89,2.81-9.23-.74-20.39-1.48-31.23-10.62.34-28.65,17.56-24.29-11.78C220,98.51,224,114.54,213.39,121c-9.52-11.34-17.46-21.53-.34-32.74,3.54-2.31,4-9.28,5.93-14.1q1.64-.25,3.29-.42c3.61,1,9.43,7.93,10.11-.44.62-7.62,4.23-10.91,8.53-16,7.73-9.13,5.27-18.94-5.36-24.53C222.6,26,215.46,17.57,221.23,2.3c1.58-4.2,2.47-12.11-3-10.81C207-5.82,202.8-18.27,193.33-17.28c1.42-18.24,23.14-8.14,27.73-19.18,4.31-10.35-4.22-23.64,4.69-33.93,2.48-2.87,6.42-4.46,9.69-6.65,27,8.35,27,8.35,29.29-12.29,10.77-.37,18.31,4.47,22.87,14.14-3.22,19.48-.31,41.9-24.81,51.19-1.34.51-1.78,3.38-2.63,5.16-5.39.53-11.29-2.46-16.5,1.67,2.51,6.27,5.84,10.9,11.19,13.88l-1,8.7C249.78,8.87,242.46,11,244,17.35c1.05,4.26,7.6,3,11.9,3.4.43,13.6,12.48,17.88,20.42,25.45,4.57,11.48-.2,22.16-2.85,33l-1,1.16,1-1.12c7.26,3.94,11.09,1.27,12.24-6.41,2.43-16.2,10.93-20.06,26.62-15.77,11.21,3.07,22.54.66,25.27-14.17,10.48,3.3,10.7,15.13,17.72,21.31l-1.67,16.24c-20.61,20.46-20.6,20.45,6.27,30C361.14,110.85,362,112.09,363,112.94Z"/><path class="cls-15" d="M193.33-17.28c9.47-1,13.69,11.45,24.91,8.77,5.46-1.31,4.58,6.61,3,10.81-5.77,15.27,1.37,23.7,14.32,30.5,10.63,5.58,13.09,15.4,5.36,24.53-4.3,5.08-7.91,8.37-8.53,16-.68,8.37-6.5,1.42-10.11.43-.26-9.83-1-19.67-.65-29.47C221.9,35.69,218,32.22,210,32.19c-13.67-.77-12.39-13.11-16.47-21.29C195.31,1.49,189.72-7.86,193.33-17.28Z"/><path class="cls-8" d="M193.51,10.9c4.08,8.19,2.8,20.52,16.48,21.29q-.48,6.73-1,13.45c-9.42-.23-12.8-12.24-22.67-11.6l-25.26-3.56-.09,0,3.36-7.15c5.71-1.23,12.26-1.26,13.19-9.28C182.57,11.43,187.76,9.73,193.51,10.9Z"/><path class="cls-13" d="M177.55,14c-.93,8-7.48,8-13.19,9.28-5.59-13.37,1.49-30.22-11.46-41.56v0L169-20.37C171.48-8.82,177.55,1.84,177.55,14Z"/><path class="cls-10" d="M355.39,64.21c-7-6.18-7.24-18-17.72-21.31-1.83-3.77-5.37-4.91-9-5.85l6.19-12.87c7.62,15.14,21.23,17.83,36.38,18,5.84.05,14.13.49,14.39,7.46.39,10.16-8.69,4.25-13.53,5.07-4.53.77-7.19,2.73-8.52,6.9Z"/><path class="cls-10" d="M331.65-10.15c11.1,1.84,21.76,0,32.18-3.8,10.59,3.46,8.14,12.1,1.44,13C353.42.54,347.22,9.56,337.8,13.76c.77-6.92-2-12.57-6.42-17.59C331.47-5.92,331.56-8,331.65-10.15Z"/><path class="cls-15" d="M331.38-3.83c4.44,5,7.18,10.67,6.41,17.6q-1.47,5.22-3,10.44-3.1,6.42-6.18,12.86a3.2,3.2,0,0,0-2.18.07C317.69,22.23,330.21,9.88,331.38-3.83Z"/><path class="cls-13" d="M355.39,64.21l8.17-2.62c5.26,8.9,1.93,19.18,4.57,28.5l-.44.34-14-10Z"/><path class="cls-15" d="M404.83,53.74l9.06,17.46L404.2,85.31C405.26,74.57,394.95,63.77,404.83,53.74Z"/><path class="cls-13" d="M429.51,41.21l-1.08-1.15,1.66.69Z"/><path class="cls-13" d="M343.73,590.79a6.13,6.13,0,0,1-.29-3.69,16.65,16.65,0,0,1,1.42,2.57C344.93,589.88,344.13,590.41,343.73,590.79Z"/><path class="cls-14" d="M192.65,362.34C181,350,196,338.13,193.22,326c9-8.58,24.83-6.94,30.52-20.44,8.31.76,6.11,13.37,15.09,13.38l.22-.22A291.57,291.57,0,0,1,227.86,374C216.9,367.78,205.87,361.78,192.65,362.34Z"/><path class="cls-10" d="M302.15,390.37c1.67,13.47-13.61,21-12,34.49-5.26-5.56-.92-13-3.52-18.9C278.5,387.36,289.27,387.89,302.15,390.37Z"/><path class="cls-11" d="M223.74,305.52C218,319,202.21,317.38,193.22,326c-14.64-7.23-28.41-16.76-45.64-17l-2.5-2.94,12-7.69c11.9,6.76,23.44-1.88,35.21-.8l8.15-3.25c.9,4.93-5.15,9.07-1.73,14.32C207.62,311.42,213.87,293.59,223.74,305.52Z"/><path class="cls-14" d="M135.89,340.36l-4.71-2.24q1.28-9.59,2.59-19.18l4.72-4,7.67,1.3c-1,8,4.39,16.32-1.53,24Z"/><path class="cls-11" d="M146.16,316.25l-7.67-1.3,1.63-6.41,5-2.55,2.5,2.94Z"/><path class="cls-1" d="M329.57,465.41c9.48,2.91,6.5,10.31,6,16.8C330.43,477.75,320.27,475.09,329.57,465.41Z"/><path class="cls-5" d="M324.18,548.51l-2.7-8.45c3.06,1.48,8.24.39,8.37,5.42C329.93,548.32,326.62,548.43,324.18,548.51Z"/><path class="cls-9" d="M307.25,770.5c-4.68-1.16-9.21-2.39-3.43-8Z"/><path class="cls-13" d="M11.73,61.38,24.61,50.95l1.12-4.2c15.63,2.9,22.68,18.58,36.34,24.43.5,8.31-3.9,17,.95,24.89,3.65,6,7.21,13.64,16,11.88,9.06-1.82,8.92-10.18,9.32-17.26.86-15.37-12-22-20.51-31.38,5-6.47,12.35-8.06,19.78-9.49C84,69.32,99.08,79.94,108.26,93.37c-3.41,14.36-12.59,22.16-27.12,23.88-12.07-5.12-23.18-2.79-35.55,1.22-19.22,6.23-11.65,20-12.35,32-.42,7.13-1.89,14.2-2.89,21.29l-6.69-5.22c-2.07-15.25,9.72-33.6-11-44.86-4.49-2.44-.56-7.33,3.5-8.53,18.26-5.38,14.4-14.46,7.57-27.93C19.81,77.42,13,70.63,11.73,61.38Z"/><path class="cls-10" d="M87.59,49.81c-7.42,1.43-14.77,3-19.77,9.49-4.39,2.76-4.57,7.56-5.75,11.87-13.65-5.85-20.7-21.53-36.34-24.43-9.36-21,9.16-27.08,19.88-37.35l11.54,1.39c5.79,13.06,15.72,19.69,30.11,19.39l3.95,4.46Z"/><path class="cls-13" d="M57.15,10.79,45.61,9.39c-1.9-9,16.34-31.07-14-21.68C30.87-24.35,17.73-27.49,13.7-37.87c4.67-6.85,11.55-1.78,17.42-2.4,4.65,6.25,11,9.36,18.65,10.05,8.35,8,16.43,16.28,25.12,23.87C81-1,84.77,5.26,80.07,12.23c-6.07,9-10.65-.2-15.9-2.6C62.39,8.81,59.53,10.33,57.15,10.79Z"/><path class="cls-13" d="M16.92,50l-7.77-4.2C12.46,45.87,15.18,47,16.92,50Z"/><path class="cls-13" d="M269,159.07c3.6-1.31,8-1.74,10.67-4.08,11.29-9.8,16.26-50,7.47-64.77,10.69.29,16.68,8.12,24.29,10.19l-11.72,30.08c-8,14.32-8.08,28.08,5.17,39.07,10.6,8.78-1.64,11.59-3.34,17.12L295.3,197c-13.08-.84-26.2-14.63-39.23.13-3.37-10.57-7.92-20.26-17.86-26.5-4.94-3.1-6.09-8.25-5.86-13.77,20.23-3.84,26.85,23.8,46.57,22C280.69,168.32,266,168.76,269,159.07Z"/><path class="cls-14" d="M256.07,197.08c13-14.76,26.15-1,39.23-.12-.32,10.75-4.09,22.06,5.16,31.21-.23,5.7,4.31,9.11,6.52,13.64q-.92,6.81-1.84,13.64L279,252c-2.2-8.93-4.07-17.77-1.56-27.1,6.65-24.76,4.6-27.24-20.55-26.4Z"/><path class="cls-8" d="M300.47,228.17C291.21,219,295,207.71,295.3,197l6.2-10.28C314.54,200.84,299,214.3,300.47,228.17Z"/><path class="cls-9" d="M279,252l26.12,3.41,3.08,3.79q-.36,3.86-.69,7.72c-7.92,8.91-4.54,16.87,2.07,24.56l-13.24,5.81-12.68,11.2c-2.5-2.14-13.79,1.43-3.92-8.51s13.93-22.91,4.67-37.1c-18.19,24.92-18.26,24.92-31.73-3.06-.56-1.16-.89-3.64-1-3.62-9.38,1.49-8.65-20.95-22.13-9.4-9.62-12.57,1.28-24.24,1.61-36.37l13.39,5.41,1.22.42c-4.57,18.07,2.12,29.81,19.86,35.33C270,256,274.44,255.69,279,252Z"/><path class="cls-10" d="M358.19,180.72c-5.42-13.06,11.59-15.77,12.06-26.12l1.79.11,7.55,9.24C376.78,175.06,369.52,180.49,358.19,180.72Z"/><path class="cls-8" d="M309.6,291.52c-6.61-7.69-10-15.65-2.07-24.56l11,13.67,2,15.71Z"/><path class="cls-4" d="M229.54,246.83c13.48-11.55,12.75,10.89,22.13,9.4.14,0,.47,2.46,1,3.62,13.47,28,13.54,28,31.73,3.06,9.26,14.19,5.07,27.29-4.67,37.1s1.41,6.37,3.92,8.51c-16,6.89-22.62-8-32.69-14.4-6.51-4.12-10.93-11.65-19.94-11.42-4.83-7.86-1.24-16.71-2.93-24.94Z"/><path class="cls-13" d="M228.12,257.77c1.69,8.23-1.9,17.07,2.93,24.94,8.91,10.71,11.55,22.76,7.78,36.19-9,0-6.77-12.62-15.09-13.38-9.87-11.93-16.12,5.9-25,3.05-3.42-5.24,2.64-9.39,1.73-14.32,3.67-10.17,14.37-17.42,12.45-29.92l4.41-7.49Z"/><path class="cls-10" d="M353.72,80.45l14,10q1.82,6,3.66,12.08Q370,108.29,368.56,114L363,112.94c-1-.85-1.82-2.09-3-2.49C333.12,100.9,333.12,100.91,353.72,80.45Z"/><path class="cls-14" d="M75.4,340.31c1.27-4.1,2-8.16-1.23-11.77q.61-6,1.19-12c8.22-5.92,16.6-13.17,13.39-23.9-4.33-14.45,4.82-17.33,14.28-21.16,0,0,1.06-1.48,1.06-1.47,8.84,5.48,16.54-.06,24.56-2.55.06,11.26-7.3,20.24-9.49,30.81-9.11.27-8.72,5.68-9.28,13.19C108.18,334.24,96.37,343.36,75.4,340.31Z"/><path class="cls-8" d="M119.16,298.31c2.19-10.57,9.55-19.55,9.49-30.82l6.64-8.23c8.63.58,10.52,4.83,9,13.19-2.21,11.87-2.83,24-4.13,36.08L138.48,315l-4.72,4C112.14,323.92,123.26,305.73,119.16,298.31Z"/><path class="cls-15" d="M103,271.52c-9.45,3.83-18.6,6.71-14.27,21.16,3.22,10.73-5.17,18-13.39,23.9-11.37-.56-4.2-19.67-17.89-17.9,1.95-21.49,16.33-27.86,35.11-28.88Z"/><path class="cls-14" d="M11.73,61.38c1.26,9.25,8.08,16,12,23.86,6.83,13.47,10.68,22.54-7.57,27.93-4.07,1.2-8,6.09-3.5,8.53,20.69,11.26,8.9,29.61,11,44.86l-9.24,11.31C3.64,182.2-7.19,185.92-18.85,181c2.45-21.34-6.2-42.67-.08-64l11.34-5c12.68-13.84-1.75-22.3-6.5-32.67.15-8.09,11.27-10.52,10-19.35Z"/><path class="cls-10" d="M14.42,177.87l9.24-11.31,6.7,5.22c15.7,17,32.85,19.5,51.69,5.19l8.67-2.77L93,186.7c-9.69,5.55-26,.15-28.62,17.37-6.16,3.71-12.25,7.56-18.52,11.08-3,1.67-6.68,2.31-8.89-.86-3-4.37,1.54-6.92,3.38-10.09,5.35-10.3-3.72-13.34-9.36-17.44C26,183.11,20,180.78,14.42,177.87Z"/><path class="cls-13" d="M64.43,204.07C67,186.84,83.36,192.25,93,186.69c6.45,4.41,9.26,13.28,18.1,14.77l4.08,7.2c-5.15,3.44-14.71,5.36-10.8,13.64,7.76,16.4,3.13,31.88-.35,47.74,0,0-1.05,1.48-1.06,1.48L92.57,269.8c-6.1-5.05-8.81-9.86-4-18.32C104.69,223,96.48,207.45,64.43,204.07Z"/><path class="cls-15" d="M44,269.05c-4.95-10.55-12-20.72-6.86-33.28,2.65-6.52,6.65-11.17,14.82-9.62s9.41,7.6,7.25,13.27c-3.94,10.35,7,28.72-15.18,29.67Z"/><path class="cls-15" d="M269,159.07c-3,9.69,11.74,9.25,10,19.69-19.72,1.84-26.34-25.79-46.57-21.94-13.49-2.54-23-.22-19.35,16.76a26.64,26.64,0,0,1-1.33,15.19c-8.14-2.87-9.8-9.16-8.91-16.85,1.11-9.49,2.18-19,3.26-28.47l.12-.11c3.48-.55,8.44.32,5.8-6.07-3.34-9.57-13.2-14.25-17.56-22.78-9.29-18.19,3.93-29.69,13.66-42.05l6.49-4.26,4.42,6c-1.9,4.82-2.39,11.78-5.93,14.1-17.12,11.21-9.18,21.4.34,32.74,10.62-6.47,6.64-22.5,19.13-28.83-4.35,29.33,13.67,12.12,24.29,11.78.75,10.84,4.29,22,1.48,31.23C254.37,148.09,259.27,153.86,269,159.07Z"/><path class="cls-13" d="M326.47,37.13a3.21,3.21,0,0,1,2.18-.07c3.65.94,7.19,2.07,9,5.84-2.73,14.84-14.05,17.25-25.27,14.18-15.69-4.3-24.19-.43-26.62,15.77-1.15,7.68-5,10.35-12.24,6.41l0,0c2.65-10.86,7.42-21.53,2.86-33,0,0,1.91.36,1.91.36l1.93.21C297.21,51.09,313.7,53,326.47,37.13Z"/><path class="cls-15" d="M280.21,46.78l-1.93-.2s-1.91-.34-1.91-.36c-7.95-7.59-20-11.86-20.43-25.46L253.87,5.43l1-8.7,4.59-7c3.45,2.3,6.91,5.53,6.21,9.51-3.76,21.4.61,36.74,32.46,34.72Z"/><path class="cls-4" d="M219,74.17l-4.42-6c1.57-8.35,1.75-16.37-5.55-22.54q.49-6.73,1-13.46c8,0,11.91,3.5,11.63,12.09-.32,9.8.39,19.64.65,29.47Q220.62,73.93,219,74.17Z"/><path class="cls-13" d="M253.87,5.43l2.07,15.33c-4.3-.42-10.85.85-11.9-3.41C242.46,11,249.78,8.87,253.87,5.43Z"/><path class="cls-13" d="M273.54,79.26l-1,1.12,1-1.16Z"/><path class="cls-14" d="M259.44-10.29q.79-3.71,1.57-7.41c9.59-.86,19.76,4.63,26.95-9.22,4.45-8.58,14.6-.79,20.08,4.39,6.9,6.54,13.36,12.74,23.62,12.38-.09,2.11-.18,4.22-.27,6.32-1.17,13.7-13.69,26.05-4.91,41-12.77,15.86-29.26,14-46.25,9.65l17.9-12.85c-31.85,2-36.22-13.32-32.46-34.72C266.35-4.75,262.89-8,259.44-10.29Z"/><path class="cls-11" d="M161.08,30.48,186.35,34c-13.48,7.76-6,17.27-2.22,26.48-10.77,8.47-25,13.67-28,29.49-8.37.22-12.79-6.45-18.59-10.7-.09-6.62-4.56-8.06-9.95-8.41q-.12-1.51-.12-3l14.77,1c5.23,10,11.51,4.14,14.62-.57,6-9-1.86-14.27-7.94-19.4C152.51,42.45,162.94,40.53,161.08,30.48Z"/><path class="cls-12" d="M142.23,68.86l-14.77-1c-11.1-1.93-21.91-4.4-30.42-17.61,16.41-1.37,30.36-6.3,38.92-20l9.46-.54c2,2.18,4,2.47,6,.11l.49,0,9.06.57.09,0c1.85,10-8.58,12-12.18,18.4-10.06-.87-17.5-.09-8.24,12.21C142.27,63.23,146.18,65.4,142.23,68.86Z"/><path class="cls-14" d="M184.13,60.52c-3.81-9.21-11.26-18.72,2.22-26.48,9.86-.64,13.25,11.37,22.67,11.6,7.3,6.18,7.11,14.2,5.54,22.55l-6.5,4.26Z"/><path class="cls-14" d="M161,30.43l-9.07-.57-4.56-5.17c.81-6.36,1.64-12.72,2.44-19.08,1.93-15.4-4-23.48-20.37-21.75L129-25l23.87,6.72c13,11.34,5.87,28.19,11.46,41.56Z"/><path class="cls-14" d="M57.15,10.79c2.37-.45,5.23-2,7-1.16,5.24,2.4,9.83,11.59,15.9,2.6C84.77,5.26,81-1,74.89-6.35c-8.69-7.59-16.78-15.88-25.12-23.87,1.78-6.92,2.17-15.36,13.41-11A14.43,14.43,0,0,0,78-43.42c6.86-5.33,11.87-8.07,13.93,4.61,1.52,9.34,9.92,1.43,14.81,3.27l-.11-.18c-1.3,7.16-2.17,14.63,2.27,20.75C116-5.19,107.83-.12,102.05.42,79.66,2.5,85.28,16.91,87.27,30.18,72.87,30.48,62.94,23.84,57.15,10.79ZM68.65-25.67l1.27.65c.18-.39.62-1,.5-1.13-.24-.34-.79-.47-1.21-.69Z"/><path class="cls-4" d="M212.91,264.33c1.92,12.5-8.78,19.75-12.45,29.92l-8.14,3.25c4.12-29.16,2.44-31-24.64-26.82a9.27,9.27,0,0,1-2-.12l.29-7.47c14.27-10,4.36-18.6-1.6-27.43-8.68-5-7.27-16.68-14.93-22.33q.49-2.08,1-4.16c5.46-2.48,11.1-3.76,17.11-2.5-1.13,7,.4,11.67,5.18,18.55C183.86,241.21,200.64,250.27,212.91,264.33Z"/><path class="cls-6" d="M149.46,213.34c7.67,5.64,6.25,17.36,14.93,22.31C161,245,165.21,254,166,263.09c-.1,2.49-.2,5-.31,7.48-7.78,7.73-21.09,13.74-8.58,27.73l-12,7.69-5,2.55c1.3-12,1.92-24.21,4.13-36.08,1.56-8.36-.33-12.61-9-13.19,1.71-10.38-1.94-21.66,5.22-31.14Z"/><path class="cls-12" d="M157.1,298.3c-12.5-14,.8-20,8.58-27.73a9.6,9.6,0,0,0,2,.11c27.08-4.16,28.76-2.34,24.64,26.82C180.54,296.42,169,305.06,157.1,298.3Z"/><path class="cls-14" d="M82,177c-18.84,14.32-36,11.79-51.69-5.18,1-7.09,2.47-14.16,2.89-21.29.7-12-6.87-25.79,12.35-32,12.37-4,23.48-6.34,35.55-1.21L84.77,122C84.05,140.35,74.89,158.25,82,177Z"/><path class="cls-14" d="M136,30.25C127.4,44,113.44,48.89,97,50.27c8.51,13.21,19.32,15.68,30.42,17.61,0,1,0,2,.11,3-8.25,7.71,1.41,18.42-4.45,26.53l-14.85-4.05C99.08,79.94,84,69.32,87.6,49.81q1.8-7.59,3.61-15.17c5.23-.2,11,8.68,15.63-2.33C113.48,16.49,119.9,16.38,136,30.25Z"/><path class="cls-10" d="M108.26,93.37l14.85,4.06,7.29,1.72c3.58,10.9,5.8,21.7-2.59,31.63-10.64-.42-18.28,8.13-28.33,9.48L84.77,122l-3.62-4.78C95.68,115.53,104.85,107.73,108.26,93.37Z"/><path class="cls-14" d="M62.07,71.17c1.18-4.31,1.35-9.11,5.75-11.87,8.47,9.4,21.38,16,20.51,31.38-.4,7.08-.26,15.44-9.32,17.26C70.23,109.7,66.67,102,63,96.06,58.17,88.13,62.57,79.48,62.07,71.17Z"/><path class="cls-13" d="M136,30.25c-16.05-13.87-22.48-13.75-29.11,2.06-4.62,11-10.4,2.13-15.63,2.33l-3.94-4.46C85.28,16.91,79.66,2.5,102.05.42,107.83-.12,116-5.19,108.91-15c-4.44-6.12-3.57-13.6-2.27-20.75l4.47-1.48L129-25q.2,4.43.41,8.86c-5.33,18.57,3,31.14,17.93,40.83l4.56,5.17-.48,0-6-.11Z"/><path class="cls-14" d="M211.67,188.77A26.53,26.53,0,0,0,213,173.58c-3.68-17,5.86-19.3,19.35-16.76-.23,5.51.91,10.66,5.85,13.76,9.93,6.24,14.48,15.94,17.86,26.5l.82,1.45q-6.18,8.66-12.35,17.34l-13.39-5.41c-2.77-4.14-7.43-3.78-11.49-4.84,0-5.65,1-11.93-7.4-12.64Z"/><path class="cls-15" d="M244.54,215.87q6.17-8.68,12.35-17.34c25.15-.83,27.2,1.65,20.55,26.41-2.51,9.33-.63,18.16,1.56,27.1-4.57,3.66-9.05,3.94-13.39-.43-.6-15.17-8.44-26.26-19.87-35.32Z"/><path class="cls-10" d="M219.66,205.62c4.06,1.07,8.72.7,11.49,4.84-.33,12.13-11.23,23.8-1.61,36.37q-.72,5.47-1.43,10.94l-10.8-.93-3.66-12.07L211.58,240l-3-8.52q1.29-13,2.58-26.05Z"/><path class="cls-8" d="M245.76,216.29c11.43,9.07,19.27,20.16,19.87,35.32C247.88,246.1,241.19,234.35,245.76,216.29Z"/><path class="cls-9" d="M213.65,244.77l3.66,12.07-4.41,7.49c-12.27-14.06-29.05-23.12-40.17-39.11-4.78-6.88-6.31-11.51-5.19-18.54l.83-.66,9.77,2.47c7.95,10.57,17.36,19.21,30.45,23l3,8.52Z"/><path class="cls-10" d="M140.5,228.13c-7.15,9.47-3.5,20.75-5.22,31.14l-6.64,8.23c-8,2.49-15.72,8-24.56,2.55,3.48-15.87,8.11-31.34.35-47.75-3.91-8.27,5.65-10.2,10.8-13.64A18,18,0,0,0,130.86,214C136,217.43,141.43,220.59,140.5,228.13Z"/><path class="cls-8" d="M111.15,201.46C102.31,200,99.5,191.1,93,186.69l-2.32-12.5c1.72-10.36,2-21.19,9.6-29.64,6.81,15.13,3.42,33.54,15.58,47.18C118,194,114.59,199,111.15,201.46Z"/><path class="cls-13" d="M100.32,144.56c-7.63,8.45-7.88,19.28-9.6,29.64L82.05,177c-7.16-18.71,2-36.61,2.72-54.93l14.72,18.23Z"/><path class="cls-15" d="M100.32,144.56l-.83-4.3c10-1.35,17.68-9.9,28.33-9.48-6,9.85,3.93,21.81,2.77,25.29-6.68,20,2.82,38.85.28,57.94a18,18,0,0,1-15.63-5.34l-4.08-7.2c3.44-2.44,6.8-7.42,4.75-9.72C103.75,178.1,107.13,159.68,100.32,144.56Z"/><path class="cls-13" d="M184.13,60.52l23.93,11.93c-9.73,12.36-22.95,23.86-13.65,42.05,4.36,8.53,14.22,13.21,17.56,22.78l-5.81,6.07-.12.11c-7.13,1.22-7.44,11.8-15.72,11.44l-24-15.82c3.4-10.29,7.44-20.43,9.92-30.94,1.11-4.73,6.25-11.34-1.84-15.22-6.84-3.29-10.48,2.66-15,5.86L156.11,90C159.15,74.19,173.36,69,184.13,60.52Z"/><path class="cls-8" d="M190.32,154.9c8.27.35,8.59-10.23,15.72-11.45-1.09,9.49-2.15,19-3.26,28.47-.9,7.68.77,14,8.91,16.85.18,1.4.38,2.8.58,4.19q-.61,4.28-1.22,8.57c-12.35.16-14.5-13.66-24-17.46q.42-11.37.86-22.74Z"/><path class="cls-8" d="M206.17,143.34l5.81-6.07C214.6,143.67,209.64,142.8,206.17,143.34Z"/><path class="cls-9" d="M156.11,90l3.33,8.75c2.45,12.18,0,23.78-4.18,35.18L141.7,123.26l3.19-18.46c.3-.55,1-1.31.84-1.62a18.17,18.17,0,0,0-2.07-2.72l-.47-.44-3.26-4.3L136.49,86l1-6.67C143.33,83.56,147.74,90.23,156.11,90Z"/><path class="cls-9" d="M142.23,68.86c4-3.46,0-5.63-1.57-7.76-9.26-12.3-1.81-13.08,8.24-12.21,6.08,5.13,13.91,10.36,7.94,19.4C153.74,73,147.46,78.88,142.23,68.86Z"/><path class="cls-13" d="M137.53,79.31l-1,6.67c-4.58,3.22-4.46,8.6-6.08,13.17l-7.29-1.72c5.86-8.12-3.8-18.83,4.45-26.54C133,71.25,137.44,72.69,137.53,79.31Z"/><path class="cls-14" d="M145.41,29.71l6,.11C149.39,32.18,147.38,31.89,145.41,29.71Z"/><path class="cls-15" d="M147.37,24.69C132.47,15,124.11,2.43,129.44-16.14c16.39-1.73,22.3,6.35,20.37,21.75C149,12,148.19,18.34,147.37,24.69Z"/><path class="cls-7" d="M130.4,99.15c1.62-4.58,1.51-10,6.08-13.17l3.43,9.74,3.26,4.3.47.44,1.24,4.34q-1.59,9.23-3.19,18.46c-3.83,9.5,2,19.16-.48,28.68L137,159.41c-1.38,7.39,4,8.9,9.19,10.56,2.11,7.6-15.81,13.28-2.1,22l4.21,1.94c.24,5.16-3,10.81,2.17,15.27q-.49,2.08-1,4.16l-9,14.79c.93-7.54-4.55-10.7-9.64-14.13,2.54-19.09-7-37.93-.28-57.94,1.16-3.47-8.73-15.44-2.77-25.29C136.2,120.85,134,110.06,130.4,99.15Z"/><path class="cls-9" d="M150.44,209.18c-5.15-4.46-1.93-10.11-2.17-15.28l4.3-1.21C160.45,194,168.65,195,168.39,206l-.84.67C161.55,205.41,155.91,206.7,150.44,209.18Z"/><path class="cls-12" d="M166,263.09c-.78-9.14-5-18.07-1.61-27.44C170.35,244.49,180.26,253.09,166,263.09Z"/><path class="cls-15" d="M211,201.53q.61-4.29,1.22-8.57c8.45.72,7.37,7,7.4,12.65l-8.49-.22A32.68,32.68,0,0,1,211,201.53Z"/><path class="cls-11" d="M211,201.53a32.67,32.67,0,0,0,.13,3.86q-1.29,13-2.58,26.05c-13.09-3.75-22.49-12.39-30.43-23q-2.32-10.44-4.67-20.87c5.09,1,9.79.42,13.59-3.55C196.54,187.87,198.7,201.69,211,201.53Z"/><path class="cls-11" d="M213.65,244.77,211.58,240Z"/><path class="cls-1" d="M173.5,187.62q2.34,10.44,4.66,20.87L168.38,206c.28-11-7.92-12-15.8-13.32q.31-3.37.63-6.75c1.53-5.42.5-11.81,6-15.71L172,163.78l.11-.1,4,.46Z"/><path class="cls-1" d="M155.26,133.94c4.2-11.39,6.64-23,4.18-35.18,4.53-3.19,8.16-9.14,15-5.85,8.09,3.88,3,10.49,1.84,15.22-2.48,10.51-6.52,20.65-9.91,30.94-3.88,2.34-6.31,7.23-11.83,6.69Q154.9,139.85,155.26,133.94Z"/><path class="cls-11" d="M154.55,145.76c5.51.54,8-4.35,11.83-6.69l23.95,15.82-2.39,6.44-11.81,2.81-4-.46-1.27-.84,1.16.93-12.78,6.45c.65-5.92.24-11.32-6.57-13.65l1.46-10.45Z"/><path class="cls-13" d="M176.13,164.15l11.81-2.81q-.43,11.37-.86,22.74c-3.79,4-8.49,4.51-13.58,3.55Q174.81,175.88,176.13,164.15Z"/><path class="cls-4" d="M155.26,133.94q-.36,5.91-.71,11.83l-.46.36L149.71,149l-8.49,3c2.46-9.52-3.36-19.18.48-28.68Z"/><path class="cls-4" d="M143.18,100l-3.26-4.3Z"/><path class="cls-4" d="M144.89,104.8l-1.24-4.34a18.06,18.06,0,0,1,2.07,2.72C145.88,103.49,145.19,104.25,144.89,104.8Z"/><path class="cls-9" d="M141.22,151.94l8.49-3,2.91,7.61c6.81,2.33,7.22,7.74,6.57,13.65-5.49,3.91-4.46,10.3-6,15.71-4.92-.84-7.81,1.41-9.15,6-13.71-8.71,4.22-14.39,2.11-22,4.62-10.23-6.6-6.63-9.2-10.55Z"/><path class="cls-4" d="M137,159.41c2.6,3.93,13.82.32,9.2,10.55C141,168.31,135.59,166.8,137,159.41Z"/><path class="cls-4" d="M144.06,192c1.33-4.62,4.22-6.87,9.15-6q-.32,3.39-.63,6.76l-4.3,1.2Z"/><path class="cls-1" d="M152.62,156.58,149.71,149l4.37-2.84Z"/><path class="cls-13" d="M172,163.78l-1.16-.93,1.27.84Z"/></svg>