<svg id="Calque_1" data-name="Calque 1" xmlns="http://www.w3.org/2000/svg" viewBox="0 0 63.07 83.97"><title>grappe</title><g id="Grappe_5" data-name="Grappe 5"><path d="M36.87,40.1a8,8,0,1,1-9-6.9,7.39,7.39,0,0,1,2.1,0A8.06,8.06,0,0,1,36.87,40.1Z"/><path d="M36.87,74.9a8,8,0,1,1-9-6.9A7.39,7.39,0,0,1,30,68,8.06,8.06,0,0,1,36.87,74.9Z"/><path d="M58,41.1a8,8,0,1,1-8-8A8,8,0,0,1,58,41.1Z"/><path d="M16,40.1a8,8,0,1,1-9-6.9,7.39,7.39,0,0,1,2.1,0A7.86,7.86,0,0,1,16,40.1Z"/><path d="M26,58a8,8,0,1,1-9-6.8,7.39,7.39,0,0,1,2.1,0A7.86,7.86,0,0,1,26,58Z"/><path d="M47.87,58a8,8,0,1,1-9-6.9,7.39,7.39,0,0,1,2.1,0A8.06,8.06,0,0,1,47.87,58Z"/><path d="M63.07,1.3V6.4a.94.94,0,0,1-1,1A29.68,29.68,0,0,0,32.47,29a.49.49,0,0,1-.6.3,12.41,12.41,0,0,0-2.7-.3,6.15,6.15,0,0,0-1.4.1.68.68,0,0,1-.6-.4v-.2A52.23,52.23,0,0,1,29,22.9a.37.37,0,0,0-.1-.3h-.2a14.51,14.51,0,0,1-18.9-1.9,1.05,1.05,0,0,1,0-1.3A14,14,0,0,1,16,15.2a.45.45,0,0,0,.3-.6c0-.1,0-.1-.1-.2a14.2,14.2,0,0,1-3.3-10.1.9.9,0,0,1,.9-.9,14.19,14.19,0,0,1,10,3.4.49.49,0,0,0,.7-.1.35.35,0,0,0,.1-.2A13.43,13.43,0,0,1,28.87.3a1.05,1.05,0,0,1,1.3,0,14.15,14.15,0,0,1,4.4,12.6c0,.1,0,.2.1.2s.1,0,.2-.1a36.64,36.64,0,0,1,27-13,.94.94,0,0,1,1,1Z"/></g></svg>