<?xml version="1.0" encoding="utf-8"?>
<!-- Generator: Adobe Illustrator 21.1.0, SVG Export Plug-In . SVG Version: 6.00 Build 0)  -->
<svg version="1.1" id="Calque_1" xmlns="http://www.w3.org/2000/svg" xmlns:xlink="http://www.w3.org/1999/xlink" x="0px" y="0px"
	 viewBox="0 0 510 935.4" style="enable-background:new 0 0 510 935.4;" xml:space="preserve">
<style type="text/css">
	.st0{font-family:'MyriadPro-Regular';}
	.st1{font-size:33.08px;}
</style>
<title>3 jeu cepages</title>
<g id="Grappe_1">
	<path d="M36.7,43c0.6,4.4-2.5,8.4-6.9,9s-8.4-2.5-9-6.9c-0.6-4.4,2.5-8.4,6.9-9c0.7-0.1,1.4-0.1,2.1,0C33.4,36.6,36.2,39.4,36.7,43
		z"/>
	<path d="M36.7,77.8c0.6,4.4-2.5,8.4-6.9,9c-4.4,0.6-8.4-2.5-9-6.9c-0.6-4.4,2.5-8.4,6.9-9c0.7-0.1,1.4-0.1,2.1,0
		C33.4,71.4,36.2,74.2,36.7,77.8z"/>
	<path d="M57.8,44c0,4.4-3.6,8-8,8s-8-3.6-8-8s3.6-8,8-8S57.8,39.6,57.8,44z"/>
	<path d="M15.8,43c0.6,4.4-2.5,8.4-6.9,9s-8.4-2.5-9-6.9c-0.6-4.4,2.5-8.4,6.9-9C7.6,36,8.3,36,9,36.1C12.6,36.6,15.4,39.4,15.8,43z
		"/>
	<path d="M25.8,60.9c0.6,4.4-2.5,8.4-6.8,9c-4.4,0.6-8.4-2.5-9-6.8c-0.6-4.4,2.5-8.4,6.8-9c0.7-0.1,1.4-0.1,2.1,0
		C22.5,54.5,25.3,57.3,25.8,60.9z"/>
	<path d="M47.7,60.9c0.6,4.4-2.5,8.4-6.9,9c-4.4,0.6-8.4-2.5-9-6.9c-0.6-4.4,2.5-8.4,6.9-9c0.7-0.1,1.4-0.1,2.1,0
		C44.4,54.5,47.2,57.3,47.7,60.9z"/>
	<path d="M62.9,4.2v5.1c0,0.6-0.4,1-1,1C48.3,9.9,36.1,18.9,32.4,32c-0.1,0.2-0.3,0.4-0.6,0.3c-0.9-0.2-1.8-0.3-2.7-0.3
		c-0.5,0-1,0-1.4,0.1c-0.3,0-0.5-0.2-0.6-0.4c0-0.1,0-0.1,0-0.2c0.5-1.9,1.1-3.8,1.8-5.6c0-0.1,0-0.2-0.1-0.3c-0.1,0-0.1,0-0.2,0
		c-5.9,4.2-13.9,3.3-18.9-1.9c-0.3-0.4-0.3-0.9,0-1.3c1.6-1.9,3.8-3.4,6.2-4.2c0.3-0.1,0.4-0.4,0.3-0.6c0-0.1,0-0.1-0.1-0.2
		c-2.4-2.8-3.5-6.4-3.3-10.1c0-0.5,0.4-0.9,0.9-0.9c3.6-0.2,7.2,1,10,3.4c0.2,0.2,0.5,0.1,0.7-0.1c0,0,0.1-0.1,0.1-0.2
		c0.8-2.4,2.3-4.6,4.3-6.2c0.4-0.3,0.9-0.3,1.3,0c3.5,3.2,5.1,7.9,4.4,12.6c0,0.1,0,0.2,0.1,0.2c0.1,0,0.1,0,0.2-0.1
		c6.7-8,16.6-12.7,27-13c0.6,0,1,0.4,1,1C62.9,4.2,62.9,4.2,62.9,4.2z"/>
</g>
<g id="Nom_1">
	<text transform="matrix(1 0 0 1 79.36 31.7606)" class="st0 st1">C</text>
	<text transform="matrix(1 0 0 1 98.32 31.7606)" class="st0 st1">abe</text>
	<text transform="matrix(1 0 0 1 149.66 31.7606)" class="st0 st1">r</text>
	<text transform="matrix(1 0 0 1 160.61 31.7606)" class="st0 st1">net </text>
	<text transform="matrix(1 0 0 1 79.36 71.4606)" class="st0 st1">sauvi</text>
	<text transform="matrix(1 0 0 1 150.29 71.4606)" class="st0 st1">g</text>
	<text transform="matrix(1 0 0 1 168.58 71.4606)" class="st0 st1">non</text>
</g>
<g id="Grappe_2">
	<path d="M322.7,41.6c0.6,4.4-2.5,8.4-6.9,9c-4.4,0.6-8.4-2.5-9-6.9c-0.6-4.4,2.5-8.4,6.9-9c0.7-0.1,1.4-0.1,2.1,0
		C319.4,35.2,322.2,38,322.7,41.6z"/>
	<path d="M322.7,76.4c0.6,4.4-2.5,8.4-6.9,9s-8.4-2.5-9-6.9s2.5-8.4,6.9-9c0.7-0.1,1.4-0.1,2.1,0C319.4,70,322.2,72.8,322.7,76.4z"
		/>
	<path d="M343.8,42.6c0,4.4-3.6,8-8,8s-8-3.6-8-8s3.6-8,8-8S343.8,38.2,343.8,42.6z"/>
	<path d="M301.8,41.6c0.6,4.4-2.5,8.4-6.9,9c-4.4,0.6-8.4-2.5-9-6.9c-0.6-4.4,2.5-8.4,6.9-9c0.7-0.1,1.4-0.1,2.1,0
		C298.6,35.2,301.4,38,301.8,41.6z"/>
	<path d="M311.8,59.4c0.6,4.4-2.5,8.4-6.9,9c-4.4,0.6-8.4-2.5-9-6.9c-0.6-4.4,2.5-8.4,6.9-9c0.7-0.1,1.4-0.1,2.1,0
		C308.5,53.1,311.3,55.9,311.8,59.4z"/>
	<path d="M333.7,59.4c0.6,4.4-2.5,8.4-6.9,9c-4.4,0.6-8.4-2.5-9-6.9c-0.6-4.4,2.5-8.4,6.9-9c0.7-0.1,1.4-0.1,2.1,0
		C330.4,53.1,333.2,55.9,333.7,59.4z"/>
	<path d="M348.9,2.9V8c0,0.6-0.4,1-1,1c-13.7-0.5-25.9,8.5-29.5,21.7c-0.1,0.2-0.3,0.4-0.6,0.3c-0.9-0.2-1.8-0.3-2.7-0.3
		c-0.5,0-1,0-1.5,0.1c-0.3,0-0.5-0.2-0.6-0.4c0-0.1,0-0.1,0-0.2c0.4-1.9,1-3.8,1.8-5.6c0-0.1,0-0.2-0.1-0.3c-0.1,0-0.1,0-0.2,0
		c-5.9,4.2-14,3.3-18.9-2c-0.3-0.4-0.3-0.9,0-1.3c1.6-1.9,3.8-3.4,6.2-4.2c0.3-0.1,0.4-0.4,0.3-0.6c0-0.1,0-0.1-0.1-0.2
		c-2.4-2.8-3.6-6.4-3.3-10.1c0-0.5,0.4-0.9,0.9-0.9c3.6-0.2,7.2,1,10,3.4c0.2,0.2,0.5,0.1,0.7-0.1c0,0,0.1-0.1,0.1-0.2
		c0.8-2.4,2.3-4.6,4.2-6.2c0.4-0.3,0.9-0.3,1.3,0c3.5,3.2,5.1,7.9,4.4,12.6c0,0.1,0,0.2,0.1,0.2c0.1,0,0.1,0,0.2-0.1
		c6.7-8,16.6-12.7,27-13c0.5-0.1,1,0.4,1.1,0.9C348.9,2.7,348.9,2.8,348.9,2.9z"/>
</g>
<g id="Nom_2">
	<text transform="matrix(1 0 0 1 366.14 30.3706)" class="st0 st1">C</text>
	<text transform="matrix(1 0 0 1 385.1 30.3706)" class="st0 st1">abe</text>
	<text transform="matrix(1 0 0 1 436.44 30.3706)" class="st0 st1">r</text>
	<text transform="matrix(1 0 0 1 447.39 30.3706)" class="st0 st1">net </text>
	<text transform="matrix(1 0 0 1 366.14 70.0706)" class="st0 st1">sauvi</text>
	<text transform="matrix(1 0 0 1 437.07 70.0706)" class="st0 st1">g</text>
	<text transform="matrix(1 0 0 1 455.36 70.0706)" class="st0 st1">non</text>
</g>
<g id="Grappe_3">
	<path d="M36.7,180c0.6,4.4-2.5,8.4-6.9,9c-4.4,0.6-8.4-2.5-9-6.9c-0.6-4.4,2.5-8.4,6.9-9c0.7-0.1,1.4-0.1,2.1,0
		C33.4,173.6,36.2,176.4,36.7,180z"/>
	<path d="M36.7,214.8c0.6,4.4-2.5,8.4-6.9,9c-4.4,0.6-8.4-2.5-9-6.9c-0.6-4.4,2.5-8.4,6.9-9c0.7-0.1,1.4-0.1,2.1,0
		C33.4,208.4,36.2,211.2,36.7,214.8z"/>
	<path d="M57.8,181c0,4.4-3.6,8-8,8s-8-3.6-8-8s3.6-8,8-8S57.8,176.6,57.8,181z"/>
	<path d="M15.8,180c0.6,4.4-2.5,8.4-6.9,9c-4.4,0.6-8.4-2.5-9-6.9c-0.6-4.4,2.5-8.4,6.9-9c0.7-0.1,1.4-0.1,2.1,0
		C12.6,173.6,15.4,176.4,15.8,180z"/>
	<path d="M25.8,197.9c0.6,4.4-2.5,8.4-6.8,9s-8.4-2.5-9-6.8c-0.6-4.4,2.5-8.4,6.8-9c0.7-0.1,1.4-0.1,2.1,0
		C22.5,191.5,25.3,194.3,25.8,197.9z"/>
	<path d="M47.7,197.9c0.6,4.4-2.5,8.4-6.9,9c-4.4,0.6-8.4-2.5-9-6.9c-0.6-4.4,2.5-8.4,6.9-9c0.7-0.1,1.4-0.1,2.1,0
		C44.4,191.5,47.2,194.3,47.7,197.9z"/>
	<path d="M62.9,141.2v5.1c0,0.6-0.4,1-1,1c-13.7-0.5-25.9,8.5-29.6,21.6c-0.1,0.2-0.3,0.4-0.6,0.3c-0.9-0.2-1.8-0.3-2.7-0.3
		c-0.5,0-1,0-1.4,0.1c-0.3,0-0.5-0.2-0.6-0.4c0-0.1,0-0.1,0-0.2c0.5-1.9,1.1-3.8,1.8-5.6c0-0.1,0-0.2-0.1-0.3c-0.1,0-0.1,0-0.2,0
		c-5.9,4.2-13.9,3.3-18.9-1.9c-0.3-0.4-0.3-0.9,0-1.3c1.6-1.9,3.8-3.4,6.2-4.2c0.3-0.1,0.4-0.4,0.3-0.6c0-0.1,0-0.1-0.1-0.2
		c-2.4-2.8-3.5-6.4-3.3-10.1c0-0.5,0.4-0.9,0.9-0.9c3.6-0.2,7.2,1,10,3.4c0.2,0.2,0.5,0.1,0.7-0.1c0,0,0.1-0.1,0.1-0.2
		c0.8-2.4,2.3-4.6,4.3-6.2c0.4-0.3,0.9-0.3,1.3,0c3.5,3.2,5.1,7.9,4.4,12.6c0,0.1,0,0.2,0.1,0.2c0.1,0,0.1,0,0.2-0.1
		c6.7-8,16.6-12.7,27-13c0.6,0,1,0.4,1,1C62.9,141.2,62.9,141.2,62.9,141.2z"/>
</g>
<g id="Nom_3">
	<text transform="matrix(1 0 0 1 79.36 166.7606)" class="st0 st1">C</text>
	<text transform="matrix(1 0 0 1 98.32 166.7606)" class="st0 st1">abe</text>
	<text transform="matrix(1 0 0 1 149.66 166.7606)" class="st0 st1">r</text>
	<text transform="matrix(1 0 0 1 160.61 166.7606)" class="st0 st1">net </text>
	<text transform="matrix(1 0 0 1 79.36 206.4606)" class="st0 st1">sauvi</text>
	<text transform="matrix(1 0 0 1 150.29 206.4606)" class="st0 st1">g</text>
	<text transform="matrix(1 0 0 1 168.58 206.4606)" class="st0 st1">non</text>
</g>
<g id="Grappe_4">
	<path d="M322.7,178c0.6,4.4-2.5,8.4-6.9,9s-8.4-2.5-9-6.9s2.5-8.4,6.9-9c0.7-0.1,1.4-0.1,2.1,0C319.4,171.6,322.2,174.4,322.7,178z
		"/>
	<path d="M322.7,212.8c0.6,4.4-2.5,8.4-6.9,9s-8.4-2.5-9-6.9s2.5-8.4,6.9-9c0.7-0.1,1.4-0.1,2.1,0
		C319.4,206.4,322.2,209.2,322.7,212.8z"/>
	<path d="M343.8,179c0,4.4-3.6,8-8,8s-8-3.6-8-8s3.6-8,8-8S343.8,174.6,343.8,179z"/>
	<path d="M301.8,178c0.6,4.4-2.5,8.4-6.9,9s-8.4-2.5-9-6.9s2.5-8.4,6.9-9c0.7-0.1,1.4-0.1,2.1,0C298.6,171.6,301.4,174.4,301.8,178z
		"/>
	<path d="M311.8,195.9c0.6,4.4-2.5,8.4-6.9,9s-8.4-2.5-9-6.9s2.5-8.4,6.9-9c0.7-0.1,1.4-0.1,2.1,0
		C308.5,189.5,311.3,192.3,311.8,195.9z"/>
	<path d="M333.7,195.9c0.6,4.4-2.5,8.4-6.9,9s-8.4-2.5-9-6.9s2.5-8.4,6.9-9c0.7-0.1,1.4-0.1,2.1,0
		C330.4,189.5,333.2,192.3,333.7,195.9z"/>
	<path d="M348.9,139.2v5.1c0,0.6-0.4,1-1,1c-13.7-0.5-25.9,8.5-29.5,21.7c-0.1,0.2-0.3,0.4-0.6,0.3c-0.9-0.2-1.8-0.3-2.7-0.3
		c-0.5,0-1,0-1.5,0.1c-0.3,0-0.5-0.2-0.6-0.4c0-0.1,0-0.1,0-0.2c0.4-1.9,1-3.8,1.8-5.5c0-0.1,0-0.2-0.1-0.3c-0.1,0-0.1,0-0.2,0
		c-5.9,4.2-13.9,3.3-18.9-1.9c-0.3-0.4-0.3-0.9,0-1.3c1.7-2,3.8-3.4,6.2-4.2c0.3-0.1,0.4-0.4,0.3-0.6c0-0.1,0-0.1-0.1-0.2
		c-2.4-2.8-3.6-6.4-3.4-10.1c0-0.5,0.4-0.9,0.9-0.9c3.6-0.2,7.2,1,10,3.4c0.2,0.2,0.5,0.1,0.7-0.1c0,0,0.1-0.1,0.1-0.2
		c0.8-2.4,2.3-4.6,4.3-6.2c0.4-0.3,0.9-0.3,1.3,0c3.5,3.2,5.1,7.9,4.4,12.6c0,0.1,0,0.2,0.1,0.2c0.1,0,0.1,0,0.2-0.1
		c6.7-8,16.6-12.7,27-13c0.6,0,1,0.4,1,1C348.9,139.2,348.9,139.2,348.9,139.2z"/>
</g>
<g id="Nom_4">
	<text transform="matrix(1 0 0 1 366.36 164.7606)" class="st0 st1">C</text>
	<text transform="matrix(1 0 0 1 385.32 164.7606)" class="st0 st1">abe</text>
	<text transform="matrix(1 0 0 1 436.66 164.7606)" class="st0 st1">r</text>
	<text transform="matrix(1 0 0 1 447.61 164.7606)" class="st0 st1">net </text>
	<text transform="matrix(1 0 0 1 366.36 204.4606)" class="st0 st1">sauvi</text>
	<text transform="matrix(1 0 0 1 437.29 204.4606)" class="st0 st1">g</text>
	<text transform="matrix(1 0 0 1 455.58 204.4606)" class="st0 st1">non</text>
</g>
<g id="Grappe_5">
	<path d="M36.7,310c0.6,4.4-2.5,8.4-6.9,9c-4.4,0.6-8.4-2.5-9-6.9c-0.6-4.4,2.5-8.4,6.9-9c0.7-0.1,1.4-0.1,2.1,0
		C33.4,303.6,36.2,306.4,36.7,310z"/>
	<path d="M36.7,344.8c0.6,4.4-2.5,8.4-6.9,9c-4.4,0.6-8.4-2.5-9-6.9c-0.6-4.4,2.5-8.4,6.9-9c0.7-0.1,1.4-0.1,2.1,0
		C33.4,338.4,36.2,341.2,36.7,344.8z"/>
	<path d="M57.8,311c0,4.4-3.6,8-8,8s-8-3.6-8-8s3.6-8,8-8S57.8,306.6,57.8,311z"/>
	<path d="M15.8,310c0.6,4.4-2.5,8.4-6.9,9c-4.4,0.6-8.4-2.5-9-6.9c-0.6-4.4,2.5-8.4,6.9-9c0.7-0.1,1.4-0.1,2.1,0
		C12.6,303.6,15.4,306.4,15.8,310z"/>
	<path d="M25.8,327.9c0.6,4.4-2.5,8.4-6.8,9c-4.4,0.6-8.4-2.5-9-6.8c-0.6-4.4,2.5-8.4,6.8-9c0.7-0.1,1.4-0.1,2.1,0
		C22.5,321.5,25.3,324.3,25.8,327.9z"/>
	<path d="M47.7,327.9c0.6,4.4-2.5,8.4-6.9,9c-4.4,0.6-8.4-2.5-9-6.9c-0.6-4.4,2.5-8.4,6.9-9c0.7-0.1,1.4-0.1,2.1,0
		C44.4,321.5,47.2,324.3,47.7,327.9z"/>
	<path d="M62.9,271.2v5.1c0,0.6-0.4,1-1,1c-13.7-0.5-25.9,8.5-29.6,21.6c-0.1,0.2-0.3,0.4-0.6,0.3c-0.9-0.2-1.8-0.3-2.7-0.3
		c-0.5,0-1,0-1.4,0.1c-0.3,0-0.5-0.2-0.6-0.4c0-0.1,0-0.1,0-0.2c0.5-1.9,1.1-3.8,1.8-5.6c0-0.1,0-0.2-0.1-0.3c-0.1,0-0.1,0-0.2,0
		c-5.9,4.2-13.9,3.3-18.9-1.9c-0.3-0.4-0.3-0.9,0-1.3c1.6-1.9,3.8-3.4,6.2-4.2c0.3-0.1,0.4-0.4,0.3-0.6c0-0.1,0-0.1-0.1-0.2
		c-2.4-2.8-3.5-6.4-3.3-10.1c0-0.5,0.4-0.9,0.9-0.9c3.6-0.2,7.2,1,10,3.4c0.2,0.2,0.5,0.1,0.7-0.1c0,0,0.1-0.1,0.1-0.2
		c0.8-2.4,2.3-4.6,4.3-6.2c0.4-0.3,0.9-0.3,1.3,0c3.5,3.2,5.1,7.9,4.4,12.6c0,0.1,0,0.2,0.1,0.2c0.1,0,0.1,0,0.2-0.1
		c6.7-8,16.6-12.7,27-13c0.6,0,1,0.4,1,1C62.9,271.2,62.9,271.2,62.9,271.2z"/>
</g>
<g id="Nom_5">
	<text transform="matrix(1 0 0 1 79.36 297.7606)" class="st0 st1">C</text>
	<text transform="matrix(1 0 0 1 98.32 297.7606)" class="st0 st1">abe</text>
	<text transform="matrix(1 0 0 1 149.66 297.7606)" class="st0 st1">r</text>
	<text transform="matrix(1 0 0 1 160.61 297.7606)" class="st0 st1">net </text>
	<text transform="matrix(1 0 0 1 79.36 337.4606)" class="st0 st1">sauvi</text>
	<text transform="matrix(1 0 0 1 150.29 337.4606)" class="st0 st1">g</text>
	<text transform="matrix(1 0 0 1 168.58 337.4606)" class="st0 st1">non</text>
</g>
<g id="Verre">
	<path d="M258.7,832h-8.6c-48.4-3.5-95-30.2-126.1-73.4c-32.8-44.9-44.9-100.2-32.8-152c21.6-95.9,33.7-147.7,47.5-181.4l3.5-8.6
		h231.5l2.6,8.6c13.8,33.6,26.8,86.3,44.1,182.2c10.4,57.4-5.1,116.6-42.3,161.5C346,808.6,301.1,832,258.7,832z M159.2,442.4
		c-11.2,32.9-24.2,84.8-43.3,169.7c-10.4,45,0.9,92.6,28.6,130.7c27.7,37.2,66.7,59.7,107.3,63.2c36.4,2.6,77-17.3,105.6-52.8
		c32.9-39,45.9-90.9,37.2-141.1c-15.6-87.5-27.6-137.7-39.8-169.7H159.2z"/>
	<path d="M231.8,876.2c1.9,17.4,3.5,37.6,4.5,59.2h37.1c1-21.9,2.6-42.2,4.5-59.2c1.7-15.6,3.5-28.6,5.2-38.2c0.8-5,2-9.9,3.5-14.8
		h-63.4c1.5,4.8,2.6,9.8,3.5,14.8C228.4,847.6,230.1,860.6,231.8,876.2z"/>
</g>
</svg>
