<?xml version="1.0" encoding="utf-8"?>
<!-- Generator: Adobe Illustrator 21.1.0, SVG Export Plug-In . SVG Version: 6.00 Build 0)  -->
<svg version="1.1" id="Calque_1" xmlns="http://www.w3.org/2000/svg" xmlns:xlink="http://www.w3.org/1999/xlink" x="0px" y="0px"
	 viewBox="0 0 639 1085.2" style="enable-background:new 0 0 639 1085.2;" xml:space="preserve">
<style type="text/css">
	.st0{fill:#CCCCCC;stroke:#FFFFFF;stroke-width:0.92;}
	.st1{fill:#5EB130;stroke:#FFFFFF;stroke-width:0.92;}
</style>
<title>9 jeu champagne</title>
<g id="Suisse_Leichtenstein">
	<path class="st0" d="M444.2,625.8L444.2,625.8l0.8,0.1l0.5-0.5l0.7-0.3l1.1,0.6l1.2,1.8l0.2,0.3l7.2-0.6h1.6l4.9,3.1l5.1,3.2
		l0.9,0.6l2.1,1.9l-0.5,3.2l-2.4,5.2l-1.3,4.2l-0.1,3.2l0.2,1.5h0.4l2.3,0.2h1.2l3.6,0.9l2.9,1.3l0.6,1.3l0.4,1.6l3.5,2.2l4,1.4
		l1.4-0.5l5-5.2l1.9,0.9l1.2,2.8l-0.1,1.5l-1.4,5.5l-0.2,3l1.2,2l0.1,1.5l-0.4,1.4l-2,0.1l-2.6-0.8l-2.2-2.4l-1.7,0.3l-1.5,0.6
		l-0.8,2.2l-0.7,2.7l0.2,1.5l1.1,1.2l0.8,2.4l0.6,3.2l0.5,1.5l-0.5,0.7l-1.4,0.4l-1.1-0.4l-2-3.8l-0.9-1.4l-1.6-0.2l-2.8,0.9
		l-4.3,2.1H469l-1.5-0.4l-1.4-1.8l-1.2-3.5l-0.4-2.2l-0.8,0.1l-2.8-0.6l-1.3,0.9v3.5l-0.2,4.4l-1.4,2.8l-3.9,4.9l-1.4,2.1l-0.6,1.5
		l-0.1,1.3l0.6,2.3l0.8,2.2l-0.7,1.2l-2,0.7l-1.4-1.3l-0.6-2.4l-3.1-3.2l1.4-2.7l-0.2-0.7l-5.1-1.4l-2.3-2.1l-3.1-3.6l-0.6-1.6
		l0.1-5.1l-0.2-1.2l-0.4-0.6h-1.5l-2.1,1.8l-1.9,2.6l-4,3l-0.4,0.6l1.3,2.9l-0.1,1.1l-3.2,4.6l-0.6,1.5l-4.1,2.9l-1.9,1.1l-5.7-2.1
		l-1.6-0.2l-2.5,1.4l-3.6,1.3l-5.8,1.3l-2.1-1l-1-0.9l-0.5-1.4l-1.5-2.4l-1.6-1.5l-1.1-1.6l-1.5-1.7l-1-1.5l1.3-4.6l-1-1.6l-0.5-2.3
		l0.2-1.6l-0.5-0.4l-5.2-0.9l-4.4,0.3l-3.1,1.6l-2.5,2.6l-0.3,0.6l0.2,0.5l1.3,2.4l-2.1,2.5l-3.3,1.9l-2.3,0.2l-1-0.4v-2.7l1.9-1
		l1.7-1.7l0.6-2.5l0.2-1.7l-1.8-2.1l0.2-1.3l1.1-2.4l0.7-2.2l0.9-1.9l3.6-3.1l3.6-3.1l0.5-3.3l0.3-4l0.5-1l4.9-2.4l1.2-1l0.6-1.4
		l3.9-4.5l3.8-4.5l0.8-1.5l0.6-0.9v-0.7l-0.5-0.6l-1.8-0.4l-0.6-1.4l2-2.5l2.5-1.6h2.4l1,0.7v0.8l1,0.9l1.8,0.3l2.3-0.3l2.2-1
		l1.4-2.3l0.8-1.7l3.5-2l2.4,1l6.7,0.3l4.9-0.5l3-1.3h3.8l2.5,0.8l0.5-0.1l0.7-0.2l0.7-0.7l2.4-0.5l0.3-0.6l-0.1-0.6l-0.4-0.3
		l-2.9,0.3l-1.1-0.5l-0.3-1.1l0.9-1.9l2.2-1.5l1.8-0.4l1.3,0.4l3.2,2.9"/>
	<path class="st0" d="M469.5,652.7L469.5,652.7l-0.5,0.8l-2.3-0.2h-0.4l-0.2-1.5l0.1-3.2l1.3-4.2l0.3,0.7l0.2,0.9l0.3,0.9l0.1,1.2
		l0.5,1.2l0.9,1.1l0.3,1.1L469.5,652.7"/>
</g>
<g id="Autriche">
	<polygon class="st0" points="638.5,570.6 636.1,569.9 634.4,570.4 632.8,571.1 631.7,571.2 631.1,570.1 629,568.9 626.8,568.7 
		626.2,569.5 625.5,576.4 624.8,578.9 621.8,578.8 620.8,580 618.5,583.3 618,586.5 614,585.9 612.1,585.3 610.5,585.7 608.6,587.5 
		603.4,587.4 599.3,586.3 597.5,582.4 595.7,580.8 593.3,579.4 592.5,579.1 592.1,580 592,582.7 592,585.5 591.6,587 589.8,589 
		588.9,589.4 588.4,589.8 582.9,587.3 582.5,587.7 582.1,588 580.7,595.5 579.7,597 578.1,598.3 575,599.6 572.8,600.1 571.1,600.7 
		565.7,603.9 563.3,605.7 561.8,608.1 561.7,609.4 564.4,613.4 567.4,617.5 567.4,621.1 566.1,623.8 565.8,624.8 566.6,625.2 
		568.3,625.4 569.7,625.8 570.3,627.7 570.1,631 569.7,634.1 569.2,635.4 567.8,635.5 565.2,634.2 563.2,632.6 562.4,631.7 
		562.3,630.5 562.8,629.8 562.1,628.4 559.6,627.1 556.9,627.7 554.9,628.5 553.7,628.5 552.3,627.2 550.2,626.3 547.4,625.7 
		545.7,625 545.3,625.4 545.5,628.1 545,629.3 531.3,630.8 527.2,632.3 524.1,634.2 521.9,635 521.3,636.1 519.1,637.7 516.6,638.2 
		516,637.7 514.4,638.4 511.7,639 509.9,638.8 509,637.6 507.4,635.7 506.7,634.4 506.7,633.5 502.9,633.4 500.5,632.4 495.4,632.6 
		494.1,632.2 493.8,632.7 493.1,638 492,640.2 490.4,642.5 488.3,643.7 486.6,644 486.7,642.3 487.1,640.3 485.9,639.8 484.1,639.6 
		483.2,639 483.5,637.5 483,636.6 482.3,635.6 480.5,634.2 476.6,632.2 474,631.2 473,632.2 471.1,633.3 468.1,633 467.4,633.4 
		468.3,634 470.4,635.8 469.9,639.1 467.5,644.3 467.8,645 467.9,645.9 468.2,646.8 468.3,648 468.8,649.1 469.7,650.2 469.9,651.3 
		469.5,652.7 469,653.4 470.2,653.4 473.9,654.3 476.8,655.6 477.3,656.9 477.7,658.6 481.2,660.8 485.2,662.2 486.5,661.8 
		491.5,656.5 493.4,657.4 494.5,660.2 494.5,661.7 495.3,662.1 498.2,662.1 501.4,662.5 503.4,664.7 505.5,665.5 508.3,665.7 
		510.2,665.4 511.2,664.6 512.3,661.9 514.3,658.6 517.6,656.9 523.1,656.6 525.8,656 528.7,656 530.8,656.5 533,656.5 538.7,654.2 
		544.5,652.4 545.3,652.7 545.5,653.3 544.4,654.7 543.4,656.5 544.1,658.7 547.4,662.9 549.2,666.1 550.9,668.6 553.5,669.8 
		557,670.6 560,670.9 563.1,671.8 573.7,674.1 579,674.7 583,674.8 589.1,676.3 590.4,676.6 593,676.7 595.8,677.2 598.5,677.9 
		600.8,678.8 605.7,679.7 610.1,680.2 611.5,680.7 612.6,680.7 613.9,681.4 614.7,680.8 615.3,679.9 617.7,678.7 619.9,677.2 
		621.5,675.3 622.4,673.8 623.9,672.7 625.5,672.4 627,671.8 633.3,671.1 638.5,671.5 	"/>
</g>
<g id="Rep_Tcheque">
	<polygon class="st0" points="639.5,487.4 638.4,486.8 637.1,485.2 636.1,483.5 635.6,480 631.7,478.4 627.8,477.4 627.6,477.9 
		627.7,481.4 627.5,483.3 625,484.5 622.5,484.6 622.1,485.3 621.2,486.5 620,486.6 618.1,485.8 616.8,484.7 617.1,482 616.2,481.8 
		615.2,480.1 614.8,478.3 613.7,477.6 609.6,476.8 608.2,476.3 607.1,476.7 606.3,478 606.8,479.1 607.6,480.2 609.9,482 
		609.6,482.7 604.8,484.5 601.7,486.2 598.8,487.2 595.9,489.1 590.2,491.1 586,491.7 585.1,492.2 583.5,495.7 582.5,496.5 
		581.4,496.1 580.7,495.5 579.7,496 578.7,497.1 577.6,497.6 576.7,497.6 575,500.6 570.2,501.5 569.7,503.1 568.8,504.9 
		568.1,505.4 565.9,504.6 562.9,504.2 561.2,505.2 559.1,505.8 556.6,506 553.8,508 551,511.5 549.5,514.5 548.7,515.6 547.3,512.7 
		545.7,510.8 544.5,509.7 543.5,509.7 543.2,510.1 543.2,511.7 544.3,514.2 545.7,515.9 545.9,517.2 546.6,519.5 548.6,522 
		551.8,523.9 553.9,525.9 555.5,528.6 555.5,529.4 555.1,530.5 554.3,531.6 553.7,532.9 552,535.7 552.5,536.8 553.9,538.3 
		555.2,540.2 556.8,543.1 559,548.2 560.4,550.3 562.4,552.4 564.3,554.1 567.3,554 570.4,557.2 573.8,561.7 576.4,563.8 
		578.2,564.4 579.6,566.1 580.9,568.4 581.4,569.8 582.6,570.7 585.7,570.5 589.7,574.2 592.2,576.9 593.5,579.1 594.3,579.4 
		596.7,580.8 598.5,582.4 600.3,586.3 604.4,587.4 609.6,587.5 611.5,585.7 613.1,585.3 615,585.9 619,586.5 619.5,583.3 621.8,580 
		622.8,578.8 625.8,578.9 626.5,576.4 627.2,569.5 627.8,568.7 630,568.9 632.1,570.1 632.7,571.2 633.8,571.1 635.4,570.4 
		637.1,569.9 639.5,570.6 	"/>
</g>
<g id="Italie_Sardaigne_Sicile">
	<polygon class="st0" points="493.8,828.1 492.8,826.5 491.8,828 489.6,827.7 488.5,828.2 485,828.4 484.5,829.4 485.1,831.1 
		487.4,831.3 491.1,830.4 493.5,832.3 493.2,830 493.9,829 	"/>
	<path class="st0" d="M637.5,863.7L632,863l-8.8-4.7l-9.5-7.5l-10.4-10.3l-5-7.2l-2.5-6.4l-3.5-13.1l-3.2-8.4l-3.8-7.3l-1.6-1.6
		l-6.2-3l-11.3-9.5l-6.3-3l-6-5.7l-2.6-3.6l-2.6-8.3l-1.7-12l0.9-4.5h1.2l1.9,1.4l2.3-1.9l1-2.2l0.7-2.8l-3.8-3l-3.1-6.9l-1.8-1.4
		l0.7-5.3l0.7-3.2l2.3-1.9l4-2.3l1.3,0.1l-3,3.2l1.9,0.3l3.3-1.5l4.4-2l4.1-2.8l3.7-1.1l2.6-2.5l1.1-2l1.5-1l7.5,2.6l2.7-2.5h2
		l4.5,6l-1.8,1.7l1.6,0.2l2-0.5l0.9-0.9L593,712l-3.2-3.4L588,707l-2.3-0.8l-0.4-0.9l1.3-5.3l-0.4-0.8l-2.7,0.2l-0.6-0.6l-0.2-0.9
		l0.2-1.3l1.8-2.1l2-1.8l0.5-1l-0.1-0.8l-2.6-0.8l-1.5-0.8l-1.2-0.3l-0.8,0.5l-0.6-0.5l-0.6-1.5l0.6-2.4l2.3-2.2l2.5-1.9l2.2-1.4
		l1.2-0.6l0.6-2.4l-6.1-1.5l-4-0.1l-5.3-0.6l-10.6-2.3l-3.1-0.9l-3-0.3l-3.5-0.8l-2.7-1.3l-1.7-2.4l-1.8-3.2l-3.3-4.2l-0.7-2.1
		l1-1.9l1-1.4l-0.1-0.6l-0.8-0.3l-5.8,1.8l-5.7,2.3l-2.2,0.1l-2.2-0.5h-2.9l-2.8,0.6l-5.5,0.3l-3.2,1.7l-2,3.3l-1.1,2.7l-0.9,0.8
		l-1.9,0.3l-2.9-0.2l-2-0.8l-2-2.3l-3.2-0.3l-2.9-0.1l-0.8-0.4l-1.4,5.5l-0.2,3l1.2,2l0.1,1.5l-0.4,1.4l-2,0.1l-2.6-0.8l-2.2-2.4
		l-1.7,0.3l-1.5,0.6l-0.8,2.2l-0.7,2.7l0.2,1.5l1.1,1.2l0.9,2.2l0.6,3.2l0.5,1.5l-0.5,0.7l-1.4,0.4l-1.1-0.4l-2-3.8l-0.9-1.4
		l-1.6-0.2l-2.8,0.9L471,686h-2l-1.5-0.4l-1.4-1.8l-1.2-3.5l-0.4-2.2l-0.8,0.1l-2.8-0.6l-1.3,0.9v3.5l-0.2,4.4l-1.4,2.8l-3.9,4.9
		l-1.4,2.1l-0.6,1.5L452,699l0.6,2.3l0.8,2.2l-0.7,1.2l-2,0.7l-1.4-1.3l-0.6-2.4l-3.1-3.2l1.4-2.7l-0.2-0.7l-5.1-1.4l-2.3-2.1
		l-3.1-3.6l-0.6-1.6l0.1-5.1l-0.2-1.2l-0.4-0.6h-1.5l-2.1,1.8l-1.9,2.6l-4,3l-0.4,0.6l1.3,2.9l-0.1,1.1l-3.2,4.6l-0.6,1.5l-4.1,2.9
		l-1.9,1.1l-5.7-2.1l-1.6-0.2l-2.5,1.4l-3.6,1.3l-5.8,1.3l-2.1-1l-1-0.9l-2.3,2.4l-4,2.2l-0.5,1.4v1.6l0.5,1.3l2.2,1.7l2.4,3.7
		l1.5,3.3l3.3,3.2l0.8,0.9l-0.2,0.8l-0.9,1.4l-1.1,4.6l-1.3,0.7l-1.5,0.3l-4,3.3l-1.8-0.4h-2.6L383,735l0.2,2.1l1.6,1.9l1,2l0.4,2.1
		l1.8,1.6l2.6,0.9l1.5,0.1l1,0.6l0.6,0.7l1.1,4.5l-0.7,1.1l-1.4,0.5l-0.9,1.9l-1.6,2.8l-0.9,2.2l1,1.9l0.5,1.4l-0.5,1.5l0.7,2.3
		l2,2.3l5.3,3.2l4.9,2.6l1.5,0.4l6.7-1.7l1.1,0.1l0.8,2l0.4,1.3l-0.8,2l-1.8,2.8l-2,2.2l-1.2,1.9l0.2,1.7l0.1,2.2l7-1.4l7.9-3
		l2.2-1.7l6.1-8.8l7.6-8.5l6.2-3.1l4.8,0.6l7.7,3.5l2.7,0.2l12.9,8.9l9.2,3.3l4.1,2.9l1.7,3.9l2.2,13.7l3.7,5.7l2.1,6.7l0.3,2.5
		l-0.4,3l-0.1,3.9l2.2,0.5l1.6-0.1l1.9,0.8l0.8,1.5l0.8,2.2l1.1,1.6l3.9,2.6l6.7,8.1l0.5,3.1l-1.2,0.5l-1.1,1.1l1.1,1l1.4-0.1
		l1.8-0.9l1.4-0.3l5.9,2.4l4,3l5,8.1l7.8,5.5l3.8,5l12.4,13.4l6.4,2.4l5.1,4.2l0.5,1.3l1.4,0.9l2.8-1.3l1.8-0.4l3.3,0.4l5.6,1.8
		l3.3-0.9l1.9,0.7l3.7,4.1l5.5,10l-0.1,2.2l0.9,0.7l0.8-1.3l1.3,0.2l4.7,0.3l3.5,2l1,1.2l-3.5,5h1.2l2.2-1.3l2.8,0.2l1.6-0.7
		l4.5-0.9l2.2,1.5l2,2.8l1.2,3.3l1.1,3.5l-1.7,2.6l-0.1,1.7l0.7,1l10,6.4l1.8,0.5L637.5,863.7z M553.7,784.7L552,785l-0.9-1.6
		l1.3-1.9l1.8-0.3l0.3,1.5L553.7,784.7z"/>
	<polygon class="st0" points="473,906.3 471.6,903.9 469.9,902.6 469.3,902 470.3,899.6 471.2,899.2 471.1,898.7 469.9,898.2 
		468.9,897.3 467.7,895.2 466.4,893.5 463.4,891.8 461.4,891.5 459.8,889.4 458.5,890 457.9,892.2 456.3,893.8 453.1,895.1 
		447.9,901.3 444.4,903.4 440.7,905.1 437.6,905.7 434.6,905.3 433,904.8 431.1,902.9 430.5,902.7 429.9,904.3 429.3,908.2 
		429.5,912.8 430.7,914.5 432.6,916.3 434.3,918.5 435.2,920.8 435.9,924.2 437.7,926.5 437.7,932.7 437.3,934.7 435.9,936.2 
		435.6,938.5 435.9,940.8 438.4,941.6 440,943.8 439.7,946.4 439.8,947.9 438.9,948.2 437.7,947.2 437.1,948.2 437.4,951 437,954.2 
		436.2,955.8 435.6,957.3 436,964.5 436.2,967.7 438.2,971.3 440.1,974.3 441.4,976.8 442.9,978.2 444.9,978.2 447.3,978.8 
		449.7,978.7 452.2,976.8 453.8,973.8 454.8,966.5 456.1,967.5 457.5,968 459.2,967.4 460.8,967.3 464.5,969.2 467.3,970.2 
		469.5,969.2 470.1,965.9 471.1,962.1 473.1,940.5 473.7,937 473.6,934.2 472.4,931.6 471.9,927.4 475.1,922.4 476,920.8 
		476.6,918.6 476.3,916.4 	"/>
	<polygon class="st0" points="634.9,1044.4 633.1,1041.8 634.7,1040.5 633.7,1039.1 632.3,1038.2 631.4,1037.2 631.1,1035.7 
		630.9,1032.6 631.8,1029.9 632.8,1027.8 633.6,1025.6 634.1,1023 634.9,1020.6 638.5,1015.4 638.5,1004.3 638,1004.6 636.2,1004.2 
		634.6,1004.9 633.2,1006.5 631.5,1007 627.5,1006.5 623.5,1006.3 621.9,1006.5 620.4,1007.1 617.4,1009.5 613.6,1011 611,1011.1 
		607.3,1012.1 600.3,1011.2 597,1011.8 592.7,1013.4 591.2,1013.3 589.6,1012.7 584,1008.9 582.4,1008.6 580.9,1008 580,1006 
		578.2,1005.6 574.4,1005.6 571.4,1007.8 571.2,1009.6 568.4,1011.2 566.9,1011.4 565.4,1010.3 562,1005.9 561,1007.4 560,1008.7 
		558.1,1009.5 556.5,1010.7 554.8,1015 553.3,1019.3 553.8,1021 555.9,1024.9 559.2,1027.7 561,1028.5 562.7,1028.7 566,1028.4 
		567.5,1028.5 570.9,1030.9 574.7,1031.9 576.2,1032.9 577.5,1034.4 580.2,1036.7 586.8,1040.1 593.1,1044.5 596.1,1045.8 
		599.6,1045.5 603,1045.6 606.4,1047.7 609.6,1050.4 613.5,1056.8 615.1,1057.6 616.8,1057.9 621.5,1060 624.8,1059.5 628.1,1060.6 
		631.3,1060.8 631.4,1059 631.1,1057.3 631.4,1055.3 632.2,1053.4 633.4,1051.8 636.6,1048.9 636.7,1047.4 636.4,1045.9 	"/>
</g>
<g id="Slovenie">
	<polygon class="st0" points="637.4,713.1 637.3,712.5 635,710.1 635.1,709.4 638.5,707.7 638.5,671.5 633.3,671.1 627,671.8 
		625.5,672.4 623.9,672.7 622.4,673.8 621.5,675.3 619.9,677.2 617.7,678.7 615.3,679.9 614.7,680.8 613.9,681.4 612.6,680.7 
		611.5,680.7 610.1,680.2 605.7,679.7 600.8,678.8 598.5,677.9 595.8,677.2 593,676.7 590.4,676.6 589.1,676.3 588.5,678.7 
		587.3,679.3 585.2,680.8 582.7,682.7 580.4,684.9 579.8,687.2 580.4,688.8 581,689.3 581.8,688.8 583.1,689.1 584.6,690 
		587.2,690.8 587.2,691.6 586.7,692.7 584.7,694.5 582.9,696.6 582.7,697.9 583,698.8 583.6,699.3 586.2,699.1 586.6,699.8 
		585.3,705.2 585.7,706.1 588.1,707 589.8,708.2 593,711.6 594.2,714.3 593.4,715.3 591.3,715.7 589.7,715.5 587.3,717.6 
		585.6,718.4 586.7,720.1 594.3,722.1 596,721.2 597,719.8 597,719 597.7,718.7 600.4,720 602.6,719.8 606.1,719.7 608.7,719.9 
		610.3,718.9 612.6,715.2 613.5,713.1 614.5,712.6 615.1,712.8 615.6,714.5 616.8,716.2 619.3,718.8 621,720 622.6,720.5 
		624.1,719.4 625.7,719.1 630.2,721.2 634.1,721.6 636.9,720.5 636.5,719 635.5,717.4 635.3,715.8 635.5,714.4 	"/>
</g>
<g id="Croatie">
	<polygon class="st0" points="622.8,751.5 622.1,749.8 620.1,747.2 619.9,746.2 618,746.1 617.5,747.1 617.1,748.1 617.7,749.3 
		620.1,749.9 	"/>
	<polygon class="st0" points="624.5,760.9 626.9,763 628.2,764.7 629.9,766.1 631.8,768.1 632.5,767 633.2,766.6 634,766.5 
		630.3,763 627.2,759 624,755.8 622.8,755.5 621.3,754.3 619.5,752.3 620,753.6 623.7,758.5 	"/>
	<polygon class="st0" points="621.5,740.8 619.4,737.1 618.3,736.1 616.2,732.5 614.5,730.5 613.2,733.8 610.6,735.8 611,736.6 
		612.8,738.4 615.8,738.8 616.2,740.1 617.9,741.7 	"/>
	<polygon class="st0" points="611.5,751.1 611.1,745.2 611.5,741.1 609.4,738.5 608.6,736.5 608.3,732.9 607.5,733 606.2,733.9 
		607.8,739 607.8,740.7 606.7,742.3 607,743.9 609.2,749.8 610.1,753.4 611.9,755.4 612.1,753.8 612,752.4 	"/>
	<polygon class="st0" points="625.6,775.9 623.1,773.9 623.9,775.6 631,784.5 631.4,784.3 632.9,784.8 633,784.4 632.5,783.8 	"/>
	<polygon class="st0" points="638.5,769.1 637.8,769 635.3,769 633.8,769.7 632.4,769.6 630.6,770.3 632.5,773.7 638.5,780.7 	"/>
	<polygon class="st0" points="638.1,767.4 638.5,767.6 638.5,707.7 635.1,709.4 635,710.1 637.3,712.5 637.4,713.1 635.5,714.4 
		635.3,715.8 635.5,717.4 636.5,719 636.9,720.5 634.1,721.6 630.2,721.2 625.7,719.1 624.1,719.4 622.6,720.5 621,720 619.3,718.8 
		616.8,716.2 615.6,714.5 615.1,712.8 614.5,712.6 613.5,713.1 612.6,715.2 610.3,718.9 608.7,719.9 606.1,719.7 602.6,719.8 
		600.4,720 597.7,718.7 597,719 597,719.8 596,721.2 594.3,722.1 586.7,720.1 585.6,718.4 583.8,719.9 586.3,730.3 586.6,733.1 
		587.1,735.4 590.4,740.2 593.8,746.5 595,746.8 596.9,746.6 599.1,742.8 600.5,739.9 604.8,733.2 605.7,728.2 607,725.9 
		609.1,725.7 613.9,727.5 616.3,730.6 622.8,736.5 624.3,741 623.7,747.3 624,751.9 626.5,756.1 634.9,765.1 	"/>
</g>
<g id="Danemark">
	<path class="st0" d="M522,289.6L522,289.6l5.2,3.1l3.5-0.2l2.4,1.3l0.6,2l0.2,4.5l-2.5,1.3l-2.8-0.4l-3.8,1.8l-12.3-7.3l0.2-6.1
		l0.5-2.4l5.8-0.6L522,289.6 M496.4,291.9L496.4,291.9l-2,0.5l-2.2-1.1l-3.6-4.2l-0.5-1.1l1.9,0.7l2.4,2.2l1.9,0.5l2.7,1.8
		L496.4,291.9 M556.5,285.9L556.5,285.9l-1.1,0.8l-4.5-0.6l-5,3.5l-1.9-1.1l0.7-2.2l0.5-0.8l1.7-1l1.1-1.4l0.4-2.2l1,1.2l3.1,0.5
		l1.5,0.7l1.3,1L556.5,285.9 M484,289.8L484,289.8l-3,0.7l-1.6-1.1l-2.9-0.5l-1-7.8l0.3-0.5l1.4,0.5l4.9,3.6l1.7,4l0.1,1.1
		 M503.7,296.8L503.7,296.8l-1.3,0.3l-1.8-4.1l-0.2-1.3l2.1-2.6l1.3-3l3.5-4.6l2-5.4l0.8,0.1l-0.9,4.8l-4.5,13.3L503.7,296.8
		 M630.6,283L630.6,283l-1.1,0.9l-4.8-1.4l-5.9-3.5l0.9-6.9l1.5-3l10.7,7.8l0.1,2.9L630.6,283 M501.1,252.9L501.1,252.9l1.2,2.7
		l1.5,5.7l2.4,6.4l-1,2.7l0.7,3.4l-0.7,3.5l-4.7,4.1l-5.3,0.2l-5.5-2l-7.8-3.8l-0.6-2.2l-1.1-1.2l-2.1-6.6v-8.1l3.9-1l8.5-3.9l2,0.6
		l2,2l2.4,0.1l3.4-2.8L501.1,252.9 M560,253.6L560,253.6l-2.7,2.2l-0.6-0.1l-0.9-3l1.5-1.8l0.9-1.6h0.6l0.8,1.7L560,253.6
		 M500,243.9L500,243.9l-0.5,0.9l-1.9-1l-0.1-3.3l0.7-3l-0.8-2.7l0.9-1.7l2.6,4l0.7,1.9l-1,2.3L500,243.9 M557.2,243.8L557.2,243.8
		l0.1,5.2l-0.8,1.5l-1.1,1l-2.9,1L550,254l-2.2,2.6l-0.8,3.7l1.8,2.7l3.2,1.5l0.8,5.1L550,272l-6.8,2.5l-0.7,6l0.2,4.7l-0.1,3.4
		l-0.5,4.8l-5.5,2.2l-3.5-7.2v-2.9l-1.1-3.4l-0.2-2.9l-1.3-4.6l-5.2-1.3l-2-0.2l-2.8,0.9l-0.7-0.3l-3.3-6.3l0.5-7l-1.8-3.6l-0.2-1.6
		v-1.8l-1.5-1.5l-1.8-0.8l-0.9-4l2.1-1l5.1,0.5l1.5-0.3l1.4-0.8l4.1-6.6l-0.1-1.4l0.4-1.9l4.5-0.7l2,2.6l-0.4,4.1l0.2,5.2l2.7,1.4
		l1,0.2l1.1-3.8l0.8-1.9l1.1-1l0.4-3.5L538,236l-1.3-1.6l5-4.4l5.2-3.5l3-0.2l3.1,0.9l2.8,1.2l1.5,1l0.9,1.6l-1.9,3.9l-0.5,2.1
		l1.3,6.9 M513,166.3L513,166.3l-1.2,1.3l-4-1.8l1.8-2.5l4.4-1.1l2.6,0.4l-2.9,2.4L513,166.3 M495,170.6L495,170.6l-2.9,8.1
		l-1.2,1.2l-0.3,9.4l0.3,2.2l-0.4,8.5l2.9,3.5l3.1,1.8l10.4-0.1l1.1,1.5l1.3,2.6l-0.9,4.4l-1.1,3.3l-3,2.8l-3.9,2.1L498,222l-3.3-4
		l-1.5,1.3l-1.6,2l-2.7,10.9l-1.3,7.3l-0.7,0.6l-1.5-1l-2.6-0.1l-3.4,1.7l1.7,1.5l1.8,2.7l-0.7,1.3l-2.9,1.4l-2.6,2.9l-1.1,2.2
		l-3.2,2.6l-2.1,3.3l1,4.1l0.4,3.6l0.9,4l-0.8,3.1l-4,4.5l-1.5,3.9h3.5l2.1,0.9l1.2,1.1l1.2,1.5l-0.8,2l1,5.2h-0.4l-1.9-0.5
		l-1.3-1.1l-3.4,0.8l-4.5,1.7l-2.5-0.1l-2-1.9l-8.2-2.6l-1.3-0.2l-5.4-0.1l0,0l-0.3-4.2l-0.7-3l-1.9-4.5l2.8-1.1l-0.5-8.8l-1-4.6
		l-7.9-4.7l-6.2-4.6l1.4-15.6l0.6-4.2l-2.4-8.2l0.2-9.5l1-15.1l2-0.6l1.5,0.1l5.6,2.7l2.3,0.3l1.6,2.4l1.9,1l1.4-2.6l0.5-4.4
		l4.4-5.7l3.1-2.1l2.1-1l2.1,2.3l1.6,2.6l0.4-5.7l1.3-10.9l-4.2-1.7l-3.5,1.4l-3.4,6.9l-3,8.6l-4.9,0.8l-3.9,2.4l-3.5-2.5l-2.3-2.2
		l-0.1-3.3l0.5-2l4.2-7.1l5.6-6.8l5.6,0.1l4.1-2.2l2.5-0.3l7.6,0.5l3.9-1.5l3.5-3.1l7.6-13.3l4.3-5.6l8.6-2l8-6.4l2.2-0.1l-3.8,4.8
		l-0.6,1.9L495,149l2.7,6.2l-0.6,3.8l0.2,7.4L495,170.6"/>
</g>
<g id="Suede">
	<polygon class="st0" points="639,0.5 554.9,0.5 554.2,6.6 551.8,10.5 548.6,14.7 545,17.9 542.2,18.8 539.7,19.1 538.1,20.7 
		536.6,25.4 535.2,30.4 530.8,36.4 530.9,38.5 532.6,45.7 534.2,53.8 532.8,61.3 531.7,69.2 529.7,74.4 526.8,76.3 524.7,75.3 
		522.2,68.2 519.5,65.3 516.6,65.8 515.8,67.7 515.2,70.9 515.9,74.6 517,77.8 517.5,88.3 518.8,99.7 518.3,102.6 518.2,105.6 
		520.5,105 523.5,107.2 524,119.5 526.9,125.9 531.4,127.5 532.2,138.9 532.4,141.5 536.5,143.6 536.7,147.2 537.7,152.1 539,157.3 
		541.6,156.2 544.5,168.1 552.4,185.3 556.8,189.7 561,198.2 563.2,199 565.8,200.6 566.9,206 565.1,209.4 562.6,209.2 559.2,210 
		560.2,212.9 561.7,214.9 563.5,219.3 562,220.4 560.7,220.8 554.9,217.8 553.8,217.9 555.3,220.2 557.4,225.9 564.4,239.2 
		567.5,243.2 568.5,246.2 568.6,249 568.2,253.2 567.5,257.3 567.5,259.9 565.9,263.5 578.6,266.9 592.7,262.6 600.7,264.5 
		603.4,264.3 608.3,257.5 606.4,251.9 604.3,247.1 604.7,241.8 606,238.9 610.1,234.3 612.2,232.3 614.7,230.6 617.5,232 
		620.4,231.4 619.2,226.1 621.2,224.6 629,224.1 637,225.2 639,224.6 	"/>
</g>
<g id="Allemagne">
	<path class="st0" d="M604.7,338.4L604.7,338.4l0.5,2.4l-1.2-0.2l-3.6,0.6l-3.6-0.8l-0.7-3l0.6-2.9l-1.4-2l-1.3-1.2l-0.2-1.6
		l0.2-1.7l6.2,4.6l5,4.2L604.7,338.4 M519.6,313.4L519.6,313.4l-4.5,0.1l-1.7-2l-1.7-0.5l0.9-2.5l1.2-0.9l4.3,1.6l1.4,3.2
		L519.6,313.4 M590.3,315.2L590.3,315.2l0.7,3.4l-0.8,1.7l-3.3-2.9h-3.3l-2,4.4l-1.5,0.2l-5.1-4l-0.8-2l-0.2-1.6l0.7-5.6l-0.1-1.8
		l1.6-1.9l0.2-2.8l2.8-3l2.5-0.1l0.8,2.5l1.2,1.7l4.2,1.9l0.6,0.9l0.4,1.2l-2,2.4l-0.7,1.2l0.6,2l3.1,2.1 M441.1,298.7L441.1,298.7
		L440,300l-2.8-0.1l-1.6-1.2l0.5-1.2l1.5-1l1.2-0.1l1.9,0.6L441.1,298.7 M460.6,293.9L460.6,293.9l2.5,0.1l4.6-1.7l3.4-0.8l1.3,1.1
		l1.9,0.5h0.4l0.2,0.9l4.3,1.3l1.8,2.1l2,3.2l0.2,4.7l-2.5,3.4l-2.1,2.1l8-0.8l0.8,1.9l1.2,2.1l4.3-1.5l10.8,6.1l6.5-3l1.7-0.2
		l1.5,4.9l-1.6,5l-5.8,5.3l1.3,3.2l1.8,0.7l5.4-0.7l8.6,3.2l1.8-1l7-7.4l2.8-1.6l9.2-1.1l1.7-2.9l3.7-2.9l2.4-3.2l5.7-6l5.9,1.1
		l3.5,1.1l3.8,0.6l3.5,6.4l8.8,7.1l8-0.6l2.9,6.7l1.3,8.2l2.5,2.5l2.2,1.7l6.6,1.8l0.3,0.1l0.2,1.1l0.4,4l0.5,3.4l3.4,13.4l-0.1,3.2
		v0.9l-1.2,4.5l-2.2,3.8l-2.9,2.1l-1.6,2.4l-0.3,2.6l3.7,4.6l7.6,6.6l3.1,5.6l-1.6,4.7l-0.4,3.4l0.6,2.2l1.2,1.7l1.9,1.3l0.7,2
		l-0.4,2.7l0.4,1.9l1.4,1.4l-0.1,0.5l-0.7,1.9l-0.9,3.5l-0.5,2.5l-2.1,3.5l0.7,2.9l1.7,3.4l1.3,1.7l0.4,1.6l-0.8,3.9l0.4,1l5.3,2.8
		l0.9,1.3l0.5,2.7l1.8,5.8l-1.5,7.3l-1.3,4l-3,6.3l-0.1,0.6l-0.3,0.8l-0.9,1.1l-1.3,0.2l-1.9-0.8l-1.3-1.1l0.3-2.7l-0.8-0.2l-1-1.7
		l-0.4-1.8l-1.1-0.7l-4.1-0.8l-1.4-0.5l-1.1,0.4l-0.8,1.3l0.5,1.2l0.8,1.1l2.3,1.8l-0.2,0.7l-4.9,1.7l-3.1,1.8l-2.9,1l-2.9,1.8
		l-5.7,2.1l-4.2,0.5l-0.9,0.5l-1.7,3.5l-1.1,0.7l-1-0.4l-0.8-0.6l-1,0.5l-1,1.1l-1.1,0.5h-0.9l-1.7,3l-4.8,0.9l-0.6,1.6l-0.9,1.9
		l-0.7,0.5l-2.2-0.7l-3-0.4l-1.7,1l-2.1,0.5l-2.5,0.2l-2.8,2l-2.7,3.5l-1.6,3l-0.8,1.1l-1.3-2.9l-1.6-2l-1.2-1h-1l-0.3,0.4v1.5
		l1.1,2.5l1.4,1.7l0.2,1.3l0.7,2.3l2,2.5l3.1,2l2.1,2l1.6,2.7v0.8l-0.4,1.1l-0.8,1l-0.6,1.3l-1.7,2.7l0.5,1.2l1.4,1.5l1.3,1.8
		l1.6,2.9l2.2,5.1l1.4,2.1l2,2.2l1.9,1.7h3l3.1,3.2l3.4,4.5l2.5,2.1l1.8,0.6l1.5,1.6l1.3,2.3l0.5,1.3l1.2,1l3.1-0.2l4,3.7l2.5,2.7
		l1.3,2.2l-0.3,0.9l-0.2,2.7v2.9l-0.4,1.5l-1.8,2l-0.9,0.4l-0.5,0.4l-5.5-2.6l-0.4,0.4l-0.3,0.3l-1.5,7.5l-1,1.4l-1.5,1.3l-3.1,1.3
		l-2.2,0.5l-1.7,0.7l-5.4,3.1l-2.4,1.9l-1.6,2.3v1.3l2.6,4l3,4.1v3.6l-1.3,2.7l-0.3,1l0.9,0.4l1.7,0.2l1.4,0.5l0.6,1.9l-0.2,3.3
		l-0.5,3.1l-0.5,1.3l-1.3,0.1l-2.6-1.3l-2-1.5l-0.8-1v-1.1l0.4-0.7l-0.7-1.4l-2.5-1.3l-2.7,0.6l-2,0.9h-1.3l-1.4-1.2l-2.1-1
		l-2.8-0.6l-1.7-0.7l-0.4,0.4l0.2,2.7l-0.5,1.2l-13.7,1.6l-4.2,1.5l-3,1.9l-2.2,0.8l-0.5,1.2l-2.2,1.5l-2.5,0.5l-0.6-0.5l-1.6,0.7
		l-2.7,0.7l-1.8-0.2l-0.8-1.2l-1.7-1.9l-0.7-1.3l0.1-0.8l-3.8-0.2l-2.4-1l-5.1,0.2l-1.3-0.4l-0.3,0.5l-0.8,5.3l-1,2.2l-1.6,2.3
		l-2.1,1.3l-1.7,0.2l0.1-1.7l0.4-2l-1.2-0.5l-1.8-0.2l-0.9-0.6l0.2-1.5l-0.4-0.9l-0.8-1.1l-1.8-1.3l-3.9-2l-2.6-1l-1,1.1l-1.9,1.1
		l-3-0.3l-0.7,0.4l-5.1-3.2l-4.9-3.1h-1.6l-7.2,0.6l-0.2-0.3l-1.2-1.8l-1.1-0.6l-0.7,0.3l-0.5,0.5l-0.8-0.1L442,623l-1.3-0.4
		l-1.8,0.4l-2.2,1.5l-0.9,1.9l0.3,1.1l1.1,0.5l2.9-0.3l0.4,0.3l0.1,0.6l-0.3,0.6l-2.4,0.5l-0.7,0.7l-0.7,0.2l-0.5,0.1l-2.5-0.8h-3.8
		l-3,1.3l-4.9,0.5l-6.7-0.3l-2.4-1l-1.5-0.6l-1.1-2.9l0.3-4.3l1.6-5.7l0.4-4.2l-0.7-2.7l1-4l2.6-5.4l1.7-5.7l0.9-6l1.3-3.9l2.5-2.8
		l5.9-7.7l0.5-0.6l-0.2-3.9l-1.6-0.5l-2.3-1.1l-5.9-1.4l-5.5-0.9l-2.5-1.2l-2.2-3h-1.4l-2.6,1l-3.3,0.7l-2.4-0.6l-1.5,0.1l-0.9,0.5
		l-0.4-0.5l-0.6-2.5l-1.3-0.7l-2-0.6l-1.2,0.2l-0.8,1.2l-1.3,0.9l-1.2-0.3l-3.7-5.8l-1-1.3l-0.2-1.2l-0.9-2.2L379,549l-2.2-0.7
		l-1.1,0.2l0.1-2.7l0.9-3.9l0.8-2l1.1-1.7l1.2-1.2l0.3-2.1l-0.2-2l-1.4-0.3l-3.4-1.5l-2-1.5l-1.5-2l-2-2.7l-0.8-2.7v-2.7l0.2-1.2
		l0.1-0.8l1.6-4.2l5.5-3.8l-0.6-3.8l-0.1-2.4l-1.3-1.5l-2.7-0.6l-0.7-1.1l-0.3-1l2-2.4l-2.4-1.9l-1-1.9l-3.3-2.4l-0.4-0.8l1.6-7.1
		l-1.2-2.1l-1.5-1.1l-1.8-0.5l-0.8-1l-0.3-1.1l0.3-0.7l2.1,0.2l0.6-0.7l4.9-4.2l0.2-0.8l-0.7-0.5l-0.9-0.2l-0.2-0.9v-1.2l2.6-6.1
		l0.8-2.6l0.2-1.8l-0.2-1.8l-1.5-2.9l-1.5-2.3v-1.8l-1.1-1l-3-4.9v-1.9l1.7-1.5l2.4-0.9l0.8-0.8l1.4-0.5l3.8,1.4l1.7,1.2l0.5-0.2
		l1.5-1.3l2.7,0.2l6.5-2.7l1-1.3l0.7-1.4l0.1-0.6l-2.5-2.6l-0.1-1l0.3-1.1l0.7-0.9l1.5-0.6l1.6-1.2l3.6-3.3l1.2-2.9l0.4-3.1l0.1-2.3
		l-1-1.9l-1-1.2l-1.3,0.2l-2.6-0.1l-2.4-1l-1.3-1.7l-0.4-1.5l0.6-0.9l0.2-1.1l-0.4-1.2l0.2-1l1.1-0.8h7.7l0.6-0.9l0.5-4.5l1.9-6.9
		l1.8-3.8l0.3-1.6v-9.1l0.2-4.6l-1.3-2.2l-2.9-2.4l0.6-5l1-3.9l2.9-4.8l2.3-1.3l10-0.8l11.1,0.3l4.6,7.2l-1.7,3.7l2.7,1.7l1.3-0.6
		l1-3.2l0.7-3.6l0.9-1.1l3.4,2.7l1.2,1.8l0.1,5.9l1.3-8l-0.9-5.6l0.6-5.4l1.4-2.8l1.3-1.8l8.1,1.9l9-1l3.4,2.1l7.7,10.5l2.6,1.7
		l3.2,0.5l-4.5-2.2l-9.3-12.8l-2.9-1.5l-4.3-0.5l-2.7-1.3l-1.7-1.9l-0.5-1.7l0.1-13l-1.6-1.9l-2.1-0.7l-1.3,0.9h-2.7l-0.6-3l0.6-2.2
		l5.3-1.5l3.5-2l0.2-3.5l-2.2-2.8l-2.7-5.1l-3.1-4.8l-0.4-5.6l0,0l5.4,0.1l1.3,0.2l8.2,2.6l2,1.9 M433,295L433,295l-0.7,1l0.3-7.1
		l3.2-7.6l1.4,0.2l-1.4,2.1l-0.4,1.5l-0.6,2.9l0.2,1.5l7.3,0.4l-0.9,1.3l-7.4,0.9L433,295"/>
</g>
<g id="Pologne">
	<polygon class="st0" points="639,326.4 635.9,327.4 619.2,333.4 609.6,338.1 605.7,337.7 604.5,336.8 604.2,338.4 604.6,340.7 
		608.6,341.3 614.7,343.1 614.8,346.5 614.5,348.8 615,350.4 615.4,352.1 612.6,350.5 605.9,347.7 606.1,348.8 606.5,352.9 
		607.1,356.2 610.5,369.6 610.4,372.8 610.4,373.7 609.1,378.2 606.9,382 604,384.2 602.4,386.6 602.1,389.2 605.8,393.9 
		613.4,400.4 616.4,406.1 615,410.7 614.5,414.1 615.1,416.3 616.3,418 618.2,419.4 618.9,421.4 618.6,424.1 618.9,426 620.3,427.4 
		620.2,427.9 619.5,429.8 618.6,433.2 618,435.7 615.9,439.1 616.6,442 618.2,445.5 619.5,447.2 619.9,448.8 619.1,452.7 
		619.5,453.6 624.8,456.5 625.7,457.8 626.2,460.5 628,466.3 626.5,473.6 625.1,477.6 622.1,484 622,484.6 624.5,484.5 627,483.3 
		627.2,481.4 627.1,477.9 627.3,477.4 631.2,478.4 635.1,480 635.6,483.5 636.6,485.2 637.9,486.8 639,487.4 	"/>
</g>
<g id="Luxembourg">
	<path class="st0" d="M365.1,515.9L365.1,515.9l2.3,0.6h1l0.6,1.4l0.2,0.1l-0.2,1.2v2.7l0.8,2.7l2,2.7l1.5,2l2,1.5l3.4,1.5l1.4,0.3
		l0.2,2l-0.3,2.1l-1.2,1.2l-1.1,1.7l-0.8,2l-0.9,3.9l-0.1,2.7l-2-1.1l-1-0.8l-1.8-0.2l-1.8,0.6l-1.3,1.4l-1.8,0.4l-1.5-0.4l-0.9-1
		l-0.8-0.5l-2.3-0.7l-1-1.5l0.8-0.7l0.6-1.1l0.5-1.5l0.7-1.4l-2.2-3.9l-0.5-1.2l-1.8-2.2V531l0.4-1.1l-0.2-0.8l0.3-2l1.3-1.9
		l0.9-2.3l1.4-3.2L365.1,515.9"/>
</g>
<g id="Angleterre">
	<polygon class="st0" points="241.6,402.7 240.8,397.9 239.1,394.2 231.1,387.5 227.9,386 221.6,384.3 218.5,384.6 214.9,383.7 
		211.3,383.4 207.1,383.9 205.8,385.3 203.4,389.2 201.9,390.8 200.4,391.5 199,391.6 192.1,386.9 194.4,383.7 196.9,380.9 
		199.5,378.4 201.2,374.6 198.7,366 194.6,359.5 182.2,348.5 176.7,348.4 171.6,347 174.3,346.9 177.4,347.4 182.9,346.4 
		185.7,348.9 188.7,350.9 190.2,351.2 191.9,351.1 193.1,351.6 194.2,352.6 191.1,346 187.7,340 185.9,336.2 184.8,332.3 
		186.2,329.3 188.4,327.5 184,323.9 180,319.4 175.7,313.6 171.2,308.2 168.7,306.3 157.2,300.6 154.9,298.1 153.2,294.6 
		149.3,281.8 146.4,269.9 143.9,257.7 142.6,253.9 140.4,251.5 137.5,248.7 132,241.7 128.2,236.7 115.1,230.2 108.1,230.3 
		102.9,233.8 101.9,234.2 85.7,230.8 82.8,229.4 80.4,226.7 83.1,228.4 89.4,230 92.8,230.2 95.6,229.3 98.2,227.5 104,221.5 
		110.1,221.1 112.9,218.4 113.5,215 106.7,210.9 100.8,211.3 97.6,212.5 94.3,212.6 97.1,211.6 99.8,209.4 102,208.1 109.9,206.3 
		112.7,204.7 115.2,202.2 117.9,198.2 120.1,193.2 124.9,186.2 129.9,173.4 130.7,170.6 131.2,167.7 131.9,165 134.4,159.9 
		137.3,156.3 138.9,153.3 139,152.3 136.4,145.8 133.6,142.3 130.4,140.9 125.4,142.1 107.6,141.5 104.9,141.6 102.3,142.6 
		100.9,142.5 94.8,140.5 91.6,140.6 85.1,143.1 78.1,146.5 74.6,147.5 70.3,147.7 71.9,142.3 77.5,136.3 78.4,134.6 76.9,133.4 
		73.2,132.7 73.7,129.3 74.5,126.9 80.8,121.7 91.4,111.4 97.2,106.9 99.4,103.7 100.1,102 100.4,100.6 100.2,96.1 101.7,91.9 
		102,90.5 101.8,89.4 95.8,88.5 90.2,90.4 84.1,91 78.3,92.6 68.7,93.7 61.6,96.2 59.9,93.1 58.6,93.5 54.5,96.2 53.4,96.3 
		51.9,93.9 50.6,92.8 47.3,92 45.8,92.4 44.6,93.2 43.1,95.8 42.9,97.5 42.8,101.4 42.4,103.3 42.7,105.5 44.1,108.1 44.8,110.1 
		43.3,110.8 37.2,110.7 35.2,111.4 34.7,112.9 35,114.9 34.8,116.7 33,120.8 33.6,122.2 39.9,129.8 40.5,131.1 36.6,129.9 
		35.8,129.9 34.9,131.3 27.3,131.1 25.7,134.3 24.8,136.8 23.4,142.8 23.4,144.1 24.2,146.4 25.3,148 28.1,149.4 25,150.6 23,152 
		21.7,153.7 21.2,155.4 21.9,158.5 25.9,160.9 26.7,163.1 28.7,166.4 27.8,173.4 23.6,181 20.3,183.2 20,184.1 23.8,186.7 
		19.5,190.6 14.9,191.5 12.1,193.9 12,194.5 14.2,195.3 16.8,195.4 17.8,199.9 19.9,202.2 22.5,203.3 26,203.8 28.6,202 38.7,192.1 
		39.6,191.8 38,195.6 36,199.2 35.5,202.5 33.7,204.7 32.4,209.5 30.9,213.4 29.5,218.6 28.9,224.6 27.3,228.8 26.9,241.4 
		27.5,242.2 28.3,242.5 30.3,241.7 30.4,241.9 27.4,246.2 26.1,248.6 25.2,251.2 23.1,260.5 22.7,263 22.7,264.6 23.8,266.1 
		26.2,266.5 27,266.2 27.9,265.2 28.9,263.2 33.8,243.6 34.2,240.6 32.9,234.2 32.9,233 33.1,231.9 33.9,230.7 36.8,227 42.6,221.4 
		45.2,219.5 39.9,225.6 38.6,228.2 37.9,231.6 37.9,235.4 38.4,237.6 38.8,237.5 39.4,235.4 41.2,235.1 41.7,234.6 42.4,232.3 
		45.9,231.3 47.2,230.2 49.3,225.7 50.3,223.8 50.9,223.4 49.7,227.5 49.6,229 54.7,233.4 57.2,234.9 50.7,234.8 50.1,235.3 
		48.8,238.2 48.3,243.1 48.2,247.3 53.1,252.5 54.3,254.8 54.5,257.5 53.2,261.6 51.3,264.8 46.1,275.5 43.4,283.7 41.7,282.5 
		40,283.9 40.1,287.3 41.1,290.4 44.1,295.2 47.7,298.9 48.3,294.7 49.4,292 50.4,290.9 55.3,293.8 59.1,295.4 62.3,293.9 
		65.4,291.5 66.8,290.9 68.2,291.4 69.2,293.2 70.3,294.3 72,293.9 75.4,294.2 77.2,293 78.8,291.1 80.5,289.7 82.4,289.4 
		84.2,288.6 87.3,285.8 90.7,285 101,285.1 102.3,285.5 95.6,287.9 89.8,294.6 86.1,305.2 86.8,310 91.4,318.1 94,321.9 98.5,327 
		100.2,327.1 101.8,325.7 103.6,324.9 107.2,324.5 107.8,326.6 107.4,331.2 106.3,335.3 102.6,338 102.1,341.1 102.4,344.5 
		103.8,345.9 105.6,346.5 103.5,350 101.6,353.8 101.5,357.4 104.2,363.4 105.9,365.3 107.9,366.2 109.4,366.3 110.7,367.3 
		107.3,368.1 105.7,367.5 101.5,361.6 98.5,363.1 100.5,369.7 93.9,365.5 90.9,365.8 87.9,367.2 84.5,367.9 81.1,367.4 79.8,367.6 
		71,371.7 66.4,375.3 64.7,377.2 63.7,379.6 62.4,381.7 58.9,384.4 55.6,387.6 54.4,389.9 54.3,391.7 57.2,391.3 60.5,389 
		63.8,387.3 67.5,386.6 71.3,386.4 70.9,388.8 70.8,391 72.2,393.9 73.1,396.6 72.2,398.8 71.9,401.2 72.8,403.7 74.8,404.4 
		72.8,407.6 71.3,411.5 69.9,414.7 67.9,417 63,420.9 57.9,423.1 48.6,428.2 42.5,430.4 39.7,432.6 37.4,435.9 39.2,436.8 
		40.2,439.3 40.2,442.5 41.4,444.1 47.9,447.9 53.3,445.1 56.7,442.6 58.7,442.1 63,442.5 64.7,444.4 66.2,445.2 71.6,446.3 
		69.2,447.8 67.4,450.5 70.9,450.6 74.3,449.9 75.9,449.2 77.4,449.5 81.1,451.9 87,457.8 94.8,458.9 95.8,458.5 101,454 104,452 
		110.9,450 113.1,448 116.8,444.6 119.9,442.5 115.3,448.7 112.5,452 109.5,455 106.8,458.2 102.1,465.5 99.4,467.5 95.9,468 
		92.4,467.9 85.7,466.4 78.8,466.3 69.6,467.7 68.7,468.3 65.6,475.8 59,478.1 58.3,481.6 57.9,485.3 57.2,487.4 49.1,496.3 
		48.2,498.5 46.3,499 44.9,500.3 43.8,502.3 40.9,505.9 35.1,511.7 28.4,513.9 25.9,516.9 26,519.4 26.9,520.6 29,519.1 32.4,518.1 
		35.7,519.1 38.5,521.9 41.6,521.1 43.7,516.8 44.8,515.6 50.4,511.2 53,509.7 59.5,507.3 63.2,506.6 65.6,506.5 67.9,505.7 
		68.6,505 69.2,505.1 71.2,507 77.1,509.9 80.2,512.5 83.6,512 86.3,508.2 88,503.4 89.2,497.9 91.6,494 103.4,490.1 106.3,489.9 
		109.9,490.6 113.3,492.3 116.6,494.8 119.9,495.5 121,494.1 122.3,493.8 131.5,495.4 132.6,495.1 133.6,494.2 132.3,492.1 
		131.6,489.7 136.4,490.2 141.6,489.3 144.1,489.4 146.6,488.7 151.9,485.3 149.5,481.8 153.4,483.6 157.8,484.2 161.6,485.6 
		165.4,487.5 167.9,487.9 177.7,485.8 184.9,485.6 196.8,488 199.6,487.4 202.9,485.4 206.3,483.8 210.8,482.4 213.3,480.1 
		218.8,480.5 219.3,478.4 221.2,474.9 230.6,469.8 231.6,468.6 232.1,462.6 232.1,460.2 230.8,459.6 227.4,459.6 220.4,460.3 
		216.7,460.3 210.8,459.1 209.6,458.2 208.3,455.3 206.2,454.5 203.2,455.4 205.6,453.7 208.1,452.9 211.1,452.7 214.1,452 
		216.8,450.4 217.8,446.9 217,444.9 212.7,443 218.6,439.3 222.9,440.4 225.4,439.5 228,437.5 227.9,434.9 226.6,432.6 226.7,431.6 
		228,431.5 229.2,432.3 232,430.5 236.2,426.1 237.2,424.5 237.9,422.5 238.8,417 240.4,412.7 241.7,407.9 	"/>
</g>
<g id="Portugal">
	<polygon class="st0" points="283.8,856 282.4,855.1 281.6,854 282.1,850.3 283.6,850.2 286.2,849.1 285.6,846.9 284.2,846 
		283.4,843.5 281.7,843.5 278.8,842.8 276.4,842 274.1,842.5 271.9,843.5 270,844.2 268.6,844.3 267.6,845 267.2,846.2 267.1,847 
		264.7,846.8 259,845.1 253.9,843.8 251,845.2 249.1,846.5 247.7,846.3 246.7,845 246,843.6 244,842.4 239.5,840.6 238.7,840.9 
		236.1,842.5 234.5,843 233.1,843.3 232,843.2 231.4,842.3 231.5,840.8 231.3,839.5 231.1,838.8 231.4,836.9 229.1,833.2 
		227.5,832.4 225,832.3 222.2,831.1 219.2,829.7 212.1,827.3 210.1,827 209.3,827.4 208.8,828.8 208.5,832.8 208.2,833.2 
		204.9,833.3 200.8,832.8 198.9,833.1 197.3,833.1 195.7,832 188.6,833.2 187.4,832.7 185.7,830.9 183.8,829.4 182.4,828.7 
		181.1,827.8 179.9,827.7 178.2,828.5 175.8,828.9 173.8,828.8 172.7,828.9 168.2,824.5 167.6,823.3 165.4,823 162.6,822.9 
		155.6,820 152.3,818.5 151.9,817.6 151.9,816.9 151.4,817 150.4,818.3 149.9,819.4 149.2,819.6 148.2,819.4 147.2,818.8 146.7,818 
		147.3,816.7 148.3,814.9 148.8,813 148.7,811.3 146.9,810.2 144.3,809.7 142.4,809.6 139.9,808.6 138.7,807.9 137.6,806 
		137.5,804.6 136.5,804.9 131.8,807.1 125.8,808 121.7,807.8 113.8,804.4 106,802.7 103.9,803.3 101,806 90.2,802.8 87.1,800.4 
		84.7,800.1 79.8,801.8 76.4,800.9 72.8,802.4 64.1,804.3 58,804.3 41,800.8 34.9,798.7 24.7,797.6 19.4,795 12.6,797.1 8.4,796.7 
		1.1,797.7 0.5,797.6 0.5,873.5 0.8,873.5 3.5,873.5 5.9,874.4 7.8,876 8.5,877.6 8.7,878.7 7.8,879.3 6.5,881.7 3.2,884.8 
		0.5,886.4 0.5,1051 0.6,1051.1 3.4,1055.6 5.6,1052.8 8.6,1052.6 7.4,1053.1 5.4,1055 2.9,1059.3 3.7,1062.7 7.1,1064.1 
		7.4,1065.3 7.2,1066.7 8.3,1070.3 10,1073.6 13.7,1078.9 16.1,1079.1 20.5,1082.5 25.8,1084.8 28,1084.3 30.6,1083 31.1,1080.3 
		32.2,1080 33,1080.9 33.5,1080.8 34.5,1077.2 37.3,1072.2 39.1,1070.4 46,1067.6 53.6,1067.4 58.6,1062.9 60.5,1060.3 62.5,1059.7 
		78.2,1058.3 85.5,1058.9 89.8,1060.1 94.8,1058.3 98,1058.2 105.2,1058.8 108.6,1059.8 112,1058.6 114.2,1056.5 118.3,1055.6 
		122.6,1056 126,1058.7 128.3,1057.6 133.3,1051.4 137.4,1040.9 142,1035.3 151.1,1028.9 162.5,1028.5 165.9,1028.2 167.3,1027.6 
		168.8,1026.3 165.8,1023.3 166.1,1021.2 167.9,1018.2 168.2,1016.9 169.9,1013 171,1007.1 173.8,1005.2 174.6,1000.9 178.7,996.5 
		188.3,990.9 193.8,986.8 195.7,984.5 194.3,982 188.8,979.5 185.9,976.6 183.8,973.1 180.2,959.8 180.3,955.9 187.6,942.4 
		191.1,937.1 194.4,933.6 200.4,925.5 207.2,914.2 208.1,913.9 209.1,914.2 210.8,913.6 214.9,911.4 215.8,910 213,906.9 
		210.6,906.2 213.6,903.5 219.9,896.9 225,895.6 235.5,891.8 250.5,888.2 252.4,886.9 257.2,881.2 277.4,869.5 281.5,865.9 
		284.5,862.6 284.2,857.2 	"/>
</g>
<g id="France">
	<path class="st0" d="M467.1,828.6L467.1,828.6l-0.8,5.8l0.5,1.7l1,1.2l0.5,1.3l0.9,15.5l-0.2,1.2l-3.6,6.2l-0.8,1.8l-0.2,7.6
		l-0.6,2l-1.3,2l-2.3,6.5l-2,2.9l-5.3-3.6l-3.1-1.5l-1.5-1.7l-1-1.2l0.6-1.5l1.4-1.6l0.2-1.2l-3.3-1.4l-1.5-1v-1.7l1.2-2.6l-0.5-2.1
		l-2,0.1l-1.5-0.3l-0.2-1.1l1.1-1.4l1.4-1.9v-2.1l-1.7-0.9l-1.6-1.7l-0.6-2.3l1.2-1.6l2-1l-1.5-2.3h-1l-0.8-0.5l0.6-1.1l1.5-1.6
		l2.1-4.9l3-2.3l5.2-1.5l1.4-0.7l1.3-1.7l1.4-1.1l1.8,0.2l1.6,0.7l1,0.7l0.8-0.7l0.7-2.1l-0.5-1.9l0.2-5.2l0.9-2.9l1.5-0.2l1.4,1.6
		l-0.1,1.4l0.5,3.4L467.1,828.6 M156.5,702.3L156.5,702.3l-1,3.7l-2-3.4l-2.6-3l-0.6-2.7v-0.7l3,2L156.5,702.3 M271.2,489.6
		L271.2,489.6l2.3,1.8l0.7-0.2l1.7-0.5l2.9-1.8l2.5-0.6l1.4,1.4l0.8,0.8l1.5,3.2l0.4,3.3l0.7,2.7l1.2,1.1l4.7,0.4l3.5,1l0.9,0.9
		l1.2,6.1l0.6,0.8l0.9-0.7l0.9-1l1.2-0.2l2,0.4l2.7,0.1l2.8,0.7l3.8,3.4l-0.1,1.1l-0.7,2l-0.3,1.6l0.6,0.6l1,1.6l-0.2,1.9l-1,1.3
		l-0.4,1.1v0.7l0.4,0.6l0.8,0.5l5.6,0.7l5.1-0.7l3.2-1.9l0.5-2l0.9-2.3l1.9-1.9l1.3-0.6l1.2,0.8l-2.1,8l1.5,2l0.2,3l0.5,2.7h1.8
		l2.2,0.5l1.6,1l1.8,1.6l2.6,1.5l1.9,0.5l0.7,1.2l1.5,1.4l2.4,2.9l2.1,2h1l2-0.8l2.9-0.5h2.3l1,1.5l2.3,0.7l0.8,0.5l0.9,1l1.5,0.4
		l1.8-0.4l1.3-1.4l1.8-0.6l1.8,0.2l1,0.8l2,1.1l1.1-0.2l2.2,0.7l2.2,2.2l0.9,2.2l0.2,1.2l1,1.3l3.7,5.8l1.2,0.3l1.3-0.9l0.8-1.2
		l1.2-0.2l2,0.6l1.3,0.7l0.6,2.5l0.4,0.5l0.9-0.5l1.5-0.1l2.4,0.6l3.3-0.7l2.6-1h1.4l2.1,3.1l2.5,1.1l5.5,0.9l5.9,1.4l2.3,1.1
		l1.6,0.5l0.2,3.9l-0.5,0.6l-5.9,7.7l-2.5,2.8l-1.3,3.9l-0.9,6l-1.7,5.7l-2.6,5.4l-1,4l0.7,2.7l-0.4,4.2l-1.6,5.7l-0.3,4.3l1,2.9
		l1.5,0.6l-3.5,2l-0.8,1.7l-1.4,2.3l-2.2,1l-2.3,0.3l-1.8-0.3l-1-0.9v-0.8l-1-0.7h-2.4l-2.5,1.6l-2,2.5l0.6,1.4l1.8,0.4l0.5,0.6v0.7
		l-0.6,0.9l-0.8,1.5l-3.8,4.5l-3.9,4.5l-0.6,1.4l-1.2,1l-4.9,2.4l-0.5,1l-0.3,4l-0.5,3.3l-3.6,3.1l-3.6,3.1l-0.9,1.9l-0.7,2.2
		l-1.1,2.4l-0.2,1.3l1.8,2.1l-0.2,1.7l-0.6,2.5l-1.7,1.7l-1.9,1v2.7l1,0.4l2.3-0.2l3.3-1.9l2.1-2.5l-1.3-2.4l-0.2-0.5l0.3-0.6
		l2.5-2.6l3.1-1.6l4.4-0.3l5.2,0.9l0.5,0.4l-0.2,1.6l0.5,2.3l1,1.6l-1.3,4.6l1,1.5l1.5,1.7l1.1,1.6l1.6,1.5l1.5,2.4l0.5,1.4
		l-2.3,2.4l-4,2.2l-0.5,1.4v1.6l0.5,1.3l2.2,1.7l2.4,3.7l1.5,3.3l3.3,3.2l0.8,0.9l-0.2,0.8l-0.9,1.4l-1.1,4.6l-1.3,0.7l-1.5,0.3
		l-4,3.3l-1.8-0.4h-2.6L384,735l0.2,2.1l1.6,1.9l1,2l0.4,2.1l1.8,1.6l2.6,0.9l1.5,0.1l1,0.6l0.6,0.7l1.1,4.5l-0.7,1.1l-1.4,0.5
		l-0.9,1.9l-1.6,2.8l-0.9,2.2l1,1.9l0.5,1.4l-0.5,1.5l0.7,2.3l2,2.3l5.3,3.2l4.9,2.6l1.5,0.4l6.7-1.7l1.1,0.1l0.8,2l0.4,1.3l-0.8,2
		l-1.8,2.8l-2,2.2l-1.2,1.9l0.2,1.7l0.1,2.2l-1.6,0.7v-0.4l-0.7-0.4l-0.6,0.2l-0.4,0.5l-0.1,0.9l-3.4,1.4l-2.3,1.5l-9.2,8.9
		l-4.3,2.6l-0.9,1.6l-0.9,2.9l-2.5,2.5l-2.2,1.2l-5.5,1.2l-5.5,2.6l-2.5-1.1l-6.4,0.1l-4-3.2l-7.7-2l-2.5-4.7l-3.5-0.3l-2.3,0.1
		l-1.4-0.7l-0.4-1.6v-1.5l-2.4,0.7h-2l-1.1,0.6l-0.9,0.7l-1-0.5l-0.6,0.2v0.9l-2.2,0.2l-2.4-0.5l-6.5-2.5l-1-0.4l-4.4-0.9l-1.8-1
		l-1.5-2.4l-1.1-0.8l-0.7-0.5l-4.1,1.2l-1.4,1.9l-2.2,2.2L285.8,813l-2.8,4.5l-3.2,6.6l-0.2,3.1l1.4,9.8l3.1,5.1l0.4,1.2h-1.7
		l-2.9-0.6l-2.4-0.8l-2.3,0.4l-2.2,1.1l-1.9,0.6l-1.4,0.2l-0.9,0.6l-0.4,1.2l-0.1,0.8l-2.4-0.2L260,845l-5.1-1.2l-3,1.4l-1.9,1.3
		l-1.4-0.2l-1-1.3l-0.7-1.3l-2-1.2l-4.5-1.8l0.2-0.9l0.8-1.2v-0.8l-0.9-1.1l-4.1-1.2l-1.9-0.3l-1.2,0.8l-0.9,1l-2.3-3.8l-1.6-0.8
		l-2.5-0.1l-2.8-1.2l-2.9-1.5l-7.2-2.3l-2-0.3l-0.8,0.4l-0.5,1.4l-0.3,4l-0.3,0.4l-3.3,0.1l-4.1-0.5l-1.9,0.3h-1.6l-1.6-1l-7.1,1.2
		l-1.2-0.6l-1.7-1.8l-1.9-1.5l-1.5-0.7l-1.3-0.8l-1.1-0.1l-1.8,0.8l-2.4,0.3l-2-0.1l-1.1,0.1l-4.5-4.4l-0.7-1.2l-2.2-0.3h-2.8
		l-7-2.8l-3.2-1.5l-0.5-0.9v-0.7l-0.6,0.2l-1,1.3l-0.5,1.1l-0.7,0.2l-1-0.2l-0.9-0.6l-0.6-0.8l0.6-1.3l1.1-1.8l0.4-1.9l-0.1-1.7
		l-1.8-1.1L145,810l-1.9-0.1l-2.5-1l-1.2-0.7l-1.1-1.9v-1.4l4.7-1.2l4.3-5l4-18.4l2.9-22l2.2-4.2l2.7-1.2l-2.2-3l-1.4,1.5l-0.6,1.6
		l-0.7,0.8l1.6-20.4l1.2-7.5l2-7.9l4,3.2l3.4,3.2l1.7,2.8l2.2,9.1l1.7,1.9l2.5,1.9l-1-2.1l-1.7-1.6l-2.6-12.2l-1.7-3.5l-2.6-2.9
		l-8.4-6.2l-0.8-1.2l-0.4-2.4l2.8,0.1l2.4,1.2l-0.3-1.4l-0.7-1.4l-1.1-5l-0.9-11.7l0.1-2l-0.4-2.5l-2.7-0.5l-2.2-0.1l-2.3-1l-11.5-7
		l-3.9-7.2l-4-5.3l-1-2.3l0.1-2.4l2.1-5l-1.8-3.2l-1.8-0.6l-1.6-1.5l1.4-2.6l1.2-1.7l2.4-0.5l3.1,0.6l2.9,1.5l2.3,0.4l-6.8-4.1
		l-11,1.4l-2.4-0.5l-2-0.9l-0.8-3l1.6-1.3l1.4-2.5l-1.6-1.8l-2.1-0.7h-3.3l-3,0.5l-0.8-1l1.9-2.8l-1.6-1l-2.1,0.5l-3.1,0.6l-2.9-0.9
		l-2.8-3.2H97l-1.3,0.4l-1.9-1.2l-2-0.3l-1.4,0.4l-1.9-1.8L77,620l-4.9-0.5l-4.5,1.7l-2.5-0.6l-1.8-2.4l-1.5-4l-7.3-3.1l1.5-2
		l3.4-0.5l3.9-1.4l1.4-1.8l-3.1-2.1l-2.3-0.5l-0.9-0.8l-1-1.9l1.3-0.9l1,0.5l2.7,0.3l4.7-0.5l-1.7-1.9l-1.8-0.4l-0.8-0.5l-3.8-0.2
		l-1.8,0.7l-3.9-0.2l-0.8-2.1l-0.4-1.8l1.2-3.9l5.5-3.5l13.7-3.9l5.9,0.6l4.1-0.7l5-2.4l2.2-2.1l7-1.2l6.7,2.2l6.1,8.4l2.9,2.8
		l7.2-4.9l10.7,0.1l2.2,2.8l0.9-2.3l2-2.7l1.6,1.2l0.8,1.7l11.3-0.5l1.8-0.5l-3-2l-2.5-4.8l-0.5-17.6l-3.1-5l-3.6-7.9l-1.6-4.7
		l-0.2-1.6l0.6-2.4l4.4,0.1l3.4,0.6l6.5-1.8l3.1,1.2L154,542l1,4.7l1.1,2.2l1.6,2.5l5.2-0.2l5.6,1.5l7.1,0.2l10.4,2.6l4.4-1.5
		l4.3-3.2l8.2-2.1l0.6-1.1l-4.7,0.4l-4.3-2l-0.6-2.2l0.5-2l1.8-4.6l12.5-7.2l9-2.1l9.4-4l4.7-4.1l3.1-5.3l1-1.2l1.3-1l-1.2-1.9
		l0.8-20.4l0.9-3.7l1.8-3l2.8-2.3l4.2-2.5l15.4-3.5l2.3-1.4l0.3,2.2l1.1,2.8l0.8,1.5l-0.6,2l0.5,1.7l2.1,3L271.2,489.6"/>
</g>
<g id="Belgique">
	<path class="st0" d="M331.2,457.9L331.2,457.9l0.1,1l0.8,0.4l2.8-0.2l1.4-1.8l1.1-1.1l0.8,0.8l0.4,2.2l0.8,2.8l3.3,3.1l2.8,0.9
		l3.5-0.6l1.4-0.6l0.9,0.5l0.9,1.7l2,1.9l4.2,1.4l1.3,0.8l0.9,1.3l-0.3,1.8l-2,4.5L358,480l0.3,0.5l-0.4,0.8l-2.6,3l-0.2,1.1
		l0.9,1.7l0.7,1.4v-0.3l4-1.3l1.8,2.6l-2.8-0.1l5.7,0.2l0.4,0.8l3.3,2.4l1,1.9l2.4,1.9l-2,2.4l0.3,1l0.7,1.1l2.7,0.6l1.3,1.5
		l0.1,2.4l0.6,3.8l-5.5,3.8l-1.6,4.2l-0.1,0.8l-0.2-0.1l-0.6-1.4h-1l-2.3-0.6l-3.2,3.8l-1.4,3.2l-0.9,2.3l-1.3,1.9l-0.3,2l0.2,0.8
		l-0.4,1.1v1.1l1.8,2.2l0.5,1.2l2.2,3.9l-0.7,1.4l-0.4,2l-0.6,1.1l-0.8,0.7h-2.3l-2.9,0.5l-2,0.8h-1l-2.1-2l-2.4-2.9l-1.5-1.4
		l-0.7-1.2l-1.9-0.5l-2.6-1.5l-1.8-1.6l-1.6-1l-2.2-0.5h-1.8l-0.5-2.7l-0.2-3l-1.5-2l2.1-8l-1.2-0.9l-1.3,0.6l-1.9,1.9l-0.9,2.3
		l-0.5,2l-3.2,1.9l-5.1,0.7l-5.6-0.7l-0.8-0.5l-0.4-0.6v-0.7l0.4-1.1l1-1.3l0.2-1.9l-1-1.6l-0.6-0.6l0.3-1.6l0.7-2l0.1-1.1l-3.8-3.4
		l-2.8-0.7l-2.7-0.1l-2-0.4l-1.2,0.2l-0.9,1l-0.9,0.7l-0.6-0.8l-1.2-6.1l-0.9-0.9l-3.5-1l-4.7-0.4l-1.2-1.1l-0.7-2.7l-0.4-3.3
		l-1.5-3.2l-0.8-0.8l-1.4-1.4l-2.5,0.6l-2.9,1.8l-1.7,0.5l-0.7,0.2l-2.3-1.8l-2.6-2.8l-2.1-3l-0.5-1.7l0.6-2l-0.8-1.5l-1.1-2.8
		l-0.3-2.2l12.7-7.8l7.7-4l3.6-1.2l0.9,4l0.7,1.3l0.9,0.8l1.1,0.2l1.3-1l1.8-1l3,0.5l2.1,1l0.8,1l1.4,1l2.1,0.2l4-1.8l3.9-2.8
		l1.1-1.9l0.4-1.8l2.3,1.2l2,0.3l0.9-0.5l-0.6-2.8l1.6-1.5l1.8-0.7l0.8,1.2l1.7,1.2h1.3l3.5-3.2l0.8,0.6l0.8,1.1L331.2,457.9"/>
</g>
<g id="Pay_Bas">
	<path class="st0" d="M314,460.1L314,460.1l-0.4,1.8l-1.1,2l-3.9,2.8l-4,1.8l-2.1-0.2l-1.4-1l-0.8-1l-2.1-1l-3-0.5l-1.8,1l-1.3,1
		l-1.1-0.2l-0.9-0.8l-0.7-1.3l-0.9-4l2.2-0.7l4.8-0.3l3.7,1.4l4.9,0.7l3.7-1.9l2.9,1.6L314,460.1 M305.9,443.5L305.9,443.5l2.9,2.6
		l0.6,0.8l0.2,0.9l-3.6,1l-3.9-3.1l-2.5,0.7l-1-1.5V444l2.6-0.8L305.9,443.5 M333.2,380L333.2,380l-2.9,3.4l-1.8-1l-0.5-0.8l0.9-2.7
		l4.3-4.5V380 M339.7,368.4L339.7,368.4l-5.4,3.5l-0.5-0.6l3.5-3.1L339.7,368.4 M314,460.1L314,460.1l-2.5-0.7l-3.9-2l-5.4,1.5
		l-3.8-1.9l-3.1-0.1l-1.9-1.5l-2.1-2.6l1.5-1.7l1.4-0.6l5.7-0.3l4.1,1l7.4,5.5h1.9l2-0.7l-1-1.5l-1.9-0.7l-2.8-1.5l-2.2-2.1l5.2-0.7
		l-0.7-1.1l-0.7-1.9l-5.5-6.5l0.9-1.8l1.4-3.8l1.7-3.1l1.4-0.8l2.2-2.2l4.9-6.5l3.1-5.4l2.3-6.4l3.4-17.6l1-3l1.6-3.3l2,0.6l1.4,1
		l5-2.5l8.7-6.6l2.5-5.7l2.5-2.7l10-5.2l5.5-1.6l8.5-0.4l6.1-0.9l7.4-0.3l2.8,3.2l1.6,2.4l2.6,1.3l4.1,0.9l-0.2,4.6v9.1l-0.3,1.6
		l-1.8,3.8l-1.9,6.9l-0.5,4.5L395,401h-7.7l-1.1,0.8l-0.2,1l0.4,1.2l-0.2,1.1l-0.6,0.9l0.3,1.5l1.3,1.7l2.4,1l2.6,0.1l1.3-0.2l1,1.2
		l1,1.9l-0.1,2.3l-0.4,3.1l-1.2,2.9l-3.6,3.3l-1.6,1.2l-1.5,0.6l-0.7,0.9l-0.3,1.1l0.1,1l2.5,2.6l-0.1,0.6l-0.7,1.4l-1,1.3l-6.5,2.7
		l-2.7-0.2l-1.5,1.3l-0.5,0.2l-1.7-1.2l-3.8-1.4l-1.4,0.5l-0.8,0.8l-2.4,0.9l-1.7,1.5v1.9l3,4.9l1.1,1v1.8l1.5,2.3l1.5,2.9l0.2,1.8
		L371,459l-0.8,2.6l-2.6,6.1v1.2l0.2,0.9l0.9,0.2l0.7,0.5l-0.2,0.8l-4.9,4.2l-0.6,0.7l-2-0.4l-0.3,0.7l0.3,1.1l0.8,1l1.8,0.5
		l1.5,1.1l1.2,2.1l-1.6,7.1l-5.7-0.2l-1.5-0.2l-1.6-0.7L356,487l-0.9-1.7l0.2-1.1l2.6-3l0.4-0.8l-0.3-0.5l0.3-1.3l2-4.5l0.3-1.8
		l-0.9-1.3l-1.3-0.8l-4.2-1.4l-2-1.9l-0.9-1.7l-0.9-0.5l-1.4,0.6l-3.5,0.6l-2.8-0.9l-3.3-3.1l-0.8-2.8l-0.4-2.2l-0.8-0.8l-1.1,1.1
		l-1.4,1.8l-2.8,0.2l-0.8-0.4l-0.1-1L331,457l-0.8-1.1l-0.8-0.6l-3.5,3.2h-1.3l-1.7-1.2l-0.8-1.2l-1.8,0.7l-1.6,1.5l0.6,2.8
		l-0.9,0.5l-2-0.3L314,460.1 M346.1,364.6L346.1,364.6l-2.7,0.4l-1.2-0.7l6.6-1.9l4.1-0.6l0.7,0.3L346.1,364.6 M363.6,361L363.6,361
		l-5.8,0.8l-1.9-0.6l-0.3-0.6l1.6-0.3l4.9-0.1l1.5,0.5L363.6,361 M375.5,358.5L375.5,358.5l-4.1,1.7l-1-0.4l0.2-0.5l3.6-1
		L375.5,358.5 M387.2,355L387.2,355l-2.7,0.2l0.8-1.3l2.5-1h1.4L387.2,355"/>
</g>
<g id="Cercle_1">
	<circle class="st1" cx="150.5" cy="459" r="29.5"/>
</g>
<g id="Cercle_2">
	<circle class="st1" cx="307.5" cy="758" r="29.5"/>
</g>
<g id="Cercle_3">
	<circle class="st1" cx="495.5" cy="521" r="29.5"/>
</g>
<g id="Cercle_4">
	<circle class="st1" cx="529.5" cy="669" r="29.5"/>
</g>
<g id="Cercle_5">
	<circle class="st1" cx="572.5" cy="873" r="29.5"/>
</g>
</svg>
